/* XPM */
static char *result[] = {
/* columns rows colors chars-per-pixel */
"32 32 223 2 ",
"   c #110704",
".  c #110804",
"X  c #120804",
"o  c #1C0D03",
"O  c #180B05",
"+  c #190B05",
"@  c #190C04",
"#  c #120B08",
"$  c #1F0F09",
"%  c gray7",
"&  c #131212",
"*  c #1C1611",
"=  c #250F06",
"-  c #271307",
";  c #291407",
":  c #251008",
">  c #291208",
",  c #2A1308",
"<  c #2D1509",
"1  c #2F1408",
"2  c #2B1B09",
"3  c #37170B",
"4  c #33180B",
"5  c #35190B",
"6  c #37180B",
"7  c #331F0A",
"8  c #391A08",
"9  c #3A1C09",
"0  c #36260D",
"q  c #3B210C",
"w  c #3D290B",
"e  c #4F2801",
"r  c #43200F",
"t  c #492D0F",
"y  c #542903",
"u  c #5F2E06",
"i  c #4A2E10",
"p  c #542712",
"a  c #563613",
"s  c #623000",
"d  c #643104",
"f  c #673304",
"g  c #613704",
"h  c #683306",
"j  c #6B3404",
"k  c #6B3407",
"l  c #6A3507",
"z  c #6D3404",
"x  c #6C3505",
"c  c #6D3505",
"v  c #6E3504",
"b  c #6E3505",
"n  c #6C3D05",
"m  c #6F3F06",
"M  c #67370D",
"N  c #64370F",
"B  c #6A3A0F",
"V  c #713607",
"C  c #703806",
"Z  c #703F06",
"A  c #753809",
"S  c #76390A",
"D  c #77390B",
"F  c #7A3B0A",
"G  c #783A0D",
"H  c #7F3D0F",
"J  c #672E17",
"K  c #6B3B10",
"L  c #6D3A10",
"P  c #753514",
"I  c #783718",
"U  c #78351A",
"Y  c #7A371A",
"T  c #7E381B",
"R  c #7F381B",
"E  c #753921",
"W  c #773D26",
"Q  c #764E19",
"!  c #7F472E",
"~  c #2D454F",
"^  c #2D464E",
"/  c #2F4A52",
"(  c #294857",
")  c #274858",
"_  c #264859",
"`  c #284858",
"'  c #284D5C",
"]  c #3A4A53",
"[  c #3C4A53",
"{  c #3A4B54",
"}  c #325057",
"|  c #315158",
" . c #396F74",
".. c #3C7678",
"X. c #424545",
"o. c #42484A",
"O. c #495153",
"+. c #635953",
"@. c #4D6F6B",
"#. c #59786F",
"$. c #5A786F",
"%. c #4A7775",
"&. c #7B6D67",
"*. c #7D6D68",
"=. c #843B1D",
"-. c #893D1A",
";. c #8B3F1A",
":. c #8A3E1C",
">. c #8B3F1E",
",. c #8D3E1C",
"<. c #8A4E11",
"1. c #8B411F",
"2. c #854D1B",
"3. c #91401D",
"4. c #91401E",
"5. c #94421E",
"6. c #99441D",
"7. c #A44A1B",
"8. c #A74C1D",
"9. c #A94C1E",
"0. c #894529",
"q. c #8E492A",
"w. c #924120",
"e. c #974524",
"r. c #9B4623",
"t. c #9C4723",
"y. c #9D4723",
"u. c #844B34",
"i. c #9D5831",
"p. c #A04823",
"a. c #A54C25",
"s. c #A64C25",
"d. c #A74D25",
"f. c #A54E25",
"g. c #A74D26",
"h. c #AB4B23",
"j. c #AA4C20",
"k. c #A84D22",
"l. c #AE4C23",
"z. c #B04F21",
"x. c #B14E24",
"c. c #B24F24",
"v. c #B54F24",
"b. c #A35229",
"n. c #AB5128",
"m. c #AA5229",
"M. c #AB5229",
"N. c #A85428",
"B. c #B45024",
"V. c #B75324",
"C. c #B75326",
"Z. c #B45624",
"A. c #BF5326",
"S. c #BF5D27",
"D. c #B75429",
"F. c #B3572F",
"G. c #BA5A2F",
"H. c #A25832",
"J. c #B35C3A",
"K. c #C15D2B",
"L. c #C25E2C",
"P. c #C55F2C",
"I. c #C85F2A",
"U. c #CB6226",
"Y. c #D6672B",
"T. c #D7612C",
"R. c #D1642F",
"E. c #D9672D",
"W. c #D8642E",
"Q. c #DB692F",
"!. c #D36730",
"~. c #D26737",
"^. c #D86731",
"/. c #D56A36",
"(. c #D96831",
"). c #D96F3A",
"_. c #E16A31",
"`. c #E26C33",
"'. c #E46C32",
"]. c #E66F32",
"[. c #E56E34",
"{. c #EB7135",
"}. c #EC7235",
"|. c #EF7235",
" X c #EE7236",
".X c #EE7336",
"XX c #F07336",
"oX c #F07436",
"OX c #F17437",
"+X c #F47536",
"@X c #F47537",
"#X c #F77738",
"$X c #F7783A",
"%X c #F87838",
"&X c #F97838",
"*X c #F97938",
"=X c #9B7D6A",
"-X c #D77244",
";X c #E27543",
":X c #E07C4C",
">X c #70827B",
",X c #B68B26",
"<X c #B78B26",
"1X c #B18A28",
"2X c #BA8C2A",
"3X c #B9902D",
"4X c #C1902B",
"5X c #CB9B2A",
"6X c #C39A31",
"7X c #C79C32",
"8X c #D0A337",
"9X c #DAAC36",
"0X c #DCAD37",
"qX c #DBAF3B",
"wX c #E18051",
"eX c #E8C35D",
"rX c #ECC964",
"tX c #EDCA64",
"yX c #EECC6A",
"uX c #EFCD6A",
"iX c #DCB9BF",
"pX c #CFBCC6",
"aX c None",
/* pixels */
"aXaXaXaXaXaXaXaXaXaXaXaXaXaXaXaXaXaXaXaXaXaXaXaXaXaXaXaXaXaXaXaX",
"aXaXaXaXaXaXaXaXaXaXaXaXaXaXaXaXaXaXaXaXaXaXaXaXaXaXaXaXaXaXaXaX",
"aXaXaXaXaXaXaXaXaXaXaXaXaXaXaXaXaXaXaXaXaXaXaXaXaXaXaXaXaXaXaXaX",
"aXaXaXaXaXaXaXaXaXaXaXaXaXaXaXaXaXaXaXaXaXaXaXaXaXaXaXaXaXaXaXaX",
"aXaXaXaXaXaXaXaXaXaXaXaXaXaXaXw.r.aXaXaXaXaXaXaXaXaXaXaXaXaXaXaX",
"aXaXaXaXaXaXaXaXaXaXaXaXaXaXaXr.^.y.aXaXaXaXaXaXaXaXaXaXaXaXaXaX",
"aXaXaXaXaXaXaXaXaXaXaXaXaXaXaXd.`.y.aXaXaXaXaXaXaXaXaXaXaXaXaXaX",
"aXaXaXaXaXaXaXaXaXaXaXaXaXaXt.[.{.y.aXaXaXaXaXaXaXaXaXaXaXaXaXaX",
"aXaXaXaXaXaXaXaXaXaXaXaXC aXp..X Xp.aXC aXaXaXaXaXaXaXaXaXaXaXaX",
"aXaXaXaXaXaXaXaXaXaXaXl S.4 C.@X@XC.4 S.l aXaXaXaXaXaXaXaXaXaXaX",
"aXaXaXaXaXaXaXaXc aXaX; L.r (.&X&X(.r L.; aXaXc aXaXaXaXaXaXaXaX",
"aXaXaXaXaXaXaXx 7.c aX- R.a.}.&X&X}.a.R.- aXc 7.x aXaXaXaXaXaXaX",
"aXaXaXaXaXaXaXk ;.f aXh Q.XX#X%X%X#XXXQ.h aXf ;.k aXaXaXaXaXaXaX",
"aXaXaXaXaXaXV -.:.d aXk k.oX*X%X%X*XoXk.k aXd :.-.V aXaXaXaXaXaX",
"aXaXaXaXaXS b.q.>.u o 1.;X$X+X%X%X+X$X;X1.o u >.q.b.S aXaXaXaXaX",
"aXaXaXaXS i.#.@.! Y = J.iXwXW.|.|.W.wXiXJ.= Y ! @.#.i.S aXaXaXaX",
"aXaXaXz N.$...} X.E , -XpX>X).T.T.).>XpX-X, E X.} ..$.N.z aXaXaX",
"aXaXaXA H.%.| a L I 5 !.:X+.G.'.'.G.+.:X!.5 I L a | %.H.A aXaXaX",
"aXaXv f.O. ./ B U.D P G ]./.g.s.s.g./.].G P D U.B /  .O.f.v aXaX",
"aXaXv M.{ ' ^ K Y.F y 9 K.D._.}.}._.D.K.9 y F Y.K ^ ' { M.v aXaX",
"aXaXv M.] _ ~ N z.j.8 5.p P.~.OXOX~.P.p 5.8 j.z.N ~ _ ] M.v aXaX",
"aXaXv M.] ) ( aX1 6.H E.9.2.=XF.F.=X2.9.E.H 6.1 aX( ) ] M.v aXaX",
"aXaXv m.[ aX` aXaX< I.V.<.2XQ 7 7 Q 2X<.V.I.< aXaX` aX[ m.v aXaX",
"aXaXb n.o.aXaXaXaX> 4.q 3XeX8X6X6X8XeX3Xq 4.> aXaXaXaXo.n.b aXaX",
"aXaXc 8.M aXaXaXO ,.3 2 7XtXuXuXuXuXtX7X2 6 3.+ aXaXaXM 8.c aXaX",
"aXaXaXj s aXaXaXX T l.Z.4XqXrXyXyXrXqX4XZ.v.h.O aXaXaXs j aXaXaX",
"aXaXaXaXaXaXaXaXaX: x.B.i 1X9X0X0X9X1Xt c.A.R X aXaXaXaXaXaXaXaX",
"aXaXaXaXaXaXaXaXaX. U =.J w <X5X5X,X0 W e.0.$ aXaXaXaXaXaXaXaXaX",
"aXaXaXaXaXaXaXaXaXaX.   @ e n m Z g * *.u.&.% aXaXaXaXaXaXaXaXaX",
"aXaXaXaXaXaXaXaXaXaXaXaXaXaXaXaXaXaXaX& # & aXaXaXaXaXaXaXaXaXaX",
"aXaXaXaXaXaXaXaXaXaXaXaXaXaXaXaXaXaXaXaXaXaXaXaXaXaXaXaXaXaXaXaX",
"aXaXaXaXaXaXaXaXaXaXaXaXaXaXaXaXaXaXaXaXaXaXaXaXaXaXaXaXaXaXaXaX"
};
