/* XPM */
static char *result[] = {
/* columns rows colors chars-per-pixel */
"32 32 160 2 ",
"   c #020100",
".  c #0D0601",
"X  c #140905",
"o  c #1C0D06",
"O  c #141312",
"+  c #200E04",
"@  c #261206",
"#  c #2E1606",
"$  c #25140C",
"%  c #2B1409",
"&  c #2F1D08",
"*  c #221A07",
"=  c #311609",
"-  c #35190B",
";  c #3C1C0C",
":  c #281B15",
">  c #2B220C",
",  c #37230C",
"<  c #421E0E",
"1  c #4A2500",
"2  c #44200E",
"3  c #4C210F",
"4  c #542A01",
"5  c #582C01",
"6  c #563A01",
"7  c #4F3111",
"8  c #50371A",
"9  c #583819",
"0  c #662E04",
"q  c #633202",
"w  c #6C3505",
"e  c #6C3409",
"r  c #723907",
"t  c #713608",
"y  c #7C3B0C",
"u  c #723D0C",
"i  c #793715",
"p  c #7B3819",
"a  c #78361B",
"s  c #6F4C06",
"d  c #614405",
"f  c #704E06",
"g  c #784709",
"h  c #724A08",
"j  c #794E0A",
"k  c #6F500D",
"l  c #79560A",
"z  c #6C4B11",
"x  c #715410",
"c  c #7A5A10",
"v  c #2F454D",
"b  c #2E4650",
"n  c #284857",
"m  c #284959",
"M  c #394A53",
"N  c #3D5057",
"B  c #3B5058",
"V  c #2D5461",
"C  c #3A7578",
"Z  c #3C7477",
"A  c #4A4947",
"S  c #444A4F",
"D  c #584D4A",
"F  c #5D514C",
"G  c #424C51",
"H  c #5B5F63",
"J  c #5A746C",
"K  c #4D7774",
"L  c #617D71",
"P  c #B6151C",
"I  c #813E0D",
"U  c #C51F1F",
"Y  c #C6241E",
"T  c #CB311D",
"R  c #C00F20",
"E  c #C01020",
"W  c #82400C",
"Q  c #89420F",
"!  c #8A401E",
"~  c #92401F",
"^  c #99441E",
"/  c #9B4C1F",
"(  c #A1471F",
")  c #AB4D1D",
"_  c #9B761E",
"`  c #884629",
"'  c #954C2E",
"]  c #975223",
"[  c #A14721",
"{  c #A44A21",
"}  c #AC4D23",
"|  c #A24D28",
" . c #B34F24",
".. c #AC5524",
"X. c #A4512E",
"o. c #AE552E",
"O. c #B45122",
"+. c #BB5324",
"@. c #B75927",
"#. c #BF5B27",
"$. c #B25629",
"%. c #B9562C",
"&. c #AC5F31",
"*. c #A95531",
"=. c #A77B21",
"-. c #AA7D21",
";. c #B66136",
":. c #B8663C",
">. c #E37916",
",. c #C25726",
"<. c #C45728",
"1. c #C45E2B",
"2. c #CB5B29",
"3. c #C15B27",
"4. c #CC622C",
"5. c #CD692A",
"6. c #D3652E",
"7. c #DB6A2E",
"8. c #DD652E",
"9. c #CF6530",
"0. c #CA6837",
"q. c #D76730",
"w. c #DB6931",
"e. c #D2693E",
"r. c #D9783B",
"t. c #E46E31",
"y. c #E86D32",
"u. c #EB7134",
"i. c #E3733B",
"p. c #EC793D",
"a. c #F37536",
"s. c #F57D38",
"d. c #F97838",
"f. c #BB6E41",
"g. c #89776B",
"h. c #CD714B",
"j. c #D57F58",
"k. c #6D8679",
"l. c #B38826",
"z. c #E88715",
"x. c #E88815",
"c. c #ED9613",
"v. c #C88D2A",
"b. c #C08B26",
"n. c #C9942A",
"m. c #CD992D",
"M. c #C09036",
"N. c #AA8F46",
"B. c #EF9654",
"V. c #D1A440",
"C. c #CBAA53",
"Z. c #E4AF5C",
"A. c #E1B85E",
"S. c #DEB460",
"D. c #EDBC65",
"F. c #B79589",
"G. c #C9BBC7",
"H. c #D0B9C7",
"J. c #C4BED4",
"K. c None",
/* pixels */
"K.K.K.K.K.K.K.K.K.K.K.K.K.K.K.K.K.K.K.K.K.K.K.K.K.K.K.K.K.K.K.K.",
"K.K.K.K.K.K.K.K.K.K.K.K.K.K.K.K.K.K.K.K.K.K.K.K.K.K.K.K.K.K.K.K.",
"K.K.K.K.K.K.K.K.K.K.K.K.K.K.K.K.K.K.K.K.K.K.K.K.K.K.K.K.K.K.K.K.",
"K.K.K.K.K.K.K.K.K.K.K.K.K.K.K.K.K.K.K.K.K.K.K.K.K.K.K.K.K.K.K.K.",
"K.K.K.K.K.K.K.K.K.K.K.K.K.K.K.K.K.K.K.K.K.K.K.K.K.K.K.K.K.K.K.K.",
"K.K.K.K.K.K.K.K.K.K.K.K.K.K.K.K.K.K.K.K.K.K.K.K.K.K.K.K.K.K.K.K.",
"K.K.K.K.K.K.K.K.K.K.K.K.K.K.K.K.K.K.K.K.K.K.K.K.K.K.K.K.K.K.K.K.",
"K.K.K.K.K.K.K.K.K.K.K.K.K.K.K.K.K.K.K.K.K.K.K.K.K.K.K.E K.K.K.K.",
"K.K.K.K.K.K.K.K.K.K.K.K.r r r r 5 K.K.K.K.K.K.K.K.E E K.K.K.K.K.",
"K.K.K.K.K.K.K.K.K.r r W w.t.6.@.@ K.K.K.K.K.K.K.E E K.K.K.K.K.K.",
"K.K.K.K.K.K.K.r y 7.u.t.w.} - @ K.K.K.K.K.K.K.K.E E Y K.K.K.K.K.",
"K.K.K.K.K.K.W 7.u.a.t.} - X K.1 4 4 4 K.K.K.K.K.R U >.T K.K.K.K.",
"K.K.K.r r y 7.d.a.6.I < a @   . $ % @ o K.K.K.K.E E T x.Y K.K.K.",
"K.K.r 7.t.2.a.d.a.i.t.q.q.$.X X ..4.q.4.=   K.K.E E T c.Y K.K.K.",
"K.K.w t.a.a.u.i.h.F.0.,.< % K.K.# e 2.i.1.& K.K.K.Y c.c.Y K.K.K.",
"K.K.@ q.8.u.X.H J.H.e.y. .a X K.1 # ' F ;.1.; K.K.Y x.T E K.K.K.",
"K.K.o } a.B.r.k.G.j.p.a.2.} + 4 4 + | N K :.1.+ K.K.Y P K.K.K.K.",
"K.K.K.: g.l.m.V.B.D.Z.4.2. .o 1 1 = ' N C L 0.- K.K.K.0 q K.K.K.",
"K.K.K.K.O $ x C.A.S.&.<.<.( % o = ` S n V K :.4.o K.K.q q K.K.K.",
"K.K.K.K.K.K.K.> z ] ,.2.+.3 [ | ' G n n m C L e.@ K.y ) w K.K.K.",
"K.K.K.K.K.K.K.K.K.h v.1.2. .%.D M b m m n V K f.; 4 ) +.w K.K.K.",
"K.K.K.K.K.K.K.K.K.c l.$.7.( O.*.A 8 v K.n K.V J ;.# w  .w K.K.K.",
"K.K.K.K.K.K.K.K.k N.9 7.t.I I O.{ e K.K.K.K.K.G 0.@ q O.t K.K.K.",
"K.K.K.K.K.K.K.K.6 , 4.q.+.,.6.Q y i t K.K.K.K.$ 1.# ) O.w K.K.K.",
"K.K.K.K.K.K.K.K.6 , $.2 ; } %.1.^ < ) ^ t w q - ..% ..g K.K.K.K.",
"K.K.K.K.K.K.K.K.s _ 7 [ 2.I ; % - i ,.,.+.+.+.( ; > -.s K.K.K.K.",
"K.K.K.K.K.K.K.K.K.l =./ ,.7.4. .( u v.5.4.4.4.4...-.l K.K.K.K.K.",
"K.K.K.K.K.K.K.K.K.K.s w e ! X.2.I & l.n.n.n.n.b.j s K.K.K.K.K.K.",
"K.K.K.K.K.K.K.K.K.K.K.K.4 : g.*.[ $ d h s s f s K.K.K.K.K.K.K.K.",
"K.K.K.K.K.K.K.K.K.K.K.K.K.K.O o o K.K.K.K.K.K.K.K.K.K.K.K.K.K.K.",
"K.K.K.K.K.K.K.K.K.K.K.K.K.K.K.K.K.K.K.K.K.K.K.K.K.K.K.K.K.K.K.K.",
"K.K.K.K.K.K.K.K.K.K.K.K.K.K.K.K.K.K.K.K.K.K.K.K.K.K.K.K.K.K.K.K."
};
