/* XPM */
static char *result[] = {
/* columns rows colors chars-per-pixel */
"32 32 160 2 ",
"   c #050300",
".  c #0C0601",
"X  c #140A04",
"o  c #1C0D05",
"O  c #141312",
"+  c #251206",
"@  c #25140C",
"#  c #2B1409",
"$  c #2F1D08",
"%  c #281806",
"&  c #311609",
"*  c #35190B",
"=  c #3C1C0C",
"-  c #281B15",
";  c #2B220C",
":  c #3F2000",
">  c #37230C",
",  c #421E0E",
"<  c #442200",
"1  c #4C2600",
"2  c #44200E",
"3  c #4C210F",
"4  c #562A02",
"5  c #582C01",
"6  c #563A01",
"7  c #4F3111",
"8  c #50371A",
"9  c #583819",
"0  c #662E04",
"q  c #633202",
"w  c #6C3505",
"e  c #6B3409",
"r  c #723907",
"t  c #713608",
"y  c #7C3B0C",
"u  c #723D0C",
"i  c #793715",
"p  c #7B3819",
"a  c #78361B",
"s  c #6F4C06",
"d  c #614405",
"f  c #704E06",
"g  c #784709",
"h  c #724A08",
"j  c #794E0A",
"k  c #6F500D",
"l  c #79560A",
"z  c #6C4B11",
"x  c #715410",
"c  c #7A5A10",
"v  c #2F454D",
"b  c #2E4650",
"n  c #284857",
"m  c #284959",
"M  c #394A53",
"N  c #3D5057",
"B  c #3B5058",
"V  c #2D5461",
"C  c #3A7578",
"Z  c #3C7477",
"A  c #4A4947",
"S  c #444A4F",
"D  c #584D4A",
"F  c #5D514C",
"G  c #424C51",
"H  c #5B5F63",
"J  c #5A746C",
"K  c #4D7774",
"L  c #617D71",
"P  c #B6151C",
"I  c #813E0D",
"U  c #C51F1F",
"Y  c #C6241E",
"T  c #CB311D",
"R  c #C00F20",
"E  c #C01020",
"W  c #82400C",
"Q  c #89420F",
"!  c #8A401E",
"~  c #92401F",
"^  c #99441E",
"/  c #9B4C1F",
"(  c #A1471F",
")  c #AB4D1D",
"_  c #9B761E",
"`  c #884629",
"'  c #954C2E",
"]  c #975223",
"[  c #A14721",
"{  c #A44A21",
"}  c #AC4D23",
"|  c #A24D28",
" . c #B34F24",
".. c #AC5524",
"X. c #A4512E",
"o. c #AE552E",
"O. c #B45123",
"+. c #BB5324",
"@. c #B75927",
"#. c #BF5B27",
"$. c #B25629",
"%. c #B9562C",
"&. c #AC5F31",
"*. c #A95531",
"=. c #A77B21",
"-. c #AA7D21",
";. c #B66136",
":. c #B8663C",
">. c #E37916",
",. c #C25726",
"<. c #C45728",
"1. c #C45E2B",
"2. c #CB5B29",
"3. c #C15B27",
"4. c #CC622C",
"5. c #CD692A",
"6. c #D3652E",
"7. c #DB6A2E",
"8. c #DD652E",
"9. c #CF6530",
"0. c #CA6837",
"q. c #D76730",
"w. c #DB6931",
"e. c #D2693E",
"r. c #D9783B",
"t. c #E46E31",
"y. c #E86D32",
"u. c #EB7134",
"i. c #E3733B",
"p. c #EC793D",
"a. c #F37536",
"s. c #F57D38",
"d. c #F97838",
"f. c #BB6E41",
"g. c #89776B",
"h. c #CD714B",
"j. c #D57F58",
"k. c #6D8679",
"l. c #B38826",
"z. c #E88715",
"x. c #E88815",
"c. c #ED9613",
"v. c #C88D2A",
"b. c #C08B26",
"n. c #C9942A",
"m. c #CD992D",
"M. c #C09036",
"N. c #AA8F46",
"B. c #EF9654",
"V. c #D1A440",
"C. c #CBAA53",
"Z. c #E4AF5C",
"A. c #E1B85E",
"S. c #DEB460",
"D. c #EDBC65",
"F. c #B79589",
"G. c #C9BBC7",
"H. c #D0B9C7",
"J. c #C4BED4",
"K. c None",
/* pixels */
"K.K.K.K.K.K.K.K.K.K.K.K.K.K.K.K.K.K.K.K.K.K.K.K.K.K.K.K.K.K.K.K.",
"K.K.K.K.K.K.K.K.K.K.K.K.K.K.K.K.K.K.K.K.K.K.K.K.K.K.K.K.K.K.K.K.",
"K.K.K.K.K.K.K.K.K.K.K.K.K.K.K.K.K.K.K.K.K.K.K.K.K.K.K.K.K.K.K.K.",
"K.K.K.K.K.K.K.K.K.K.K.K.K.K.K.K.K.K.K.K.K.K.K.K.K.K.K.K.K.K.K.K.",
"K.K.K.K.K.K.K.K.K.K.K.K.K.K.K.K.K.K.K.K.K.K.K.K.K.K.K.K.K.K.K.K.",
"K.K.K.K.K.K.K.K.K.K.K.K.K.K.K.K.K.K.K.K.K.K.K.K.K.K.K.K.K.K.K.K.",
"K.K.K.K.K.K.K.K.K.K.K.K.K.K.K.K.K.K.K.K.K.K.K.K.K.K.K.K.K.K.K.K.",
"K.K.K.K.E K.K.K.K.K.K.K.K.K.K.K.K.K.K.K.K.K.K.K.K.K.K.K.K.K.K.K.",
"K.K.K.K.K.E E K.K.K.K.K.K.K.K.5 r r r r K.K.K.K.K.K.K.K.K.K.K.K.",
"K.K.K.K.K.K.E R K.K.K.K.K.K.K.# @.4.t.7.W r r K.K.K.K.K.K.K.K.K.",
"K.K.K.K.K.Y E E K.K.K.K.K.K.K.K.+ * } w.t.u.7.I r K.K.K.K.K.K.K.",
"K.K.K.K.T >.Y R K.K.K.K.K.<   . < K.X * } t.a.y.7.W K.K.K.K.K.K.",
"K.K.K.Y x.T E E K.K.K.K.o @ o o .   @ a , I 2.d.d.7.y r r K.K.K.",
"K.K.K.Y c.T E E K.K.  * 4.q.4...X X $.4.q.t.p.a.d.a.2.t.7.r K.K.",
"K.K.K.Y c.c.Y K.K.K.* 1.i.<.e + K.K.# , 3.0.F.h.i.u.a.a.y.e K.K.",
"K.K.K.E T z.Y K.K.* 1.;.F | o . K.X p O.y.e.H.J.H X.u.8.6.+ K.K.",
"K.K.K.K.P Y K.K.X 4.:.J N | o < X X } 2.a.p.B.G.L h.B.u.) X K.K.",
"K.K.K.q 0 K.K.K.* 0.L C B ' & 1 < o  .2.4.Z.D.B.V.m.M.g.- K.K.K.",
"K.K.K.q w K.K.o 4.:.K V n S ` & o # [ <.<.&.S.D.C.x % O K.K.K.K.",
"K.K.K.w ) y K.o 0.L Z m n n G ' | [ 3 +.<.@.] z $ K.K.K.K.K.K.K.",
"K.K.K.w +.) 4 * f.K V m m n b M D %.O.2.1.v.h K.K.K.K.K.K.K.K.K.",
"K.K.K.w  .e # ;.J V K.m K.v 8 A *. .( 8.$.l.c K.K.K.K.K.K.K.K.K.",
"K.K.K.w  .w + 0.G K.K.K.K.K.w {  .I I y.7.9 N.k K.K.K.K.K.K.K.K.",
"K.K.K.w O.{ $ #.- K.K.K.K.t i y Q 6.,.+.q.4.> 6 K.K.K.K.K.K.K.K.",
"K.K.K.K.g ..& ..* q w t ^ ( , ^ 1.+.} , 2 $.= 6 K.K.K.K.K.K.K.K.",
"K.K.K.K.f -.> * ( +.+.+.,.3.p * # = y 2.{ 7 _ f K.K.K.K.K.K.K.K.",
"K.K.K.K.K.l -...4.4.4.4.5.v.r ( O.q.7.3./ =.l K.K.K.K.K.K.K.K.K.",
"K.K.K.K.K.K.s j b.n.n.n.n.l.> ~ <.X.! w q s K.K.K.K.K.K.K.K.K.K.",
"K.K.K.K.K.K.K.K.s s s s f d + ^ *.g.- 4 K.K.K.K.K.K.K.K.K.K.K.K.",
"K.K.K.K.K.K.K.K.K.K.K.K.K.K.K.X X O K.K.K.K.K.K.K.K.K.K.K.K.K.K.",
"K.K.K.K.K.K.K.K.K.K.K.K.K.K.K.K.K.K.K.K.K.K.K.K.K.K.K.K.K.K.K.K.",
"K.K.K.K.K.K.K.K.K.K.K.K.K.K.K.K.K.K.K.K.K.K.K.K.K.K.K.K.K.K.K.K."
};
