/* XPM */
static char *result[] = {
/* columns rows colors chars-per-pixel */
"32 32 109 2 ",
"   c #030101",
".  c #0B0600",
"X  c #100704",
"o  c #160A04",
"O  c #1C0D06",
"+  c #1A1406",
"@  c #200F05",
"#  c #231006",
"$  c #2C1309",
"%  c #2E1D0A",
"&  c #32170B",
"*  c #39140D",
"=  c #33180A",
"-  c #3C1B0C",
";  c #31210F",
":  c #472303",
">  c #46220F",
",  c #562B01",
"<  c #5E2F00",
"1  c #502411",
"2  c #612F04",
"3  c #622E08",
"4  c #6F290A",
"5  c #653104",
"6  c #6C3405",
"7  c #6E3509",
"8  c #713806",
"9  c #723608",
"0  c #763909",
"q  c #7B3B0B",
"w  c #75341A",
"e  c #7C371B",
"r  c #7E391A",
"t  c #754313",
"y  c #AB151D",
"u  c #803E0D",
"i  c #843B1B",
"p  c #8C3C1C",
"a  c #90381D",
"s  c #A32019",
"d  c #BD2B1E",
"f  c #BE361A",
"g  c #BB1B20",
"h  c #993B20",
"j  c #A43C22",
"k  c #C51F1F",
"l  c #C1261F",
"z  c #C92F1D",
"x  c #CB301D",
"c  c #C11220",
"v  c #C11C21",
"b  c #C32523",
"n  c #82400C",
"m  c #8C421D",
"M  c #95431E",
"N  c #9B451E",
"B  c #A34A1D",
"V  c #AD4E1E",
"C  c #964221",
"Z  c #9C4422",
"A  c #A64921",
"S  c #AC4C21",
"D  c #BB4522",
"F  c #B14F22",
"G  c #BB4C23",
"H  c #A65024",
"J  c #B55122",
"K  c #BD5424",
"L  c #B45825",
"P  c #BA5A24",
"I  c #BA5E2A",
"U  c #C64B26",
"Y  c #C45627",
"T  c #C55827",
"R  c #C65728",
"E  c #C85228",
"W  c #C65A2A",
"Q  c #CA5929",
"!  c #D35F2C",
"~  c #C5602C",
"^  c #CB682A",
"/  c #D3642D",
"(  c #DC6B2E",
")  c #C96B33",
"_  c #D86830",
"`  c #E46E32",
"'  c #EA6E33",
"]  c #EF7235",
"[  c #E17739",
"{  c #F47537",
"}  c #F67738",
"|  c #F77838",
" . c #F97838",
".. c #AE8627",
"X. c #B98B29",
"o. c #D68611",
"O. c #E88815",
"+. c #ED9713",
"@. c #EE9913",
"#. c #C1962B",
"$. c #D79D2F",
"%. c #DAA536",
"&. c #DAA930",
"*. c #F58943",
"=. c #D6A858",
"-. c #E3B65F",
";. c #EDBA5E",
":. c #EBBD63",
">. c None",
/* pixels */
">.>.>.>.>.>.>.>.>.>.>.>.>.>.>.>.>.>.>.>.>.>.>.>.>.>.>.>.>.>.>.>.",
">.>.>.>.>.>.>.>.>.>.>.>.>.>.>.>.>.>.>.>.>.>.>.>.>.>.>.>.>.>.>.>.",
">.>.>.>.>.>.>.>.>.>.>.>.>.>.>.>.>.>.>.>.>.>.>.>.>.>.>.>.>.>.>.>.",
">.>.>.>.>.>.>.>.>.>.>.>.>.>.>.8 8 >.>.>.>.>.>.>.>.>.>.>.>.>.>.>.",
">.>.>.>.>.>.>.>.>.>.>.>.>.>.q ( ( q >.>.>.>.>.>.>.>.>.>.>.>.>.>.",
">.>.>.>.>.>.>.>.>.>.>.>.< 6 P | } P 6 < >.>.>.>.>.>.>.>.>.>.>.>.",
">.>.>.>.>.>.>.>.>.>.>., 5 8 `  . .` 8 5 , >.>.>.>.>.>.>.>.>.>.>.",
">.>.>.>.>.>.>.>.>.>.>.# B q / |  ./ q B # >.>.>.>.>.>.>.>.>.>.>.",
">.>.>.>.>.>.>.>.>.>., = L 7 - ` ` - 7 L = , >.>.>.>.>.>.>.>.>.>.",
">.>.>.>.>.>.>.>.>.>.6 N 1 N - W ~ - N 1 N 6 >.>.>.>.>.>.>.>.>.>.",
">.>.>.>.>.>.>.>.O . 2 J F Y S - - A R J J < . O >.>.>.>.>.>.>.>.",
">.>.>.>.>.>.>.O H O >.0 Y Q R J F R Q K 0 >.O H O >.>.>.>.>.>.>.",
">.>.>.>.>.>.>.= A O >.6 J R R R Q Q R F 6 >.O A = >.>.>.>.>.>.>.",
">.>.>.>.>.>.u / F + >.>.0 K Q R Q Q K 0 >.>.# J / n >.>.>.>.>.>.",
">.>.>.>.>.n ( { R 3 . >.6 G b U R Q K 6 >.. 3 T { _ n >.>.>.>.>.",
">.>.>.>.n (  .] Q S $ >.9 D c v U R K 9 >.$ S Q {  .( n >.>.>.>.",
">.>.>.8 ( } { ! R R S 6 p g v c g j F p 6 V Q Q ! { { ( 8 >.>.>.",
">.>.>.n ` / ' Q Q Q K q a b O.x c g h p 0 Y R Q R ' ! ` u >.>.>.",
">.>.@ / ' Q Q Q R K Y K h d @.@.x y p q F Q K Q Q Q Q { / @ >.>.",
">.>.@ _ ! Q Y Q J u J R Z h f @.o.* i J Q F u J Q K Q ! _ @ >.>.",
">.>.O / Q S q B 9 >.q F F h 4 d s $ r u V 0 >.0 A q S Q / O >.>.",
">.>.o J S $ >.O >.>.2 0 M e > I * w C S q 6 >.>.O >.& A J o >.>.",
">.>.O A $ >.>.>.>.>.0 F i & ) =.; r C Y K V 6 >.>.>.>.$ A O >.>.",
">.>.o i o >.>.>.>.6 V Y r - [ -.t i C K Y M 5 >.>.>.>.o p o >.>.",
">.>.  o >.>.>.>.>.5 N S = ~ *.:.I 9 p C C r 5 >.>.>.>.>.o   >.>.",
">.>.>.>.>.>.>.>.>.5 r r # I :.:.~ q i i w @ >.>.>.>.>.>.>.>.>.>.",
">.>.>.>.>.>.>.>.>.>.O : @ L %.%.^ J 3 O . >.>.>.>.>.>.>.>.>.>.>.",
">.>.>.>.>.>.>.>.>.>.>.. o H $.&.$.P 7 >.>.>.>.>.>.>.>.>.>.>.>.>.",
">.>.>.>.>.>.>.>.>.>.>.>.>.% ..#.X.m 5 >.>.>.>.>.>.>.>.>.>.>.>.>.",
">.>.>.>.>.>.>.>.>.>.>.>.>.>.+ + + X >.>.>.>.>.>.>.>.>.>.>.>.>.>.",
">.>.>.>.>.>.>.>.>.>.>.>.>.>.>.>.>.>.>.>.>.>.>.>.>.>.>.>.>.>.>.>.",
">.>.>.>.>.>.>.>.>.>.>.>.>.>.>.>.>.>.>.>.>.>.>.>.>.>.>.>.>.>.>.>."
};
