/* XPM */
static char *result[] = {
/* columns rows colors chars-per-pixel */
"24 24 8 1 ",
"  c 68ACFF",
". c #0094FF",
"X c #352D38",
"o c #4C464F",
"O c #625969",
"+ c #7F7A85",
"@ c #A7A4AB",
"# c None",
/* pixels */
"###########XXXXXXX######",
"##########X+@@+@@@X#####",
"#########XO@++++@+@X####",
"########XO+++O+++++@X###",
"#######XO+O+O++O++@+@X##",
"######XOOOOOOO+++O++@@X#",
"#####XX.+OO+O+O+O++++@X#",
"####XO+XXX..OOOOOO+O+@X#",
"###XOOO+++XXXX.+OOO+++X#",
"###XoOOOOO++++X.O+OOO+OX",
"##XoOOOoOOOOOO+X.OO+OO+X",
"##XOoOoOOoOOOoOoOOOOO+oX",
"##.XoooooOOoOOOOOoOoOooX",
"##..XoooOoOOOOoOOOoOOooX",
"##...XXoooooOoOOoOoooOoX",
"# .....XooOooooooooooXX.",
"# ......XoooooooooOXX...",
"#  ......XooOooOoXX.... ",
"#   ......XoooooX......#",
"#   ......XoooooX......#",
"#   ......XoooooX......#",
"##    ................ #",
"###                   ##",
"########################",
};
