/* XPM */
static char *result[] = {
/* columns rows colors chars-per-pixel */
"24 24 8 1 ",
"  c 68ACFF",
". c #0073FF",
"X c #352D38",
"o c #4C464F",
"O c #625969",
"+ c #7F7A85",
"@ c #A7A4AB",
"# c None",
/* pixels */
"#############XXX########",
"############XXXXX#######",
"##########XX@@@@@X######",
"########XX@@@+@@+@X#####",
"#######X+++@+@+++OX#####",
"######X++O+++++OOoX#####",
"#####X+O+++++OOoo@X#####",
"#####X+O+++++OOoo@X#####",
"#####X+O+++++OOoo@X#####",
"#####X+O+++++OOoo@X#####",
"####XOOOO+O+OOo++@X#####",
"###XOOO+OOOOOo+++@X#####",
"###XoOOOOOOOooO+O@X#####",
"###XooOoOOoooOO++@X#####",
"###XOoooOoOoOOOO+OX#####",
"###XoooOoXoooOoOOXX#####",
"###XXooXX.XoooOXX+@X####",
"## .XXX....XoXXOO+@@X###",
"##  ........XoOO++O@X###",
"##   ........ooOOO+@X###",
"###          ....... ###",
"#####               ####",
"########################",
"########################"
};
