/* XPM */
static char *result[] = {
/* columns rows colors chars-per-pixel */
"24 24 8 1 ",
"  c 68ACFF",
". c #0094FF",
"X c #352D38",
"o c #4C464F",
"O c #625969",
"+ c #7F7A85",
"@ c #A7A4AB",
"# c None",
/* pixels */
"########################",
"##########XX############",
"#########X@@X###########",
"########XO+@@X##########",
"#######XO+++@@X#########",
"######XOOO+@+@@X########",
"######X+OO+O++@@X#######",
"######XOO+O++++@X#######",
"######X+O+O+O@+@@X######",
"#####XOO+XoO++++@X######",
"#####XO+XoOO+O@@X#######",
"#####X+XoOOOO+.XXX######",
"#####XXoOOX+o.O@@@X#####",
"#####XXoOOX+o.O@@@X#####",
"#####XXoOOX+o.O@@@X#####",
"#####XXoOOX+o.O@@@X#####",
"#####X..oXXO.oO++O@X####",
"#### ....XXo.XoOO+@X####",
"####  ....X.XXoOo@X#####",
"####   ......XXoOOX#####",
"#####       .....X #####",
"#######           ######",
"########################",
"########################"
};
