/* XPM */
static char *result[] = {
/* columns rows colors chars-per-pixel */
"24 24 8 1 ",
"  c 68ACFF",
". c #0094FF",
"X c #352D38",
"o c #4C464F",
"O c #625969",
"+ c #7F7A85",
"@ c #A7A4AB",
"# c None",
/* pixels */
"########################",
"##########XXXXX#########",
"########XX@oX@@XX#######",
"#######X+O+@ooX+@XX#####",
"######XOoO++@@ooX+@X####",
"#####XooO+o+++@@oX+@X###",
"####XoOooOOO+O++@oX+@X##",
"####XoooOOO+OO+O+@o++@X#",
"###XooOooOOOOOOOO+++++@X",
"###XooOooOOOOOOOO+++++@X",
"###XooooOO+oXOOO+OO+O+@X",
"###XooooOO+oXOOO+OO+O+@X",
"###XoooOOoO+oXoOOOOOOo@X",
"###XoooOOoO+oXoOOOOOOo@X",
"###.XOooOOOO+XX.oO+OO+X#",
"###..XooooOoO++X.oooOoX#",
"## ...XOoOooooX+X.oOoX##",
"#  ...XoooooOooo+X.oX ##",
"#   ...XoooooooXo+X.. ##",
"##   ............... ###",
"####                ####",
"####                ####",
"####                ####",
"########################"
};
