/* XPM */
static char *result[] = {
/* columns rows colors chars-per-pixel */
"24 24 8 1 ",
"  c 68ACFF",
". c #0094FF",
"X c #352D38",
"o c #4C464F",
"O c #625969",
"+ c #7F7A85",
"@ c #A7A4AB",
"# c None",
/* pixels */
"########################",
"#############XX#########",
"###########XX@@XX#######",
"##########X@@++@@X######",
"#########X++++@+@@X#####",
"########X+OO+++++@@X####",
"########X+OO+++++@@X####",
"#######XoOO+O++@+@+@X###",
"######XXXoOOOO++++@@X###",
"#####.@@@XoOO+O++@+o@X##",
"#####.@@@XoOO+O++@+o@X##",
"####.O+@+@XoOOO+O++@XX##",
"###.XoO+O@@XoOOO+O.XXX##",
"##.OoOOO++@@XOoOO.O@@@X#",
"##.ooo+oO+O@XoO+.oO++O@X",
"##.XoOoO+O+OXooO.XoOO+@X",
"##.XoOoO+O+OXooO.XoOO+@X",
"# ..XooooOo.Xoo.XXoOo@X#",
"# ...XooOo...XX.XoXoOOX#",
"#  ..................X##",
"##                   ###",
"####                ####",
"########################",
"########################"
};
