/* XPM */
static char *result[] = {
/* columns rows colors chars-per-pixel */
"32 32 136 2 ",
"   c #0D0124",
".  c #120325",
"X  c #1D0925",
"o  c #220A25",
"O  c #2D0F26",
"+  c #320F24",
"@  c #2E1026",
"#  c #341126",
"$  c #3B1425",
"%  c #3D1926",
"&  c #3E1E2A",
"*  c #670C11",
"=  c #6E1515",
"-  c #731314",
";  c #7F1612",
":  c #7C1D18",
">  c #76201A",
",  c #7F2018",
"<  c #411B27",
"1  c #4E1B27",
"2  c #411F29",
"3  c #531D25",
"4  c #43222B",
"5  c #4C2A2E",
"6  c #552127",
"7  c #5C2528",
"8  c #4E2F31",
"9  c #4E3132",
"0  c #6E2423",
"q  c #622B27",
"w  c #602328",
"e  c #602828",
"r  c #6E2D28",
"t  c #7C2C26",
"y  c #722F28",
"u  c #66332C",
"i  c #69372E",
"p  c #7F3028",
"a  c #8D2216",
"s  c #81241A",
"d  c #8B2F1F",
"f  c #912316",
"g  c #942A1B",
"h  c #9A2F1C",
"j  c #8E331F",
"k  c #9D331D",
"l  c #A33B1F",
"z  c #AE3D1F",
"x  c #832E25",
"c  c #892E22",
"v  c #8B3223",
"b  c #8A3529",
"n  c #843B29",
"m  c #8C392A",
"M  c #953524",
"N  c #9D3625",
"B  c #933A26",
"V  c #A73D27",
"C  c #A83F27",
"Z  c #94412A",
"A  c #9D442A",
"S  c #9C4A2C",
"D  c #8C4F34",
"F  c #AC4425",
"G  c #A1442A",
"H  c #AD4429",
"J  c #A54929",
"K  c #AC4A29",
"L  c #B44425",
"P  c #B94324",
"I  c #B74B27",
"U  c #BB4B26",
"Y  c #B54D29",
"T  c #BB4D29",
"R  c #A3512E",
"E  c #AB502C",
"W  c #B6532C",
"Q  c #BC542B",
"!  c #B2592F",
"~  c #BD5B2C",
"^  c #AB5731",
"/  c #A75B34",
"(  c #AC5831",
")  c #B35F35",
"_  c #AA6037",
"`  c #AD6238",
"'  c #B56336",
"]  c #B16739",
"[  c #BB713D",
"{  c #C04D26",
"}  c #C2532A",
"|  c #C55A2D",
" . c #CA5C2C",
".. c #CD622E",
"X. c #C26231",
"o. c #CC6532",
"O. c #C66936",
"+. c #CD6A34",
"@. c #CC6D38",
"#. c #D06730",
"$. c #D26C34",
"%. c #CB7239",
"&. c #D57236",
"*. c #D97536",
"=. c #D47439",
"-. c #D97539",
";. c #D67D3D",
":. c #DD7C3B",
">. c #E07836",
",. c #E27E3A",
"<. c #C17B43",
"1. c #CC7B41",
"2. c #DF803E",
"3. c #E4833E",
"4. c #EA893F",
"5. c #C4864B",
"6. c #C68C4F",
"7. c #D48445",
"8. c #DA8240",
"9. c #DC8E49",
"0. c #DE904A",
"q. c #E28641",
"w. c #E48A43",
"e. c #EA8C42",
"r. c #EC9246",
"t. c #E69149",
"y. c #EA944A",
"u. c #EE994C",
"i. c #F29446",
"p. c #F49E4D",
"a. c #F8A04B",
"s. c #F6A451",
"d. c #F8A752",
"f. c #FEAE55",
"g. c #FFB85B",
"h. c None",
/* pixels */
"h.h.h.h.h.h.h.h.h.h.h.h.h.h.h.h.h.h.h.h.h.h.h.h.h.h.h.h.h.h.h.h.",
"h.h.h.h.h.h.h.h.h.h.h.h.h.h.h.h.h.h.h.h.h.h.h.h.h.h.h.h.h.h.h.h.",
"h.h.h.h.h.h.h.h.h.h.h.h.h.h.h.h.h.h.h.h.h.h.h.h.h.h.h.h.h.h.h.h.",
"h.h.h.h.h.h.h.h.h.h.h.h.h.h.h.h.h.h.h.h.h.h.h.h.h.h.h.h.h.h.h.h.",
"h.h.h.h.h.h.h.h.h.h.. . . .     . . . . . . h.h.h.h.h.h.h.h.h.h.",
"h.h.h.h.h.h.h.h.h.h.2 4 5 5 9 9 9 5 5 5 4 2 h.h.h.h.h.h.h.h.h.h.",
"h.h.h.h.h.h..     4 D ] [ <.5.6.6.5.<.[ ] D &     . h.h.h.h.h.h.",
"h.h.h.h.h.h.% < < i ' ,.,.r.f.g.f.p.e.,.,.' i 2 4 4 h.h.h.h.h.h.",
"h.h.h.h.  $ n R / ' o...| +.s.f.4.$.U U  .O.' / ` D &   h.h.h.h.",
"h.h.h.h.+ e ) *.3.:.*.#.| +.t.w.X.l a g } &.w.w.-.^ u & h.h.h.h.",
"h.h.  # 0 G -.e.3.3.4.r.y.t.2.X.j = * s ~ w.s.r.Q F E D &   h.h.",
"h.h.# 3 M  .q.e.:.*.:.e.d.a.3.~ j > t S %.y.s.r.Q L +.) u % h.h.",
". $ 0 M I o.:.:.&.| L | 4.a.i.:.Q W ;.0.r.r.r.q.=.o.| Q K n %   ",
". $ c P }  .&.$.Q z f k $.4.3.+.Q X.u.d.i.:.O.' @.$.} }  .S < . ",
". # c P U } #.| z f - s Q #.I k , B 2.u.*.Y j c K |  .| { v % . ",
". $ c z U } #. .I l s j ~ #.L k d S ;.2.Y d - : H  ... .L x $ . ",
". # t H Q  .&.-.,.$.Q | ,.q.@.@.7.0.9.O.v - ; h | &.#.| K t # . ",
". + w m H | @.-.w.q.-.&.,.,.w.e.p.u.2.W d s h I +.=.#.W m w # . ",
"h.o O 1 m H Y } #.*.:.$.| o.q.r.3.#.Q L F W X.+.$...| A 6 @ X h.",
"h.h.. O w x N H } ..+.o.T } >.,...U Q I }  .*.*...~ G y # . h.h.",
"h.h.h.X O 1 x V P U } } |  .#...} } o.o.T U o.#. .G 7 # o h.h.h.",
"h.h.h.h.. + w p x v C T |  . .{ U Q +.@.} H J S Z u @   h.h.h.h.",
"h.h.h.h.h.o + # # 3 b H { } } U P I Q o. .J 7 % % # X   h.h.h.h.",
"h.h.h.h.h.h.. . . O w p b B B B c c b B G Z &   . o $ % @ h.h.h.",
"h.h.h.h.h.h.h.h.h.o @ $ $ $ < $ $ % $ % < % O     $ n n % . h.h.",
"h.h.h.h.h.h.h.h.h.h.. . . . . . . . . . . . h.h.. % n n % . h.h.",
"h.h.h.h.h.h.h.h.h.h.h.h.h.h.h.h.h.h.h.h.h.h.h.h.h.@ % % O h.h.h.",
"h.h.h.h.h.h.h.h.h.h.h.h.h.h.h.h.h.h.h.h.h.h.h.h.h.h.. . h.h.h.h.",
"h.h.h.h.h.h.h.h.h.h.h.h.h.h.h.h.h.h.h.h.. X h.h.h.h.h.h.h.h.h.h.",
"h.h.h.h.h.h.h.h.h.h.h.h.h.h.h.h.h.h.h.h.X . h.h.h.h.h.h.h.h.h.h.",
"h.h.h.h.h.h.h.h.h.h.h.h.h.h.h.h.h.h.h.h.h.h.h.h.h.h.h.h.h.h.h.h.",
"h.h.h.h.h.h.h.h.h.h.h.h.h.h.h.h.h.h.h.h.h.h.h.h.h.h.h.h.h.h.h.h."
};
