/* XPM */
static char *result[] = {
/* columns rows colors chars-per-pixel */
"32 32 171 2 ",
"   c #0B001E",
".  c #10001F",
"X  c #0D0022",
"o  c #110122",
"O  c #27122B",
"+  c #2B192E",
"@  c #2A172F",
"#  c #3B1F2D",
"$  c #2B1E36",
"%  c #3D212F",
"&  c #3C2230",
"*  c #442A35",
"=  c #452E38",
"-  c #453139",
";  c #4B343C",
":  c #4A343B",
">  c #69433E",
",  c #4D3B45",
"<  c #4E3F4E",
"1  c #453947",
"2  c #4D4154",
"3  c #6F4F48",
"4  c #72554D",
"5  c #735A55",
"6  c #785D53",
"7  c #7A655B",
"8  c #715C60",
"9  c #796860",
"0  c #E16400",
"q  c #EB7605",
"w  c #E6740D",
"e  c #E27319",
"r  c #E27317",
"t  c #E47921",
"y  c #865744",
"u  c #865845",
"i  c #99725C",
"p  c #AE7C56",
"a  c #AF7F59",
"s  c #B07F59",
"d  c #EC8009",
"f  c #EC8107",
"g  c #F18C06",
"h  c #F18408",
"j  c #F6960A",
"k  c #F59C0D",
"l  c #F49806",
"z  c #F08A11",
"x  c #F89F13",
"c  c #FBA60B",
"v  c #FDAD0C",
"b  c #FCAA07",
"n  c #FCB30B",
"m  c #FFBB0C",
"M  c #F8AF14",
"N  c #ED8826",
"B  c #F08C24",
"V  c #F39724",
"C  c #E58135",
"Z  c #EC8E3E",
"A  c #F19B3B",
"S  c #F09438",
"D  c #F6A423",
"F  c #F2A431",
"G  c #F6A638",
"H  c #FEBB39",
"J  c #FEC212",
"K  c #FFCD14",
"L  c #FFD016",
"P  c #FFDB22",
"I  c #FFCC3C",
"U  c #FFC53E",
"Y  c #FFDC30",
"T  c #FFE327",
"R  c #A0815F",
"E  c #BA825A",
"W  c #9F8261",
"Q  c #AE8362",
"!  c #A08160",
"~  c #B78963",
"^  c #BF9269",
"/  c #BE9B6C",
"(  c #BC9466",
")  c #BF9573",
"_  c #E99546",
"`  c #E99851",
"'  c #F7AB44",
"]  c #FFBE45",
"[  c #EFA450",
"{  c #F5AC58",
"}  c #F9BB59",
"|  c #F5B55D",
" . c #C29C75",
".. c #DFA56F",
"X. c #CAA679",
"o. c #F5B867",
"O. c #EEB475",
"+. c #FFC643",
"@. c #FFCC5B",
"#. c #F9C16D",
"$. c #FFD369",
"%. c #FAC773",
"&. c #FFD078",
"*. c #9F9985",
"=. c #BEAD8B",
"-. c #CAAC85",
";. c #CAAD88",
":. c #D1AE82",
">. c #C5B18C",
",. c #D3B883",
"<. c #D6BC8C",
"1. c #D8BE8E",
"2. c #C6B993",
"3. c #EBBD84",
"4. c #F0BE81",
"5. c #C6BCAA",
"6. c #ECC488",
"7. c #FBCD82",
"8. c #F0C48B",
"9. c #F8CD89",
"0. c #F6C98C",
"q. c #FCD386",
"w. c #FCD989",
"e. c #F1CB91",
"r. c #F7C894",
"t. c #EAD29E",
"y. c #FEDA94",
"u. c #FDDD9D",
"i. c #FBD79C",
"p. c #FFE28E",
"a. c #FFE493",
"s. c #D3CDA8",
"d. c #C4C2BD",
"f. c #D1CBBF",
"g. c #D8D3A8",
"h. c #ECD8A0",
"j. c #FBDCAD",
"k. c #FAD9A5",
"l. c #EDDBBB",
"z. c #F9DDB5",
"x. c #F4DAB8",
"c. c #ECE1AE",
"v. c #FEE3A1",
"b. c #FFEAA3",
"n. c #FCE2AA",
"m. c #FEECAC",
"M. c #F2E0A9",
"N. c #FFF2AD",
"B. c #FDE5B3",
"V. c #FFEDB3",
"C. c #FDEBB9",
"Z. c #F6EDB5",
"A. c #FFF2B5",
"S. c #FFF3BB",
"D. c #FFFABF",
"F. c #EBDEC6",
"G. c #FCE7C1",
"H. c #FDEBC2",
"J. c #F4E9C4",
"K. c #FFF3C2",
"L. c #FFFEC5",
"P. c #FFF2CB",
"I. c #FFFDCE",
"U. c #FCEED0",
"Y. c #FFF7D1",
"T. c #FFFCD2",
"R. c #FFFDDB",
"E. c #FFFEE2",
"W. c #FFFFEB",
"Q. c ivory",
"!. c None",
/* pixels */
"!.!.!.!.!.!.!.!.!.!.!.!.!.!.!.!.!.!.!.!.!.!.!.!.!.!.!.!.!.!.!.!.",
"!.!.!.!.!.!.!.!.!.!.!.!.!.!.!.!.!.!.!.!.!.!.!.!.!.!.!.!.!.!.!.!.",
"!.!.!.!.!.!.!.!.!.!.!.!.!.!.!.!.!.!.!.!.!.!.!.!.!.!.!.!.!.!.!.!.",
"!.!.!.!.!.!.!.!.!.!.!.!.!.!.!.!.!.!.!.!.!.!.!.!.!.!.!.!.!.!.!.!.",
"!.!.!.!.!.!.!.!.!.!.!.!.!.!.!.!.!.!.!.!.!.!.!.!.!.!.!.!.!.!.!.!.",
"!.!.!.!.!.!.!.!.!.!.!.!.!.!.!.!.!.!.!.!.!.!.!.!.!.!.!.!.!.!.!.!.",
"!.!.!.!.!.!.o o o o o o . o o o o . !.!.!.!.!.!.!.!.!.!.!.!.!.!.",
"!.!.!.!.!.!.* * ; , 2 2 2 < , : * * !.!.!.!.!.!.!.!.!.!.!.!.!.!.",
"!.!.!.!.o # y p ^ >.5.d.d.5.>./ E u %     . X X o o !.!.!.!.!.!.",
"!.!.!.!.= 3  .o.%.q.b.S.S.V.m.v.8.) 5 2 2 2 2 : * & !.!.!.!.!.!.",
"!.!.  * i  .3.%.' G ] +.+.$.V.R.U.F.f.d.d.5.2./ s y #   !.!.!.!.",
"!.!.* 5 :.i.7.} V l b n m I a.C.R.Y.H.C.S.a.&.&.4. .4 = !.!.!.!.",
"o = i -.l.j.{ B x b m K P Y I $.a.y.| ' +.U H @.j.l.<.W =   !.!.",
"  , X.B.E.z._ q j n m L T P m D } | V l b n m I p.S.A.<.7 = !.!.",
". , 2.I.E.x.t 0 h c M m L J k z B V c c m K P Y I $.A.C.<.R : o ",
"o , >.K.R.z.` t w q j c n M D N w q j M m K T P n H B.E.S.-., X ",
"o * ~ e.S.S.9.[ e 0 q h g V @.{ t 0 q k v J K J l G B.Q.E.5.< . ",
"o # y ^ h.A.A.9._ e N S A o.w.9._ e w d j c n M F O.G.W.E.5.< o ",
"!.O # 3 X.j.P.H.0.o.#.7.k.C.S.m.q.[ e 0 q f h F 9.J.E.R.S.-., . ",
"!.!.X = ~ r.G.U.m.b.b.V.P.I.C.Z.b.q.` C Z A A o.H.W.W.J.1.R - o ",
"!.!.X * p O.3.j.S.D.D.S.V.u.3.6.m.S.v.i.x.j.a.Z.R.W.E.g.7 = + !.",
"!.!.o & y s ..r.m.D.S.M.,.( p a =.s.c.S.T.T.I.T.R.R.L.2., X !.!.",
"!.!.!.@ & 3 E O.i.a.a.:.6 = * = 1 5 / 8.v.A.L.I.T.L.N.X.; X !.!.",
"!.!.!.!.X & y s / X. .i * X o o   % y p / ,.t.A.L.Z.<.W : o !.!.",
"!.!.!.!.!.@ & * ; ; ; = + !.!.!.!.O % * - 4 ^ e.S.g.7 - + !.!.!.",
"!.!.!.!.!.!.o o o o o o !.!.!.!.!.!.o X X # y ~ >.*.1   !.!.!.!.",
"!.!.!.!.!.!.!.!.!.!.!.!.!.!.!.!.!.!.!.!.!.O & : , 1 $ !.!.!.!.!.",
"!.!.!.!.!.!.!.!.!.!.!.!.!.!.!.!.!.!.!.!.!.!.o o X o !.!.!.!.!.!.",
"!.!.!.!.!.!.!.!.!.!.!.!.!.!.!.!.!.!.!.!.!.!.!.!.!.!.!.!.!.!.!.!.",
"!.!.!.!.!.!.!.!.!.!.!.!.!.!.!.!.!.!.!.!.!.!.!.!.!.!.!.!.!.!.!.!.",
"!.!.!.!.!.!.!.!.!.!.!.!.!.!.!.!.!.!.!.!.!.!.!.!.!.!.!.!.!.!.!.!.",
"!.!.!.!.!.!.!.!.!.!.!.!.!.!.!.!.!.!.!.!.!.!.!.!.!.!.!.!.!.!.!.!."
};
