/* XPM */
static char *result[] = {
/* columns rows colors chars-per-pixel */
"32 32 146 2 ",
"   c #170103",
".  c #1A0102",
"X  c #1F040D",
"o  c #250102",
"O  c #2B0201",
"+  c #350201",
"@  c #3B0302",
"#  c #420303",
"$  c #4A0302",
"%  c #48050A",
"&  c #540403",
"*  c #5D0504",
"=  c #5D110E",
"-  c #5A0D13",
";  c #561310",
":  c #591916",
">  c #630605",
",  c #6F0705",
"<  c #660906",
"1  c #6C0806",
"2  c #6E0F0E",
"3  c #700604",
"4  c #720806",
"5  c #7B0906",
"6  c #710E0B",
"7  c #7E0C08",
"8  c #6E100F",
"9  c #7C1914",
"0  c #7C1E19",
"q  c #7A201C",
"w  c #702422",
"e  c #5F4B5E",
"r  c #755F6F",
"t  c #766474",
"y  c #850A07",
"u  c #8F0A07",
"i  c #820D0A",
"p  c #8B0E0B",
"a  c #900B07",
"s  c #900D0A",
"d  c #86100D",
"f  c #821512",
"g  c #841815",
"h  c #971814",
"j  c #991A15",
"k  c #9C1D18",
"l  c #A31E19",
"z  c #8E201C",
"x  c #A6221D",
"c  c #8F2E27",
"v  c #902D26",
"b  c #912E29",
"n  c #99332D",
"m  c #993630",
"M  c #993B35",
"N  c #AB2E27",
"B  c #A32F29",
"V  c #AE332D",
"C  c #B1342D",
"Z  c #AD3730",
"A  c #A13832",
"S  c #AC3A34",
"D  c #B13C35",
"F  c #A7453D",
"G  c #B8473F",
"H  c #835257",
"J  c #A24740",
"K  c #B94A42",
"L  c #B74D48",
"P  c #B54B43",
"I  c #A0524A",
"U  c #AC5349",
"Y  c #BC554C",
"T  c #BF6156",
"R  c #B36059",
"E  c #996769",
"W  c #B67D7F",
"Q  c #C1584F",
"!  c #C45B52",
"~  c #C06056",
"^  c #C16359",
"/  c #C9695E",
"(  c #C9716A",
")  c #CB7A6E",
"_  c #D57F73",
"`  c #CD8174",
"'  c #D68275",
"]  c #D7867B",
"[  c #DB8579",
"{  c #DA897E",
"}  c #D58A7C",
"|  c #A1858B",
" . c #B69CA2",
".. c #BDA2A4",
"X. c #BFB3BB",
"o. c #DC8E81",
"O. c #D99087",
"+. c #D59589",
"@. c #CE9A98",
"#. c #DA9A94",
"$. c #D2A29C",
"%. c #E6A294",
"&. c #E9A697",
"*. c #E6A79B",
"=. c #EAAA9B",
"-. c #D5A4A2",
";. c #DEB2AB",
":. c #DEB9B3",
">. c #DABCB9",
",. c #ECAEA0",
"<. c #E4B1AB",
"1. c #EBB6AB",
"2. c #EEBAAD",
"3. c #EBB1A4",
"4. c #E0BAB4",
"5. c #EFBDB2",
"6. c #F0BFB3",
"7. c #DFC0BC",
"8. c #E2C1BB",
"9. c #EFC3BA",
"0. c #F1C1B5",
"q. c #F2C8BF",
"w. c #C5C2CA",
"e. c #DDC7C5",
"r. c #E6CFCD",
"t. c #EECDCA",
"y. c #F2CCC4",
"u. c #ECD1CC",
"i. c #F4D0C7",
"p. c #F5D3CB",
"a. c #E7D3D2",
"s. c #F3D7D3",
"d. c #F5DBD5",
"f. c #F7E1DC",
"g. c #DEDEE3",
"h. c #DFE1E6",
"j. c #ECE5E5",
"k. c #F3E5E3",
"l. c #F9E5E1",
"z. c #FAEAE6",
"x. c #F3EDED",
"c. c #FCEEEA",
"v. c #F8F0EE",
"b. c #FDF7F5",
"n. c white",
"m. c None",
/* pixels */
"m.m.m.m.m.m.m.m.m.m.m.m.m.m.m.m.m.m.m.m.m.m.m.m.m.m.m.m.m.m.m.m.",
"m.m.m.m.m.m.m.m.m.m.m.m.m.m.m.m.m.m.m.m.m.m.m.m.m.m.m.m.m.m.m.m.",
"m.m.m.m.m.m.m.m.m.m.m.m.m.m.m.m.m.m.m.m.m.m.m.m.m.m.m.m.m.m.m.m.",
"m.m.m.m.m.m.m.m.m.m.m.m.m.m.m.m.m.m.m.m.m.m.m.m.m.m.m.m.m.m.m.m.",
"m.m.m.m.m.m.m.m.m.m.m.m.m.m.m.m.m.m.m.m.m.m.m.m.m.m.m.m.m.m.m.m.",
"m.m.m.m.m.m.m.m.m.m.m.m.m.m.m.m.m.m.m.m.m.m.m.m.m.m.m.m.m.m.m.m.",
"m.m.m.m.m.m.m.m.i.i.m.m.m.m.m.m.m.m.m.m.m.m.m.m.m.m.m.m.m.m.m.m.",
"m.m.m.m.m.m.m.m.d.s.m.m.m.m.m.m.m.m.m.m.m.m.m.m.m.m.m.m.m.m.m.m.",
"m.m.m.m.m.m.i.d.v.k.m.m.m.m.m.m.m.m.m.m.m.m.m.m.m.m.m.m.m.m.m.m.",
"m.m.m.m.m.m.y.i.c.j.m.m.m.m.m.m.m.m.m.m.m.m.m.m.m.m.m.m.m.m.m.m.",
"m.m.m.m.n.z.6.6.p.r.m.m.m.m.m.m.m.m.m.m.m.m.m.m.m.m.m.m.m.m.m.m.",
"m.m.m.m.b.f.1.=.5.;.E m.m.m.m.m.m.m.m.m.m.m.m.m.m.m.m.m.m.m.m.m.",
"m.m.n.b.l.y.3.&.,.+.I q 2 > m.m.m.m.m.m.. . . . m.m.m.m.m.m.m.m.",
"m.m.b.c.d.y.2.=.=.} U c 9 2 - m.m.m.m.X O o o . m.m.m.m.m.m.m.m.",
"n.b.f.d.p.i.y.0.,.o.^ F b 0 8 > & # o o + + o . m.m.m.m.m.m.m.m.",
"n.v.u.8.8.7.>.:.1.%._ ! F v f , * $ + + $ # O . m.m.m.m.m.m.m.m.",
"m.m.m.m.m.m.r | :.0.%.' T S h y , > * & & # o . m.m.m.m.m.m.m.m.",
"m.m.m.m.m.m.m.e ..:.1.%.' ! V h i 5 5 4 * $ + o m.m.m.m.m.m.m.m.",
"m.m.m.m.m.m.m.m.e | :.2.%.' ! Z h u s y 4 * $ + o . m.m.m.m.m.m.",
"m.m.m.m.m.m.m.m.m.t e.s.5.%.' ! V l N k i 3 * $ + O m.m.m.m.m.m.",
"m.m.m.m.m.m.m.m.m.m.j.c.p.5.%.' Q K K D k y , > * $ O   m.m.m.m.",
"m.m.m.m.m.m.m.m.m.m.g.x.l.t.*._ Y K K S h p g g d 1 + o m.m.m.m.",
"m.m.m.m.m.m.m.m.m.m.m.w.x.d.O.Y N l l h y f A S k 7 & + o . m.m.",
"m.m.m.m.m.m.m.m.m.m.m.m.h.a.#.( L S V B b M Y P z 3 * $ O . m.m.",
"m.m.m.m.m.m.m.m.m.m.m.m.m.>.a.t.<.#.] ' ` ) / F : # * & O . m.m.",
"m.m.m.m.m.m.m.m.m.m.m.m.m.m.h.k.u.9.1.,.%.[ ~ m ; $ 1 < + . m.m.",
"m.m.m.m.m.m.m.m.m.m.m.m.m.m.m. .$.<.9.2.{ ! C k d i s 4 @   m.m.",
"m.m.m.m.m.m.m.m.m.m.m.m.m.m.m.m.W @.:.$.R n f 5 5 7 7 < @ o m.m.",
"m.m.m.m.m.m.m.m.m.m.m.m.m.m.m.m.m.m.m.H w = % @ @ @ @ @ # # m.m.",
"m.m.m.m.m.m.m.m.m.m.m.m.m.m.m.m.m.m.m.m.# @ o       X o @ % m.m.",
"m.m.m.m.m.m.m.m.m.m.m.m.m.m.m.m.m.m.m.m.m.m.m.m.m.m.m.m.m.m.m.m.",
"m.m.m.m.m.m.m.m.m.m.m.m.m.m.m.m.m.m.m.m.m.m.m.m.m.m.m.m.m.m.m.m."
};
