/* XPM */
static char *result[] = {
/* columns rows colors chars-per-pixel */
"32 32 188 2 ",
"   c #5F381D",
".  c #5C351E",
"X  c #6A3D1E",
"o  c #533F21",
"O  c #633523",
"+  c #6C3624",
"@  c #6C3B23",
"#  c #6C3A29",
"$  c #743B27",
"%  c #723C29",
"&  c #7B3F2D",
"*  c #7D3C24",
"=  c #5B412D",
"-  c #55513E",
";  c #63452E",
":  c #7E4427",
">  c #7B432B",
",  c #78462A",
"<  c #6C4938",
"1  c #6C4D36",
"2  c #704B35",
"3  c #76533C",
"4  c #7B553B",
"5  c #4C4E44",
"6  c #4C4D4C",
"7  c #504F48",
"8  c #565847",
"9  c #50504D",
"0  c #5F5249",
"q  c #58584B",
"w  c #4E5152",
"e  c #595354",
"r  c #565A53",
"t  c #5A5C54",
"y  c #5D5E5C",
"u  c #7B5A48",
"i  c #7E5B42",
"p  c #6F5E52",
"a  c #605D5A",
"s  c #695747",
"d  c #5E604F",
"f  c #5D635C",
"g  c #5D6153",
"h  c #606055",
"j  c #686557",
"k  c #63645B",
"l  c #68615B",
"z  c #676959",
"x  c #6C6B5C",
"c  c #756456",
"v  c #5F6765",
"b  c #656663",
"n  c #646B63",
"m  c #6B6B62",
"M  c #6C6E6A",
"N  c #706E6C",
"B  c #677265",
"V  c #6D7166",
"C  c #66736D",
"Z  c #6C716C",
"A  c #6B786B",
"S  c #737465",
"D  c #71736D",
"F  c #7D7568",
"G  c #73796D",
"H  c #797262",
"J  c #6F7A74",
"K  c #6A7374",
"L  c #707770",
"P  c #797776",
"I  c #757A74",
"U  c #7A7C75",
"Y  c #7B7E79",
"T  c #767B79",
"R  c #8C4825",
"E  c #84452B",
"W  c #8B4B2C",
"Q  c #954B2D",
"!  c #8F512E",
"~  c #87532D",
"^  c #854A30",
"/  c #8D4B33",
"(  c #914D33",
")  c #8C5331",
"_  c #83573E",
"`  c #8C533A",
"'  c #8D5C35",
"]  c #965332",
"[  c #9C5533",
"{  c #965F34",
"}  c #995B37",
"|  c #A25737",
" . c #A45A34",
".. c #AC5F37",
"X. c #A05539",
"o. c #A55E3A",
"O. c #94623B",
"+. c #98613E",
"@. c #A46335",
"#. c #A5643B",
"$. c #AA643B",
"%. c #AB693B",
"&. c #B2643E",
"*. c #B06C3C",
"=. c #BC6E3E",
"-. c #B16436",
";. c #B4723E",
":. c #BC753E",
">. c #BE793D",
",. c #9D5E43",
"<. c #8B6246",
"1. c #94714B",
"2. c #886A58",
"3. c #AA6C45",
"4. c #B46540",
"5. c #B56C45",
"6. c #A67545",
"7. c #B57342",
"8. c #BD7343",
"9. c #BC7944",
"0. c #BD7448",
"q. c #B37D49",
"w. c #807A76",
"e. c #817F7D",
"r. c #C17445",
"t. c #CA7641",
"y. c #C47C45",
"u. c #CC7D44",
"i. c #C67B4A",
"p. c #CB7D4B",
"a. c #D37E44",
"s. c #C47A51",
"d. c #758177",
"f. c #7B8275",
"g. c #7C847B",
"h. c #82837C",
"j. c #87897D",
"k. c #898A79",
"l. c #C68145",
"z. c #CC8346",
"x. c #CD834B",
"c. c #CD884A",
"v. c #D38245",
"b. c #D88947",
"n. c #D2844C",
"m. c #D58A4C",
"M. c #D98C4D",
"N. c #D98548",
"B. c #CE8751",
"V. c #CB835A",
"C. c #D58650",
"Z. c #D68A51",
"A. c #DB8C51",
"S. c #DC9053",
"D. c #E08D50",
"F. c #838582",
"G. c #868982",
"H. c #8C8C89",
"J. c #8E908A",
"K. c #91918C",
"L. c #9E9385",
"P. c #8E9095",
"I. c #939491",
"U. c #9B9792",
"Y. c #979894",
"T. c #9A9B94",
"R. c #9B9C99",
"E. c #A0A19C",
"W. c #A8ABA6",
"Q. c #A5A6A3",
"!. c #BBBBB4",
"~. c #BEBFBC",
"^. c #C1C1BD",
"/. c #C5C5C2",
"(. c #CCCDC7",
"). c #C9C8C6",
"_. c #D0CDC7",
"`. c #D3D1CF",
"'. c #DEDDD6",
"]. c #DDDBD8",
"[. c #E4E3DC",
"{. c #E6E7E5",
"}. c #EEEEEC",
"|. c #F2F1ED",
" X c #F5F6F4",
".X c #FAFBF7",
"XX c #FFFFFF",
"oX c #F6FBFB",
/* pixels */
"XXXXXXXXXXXXXXXXXXXXXXXXXXXXXXXXXXXXXXXXXXXXXXXXXXXXXXXXXXXXXXXX",
"XXXXXXXXXXXXXXXXXXXXXXXXXXXX.XXXXXXXXXXXXXXXXXXXXXXXXXXXXXXXXXXX",
"XXXXXXXXXXXXXXXXXXXXXXXXXXXXXXXXXXXXXXXXXXXXXXXXXXXXXXXXXXXXXXXX",
"XXXXXXXXXXXXXXXXXXXXXXXXXX X(.(.(.(.{.XXXXXXXXXXXXXXXXXXXXXXXXXX",
"XXXXXXXXXXXXXXXXXXXXXXXXXXE.S U U V U  XXXXXXXXXXXXXXXXXXXXXXXXX",
"XXXXXXXXXXXXXXXXXXXXoXoXXXQ.S h.f.k Y XXoXoXoXXXXXXXXXXXXXXXXXXX",
"XXXXXXXXXXXXXXXXoX.XXXXX{.R.M U U Z D `.|.XX.X.XXXXXXXXXXXXXXXXX",
"XXXXXXXXXXXXXXXXR.J.'.U.U r n P U L b J w.^.W.R.XXXXXXXXXXXXXXXX",
"XXXXXXXXXXXX XR.K D b J g.n k g.w.m A d.Z f G.I Y.oXXXXXXXXXXXXX",
"XXXXXXXXXXXX{.T I U G n c 2 4 i <._ s c b g.j.h.h. XXXXXXXXXXXXX",
"XXXXXXXXXXoXXXT.f d.S = ` | 4.@.:.=.4.` < F g.f T.XXoXXXXXXXXXXX",
"XXXXXXXXXXXX_.G C g = ) 5.8.i.7.n.a.x.7.$.; r g.S ).XXXXXXXXXXXX",
"XXXXXXXXXXXXU L g.= +.%.i.n.Z.l.S.M.Z.y.p.3.1 h.I Y XXXXXXXXXXXX",
"XXXXXXXXXX[.M K c ) r.:.v.b.S.z.D.M.n.t.n.u.3.0 Z f '.XXXXXXXXXX",
"XXXXXXXXXX!.Z U 3 *.x.y.m.M.Z.y.M.v.m.y.x.a.8.4 I M !.XXXXXXXXXX",
"XXXXXXXXXXK.n j ' y.c.i.m.m.m.i.M.v.m.l.c.c.i.O.l v Y.XXoXXXXXXX",
"XXXXXX|.U Y d.j @.Z.m.z.m.n.m.x.M.M.S.z.c.m.Z.@.k g.G.M /.XXXXXX",
"XXXXXX}.U Y f.a %.Z.m.l.A.n.m.y.M.M.A.z.S.v.Z.7.m g.h.k ~.XX.XXX",
"XXXXXX}.N P g.h %.m.m.y.A.v.x.y.m.A.Z.y.Z.v.m.9.S d.Y y ~.XXXXXX",
"XXXXXX|.b q f 8 #.m.n.y.Z.u.m.r.m.N.m.y.m.u.C.9.8 k a 9 ^.XX.XXX",
"XXXXXX.X XH.j.k %.n.n.>.n.u.B.8.v.v.n.9.x.t.n.;.x L F. X X.XXXXX",
"XXXXXXXXXXJ.d.m %.m.n.y.c.v.p.y.v.x.x.r.v.s.V.9.H K P.XXXXXXXXXX",
"XXXXXX.XXXJ.Z k %.n.x.r.c.u.n.y.a.x.x.y.>.c L.1.x d H.XXXXXXXXXX",
"XXXXXX X(.U r 5 %.n.x.r.c.a.n.9.n.x.v.y.l.f w.2.e y I /.{.XXXXXX",
"XXXXXX}.b U G.k $.n.p.8.m.a.C.0.m.x.v.i.6.a r i b P d.r !.XXXXXX",
"XXXXXX}.Y Y f.a $.p.y.*.x.a.p.7.t.p.a.0.@.0 x o B S k.m ^.XXXXXX",
"XXXXXX}.U h.U q #.i.=.@.i.t.p.&.t.0.i.%.%.} } O.M F.h.a ~.XXXXXX",
"XXXXXX}.M n k - ,.5.&.[ r.=.8...8.-.5. .$.%.$.O.7 m n 6 ~.XX.XXX",
"XXXXXXoX.XF.N j ^  .X.! 4...%. .&. .o.] [ R E ~ x D F. X.XXXXXXX",
"XXXXXXoXXXI.L z & / / : X.[ [ ] | Q ( R / * & : N D K.XXXXXXXXXX",
"XXXXXXXXXXI.M g # & * + / E / E ( * > $ * $ , @ b U I.XXXXXXXXXX",
"XXXXXXXXXXF.6 5 # + + o & % $ # > + # O o X O   w r H.XXXXXXXXXX"
};
