/* XPM */
static char *result[] = {
/* columns rows colors chars-per-pixel */
"32 32 172 2 ",
"   c #010101",
".  c #0B0501",
"X  c #0B0A0A",
"o  c #0C0A07",
"O  c #110D0B",
"+  c #180D0C",
"@  c #150A05",
"#  c #0F110D",
"$  c #1F1207",
"%  c #14110E",
"&  c gray9",
"*  c #1E1914",
"=  c #1C1D1B",
"-  c #220E06",
";  c #221106",
":  c #241308",
">  c #2A190E",
",  c #351B0C",
"<  c #2F1D17",
"1  c #241D16",
"2  c #3E220F",
"3  c #2D261E",
"4  c #3A2312",
"5  c #34241B",
"6  c #3C2619",
"7  c #3D2E1D",
"8  c #1F2021",
"9  c #222222",
"0  c #2C2C2C",
"q  c #2A2C26",
"w  c #3F3627",
"e  c #30322F",
"r  c #2F2F32",
"t  c #333432",
"y  c #37373A",
"u  c #3E3E3E",
"i  c #51280F",
"p  c #442613",
"a  c #482713",
"s  c #482A17",
"d  c #522D14",
"f  c #552F18",
"g  c #573217",
"h  c #5B351B",
"j  c #60361C",
"k  c #653A1E",
"l  c #523026",
"z  c #5A3822",
"x  c #583324",
"c  c #6C3520",
"v  c #6C3B26",
"b  c #793C22",
"n  c #3E403E",
"m  c #5A4131",
"M  c #6F4824",
"N  c #67472E",
"B  c #6A452A",
"V  c #6C4222",
"C  c #744A24",
"Z  c #784E28",
"A  c #7C4122",
"S  c #7A512B",
"D  c #654C33",
"F  c #795C3E",
"G  c #434242",
"H  c #494C46",
"J  c #49514E",
"K  c #505046",
"L  c #50524B",
"P  c #5A594C",
"I  c #535451",
"U  c #545952",
"Y  c #5B5B54",
"T  c #5B5B5A",
"R  c #605C50",
"E  c #5A6056",
"W  c #5D625A",
"Q  c #62635C",
"!  c #68685F",
"~  c #6A6356",
"^  c #716453",
"/  c #5F5F61",
"(  c #5A6763",
")  c #656762",
"_  c #656A64",
"`  c #6A6C64",
"'  c #6C6E6A",
"]  c #646B6A",
"[  c #6D7065",
"{  c #67756E",
"}  c #6E726B",
"|  c #72746D",
" . c #72786E",
".. c #797265",
"X. c #706E70",
"o. c #6C7470",
"O. c #6F7A71",
"+. c #687678",
"@. c #747673",
"#. c #757972",
"$. c #7A7D75",
"%. c #767B78",
"&. c #7D7D7A",
"*. c #864D2B",
"=. c #874A2B",
"-. c #93522A",
";. c #875433",
":. c #995C34",
">. c #955B32",
",. c #A15F35",
"<. c #9C643B",
"1. c #A26134",
"2. c #A86437",
"3. c #AC6B35",
"4. c #A26439",
"5. c #AE6738",
"6. c #AB6B38",
"7. c #B16F39",
"8. c #B4723C",
"9. c #BC703C",
"0. c #C1753D",
"q. c #B87640",
"w. c #B77841",
"e. c #BA7D47",
"r. c #C47644",
"t. c #C67A46",
"y. c #C97B46",
"u. c #C57A48",
"i. c #CA7C48",
"p. c #7D8176",
"a. c #778078",
"s. c #7E827A",
"d. c #818377",
"f. c #80847B",
"g. c #86897E",
"h. c #7F7E80",
"j. c #838483",
"k. c #898786",
"l. c #858982",
"z. c #8A8E86",
"x. c #8B8C8B",
"c. c #8E928B",
"v. c #95948C",
"b. c #929592",
"n. c #979895",
"m. c #999A95",
"M. c #9B9C99",
"N. c #A0A19C",
"B. c #A09EA2",
"V. c #A3A7A1",
"C. c #ADACAC",
"Z. c #A9AAA6",
"A. c #B6B6B6",
"S. c #B7B9B5",
"D. c #BDBCB6",
"F. c #BCBDBB",
"G. c #C1C2BD",
"H. c #C1BFC3",
"J. c #C5C5C4",
"K. c #CCCDC7",
"L. c #CACAC8",
"P. c #D0CDCA",
"I. c #CCCBD1",
"U. c #D3D4D3",
"Y. c #DBDCDB",
"T. c #E4E3DB",
"R. c #E5E6E4",
"E. c #EEEEEC",
"W. c #F0F0ED",
"Q. c #F5F5F4",
"!. c #FAFBF7",
"~. c #FFFFFF",
/* pixels */
"~.~.~.~.~.~.~.~.~.~.~.~.~.~.~.~.~.~.~.~.~.~.~.~.~.~.~.~.~.~.~.~.",
"~.~.~.~.~.~.~.~.~.~.~.~.~.~.~.~.~.!.~.~.~.~.~.~.~.~.~.~.~.~.~.~.",
"~.~.~.~.~.~.~.~.~.~.~.~.~.~.~.~.~.~.~.~.~.~.~.~.~.~.~.~.~.~.~.~.",
"~.~.~.~.~.~.~.~.~.~.~.~.~.Q.K.K.K.K.R.~.~.~.~.~.~.~.~.~.~.~.~.~.",
"~.~.~.~.~.~.~.~.~.~.~.~.~.N.| $.$.[ @.Q.~.~.~.~.~.~.~.~.~.~.~.~.",
"~.~.~.~.~.~.~.~.!.~.!.!.~.N.| d.&.! s.~.~.!.!.~.~.~.~.~.~.~.~.~.",
"~.~.~.~.~.~.~.~.!.!.~.~.R.M.' $.$.} ' U.Q.~.!.!.~.~.~.~.~.~.~.~.",
"~.~.~.~.~.~.~.~.n.b.Y.n.$.Y ) @.$. .) @.&.G.Z.n.~.~.~.~.~.~.~.~.",
"~.~.~.~.~.~.Q.M.o.@.(  .s.[ _ l.s. .$.&.[ Q l.$.n.!.~.~.~.~.~.~.",
"~.~.~.~.~.~.R.%.#.$. .` ~ w q 9 9 = e Q ` p.g.f.f.Q.~.~.~.~.~.~.",
"~.~.~.~.~.!.~.M.W a...m s , -           e $.s.W n.~.!.~.~.~.~.~.",
"~.~.~.~.~.~.P. .{ U N ;.z 4 : .           = T s.| J.~.~.~.~.~.~.",
"~.~.~.~.~.~.$.} a.D 1.1.j i :           X   e x.#.&.~.~.~.~.~.~.",
"~.~.~.~.~.T.' { ^ <.0.1.g i - .               L } Q Y.~.~.~.~.~.",
"~.~.~.~.~.D.[ @.F d.0.1.g 2 - .               q s.` S.~.~.~.~.~.",
"~.~.~.~.~.n.] Q S w.0.3.g p > .               # ! Q n.~.!.~.~.~.",
"~.~.~.W.$.$.&.Q C 0.8.2.k 6 3 %                 W s.l.' G.~.~.~.",
"~.~.~.W.$.$.f.T Z r.q.:.j 5 1 %                 _ s.d.Q G.~.!.~.",
"~.~.~.E.X.#.h.Q C i.q.:.g 5 * o                 } a.a.T F.~.~.~.",
"~.~.~.E.` U / K C i.6.:.d > * O                 I Q W L G.~.~.~.",
"~.~.~.Q.Q.z.j.Q C y.5.1.i > > O                 `  .l.Q.Q.~.~.~.",
"~.~.~.~.~.z.&.` M r.3.1.d 4 > .                 } } c.~.!.~.~.~.",
"~.~.~.!.~.c.+.W Z t.8.4.g 4 :                   ) E x.~.~.~.~.~.",
"~.~.~.Q.L.$.T m Z r.3.:.d 4 $ .                 L E  .J.R.~.~.~.",
"~.~.~.E._ $.k.Q M u.6.=.d 4 $                   ) #.$.Y D.~.~.~.",
"~.~.~.E.&.$.<.P C r.<.=.a 4 $                   ` } g.` F.~.~.~.",
"~.~.~.E.%.s.j.( C 5.-.b a > .                   { l.s.T G.~.!.~.",
"~.~.~.E.o.( ( J M :.A c 4 .     .     X   X X X L _ ] L F.~.~.~.",
"~.~.~.!.Q.j.+.Q N *.v l +   X X & 8 0 t u G G u ' o.l.Q.Q.~.~.~.",
"~.~.~.!.~.b.o.~ v =.x + O 8 r G T ' @.j.k.j.j.%.@.[ b.~.~.~.~.~.",
"~.~.~.~.~.v.} R N v < 0 I X.x.B.C.F.F.A.F.H.L.C.' #.b.~.~.~.~.~.",
"~.~.~.~.~.j.J H 7 5 y X.x.C.H.I.U.I.U.Y.Y.R.E.U.U U x.~.~.~.~.~."
};
