/* XPM */
static char *result[] = {
/* columns rows colors chars-per-pixel */
"32 32 61 1 ",
"  c #454B44",
". c gray30",
"X c #4F514D",
"o c #51524E",
"O c #515750",
"+ c #565A53",
"@ c #595C55",
"# c #5B5E5A",
"$ c #5E615A",
"% c #62645D",
"& c #646662",
"* c #666A63",
"= c #696D65",
"- c #6C6E69",
"; c #6D7067",
": c #6D716A",
"> c #71746D",
", c #74796F",
"< c #747671",
"1 c #757A72",
"2 c #7A7C75",
"3 c #767B78",
"4 c #7C7E79",
"5 c #7B8177",
"6 c #7D817A",
"7 c #80847B",
"8 c #878A7F",
"9 c #848683",
"0 c #868A83",
"q c #8A8D87",
"w c #8B8D8B",
"e c #8E918C",
"r c #90928F",
"t c #939592",
"y c #979994",
"u c #999B96",
"i c #9A9C99",
"p c #9EA19B",
"a c #A1A29E",
"s c #A4A5A2",
"d c #A9AAA6",
"f c #ADAFA9",
"g c #B7B9B5",
"h c #BBBBB7",
"j c #BDBEBB",
"k c #C1C2BD",
"l c #C5C5C3",
"z c #CBCCC6",
"x c #C7C9C8",
"c c #CCCCCA",
"v c #CFD1CC",
"b c #D1D2D0",
"n c #DCDDDA",
"m c #E4E6E4",
"M c #E8E9E7",
"N c #EEEEED",
"B c #EFF0EE",
"V c #F0F0EF",
"C c #F4F4F3",
"Z c #FAFBF7",
"A c #FFFFFF",
/* pixels */
"AAAAAAAAAAAAAAAAAAAAAAAAAAAAAAAA",
"AAAAAAAAAAAAAAAAAAAAAAAAAAAAAAAA",
"AAAAAAAAAAAAAAAAAAAAAAAAAAAAAAAA",
"AAAAAAAAAAAAACxzzzmAAAAAAAAAAAAA",
"AAAAAAAAAAAAAa>22;1CAAAAAAAAAAAA",
"AAAAAAAAAAZZAa>77%6AAZZAAAAAAAAA",
"AAAAAAAAZZAAmp>22;;bCAZZAAAAAAAA",
"AAAAAAAAurny2@%122=14kduAAAAAAAA",
"AAAAAACi>:*<2$@,>%=<;%0<yZAAAAAA",
"AAAAAAM3<31&4sgxxha2%7077CAAAAAA",
"AAAAAZAi$5*eNAAAAAANr-7%uAZAAAAA",
"AAAAAAc<:OwZAZAAAAAAZ0X7>lAAAAAA",
"AAAAAA4>1qZAAAAAAAAAAZw624AAAAAA",
"AAAAAn;;4MAAAAAAAAAAAAC<=%nAAAAA",
"AAAAAj>;fAZAAAAAAAAAAZAp-;gAAAAA",
"AAAAAy%%vAZAAAAAAAAAAZAz%%yAZAAA",
"AAAV251:MAAAAAAAAAAAAAAm=50-kAAA",
"AAAV253-BAAAAAAAAAAAAAAN127%kAZA",
"AAAN><5:NAAAAAAAAAAAAAAN615@jAAA",
"AAAV&+$$VAAAAAAAAAAAAAAC&$$XlAZA",
"AAAZCe5>NAAAAAAAAAAAAAAN<:7ZCAAA",
"AAAZAe11VAAAAAAAAAAAAAAN6;rAZAAA",
"AAAZAe*-BAAAAAAAAAAAAAAV1@eAAAAA",
"AAACz2+@CAAAAAAAAAAAAAAV%+<lmAAA",
"AAAN&47>NAAAAAAAAAAAAAAB,>5+hAAA",
"AAAN443=NAAAAAAAAAAAAAAB3;0*kAAA",
"AAAN361*NAAAAAAAAAAAAAAB566$kAZA",
"AAAN:&$$CAAAAAAAAAAAAAAB$&=XjAAA",
"AAAZZ9-<NAAAAAAAAAAAAAAN<:qCCAAA",
"AAAZAt-<VAAAAAAAAAAAAAAB4-rAAAAA",
"AAAAAt=-BAAAAAAAAAAAAAAB<1tAAAAA",
"AAAAA9 +CAAAAAAAAAAAAAAB#OqAAAAA"
};
