/* XPM */
static char *result[] = {
/* columns rows colors chars-per-pixel */
"32 32 188 2 ",
"   c #5F2A13",
".  c #652D1B",
"X  c #6A381D",
"o  c #5F3727",
"O  c #653926",
"+  c #723A22",
"@  c #753D2E",
"#  c #4C4A3D",
"$  c #5F4835",
"%  c #7A4A25",
"&  c #794529",
"*  c #7F542F",
"=  c #6A4E36",
"-  c #7A4C31",
";  c #6E523B",
":  c #7A5538",
">  c #4D4E4C",
",  c #4B4C49",
"<  c #4D504F",
"1  c #50504D",
"2  c #57584F",
"3  c #5B5A4C",
"4  c #515044",
"5  c #555C53",
"6  c #595B55",
"7  c #555B56",
"8  c #61524C",
"9  c #785747",
"0  c #605E52",
"q  c #5D625B",
"w  c #636255",
"e  c #62645C",
"r  c #69665B",
"t  c #626B5E",
"y  c #75695B",
"u  c #766657",
"i  c #7E705D",
"p  c #5D6C63",
"a  c #646662",
"s  c #666A65",
"d  c #6A6E65",
"f  c #6D6E6B",
"g  c #786E69",
"h  c #6D7067",
"j  c #6C726B",
"k  c #72756D",
"l  c #77786E",
"z  c #737065",
"x  c #6D7374",
"c  c #6F7978",
"v  c #6F7971",
"b  c #727471",
"n  c #797675",
"m  c #757A73",
"M  c #7B7C74",
"N  c #7C7D7A",
"B  c #767B78",
"V  c #803D2D",
"C  c #8F4B1E",
"Z  c #94501D",
"A  c #844426",
"S  c #874029",
"D  c #8D4C2D",
"F  c #884B27",
"G  c #93452C",
"H  c #924E2A",
"J  c #904F25",
"K  c #83542B",
"L  c #945228",
"P  c #8D4E33",
"I  c #954C32",
"U  c #8C5435",
"Y  c #9D5332",
"T  c #935933",
"R  c #9B5B36",
"E  c #955035",
"W  c #A45E3A",
"Q  c #A85A36",
"!  c #9A602E",
"~  c #9A613A",
"^  c #956934",
"/  c #AB6B37",
"(  c #AC663C",
")  c #AC6B3A",
"_  c #A46739",
"`  c #B26D3C",
"'  c #BA6F3E",
"]  c #B5663B",
"[  c #B17137",
"{  c #B4713C",
"}  c #BA733C",
"|  c #C1773D",
" . c #C47B3E",
".. c #855546",
"X. c #8A6848",
"o. c #8C6A45",
"O. c #9A6441",
"+. c #906D4B",
"@. c #B76F42",
"#. c #BA6341",
"$. c #AE7046",
"%. c #B57143",
"&. c #BB7544",
"*. c #BC7A41",
"=. c #8F6F61",
"-. c #897265",
";. c #807E77",
":. c #827D7E",
">. c #9F7D72",
",. c #C06F40",
"<. c #C17747",
"1. c #C97747",
"2. c #C37B44",
"3. c #CC7D45",
"4. c #C77248",
"5. c #C47A49",
"6. c #CE7E49",
"7. c #D07F46",
"8. c #D27F4F",
"9. c #7C8176",
"0. c #76827B",
"q. c #7D827A",
"w. c #C68034",
"e. c #93826D",
"r. c #81847C",
"t. c #85877A",
"y. c #B68673",
"u. c #C68246",
"i. c #CB8244",
"p. c #C58149",
"a. c #CC8349",
"s. c #D28347",
"d. c #D3844B",
"f. c #DA8B4E",
"g. c #D2884A",
"h. c #CF855D",
"j. c #D58651",
"k. c #D58B51",
"l. c #D98C53",
"z. c #E28F52",
"x. c #7E8983",
"c. c #858A83",
"v. c #8B8E8B",
"b. c #888982",
"n. c #8E938C",
"m. c #91928B",
"M. c #929591",
"N. c #9A9796",
"B. c #979994",
"V. c #9A9C97",
"C. c #9C9C99",
"Z. c #A18E85",
"A. c #9FA19B",
"S. c #A7A39C",
"D. c #A7A8A4",
"F. c #BFAFA2",
"G. c #BCB0A9",
"H. c #BDBCB7",
"J. c #BEBFBC",
"K. c #BBB7B3",
"L. c #C2B6AE",
"P. c #C5BAAD",
"I. c #CABCAE",
"U. c #C6BBB3",
"Y. c #C8BBB1",
"T. c #CFC1B6",
"R. c #C1C1BD",
"E. c #C9C3BA",
"W. c #D1C5B6",
"Q. c #C5C5C3",
"!. c #CCCDC7",
"~. c #C9C9C4",
"^. c #D3CCC3",
"/. c #D0CCCD",
"(. c #D2D2CF",
"). c #DDDDDB",
"_. c #E7E3D8",
"`. c #E5E6E4",
"'. c #EEEEED",
"]. c #E8E6E2",
"[. c #F2EBE7",
"{. c #EFF0EE",
"}. c #F0F1EE",
"|. c #F4F5F4",
" X c #FAF3F2",
".X c #F5FAFA",
"XX c #FFFFFE",
"oX c #F6F8F8",
/* pixels */
"XXXXXXXXXXXXXXXXXXXXXXXXXXoXXXXXXXoXXXXXXXXXXXXXXXXXXXXXXXXXXXXX",
"XXXXXXXXXXXXXXXXXXXXXXXXXXXXXXXXXXXXXXXXXXXXXXXXXXXXXXXXXXXXXXXX",
"XXXXXXXXXXXXXXXXXXXXXXXXXXXXXXXXXXXXXXXXXXXXXXXXXXXXXXXXXXXXXXXX",
"XXXXXXXXXXXXXXXXXXXXXXXXXX}.!.!.!.!._.XXXXXXXXXXXXXXXXXXXXXXXXXX",
"XXXXXXXXXXXXXXXXXXXXXXXXXXS.k M M h B |.XXXXXXXXXXXXXXXXXXXXXXXX",
"XXXXXXXXXXXXXXXXXXXX.X.XXXS.k 9.9.r :.XXXX.XXXXXXXXXXXXXXXXXXXXX",
"XXXXXXXXXXXXXXXX.XoXXXXX`.C.z M M h f (.}.XXXXoXXXXXXXXXXXXXXXXX",
"XXXXXXXXXXXXXXXXC.m.).N.m 5 s m B m p v M R.D.V.XXXXXXXXXXXXXXXX",
"XXXXXXXXXXXXoXC.x k a c 0.t w r.M h j m j q b.m B..XXXXXXXXXXXXX",
"XXXXXXXXXXXX`.B m m k s g : : +.o.: 9 u s r.t.q.r.|.XXXXXXXXXXXX",
"XXXXXXXXXX.XXXC.q 9.z ; O.@.} ) / _ _ - y k r.e V.XX.XXXXXXXXXXX",
"XXXXXXXXXXXX/.b d q $ ~ 5.a.*./ / ) ` F P.n.> q.k Q.XXXXXXXXXXXX",
"XXXXXXXXXXoX9.x 9.= O.*.k.l.*.$.` / } F W.XXv.q.B N XXXXXXXXXXXX",
"XXXXXXXXXX_.j j u ^ 2.2.z.l.*.*.{ ) } J I.XX|.k d e ).XXXXXXXXXX",
"XXXXXXXXXXH.j l 9 ` s.w.f.g.*.2.%.[ | J I.XXXXA.d h K.XXXXXXXXXX",
"XXXXXXXXXXN.s w - &.l.a.f.g.p.2.&.[  .L T.XXXX~.q r B.XX.XXXXXXX",
"XXXXXX'.M M 0.w % a.l.i.f.a.u.a.} $.w.Z U.XXXX`.d M c.f Q.XXXXXX",
"XXXXXX'.M M 0.0 K l.l.u.s.s.a.a.[ %.w.C U.XXXX{.m 0.r.r J.XX.XXX",
"XXXXXX}.k l x.q K l.k.u.s.s.2.u.[ @.h.U Y.XXXX'.q.m q.6 J.XXXXXX",
"XXXXXX}.a 2 q 4 K l.g.2.s.a.*.<.[ ! y.=.P.XXXX|.e q 6 1 R.XXXXXX",
"XXXXXXoX|.b.c.e K j.d.2.d.d.<.<.` ^ g ;.U.XXXX'.B j r.oX|.XXoXXX",
"XXXXXXXXXXm.0.r K d.a.2.7.7.*.5.[ o.N , ~.XXXX'.q.h m.XXXXXXXXXX",
"XXXXXXoXXXm.x 0 K d.u.| d.d.2.5.} : -.3 L.XXXX'.b 6 n.XXXXXXXXXX",
"XXXXXX X!.M 7 # K d.a.2.d.6.*.5.{ T & o U.XXXX|.e 5 l Q.`.XXXXXX",
"XXXXXX'.a M c.w K j.p.2.d.1.` &._ H H X L.XXXX'.k k 9.6 K.XXXXXX",
"XXXXXX'.N ;.0.3 K j.&.&.8.1.( ( R G Y + P.XXXX|.m j b.d R.XXXXXX",
"XXXXXX'.M r.9.3 K 6.` ] 1.| Q R K D E X L.XXXX'.q.q.r.q R.XXXXXX",
"XXXXXX'.f q e 4 K 4._ _ ' ] Q D & A I   G.XXXX{.q a s > U.XX.XXX",
"XXXXXXoXoXx.x a - ] W R Q Q I V .   + o ^.XXXX'.m f c.oX.XXXXXXX",
"XXXXXXXXXXm.b r % Q G G G V @ O 9 Z.U.[..XoXXX{.N f n.XXXXXXXXXX",
"XXXXXXXXXXm.f 0 X A O @ ..>.F._.XXXXXXXXoX|.oX'.x m M.XXXXXXXXXX",
"XXXXXX.XXXc., 7 >.=.S.^.[.XX.XoX X|.|. X X|.|.).7 5 v.XXXXXXXXXX"
};
