/* XPM */
static char *result[] = {
/* columns rows colors chars-per-pixel */
"32 32 161 2 ",
"   c #5F2C18",
".  c #59381D",
"X  c #642D12",
"o  c #753A1B",
"O  c #57402A",
"+  c #6F4823",
"@  c #6C4628",
"#  c #68482F",
"$  c #754723",
"%  c #7E4524",
"&  c #744A24",
"*  c #714628",
"=  c #774E28",
"-  c #794F29",
";  c #6B5138",
":  c #7D593C",
">  c #4A4B41",
",  c #484E4D",
"<  c #524F43",
"1  c #4F514D",
"2  c #50514B",
"3  c #5B594C",
"4  c #4F5551",
"5  c #4E5C5E",
"6  c #515650",
"7  c #555B51",
"8  c #5A5C54",
"9  c #5C5C5A",
"0  c #7C5F41",
"q  c #615C51",
"w  c #5E625A",
"e  c #62635C",
"r  c #6B6458",
"t  c #68685F",
"y  c #746756",
"u  c #7F6D57",
"i  c #5F5F61",
"p  c #646661",
"a  c #666A65",
"s  c #696C64",
"d  c #626B69",
"f  c #6C6E69",
"g  c #6D7067",
"h  c #6D726B",
"j  c #777367",
"k  c #72746D",
"l  c #706E70",
"z  c #697573",
"x  c #747672",
"c  c #757972",
"v  c #7A7C74",
"b  c #757C7A",
"n  c #7D7D7A",
"m  c #8A4F2A",
"M  c #904E2D",
"N  c #8E532A",
"B  c #9E5A2F",
"V  c #805331",
"C  c #8C5331",
"Z  c #805F3F",
"A  c #9E5C32",
"S  c #945C32",
"D  c #A15E33",
"F  c #9E6135",
"G  c #9D693E",
"H  c #9A633C",
"J  c #A36234",
"K  c #AA6636",
"L  c #AC6A36",
"P  c #AE6639",
"I  c #A66A3C",
"U  c #AB6B39",
"Y  c #A5643A",
"T  c #B26B3F",
"R  c #B2723D",
"E  c #BE733D",
"W  c #805F44",
"Q  c #885F55",
"!  c #956841",
"~  c #9C6442",
"^  c #856258",
"/  c #98735F",
"(  c #A16B41",
")  c #AE6D42",
"_  c #B26F47",
"`  c #AD744B",
"'  c #B37344",
"]  c #B87345",
"[  c #B77941",
"{  c #BB7A46",
"}  c #B3754A",
"|  c #BD7D4C",
" . c #A67B58",
".. c #BD7F52",
"X. c #9C7963",
"o. c #C37744",
"O. c #C27C46",
"+. c #C97B46",
"@. c #C67A49",
"#. c #CA7C48",
"$. c #7B8076",
"%. c #778078",
"&. c #7D817B",
"*. c #BC8156",
"=. c #828376",
"-. c #80847B",
";. c #878A7F",
":. c #B48866",
">. c #AA927D",
",. c #7F7E80",
"<. c #838483",
"1. c #898785",
"2. c #868A82",
"3. c #8A8F86",
"4. c #8A8D8A",
"5. c #8E918B",
"6. c #92938D",
"7. c #939592",
"8. c #979994",
"9. c #9A9A94",
"0. c #9A9C99",
"q. c #A89C92",
"w. c #A89786",
"e. c #9EA19B",
"r. c #A0A19C",
"t. c #BFA792",
"y. c #A5A5A1",
"u. c #A9AAA6",
"i. c #BCB2A3",
"p. c #B7B9B6",
"a. c #BDBCB6",
"s. c #BEBFBC",
"d. c #CFAA87",
"f. c #C6A58E",
"g. c #D0A987",
"h. c #D3AF8C",
"j. c #D4B191",
"k. c #D9B292",
"l. c #D1B298",
"z. c #C1C1BD",
"x. c #C5C5C3",
"c. c #CBCCC6",
"v. c #CCCCCA",
"b. c #D0CDCA",
"n. c #D1D2D0",
"m. c #DCDCD7",
"M. c #DCDDDB",
"N. c #E4E3DB",
"B. c #F1E9D3",
"V. c #F1EBDF",
"C. c #E5E6E4",
"Z. c #EEEEED",
"A. c #F5EDE1",
"S. c #F9EFE2",
"D. c #EFF0EF",
"F. c #F0F0EE",
"G. c #FBF3EF",
"H. c #F4F5F4",
"J. c #FAFBF7",
"K. c #FFFFFE",
"L. c #F8F7F8",
/* pixels */
"K.K.K.K.K.K.K.K.K.K.K.K.K.K.K.K.K.K.K.K.K.K.K.K.K.K.K.K.K.K.K.K.",
"K.K.K.K.K.K.K.K.K.K.K.K.K.K.K.K.K.K.K.K.K.K.K.K.K.K.K.K.K.K.K.K.",
"K.K.K.K.K.K.K.K.K.K.K.K.K.K.K.K.K.K.K.K.K.K.K.K.K.K.K.K.K.K.K.K.",
"K.K.K.K.K.K.K.K.K.K.K.K.K.H.c.c.c.c.C.K.K.K.K.K.K.K.K.K.K.K.K.K.",
"K.K.K.K.K.K.K.K.K.K.K.K.K.r.j $.v j v H.K.K.K.K.K.K.K.K.K.K.K.K.",
"K.K.K.K.K.K.K.K.K.K.J.J.K.r.k $.$.e n K.K.L.K.K.K.K.K.K.K.K.K.K.",
"K.K.K.K.K.K.K.K.L.L.K.K.C.e.g %.v h f n.H.K.L.J.K.K.K.K.K.K.K.K.",
"K.K.K.K.K.K.K.K.0.6.m.8.b 5 s c v v s c n z.u.0.K.K.K.K.K.K.K.K.",
"K.K.K.K.K.K.H.0.z k p c %.s w v k e a c g w 1.c 8.L.K.K.K.K.K.K.",
"K.K.K.K.K.K.C.b c v k a ^ Z 0 >.v.p.r.n e =.;.&.<.H.K.K.K.K.K.K.",
"K.K.K.K.K.J.K.0.w %.j O ! *.U k.K.K.K.Z.7.f -.e 9.K.J.K.K.K.K.K.",
"K.K.K.K.K.K.b.k z 7 # m ` { U j.K.K.J.K.K.<.6 -.h x.K.K.K.K.K.K.",
"K.K.K.K.K.K.n h %.; H F } { L k.K.K.K.K.K.L.5.$.c n K.K.K.K.K.K.",
"K.K.K.K.K.N.s z y G o.A ' O.L j.K.K.K.K.K.K.H.c s e M.K.K.K.K.K.",
"K.K.K.K.K.a.g x 0 { E F ' *.K l.K.K.K.K.K.L.K.e.g g p.K.K.K.K.K.",
"K.K.K.K.K.8.d e - [ R F } | G t.K.K.K.K.K.K.K.x.w t 0.K.L.K.K.K.",
"K.K.K.Z.v v n e $ E ' J ' *.V q.K.K.K.K.K.K.K.C.s %.2.f z.K.K.K.",
"K.K.K.F.v v ,.8 = o.' D ) @.: z.K.K.K.K.K.K.K.D.c v -.e z.K.K.K.",
"K.K.K.Z.k x <.e & +.[ B } *.W 9.K.K.K.K.K.K.K.Z.&.c $.9 s.K.L.K.",
"K.K.K.F.p 7 i < = +.U D } ..$ w.K.K.K.K.K.K.K.D.p w w 2 z.K.K.K.",
"K.K.K.L.H.3.<.e & +.L J ' { J h.K.K.K.K.K.K.K.Z.c h ;.L.H.K.K.K.",
"K.K.K.K.K.5.n a $ o.L P _ | P g.K.K.K.K.K.K.K.Z.&.g 5.K.K.K.K.K.",
"K.K.K.L.K.5.z w = O.R K } | I h.K.K.K.K.K.K.K.H.x 7 5.K.K.K.K.K.",
"K.K.K.H.v.c i O = o.L F ) O.K d.K.K.K.K.K.K.K.F.p 7 c z.C.K.K.K.",
"K.K.K.Z.a v 1.e & O.I A T @.D f.K.K.K.K.K.K.K.D.k k %.8 p.K.K.K.",
"K.K.K.Z.v v X.8 & o.A M ) ]  .A.K.K.K.K.K.K.K.D.c h ;.a z.K.K.K.",
"K.K.K.Z.v &.,.4 & P N % ~ :.B.K.K.K.K.K.K.K.K.Z.&.&.&.w z.K.J.K.",
"K.K.K.Z.h e w 2 @ S % X X.S.K.J.K.K.K.K.K.K.K.H.w p f 1 s.K.K.K.",
"K.K.K.L.J.<.z e @ C   Q A.J.L.K.K.K.K.K.K.K.K.Z.c g 1.H.H.K.K.K.",
"K.K.K.L.K.6.z r @ o Q G.K.J.K.K.K.K.K.K.K.K.K.D.%.f 7.K.K.K.K.K.",
"K.K.K.K.K.6.k q . X.G.K.K.K.K.K.K.K.K.K.K.K.K.D.x c 7.K.K.K.K.K.",
"K.K.K.K.K.2., 1 i.G.K.J.K.L.K.K.K.K.K.K.K.K.K.D.9 4 4.K.K.K.K.K."
};
