/* XPM */
static char *result[] = {
/* columns rows colors chars-per-pixel */
"32 32 190 2 ",
"   c #5E2C14",
".  c #522B1A",
"X  c #642D1A",
"o  c #6E391E",
"O  c #6A341F",
"+  c #653924",
"@  c #733922",
"#  c #773F30",
"$  c #5E472F",
"%  c #4B493F",
"&  c #6F4321",
"*  c #7A4626",
"=  c #7F522F",
"-  c #644932",
";  c #794930",
":  c #78553A",
">  c #4F4E41",
",  c #4D4E4C",
"<  c #404D4D",
"1  c #4D504F",
"2  c #505043",
"3  c #50504D",
"4  c #57584F",
"5  c #5B594C",
"6  c #515650",
"7  c #535B52",
"8  c #5B5C54",
"9  c #5A5E59",
"0  c #555E5B",
"q  c #61564D",
"w  c #615F54",
"e  c #735550",
"r  c #5D625B",
"t  c #626155",
"y  c #63645C",
"u  c #68675B",
"i  c #706050",
"p  c #73675A",
"a  c #7A6957",
"s  c #5D6B62",
"d  c #646662",
"f  c #666A65",
"g  c #6A6E65",
"h  c #6D6E6B",
"j  c #636B68",
"k  c #7D6C65",
"l  c #6D7067",
"z  c #6D726B",
"x  c #72756D",
"c  c #77786E",
"v  c #767467",
"b  c #6A7472",
"n  c #6F7974",
"m  c #737671",
"M  c #797777",
"N  c #757A73",
"B  c #7B7C74",
"V  c #7C7D7A",
"C  c #767B78",
"Z  c #863F27",
"A  c #803D2C",
"S  c #8F4B1E",
"D  c #94501D",
"F  c #854925",
"G  c #844D2B",
"H  c #8C4C2D",
"J  c #864925",
"K  c #904F25",
"L  c #92452B",
"P  c #944E2A",
"I  c #85562D",
"U  c #92522E",
"Y  c #935124",
"T  c #8D4E32",
"R  c #954A33",
"E  c #885930",
"W  c #805938",
"Q  c #895533",
"!  c #9D5333",
"~  c #945A34",
"^  c #9C5B35",
"/  c #985F3C",
"(  c #945034",
")  c #A55E34",
"_  c #A75B39",
"`  c #9A602E",
"'  c #976839",
"]  c #AB6B37",
"[  c #AD653B",
"{  c #AC6B3A",
"}  c #A4643A",
"|  c #B36C3C",
" . c #BA6F3E",
".. c #B5663B",
"X. c #B17137",
"o. c #B3713C",
"O. c #B9723C",
"+. c #C3793E",
"@. c #C0763B",
"#. c #865648",
"$. c #8C6A49",
"%. c #8C6A45",
"&. c #BA6F43",
"*. c #AE7046",
"=. c #B57143",
"-. c #BA7543",
";. c #BC7A41",
":. c #897265",
">. c #937662",
",. c #807E77",
"<. c #827D7E",
"1. c #9F7E73",
"2. c #C06F40",
"3. c #C17747",
"4. c #C97747",
"5. c #C37C44",
"6. c #CC7D45",
"7. c #C57748",
"8. c #C47A49",
"9. c #CE7F48",
"0. c #D07F46",
"q. c #D27F4F",
"w. c #7C8176",
"e. c #77817B",
"r. c #7C827A",
"t. c #C68034",
"y. c #80847B",
"u. c #85867B",
"i. c #958379",
"p. c #A38F79",
"a. c #B68673",
"s. c #C68246",
"d. c #CB8245",
"f. c #C58149",
"g. c #CC8449",
"h. c #D3844B",
"j. c #D4884C",
"k. c #DA8B4E",
"l. c #D28147",
"z. c #CF855D",
"x. c #D78750",
"c. c #D58951",
"v. c #D98C52",
"b. c #E28E51",
"n. c #7C8782",
"m. c #838582",
"M. c #858A83",
"N. c #8B8E8B",
"B. c #8D8D84",
"V. c #8E928C",
"C. c #92928C",
"Z. c #929591",
"A. c #979994",
"S. c #9A9B95",
"D. c #9B9C99",
"F. c #9B9796",
"G. c #9EA19B",
"H. c #A0A19C",
"J. c #B3A49B",
"K. c #A7A8A4",
"L. c #BFAFA3",
"P. c #BEB3AC",
"I. c #BDBCB6",
"U. c #BEBFBC",
"Y. c #BBB7B3",
"T. c #C3B6AC",
"R. c #C5BAAD",
"E. c #CABCAE",
"W. c #C6BBB3",
"Q. c #C8BBB1",
"!. c #C2B6B0",
"~. c #C2C1BC",
"^. c #CCC2B8",
"/. c #D1C5B6",
"(. c #C5C5C3",
"). c #CBCCC6",
"_. c #CBC9C5",
"`. c #D0CDC9",
"'. c #D9D3CC",
"]. c #D9D9D7",
"[. c #E6E2DB",
"{. c #EAE5DA",
"}. c #E5E6E4",
"|. c #EEEFED",
" X c #EFF0EF",
".X c #F0F1EE",
"XX c #F4F5F4",
"oX c #F6FBFA",
"OX c #FFFFFE",
"+X c #F9F8F5",
/* pixels */
"OXOXOXOXOXOXOXOXOXOXOXOXOX+XOXOXOXOXOXOXOXOXOXOXOXOXOXOXOXOXOXOX",
"OXOXOXOXOXOXOXOXOXOXOXOXOXOXOXOX+XOXOXOXOXOXOXOXOXOXOXOXOXOXOXOX",
"OXOXOXOXOXOXOXOXOXOXOXOXOXOXOXOXOXOXOXOXOXOXOXOXOXOXOXOXOXOXOXOX",
"OXOXOXOXOXOXOXOXOXOXOXOXOXXX).).).).[.OXOXOXOXOXOXOXOXOXOXOXOXOX",
"OXOXOXOXOXOXOXOXOXOXOXOXOXG.v B B l N XXOXOXOXOXOXOXOXOXOXOXOXOX",
"OXOXOXOXOXOXOXOXOXOXoXoXOXK.v u.w.u V OXOXoXOXOXOXOXOXOXOXOXOXOX",
"OXOXOXOXOXOXOXOX+XoXOXOX}.S.l B B z h '.XXOX+XOXOXOXOXOXOXOXOXOX",
"OXOXOXOXOXOXOXOXD.Z.].S.C 7 j M B N s n B ~.K.D.OXOXOXOXOXOXOXOX",
"OXOXOXOXOXOXXXD.b x d n e.u r y.B l x C z r M.B A.+XOXOXOXOXOXOX",
"OXOXOXOXOXOX}.C N B N j p : W $.%.: : p d y.u.r.m.XXOXOXOXOXOXOX",
"OXOXOXOXOXoXOXS.r e.l - ' &.O.{ } ] } ; p x y.t S.OXOXOXOXOXOXOX",
"OXOXOXOXOXOX`.c z 8 $ ' 8.g.;.] ] ] X.F R.Z., y.z (.OXOXOXOXOXOX",
"OXOXOXOXOXOXw.z V - ' -.c.v.f.{ { ] O.J /.OXN.V N V OXOXOXOXOXOX",
"OXOXOXOXOX[.g b i ~ 5.5.b.v.;.-.=.X.O.U E.OXXXx g d ].OXOXOXOXOX",
"OXOXOXOXOXI.z B e | l.t.b.j.O.8.=.X.@.K E.OXOXG.l z I.OXOXOXOXOX",
"OXOXOXOXOXC.j t I O.c.g.k.g.s.f.-.X.+.Y /.OXOX_.r y A.OX+XOXOXOX",
"OXOXOX.XB B C t * 9.v.d.j.h.f.g.O.*.t.D W.OXOX}.g B M.h ~.OXOXOX",
"OXOXOX|.B B n.w I k.v.s.l.h.f.d.O.=.t.S W.OXOX XN e.y.y U.OXOXOX",
"OXOXOX|.h B n.w I c.j.s.l.h.5.s.o.| z.Q Q.OXOX Xr.c w.8 U.OX+XOX",
"OXOXOX|.d 4 s 2 I k.j.s.l.d.5.3.X.` a.:.R.OXOX Xd r r 3 ~.OXOXOX",
"OXOXOX+XXXB.n.t I c.g.5.h.h.3.3.| ' k V ^.OXOX|.N z M.XXXXOXOXOX",
"OXOXOXOXOXC.e.u I j.g.5.0.9.;.8.X.%.V 1 _.OXOX|.r.g V.OXOXOXOXOX",
"OXOXOX+XOXN.b 8 I h.d.@.h.l.f.7.O.= :.4 P.OXOX|.m 8 V.OXOXOXOXOX",
"OXOXOXoX).B 0 > E h.d.5.h.d.-.3.o.~ & + W.OXOXXXd 7 c (.}.OXOXOX",
"OXOXOX|.d B M.w I j.f.5.h.4.=.-.} P P o T.OXOX.Xx x r.8 I.OXOXOX",
"OXOXOX|.V ,.e.5 Q h.;.&.q.4...[ ~ P ! @ W.OXOX XC l u.g U.OX+XOX",
"OXOXOX|.M y.e.5 I 9.| ..4.@._ ^ H H ( + T.OXOX Xr.r.y.y ~.OXOXOX",
"OXOXOX|.h y s > Q 7.[ }  ...) H * F T   P.OXOX Xr y j 1 U.OXOXOX",
"OXOXOXXX+Xm.n y = | ^ ^ _ _ R A X   o . ~.OXOX|.m z M.XXXXOXOXOX",
"OXOXOXOXOXC.b u F ) P L L Z @ + e i.T.[.OXoXOX XV h Z.OXOXOXOXOX",
"OXOXOXOXOXC.h q & F O # #.1.T.[.+XOXOXOXOXOXOX Xm N Z.OXOXOXOXOX",
"OXOXOXOXOXM.< 7 p.>.J.'.XXOXOXOXOXoXoXOXOXOXOX X9 6 N.OXOXOXOXOX"
};
