/* XPM */
static char *result[] = {
/* columns rows colors chars-per-pixel */
"32 32 190 2 ",
"   c #010101",
".  c #0D0906",
"X  c #0C0C0B",
"o  c #0D0502",
"O  c #130A06",
"+  c #130D09",
"@  c #190E0A",
"#  c #0F110D",
"$  c #14120F",
"%  c #171918",
"&  c #35180D",
"*  c #341D14",
"=  c #301713",
"-  c #2C1709",
";  c #3D241B",
":  c #3A2F2F",
">  c #3C322B",
",  c #3C3532",
"<  c #383A37",
"1  c #2A2C26",
"2  c #431D0D",
"3  c #432414",
"4  c #472917",
"5  c #44251A",
"6  c #452D1D",
"7  c #4D321C",
"8  c #51311C",
"9  c #5C341B",
"0  c #5D3718",
"q  c #663A1E",
"w  c #493829",
"e  c #543928",
"r  c #5F3F36",
"t  c #553F31",
"y  c #683927",
"u  c #773F29",
"i  c #5F4427",
"p  c #4C4A3D",
"a  c #574435",
"s  c #6F4727",
"d  c #604129",
"f  c #69472A",
"g  c #794924",
"h  c #794E2D",
"j  c #794629",
"k  c #604739",
"l  c #674B3A",
"z  c #684C33",
"x  c #764E31",
"c  c #75553A",
"v  c #484945",
"b  c #5D4C42",
"n  c #4E514D",
"m  c #51524D",
"M  c #57584F",
"N  c #5B5A4C",
"B  c #515044",
"V  c #4A4E51",
"C  c #525650",
"Z  c #575C54",
"A  c #5A5A55",
"S  c #535C5A",
"D  c #5C5E59",
"F  c #775145",
"G  c #615E53",
"H  c #6C5E53",
"J  c #5D625A",
"K  c #5A6056",
"L  c #636254",
"P  c #62645C",
"I  c #6B645A",
"U  c #62695E",
"Y  c #786854",
"T  c #646662",
"R  c #646A64",
"E  c #6A6C65",
"W  c #6C6E6A",
"Q  c #746E6C",
"!  c #6D726B",
"~  c #66716B",
"^  c #72736C",
"/  c #75786E",
"(  c #6D7373",
")  c #6F7B70",
"_  c #747572",
"`  c #7C7673",
"'  c #747A72",
"]  c #7B7D74",
"[  c #777C78",
"{  c #7C7D79",
"}  c #813E2D",
"|  c #814F28",
" . c #97492F",
".. c #815027",
"X. c #82532B",
"o. c #8D4B30",
"O. c #944C31",
"+. c #8C5030",
"@. c #9C5B36",
"#. c #965A35",
"$. c #A45D36",
"%. c #A65738",
"&. c #A65431",
"*. c #AE6B3D",
"=. c #A66538",
"-. c #B1663C",
";. c #B46C3E",
":. c #BA6F3E",
">. c #B8663B",
",. c #B4713D",
"<. c #B9733B",
"1. c #BD7A3F",
"2. c #C2783F",
"3. c #996641",
"4. c #AF6E40",
"5. c #B86541",
"6. c #AE7347",
"7. c #B57543",
"8. c #BC7443",
"9. c #BC7A43",
"0. c #B87748",
"q. c #BB7949",
"w. c #846E62",
"e. c #C06F40",
"r. c #C97747",
"t. c #C37B44",
"y. c #CC7D45",
"u. c #C37A48",
"i. c #CE7D49",
"p. c #C67446",
"a. c #D07F46",
"s. c #D27F4F",
"d. c #7C8277",
"f. c #77827B",
"g. c #7D827A",
"h. c #778176",
"j. c #80847B",
"k. c #84867A",
"l. c #C78246",
"z. c #CB8347",
"x. c #CE8847",
"c. c #CB834A",
"v. c #C28049",
"b. c #D18447",
"n. c #D3844B",
"m. c #DA8C4D",
"M. c #D28947",
"N. c #D58B52",
"B. c #DA8B53",
"V. c #D48651",
"C. c #E28E50",
"Z. c #7E8883",
"A. c #848683",
"S. c #848A82",
"D. c #8D8B84",
"F. c #8B8E8A",
"G. c #8F938E",
"H. c #91928B",
"J. c #9B9489",
"K. c #929592",
"L. c #979894",
"P. c #9B9C99",
"I. c #999996",
"U. c #A69F9C",
"Y. c #A0A19C",
"T. c #AAA9A5",
"R. c #B8B7B5",
"E. c #BBBCB7",
"W. c #BEBFBC",
"Q. c #B6BBB7",
"!. c #C0BBBB",
"~. c #C1C2BD",
"^. c #BFC4C2",
"/. c #C5C5C4",
"(. c #CCCDC7",
"). c #CACAC8",
"_. c #D0CCCD",
"`. c #D2D2CF",
"'. c #DBDEDC",
"]. c #D6D6D5",
"[. c #E4E3DA",
"{. c #DCDEE1",
"}. c #E3DCE0",
"|. c #DFE0E1",
" X c #E6E6E5",
".X c #EEEEEC",
"XX c #F0F0ED",
"oX c #F5F5F4",
"OX c #FFFFFE",
"+X c #F8FBFA",
/* pixels */
"OXOXOXOXOXOXOXOXOXOXOXOXOX+XOXOXOX+XOXOXOXOXOXOXOXOXOXOXOXOXOXOX",
"OXOXOXOXOXOXOXOXOXOXOXOXOXOXOXOXOXOXOXOXOXOXOXOXOXOXOXOXOXOXOXOX",
"OXOXOXOXOXOXOXOXOXOXOXOXOXOXOXOXOXOXOXOXOXOXOXOXOXOXOXOXOXOXOXOX",
"OXOXOXOXOXOXOXOXOXOXOXOXOXXX(.(.(.(.[.OXOXOXOXOXOXOXOXOXOXOXOXOX",
"OXOXOXOXOXOXOXOXOXOXOXOXOXY.^ d.] W _ oXOXOXOXOXOXOXOXOXOXOXOXOX",
"OXOXOXOXOXOXOXOXOXOX+X+XOXY.^ d.{ U g.OXOX+X+XOXOXOXOXOXOXOXOXOX",
"OXOXOXOXOXOXOXOX+X+XOXOX XP.! ] ] ! ! `.oXOX+X+XOXOXOXOXOXOXOXOX",
"OXOXOXOXOXOXOXOXP.H.'.J.[ S U h.] / U / ] ~.T.P.OXOXOXOXOXOXOXOX",
"OXOXOXOXOXOXoXP.( _ R ) f.R J g.d.! ' [ ~ J S.] L.+XOXOXOXOXOXOX",
"OXOXOXOXOXOX X[ ' ' ) R Y c z z k t w G E k.k.j.j.oXOXOXOXOXOXOX",
"OXOXOXOXOX+XOXP.J d.^ l #.8.,.+.y 9 4 - > ] d.J P.OX+XOXOXOXOXOX",
"OXOXOXOXOXOX_.` ~ Z a @.u.x.9.4.#.q e 6 o % D d.^ /.OXOXOXOXOXOX",
"OXOXOXOXOX+Xd.! d.f 3.0.n.m.9.,.6.g 9 7 @   : F.' { OXOXOXOXOXOX",
"OXOXOXOXOX[.! ! H #.t.t.C.m.9.7.7.h 0 8 +     C ! P '.OXOXOXOXOX",
"OXOXOXOXOXE.! / c ;.b.l.C.x.1.u.8.| 0 8 O     1 j.E R.OXOXOXOXOX",
"OXOXOXOXOXL.R L h u.N.c.m.x.l.u.9.| 9 7 +     + U P L.OX+XOXOXOX",
"OXOXOXXX[ ] h.I g z.B.z.m.x.l.i.0.X.0 7 O       J g.A.W ~.OXOXOX",
"OXOXOXXX] [ f.D ..B.B.l.n.b.l.l.9...0 7 O       E g.j.P ~.OXOXOX",
"OXOXOXXX^ / Z.G X.B.V.z.n.c.t.y.<.h d w O       ! [ d.A W.OX+XOX",
"OXOXOXXXT M J B X.B.V.t.a.z.9.t.<.h t a +       C P J n !.OXOXOX",
"OXOXOX+XoXD.Z.L X.m.i.9.n.n.9.p.<.x > p +       R / S.oXoXOXOX+X",
"OXOXOX+XOXG.g.U X.m.b.t.a.i.9.u.7.z < : $       ! ! G.OXOXOXOXOX",
"OXOXOXOXOXH.! L X.V.c.2.n.n.u.t.7.i > > .       U K F.OXOXOXOXOX",
"OXOXOXXX).' K p X.n.l.t.n.y.9.t.,.f * ; +       m D / /. XOXOXOX",
"OXOXOX.XR g.S.J X.V.i.p.n.r.,.7.*.q 3 5 +       T ' ] A E.OXOXOX",
"OXOXOX.X{ w.f.A X.V.0.8.n.r.*.-.@.y 3 5 .       E ^ k.E ~.OXOXOX",
"OXOXOX.X] k.d.N X.i.4.-.p.e.$.@.+.9 3 ; .       ! S.g.D W.OXOXOX",
"OXOXOX.XW J J B X.p.-.=.:.>.&.o.j 9 5 * O . X # n R R n W.OXOXOX",
"OXOXOX+X+XZ.( T j 5.@.@.%.%. .u y 2 & = , v v < W ! A.oXoXOXOXOX",
"OXOXOX+XOXH._ I j %.O. . .o.u y r b H w.A.Z.A.( _ ! K.OXOXOXOXOX",
"OXOXOXOXOXH.Q G s o.y y y F w.J.T.Q.^.R.Q.^.).T.~ ' K.OXOXOXOXOX",
"OXOXOXOXOXZ.V v 6 y I D.U.!.`.{.{.{.{.}. X XoX'.Z C F.OXOXOXOXOX"
};
