/* XPM */
static char *result[] = {
/* columns rows colors chars-per-pixel */
"23 32 69 1 ",
"  c #655243",
". c #6B5643",
"X c #705742",
"o c #745A43",
"O c #785F43",
"+ c #7D6443",
"@ c #A07A3F",
"# c #825E42",
"$ c #836343",
"% c #8D6645",
"& c #826844",
"* c #8D6944",
"= c #8E6748",
"- c #946B46",
"; c #996D47",
": c #966C48",
"> c #9A6F48",
", c #947246",
"< c #9B7443",
"1 c #9D7B46",
"2 c #967148",
"3 c #9D714A",
"4 c #957354",
"5 c #94745A",
"6 c #9E7E5A",
"7 c #A27D42",
"8 c #A3754D",
"9 c #A47C4C",
"0 c #A9794F",
"q c #A77850",
"w c #AD7C52",
"e c #B17F53",
"r c #9E7D62",
"t c #A58146",
"y c #AB8646",
"u c #AE8946",
"i c #A4824C",
"p c #A98549",
"a c #AD8A4B",
"s c #B28D46",
"d c #B28D49",
"f c #B69147",
"g c #B7934B",
"h c #B9964D",
"j c #BE9B4E",
"k c #B58256",
"l c #BB8659",
"z c #BE895B",
"x c #B49350",
"c c #BA9952",
"v c #9B8472",
"b c #AC937D",
"n c #B09571",
"m c #B69D7D",
"M c #C09D4E",
"N c #C48D5E",
"B c #C19F51",
"V c #C4A354",
"C c #C9A753",
"Z c #CCAA55",
"A c #CCAD59",
"S c #D1B25C",
"D c #CC9362",
"F c #D09664",
"G c #B49E8E",
"H c #B49F91",
"J c #B7A089",
"K c #CAB28B",
"L c None",
/* pixels */
"LLLLLLLLLLLLLLLLLLLLLLL",
"LLLLLLLLLLLLLLLLLLLLLLL",
"LLLLLLLLLLLLLLLLLLLLLLL",
"LLLLLLLLFFFFFlLLLLLLLLL",
"LLLLLLFFDNFFDDDllLLLLLL",
"LLLLFDNzNNNDNzlNNkqLLLL",
"LLLFDNNlewk08wq8wlk8LLL",
"LLFFNe8;:-%==->2-:w8LLL",
"LLDk3:*%+Xooo&*%:>q;LLL",
"LLq;*=&**&,-1tii*-3=LLL",
"LLkw811axypVuySfi2qeLLL",
"LL3>3htVAsaAdySft9:3LLL",
"LL:-3h7VZysAuySf7y>3LLL",
"LL%-3h7MAuuZuyAf7t-;LLL",
"LL=:3y7MAsuZfaCdtp->LLL",
"LL=:3t7VZsuCduAf13--LLL",
"LLL:;ytjZfuCfyZf@,8;LLL",
"LLL3;ttjZauCduAgi3;;LLL",
"LLL33aVCAVVSVVSKG4-3LLL",
"LLL;3<<ty11p11pJG4;-LLL",
"LLL;;,<fVytVytZmvr--LLL",
"LLL;>,@jZuuZfuAnb5;-LLL",
"LLL33,@jZauZuyAa6=;-LLL",
"LLL8--1jVyuCfuZf@-3:LLL",
"LLL3--@jZduCdyAf@;3-LLL",
"LLL:;:@MZduZduAf<38-LLL",
"LLL*-,cZAVVZVVAVg33%LLL",
"LLL-==,ty11yt1pt,:;%LLL",
"LLL--%*hCttCytCu*:-%LLL",
"LLL%-%<MZuuCsuZf@-*OLLL",
"LLL$$#*fB7@j@tMy*%%oLLL",
"LLLXoX.O+oo+oo#OXoo LLL"
};
