/* XPM */
static char *result[] = {
/* columns rows colors chars-per-pixel */
"32 32 160 2 ",
"   c #59381B",
".  c #653016",
"X  c #7A3D1A",
"o  c #7B401F",
"O  c #57402A",
"+  c #6E4626",
"@  c #6F4825",
"#  c #68472F",
"$  c #734723",
"%  c #744B24",
"&  c #774E28",
"*  c #7A512B",
"=  c #674D34",
"-  c #79503C",
";  c #7D5B3E",
":  c #4A4B41",
">  c #424D4F",
",  c gray30",
"<  c #524F46",
"1  c #4F514D",
"2  c #50514B",
"3  c #5B594D",
"4  c #4F5655",
"5  c #4E5C5E",
"6  c #525751",
"7  c #555B51",
"8  c #5A5C54",
"9  c #5B5B59",
"0  c #605D51",
"q  c #5E625A",
"w  c #6A6556",
"e  c #63635C",
"r  c #68685F",
"t  c #7F6D57",
"y  c #726554",
"u  c #5F5F61",
"i  c #5E6563",
"p  c #646661",
"a  c #666A65",
"s  c #696C64",
"d  c #626B69",
"f  c #6C6E69",
"g  c #6D7067",
"h  c #67756E",
"j  c #6D726B",
"k  c #777467",
"l  c #72746D",
"z  c #706E70",
"x  c #687573",
"c  c #747672",
"v  c #757972",
"b  c #7A7C74",
"n  c #757C7A",
"m  c #7D7D7A",
"M  c #824826",
"N  c #8A4F2A",
"B  c #8E522D",
"V  c #93542E",
"C  c #9E5A2F",
"Z  c #805432",
"A  c #805F3F",
"S  c #945B31",
"D  c #9E5D34",
"F  c #A05D32",
"G  c #9D623B",
"H  c #9C683D",
"J  c #A26235",
"K  c #AC6635",
"L  c #AB6B35",
"P  c #AA673A",
"I  c #A66A3C",
"U  c #AC6B39",
"Y  c #A5643A",
"T  c #B2723D",
"R  c #BE733E",
"E  c #826146",
"W  c #83604B",
"Q  c #89634D",
"!  c #956841",
"~  c #9F765B",
"^  c #A16B42",
"/  c #AE6C41",
"(  c #B06E42",
")  c #AD744B",
"_  c #B37344",
"`  c #B77840",
"'  c #BC7B46",
"]  c #B37549",
"[  c #BD7D4C",
"{  c #A47B5A",
"}  c #BD7F53",
"|  c #C37744",
" . c #C47A46",
".. c #C97B46",
"X. c #CA7C48",
"o. c #C47C4A",
"O. c #7B8076",
"+. c #778078",
"@. c #7D817B",
"#. c #B98056",
"$. c #818377",
"%. c #81847B",
"&. c #878A7F",
"*. c #B78864",
"=. c #AA927D",
"-. c #7F7E80",
";. c #838483",
":. c #898786",
">. c #868983",
",. c #8A8F86",
"<. c #8A8D8A",
"1. c #8E918B",
"2. c #93938D",
"3. c #939592",
"4. c #979994",
"5. c #999A94",
"6. c #9A9C99",
"7. c #A89887",
"8. c #A4988D",
"9. c #9FA19B",
"0. c #A0A19C",
"q. c #A5A5A1",
"w. c #A9AAA6",
"e. c #BAB0A1",
"r. c #B5B2AE",
"t. c #B7B9B5",
"y. c #BDBCB6",
"u. c #BDBEBB",
"i. c #C5A78D",
"p. c #CFAA8A",
"a. c #D1A986",
"s. c #D4AD8F",
"d. c #C0A892",
"f. c #D3B193",
"g. c #D9B292",
"h. c #C1C2BD",
"j. c #C5C5C3",
"k. c #CBCCC6",
"l. c #CCCDCA",
"z. c #D0CDCB",
"x. c #D1D2D0",
"c. c #DCDCD7",
"v. c #DDDEDC",
"b. c #E4E3DB",
"n. c #F2E8D7",
"m. c #FAEDDD",
"M. c #F1E5DB",
"N. c #E5E6E4",
"B. c #EEEEEC",
"V. c #F3E7E1",
"C. c #F1E9E2",
"Z. c #F2EFEE",
"A. c #EFF0EE",
"S. c #F1F0EE",
"D. c #EFF4F5",
"F. c #F5F5F5",
"G. c #FCFBF7",
"H. c #F5F7FA",
"J. c #F4FBFD",
"K. c #FEFEFE",
/* pixels */
"K.K.K.K.K.K.K.K.K.K.K.K.K.K.K.K.K.K.K.K.K.K.K.K.K.K.K.K.K.K.K.K.",
"K.K.K.K.K.K.K.K.K.K.K.K.K.K.K.K.K.K.K.K.K.K.K.K.K.K.K.K.K.K.K.K.",
"K.K.K.K.K.K.K.K.K.K.K.K.K.K.K.K.K.K.K.K.K.K.K.K.K.K.K.K.K.K.K.K.",
"K.K.K.K.K.K.K.K.K.K.K.K.K.F.k.k.k.k.N.K.K.K.K.K.K.K.K.K.K.K.K.K.",
"K.K.K.K.K.K.K.K.K.K.K.G.K.0.l b b k b F.K.K.K.K.K.K.K.K.K.K.K.K.",
"K.K.K.K.K.K.K.K.K.K.J.K.K.0.l %.@.e m K.K.H.J.K.K.K.K.K.K.K.K.K.",
"K.K.K.K.K.K.K.K.H.G.K.K.N.6.g b b g j x.F.K.G.G.K.K.K.K.K.K.K.K.",
"K.K.K.K.K.K.K.K.6.3.c.5.n 5 d v b b a v b h.w.6.K.K.K.K.K.K.K.K.",
"K.K.K.K.K.K.F.6.x l r c @.a q b l r a v k q >.b 4.G.K.K.K.K.K.K.",
"K.K.K.K.K.K.N.n v b v a t A ; =.l.t.0.n q @.&.@.;.F.K.K.K.K.K.K.",
"K.K.K.K.K.J.K.6.q +.k O ! [ L g.K.K.K.B.1.g %.e 5.K.K.K.K.K.K.K.",
"K.K.K.K.K.K.z.k h 7 # N ) ' U f.K.K.K.K.K.:.1 @.g j.K.K.K.K.K.K.",
"K.K.K.K.K.K.m x +.= H G _ #.L g.K.K.K.K.K.G.1.m v m K.K.K.K.K.K.",
"K.K.K.K.K.b.a h y H R F T | L s.K.K.K.K.K.K.F.c s e v.K.K.K.K.K.",
"K.K.K.K.K.y.j c ; #.R F T #.L s.K.K.K.K.K.J.K.9.g g t.K.K.K.K.K.",
"K.K.K.K.K.4.d w * T T F ` #.I e.K.K.K.K.K.K.K.k.q r 5.K.G.K.K.K.",
"K.K.K.S.b b m e $ R T J _ o.Z 8.K.K.K.K.K.K.K.N.s O.>.g j.K.K.K.",
"K.K.K.B.b b ;.9 & | ` F ( #.; r.K.K.K.K.K.K.K.A.v @.@.e u.K.G.K.",
"K.K.K.Z.j v -.e & ..` D _ #.E 2.K.K.K.K.K.K.K.B.m v O.8 u.K.K.K.",
"K.K.K.S.p 6 i > & ..U F ] } $ 7.K.K.K.K.K.K.K.A.p q q 1 h.K.K.K.",
"K.K.K.G.F.,.;.i $ ..K Y ]  .J f.K.K.K.K.K.K.K.B.v j >.F.F.K.K.K.",
"K.K.K.K.K.1.~ d $  .L K ( [ P p.K.K.K.K.K.K.K.B.@.g 1.K.G.K.K.K.",
"K.K.K.G.K.1.z e %  .T K ] [ P s.K.K.K.K.K.K.K.F.c 8 1.K.K.K.K.K.",
"K.K.K.F.k.v 9 : %  .L J U  .K a.K.K.K.K.K.K.K.S.r 7 v j.N.K.K.K.",
"K.K.K.B.a b :.e $  .I D / o.J i.K.K.K.K.K.K.K.B.j v O.8 t.K.K.K.",
"K.K.K.B.m b ~ 3 % | J V / ] { C.K.K.K.K.K.K.K.F.v f >.s h.K.K.K.",
"K.K.K.B.b @.n 5 % P V V G *.M.K.K.K.K.K.K.K.K.B.@.@.%.q h.K.G.K.",
"K.K.K.B.f p i 1 @ S M X { m.K.H.K.K.K.K.K.K.K.B.q i a 1 u.K.K.K.",
"K.K.K.H.H.;.x e + B . W M.K.F.F.F.F.F.K.K.K.K.B.v j :.F.H.K.K.K.",
"K.K.K.G.K.2.v w + X - C.K.J.J.G.G.H.F.F.H.G.K.F.@.s 3.K.K.K.K.K.",
"K.K.K.K.K.2.j 3   Q V.K.H.K.K.H.K.K.J.G.F.F.F.B.x v 3.K.K.K.K.K.",
"K.K.K.K.K.:.> 4 e.C.K.H.F.Z.S.S.F.G.H.F.H.F.F.v.9 6 <.K.K.K.K.K."
};
