/* XPM */
static char *result[] = {
/* columns rows colors chars-per-pixel */
"32 32 72 1 ",
"  c #000000",
". c #080907",
"X c #0A0B0A",
"o c #0F110D",
"O c #131313",
"+ c #1C1D1B",
"@ c #1F201F",
"# c #212221",
"$ c #2A2C26",
"% c #2B2C2A",
"& c #31332F",
"* c #323231",
"= c #3E3E3E",
"- c #3E403E",
"; c #424242",
": c #494C47",
"> c #4C4E4C",
", c #4E514C",
"< c #51524D",
"1 c #525550",
"2 c #555953",
"3 c #5A5A55",
"4 c #5B5D59",
"5 c #5A6056",
"6 c #5E625B",
"7 c #61645E",
"8 c #65685E",
"9 c #646661",
"0 c #666963",
"q c #6A6D65",
"w c #6C6E6A",
"e c #6E726B",
"r c #72756D",
"t c #72786E",
"y c #747672",
"u c #757971",
"i c #7A7D75",
"p c #767B78",
"a c #7B7D79",
"s c #7C8177",
"d c #7E827A",
"f c #81847C",
"g c #86897F",
"h c #848582",
"j c #858982",
"k c #8A8D86",
"l c #8B8D8B",
"z c #8E928C",
"x c #929491",
"c c #979994",
"v c #999B96",
"b c #9B9D9A",
"n c #A0A19C",
"m c #A5A6A3",
"M c #A9AAA6",
"N c #ADADAC",
"B c #B6B6B6",
"V c #B7B9B5",
"C c #BBBBB7",
"Z c #BCBDBB",
"A c #C1C2BD",
"S c #C4C4C3",
"D c #CCCDC7",
"F c #CCCCCA",
"G c #D3D4D3",
"H c #DCDCDB",
"J c #E4E5E4",
"K c #EEEEEC",
"L c #F0F0ED",
"P c #F5F5F4",
"I c #FAFBF7",
"U c #FFFFFF",
/* pixels */
"UUUUUUUUUUUUUUUUUUUUUUUUUUUUUUUU",
"UUUUUUUUUUUUUUUUUIUUUUUUUUUUUUUU",
"UUUUUUUUUUUUUUUUUUUUUUUUUUUUUUUU",
"UUUUUUUUUUUUUPDDDDJUUUUUUUUUUUUU",
"UUUUUUUUUUUUUnrsieyPUUUUUUUUUUUU",
"UUUUUUUUIUIIUnrfa8aUUIUIUUUUUUUU",
"UUUUUUUUIIUUJnqiirwGPUIIUUUUUUUU",
"UUUUUUUUcxHci28ruu8raAMbUUUUUUUU",
"UUUUUUPbrr9yfeqggruaq7jucIUUUUUU",
"UUUUUUJppute0%+##+&7qfgffPUUUUUU",
"UUUUUIUb6iy%        &id6cUIUUUUU",
"UUUUUUFte6#          +4drSUUUUUU",
"UUUUUUaed% .          *kuaUUUUUU",
"UUUUUJqr6             .,e7HUUUUU",
"UUUUUCwd& .          . $fqVUUUUU",
"UUUUIc08o              X87cUIUUU",
"UUULpss7                6djwAUUU",
"UUULiss6                0df6AUIU",
"UUUKetd6                ess3CUUU",
"UUUL926,                196>AUUU",
"UUUIPkd7                0tgPPUUU",
"UUUUUzs0                eezUUUUU",
"UUUIUze7                96zUUUUU",
"UUUPDi2:                <5rSJUUU",
"UUUK0ij6                9ui2CUUU",
"UUUKaas4                0ejqAUUU",
"UUUKpfa2                ejd6AUIU",
"UUUKw97,           . XXX,0q>ZUUU",
"UUUPIhe9    ..XO+#%*=;;=wejPPUUU",
"UUUUUxe9  XXX+*;4wphhhhprexUUUUU",
"UUUUUxe4XO+*>ylbNBZBZSFNwpxUUUUU",
"UUUIUh>:+%=wlNSFGGHGHJKG21kUUUUU"
};
