/* XPM */
static char *result[] = {
/* columns rows colors chars-per-pixel */
"32 32 61 1 ",
"  c #454B44",
". c gray30",
"X c #4F514D",
"o c #51524E",
"O c #515750",
"+ c #555A52",
"@ c #595C54",
"# c #595C58",
"$ c #5E615A",
"% c #62655D",
"& c #646662",
"* c #666B64",
"= c #696C64",
"- c #6C6E69",
"; c #6D7067",
": c #6D716A",
"> c #71746D",
", c #75786F",
"< c #747671",
"1 c #757A72",
"2 c #7A7D75",
"3 c #767B78",
"4 c #7C7E7A",
"5 c #7B8177",
"6 c #7D817A",
"7 c #80847C",
"8 c #878A7F",
"9 c #848683",
"0 c #868A83",
"q c #8A8D87",
"w c #8C8D8B",
"e c #8E918C",
"r c #90928F",
"t c #939592",
"y c #979994",
"u c #999B96",
"i c #9A9C99",
"p c #9FA19B",
"a c #A1A29E",
"s c #A4A6A2",
"d c #A9AAA6",
"f c #AEB1AB",
"g c #B7B9B5",
"h c #BBBBB7",
"j c #BDBEBB",
"k c #C1C2BD",
"l c #C5C5C3",
"z c #C7C9C5",
"x c #CBCCC6",
"c c #CACBCA",
"v c #CFD1CC",
"b c #D1D2D0",
"n c #DCDDDB",
"m c #E4E6E4",
"M c #E8E9E7",
"N c #EDEEEC",
"B c #EFF0EE",
"V c #F0F0EE",
"C c #F5F5F4",
"Z c #FAFBF7",
"A c #FEFEFE",
/* pixels */
"AAAAAAAAAAAAAAAAAAAAAAAAAAAAAAAA",
"AAAAAAAAAAAAAAAAAAAAAAAAAAAAAAAA",
"AAAAAAAAAAAAAAAAAAAAAAAAAAAAAAAA",
"AAAAAAAAAAAAACxxxxmAAAAAAAAAAAAA",
"AAAAAAAAAAAAAa>22;1CAAAAAAAAAAAA",
"AAAAAAAAAAACAa>77%4AAZAAAAAAAAAA",
"AAAAAAAAZZAAmp-22>-bCAZZAAAAAAAA",
"AAAAAAAAurny3@=,22=,2lduAAAAAAAA",
"AAAAAACi<:*14$@,<%=1;%01yZAAAAAA",
"AAAAAAm313<&6agzcha4$7879CAAAAAA",
"AAAAAZAi$5*eNAAAAAANr=7%uAZAAAAA",
"AAAAAAc1:owZAAAAZAZAA0o6:lAAAAAA",
"AAAAAA4>1qZAAAAAAAAAAZw614AAAAAA",
"AAAAAm;;3NAAAAAAAAAAAAC<=%nAAAAA",
"AAAAAh>;fAZAAAAAAAAAAZAa;:gAAAAA",
"AAAAAt%%vAZAAAAAAAAAAAAz%%yAZAAA",
"AAAV331:MAAAAAAAAAAAAAAm=50-kAAA",
"AAAN255;BAAAAAAAAAAAAAAB157%kAAA",
"AAAV>,2:NAAAAAAAAAAAAAAN4<5#jAZA",
"AAAV&+$$CAAAAAAAAAAAAAAV&$$XkAAA",
"AAAZCq6>NAAAAAAAAAAAAAAB1;0CCAAA",
"AAAZAe5,NAAAAAAAAAAAAAAN5;rAZAAA",
"AAAAAr=-VAAAAAAAAAAAAAAN<$eAAAAA",
"AAAVx3O@CAAAAAAAAAAAAAAC$+1lmAAA",
"AAAN*47>NAAAAAAAAAAAAAAV<>5+hAAA",
"AAAB441=NAAAAAAAAAAAAAAV3;0*kAAA",
"AAAN371*BAAAAAAAAAAAAAAB566$kAZA",
"AAAN:&$$NAZZZZAZAAAAAAAV$&-XjAAA",
"AAAZZ9-<MACZCCCCCCCAZAAV<:qCCAAA",
"AAAAAt-<NAAAAAAZZZCCCZAV4-rAAAAA",
"AAAAZt-*MAAAAAZZAAACCCZM<1tAAAAA",
"AAAZA9 #MACCCVBBCAZCZCCn#OqAAAAA"
};
