/* XPM */
static char *result[] = {
/* columns rows colors chars-per-pixel */
"32 32 189 2 ",
"   c #010101",
".  c #0A0603",
"X  c #0B0805",
"o  c #0A0B0A",
"O  c #150602",
"+  c #140A03",
"@  c #190C05",
"#  c #150D0B",
"$  c #1F130B",
"%  c #1B1006",
"&  c #141312",
"*  c #1A1614",
"=  c #1D1D1D",
"-  c #25190F",
";  c #2A170A",
":  c #341D0E",
">  c #3A1F0E",
",  c #251B15",
"<  c #271C1B",
"1  c #351F10",
"2  c #37200D",
"3  c #3B230F",
"4  c #2B221C",
"5  c #25211D",
"6  c #332113",
"7  c #3C2313",
"8  c #3F2718",
"9  c #38281D",
"0  c #232422",
"q  c #272826",
"w  c #2A2A2A",
"e  c #2C2A24",
"r  c #352E21",
"t  c #333432",
"y  c #3B3D39",
"u  c #383936",
"i  c #422612",
"p  c #4C2B15",
"a  c #452A1A",
"s  c #46291B",
"d  c #592F19",
"f  c #552E1B",
"g  c #5D321B",
"h  c #673617",
"j  c #63371B",
"k  c #6A3C1E",
"l  c #74351C",
"z  c #472C25",
"x  c #453022",
"c  c #5F3B27",
"v  c #573222",
"b  c #6A3A24",
"n  c #743E23",
"m  c #44412F",
"M  c #4F473A",
"N  c #4D4A38",
"B  c #524634",
"V  c #534D3B",
"C  c #5F4E3D",
"Z  c #54513F",
"A  c #6C442A",
"S  c #744322",
"D  c #764728",
"F  c #774C2B",
"G  c #7B4A25",
"H  c #634F3C",
"J  c #7F5735",
"K  c #3E3F41",
"L  c #454944",
"P  c #484B47",
"I  c #4F4F4E",
"U  c #444444",
"Y  c #5B4F40",
"T  c #4F524B",
"R  c #565240",
"E  c #5C5144",
"W  c #514F52",
"Q  c #4E5C5A",
"!  c #525252",
"~  c #555A54",
"^  c #595C55",
"/  c #5B5C5A",
"(  c #535D5A",
")  c #615044",
"_  c #755D44",
"`  c #5E625B",
"'  c #62655D",
"]  c #69675F",
"[  c #65695E",
"{  c #746C5D",
"}  c #5D6965",
"|  c #5D6461",
" . c #636562",
".. c #666962",
"X. c #6A6C66",
"o. c #666E68",
"O. c #6B6E69",
"+. c #67666A",
"@. c #726C61",
"#. c #6B7067",
"$. c #6E716A",
"%. c #72746D",
"&. c #73796F",
"*. c #777466",
"=. c #6F6F71",
"-. c #6D7574",
";. c #6B7875",
":. c #737671",
">. c #757A72",
",. c #7A7D75",
"<. c #777679",
"1. c #727C79",
"2. c #7B7C79",
"3. c #874926",
"4. c #824929",
"5. c #89482A",
"6. c #825127",
"7. c #85532A",
"8. c #8C542F",
"9. c #9A5A2F",
"0. c #825C37",
"q. c #995A31",
"w. c #A36336",
"e. c #AB6B34",
"r. c #A36439",
"t. c #AC6B3C",
"y. c #A96637",
"u. c #B26A3A",
"i. c #AE7038",
"p. c #B1703B",
"a. c #BD723C",
"s. c #C1743B",
"d. c #A26841",
"f. c #AD7243",
"g. c #B57440",
"h. c #B87640",
"j. c #CA7C47",
"k. c #C67A48",
"l. c #CB7D49",
"z. c #C57744",
"x. c #7E8177",
"c. c #7D817A",
"v. c #BF814A",
"b. c #82857C",
"n. c #85897E",
"m. c #7F8A8A",
"M. c #848582",
"N. c #898A86",
"B. c #89878A",
"V. c #8B8C8A",
"C. c #838888",
"Z. c #8E918A",
"A. c #92938D",
"S. c #949493",
"D. c #979A95",
"F. c #9A9C97",
"G. c #9A9A9A",
"H. c #969599",
"J. c #A2A29E",
"K. c #A09EA2",
"L. c #A3A2A2",
"P. c #A6A8A5",
"I. c #AEB0AC",
"U. c #B2B2AE",
"Y. c #AFAEB1",
"T. c #AFB3B2",
"R. c #B6B6B6",
"E. c #B7B8B5",
"W. c #B8B6B8",
"Q. c #BCBDBB",
"!. c #BCB7B1",
"~. c #C2C3BF",
"^. c #C3C3C3",
"/. c #CBCBCA",
"(. c #C8C8C8",
"). c #CFD1CE",
"_. c #D2D1CE",
"`. c #CFCED3",
"'. c #D4D4D4",
"]. c #D8D7D5",
"[. c #D6DAD3",
"{. c #DBDCDB",
"}. c #DFE1DF",
"|. c #E4E5E4",
" X c #EBEBEA",
".X c #F1F1EF",
"XX c #F3F4F3",
"oX c #F6F9F5",
"OX c None",
/* pixels */
"OXOXOXOXOXOXOXOXOXOXOXOX.XV.,.b.d.1.m..XOXOXOXOXOXOXOXOXOXOXOXOX",
"OXOXOXOXOXOXOXOXOXOXOXOX)...b.b.m.;.| '.OXOXOXOXOXOXOXOXOXOXOXOX",
"OXOXOXOXOXOXOXOXOXoXoXOXoX,.>.,.,. .:.OXOXOXoXOXOXOXOXOXOXOXOXOX",
"OXOXOXOXOXOXOX|. XOXOX[.J...>.>.,.:./ D.).XXOX}.oXOXOXOXOXOXOXOX",
"OXOXOXOXOXOX X2.m./.C.;.X.T :.:.,.:...>.O.b.Q.b.G.OXOXOXOXOXOXOX",
"OXOXOXOXOX{.c.:.;.Q c.c.x.` 1.C.b.&.>.x.:.' #.Z.&.S.OXOXOXOXOXOX",
"OXOXOXOXOXT.O.2.c.;.[ *.V r e w w 0 t [ %.X.n.b.M.x..XOXOXOXOXOX",
"OXOXOXOXOXOX:.o.m.d.) x : : O           0 %.n.b.` I.OXOXOXOXOXOX",
"OXOXOXOXOX!.%.} o.C D A i 3 @             & ~  .&.$.{.OXOXOXOXOX",
"OXOXOXOX|.%.c.&.B F d.A i > @               o O.Z.>.S.OXOXOXOXOX",
"OXOXOXOXU.~ c.{ 0.p.w.S f 2 @                 t c.$.^ |.OXOXOXOX",
"OXOXOXOXZ.;.$._ f.s.t.S p : @               o   T >.[ E.OXOXOXOX",
"OXOXOX X>.1.@.0.v.a.u.b i : O                   y b.#.F.OXOXOXOX",
"OXOXoX/. .:.E 7.h.e.f.S s 6 - .                 & ..[ ,.XXXXOXOX",
"OXOXM.&.,.M.R 4.s.p.u.S p 4 4 X                 . #.c.n.&.b.OXOX",
"OXOXA.&.2.<.R 7.z.h.t.S s < 5 o                 o $.,.b.O.2.OXOX",
"OXOXV.>.c.M.Z 7.l.g.r.k 8 5 $ .                 o 2.c.c.&.c.OXOX",
"OXOX:.T ` +.V 7.l.i.r.b 7 , * .                 o ..` [ L $.OXOX",
"OXOX~.N.| <.N 7.j.e.t.j : $ , X                 o ` #.` P.Q.OXOX",
"OXoXOX].%.G.R 6.j.y.t.h > 6 - .                 o 2.,.:.OXOXoXOX",
"OXOXOX(.` B.R 4.j.e.t.k i : %                   o %.#.%.oXoXOXOX",
"OXoXOX[.` 2.V 7.k.i.p.k i : +                   o X.` $.OXOXOXOX",
"OXOX(.D.~ / m 7.z.e.w.j 7 6 #                   o ~ ` ` U.(.OXOX",
"OXOX,.#.n.V.R G k.t.q.j 7 1 O                   o $.>.,. .&.OXOX",
"OXOXV.:.,.<.V 3.l.r.5.g 7 1 +                   o %.o.n.&.x.OXOX",
"OXOXA.,.b.,.V 6.u.q.5.d : ;   .                 o c.n.c.&.n.OXOX",
"OXOX<.[ $...B F q.5.n v -                       o ` $.:.I ..OXOX",
"OXOX~.V.( ;.N F 5.n b > .   X   o o o & = = 0 0 q / o. .G.R.OXOX",
"OXOXOX].| m.E F 4.b z O . o & = t u U W / / /  .~ 2.1.,.OXOXoXOX",
"OXOXOX).[ 2.C S 5.v # * w K W  .<.B.V.S.G.G.H.H.2.O.%.1.OXOXOXOX",
"OXOXOX_.[ &.V A c < t W =.B.K.Y.W.^.^.Q.Q.(.(.'.P...c.c.OXOXOXOX",
"OXOXOX_.L Q y 9 e u +.B.K.W.(.`.'.'.'.{.{.|.|.XX^.P ~ O.OXOXOXOX"
};
