/* XPM */
static char *result[] = {
/* columns rows colors chars-per-pixel */
"32 32 7 1 ",
"  c #9CDB43",
". c #D6F264",
"X c #5A4E44",
"o c #796755",
"O c #A08662",
"+ c #C7B08B",
"@ c white",
/* pixels */
"                                ",
"                                ",
"                        ...     ",
"                                ",
"                                ",
"                            .   ",
"                 .              ",
"     .    ..             ..     ",
"           .                    ",
"                                ",
"                                ",
"               .                ",
"                    .           ",
" .  .  .     .       ..  .      ",
"  ..    ..  ..  .   ...  . .    ",
"  .      .   .        .  .  ..  ",
"XX   X   . X .  .X  X   X  X  XX",
"oX  XXoX  XXXoXX  XXX   XX XXXXX",
"ooX ooOoXooXoooXX XoXX XXoooXXoo",
"OoooOOOooOooOoOOOXooooooXOOooooO",
"OOooOOOOOOOoOOOOOooOOOooOoOOOoOO",
"OOOOOOOOOOOoOOOOoooOOoOOOOOOOOOO",
"OOOOOOOOoooooOOOOoOOOOOOOOOOOOOO",
"OOOOOOOOOOoooOOOOOOOOOOOOOOOOOOO",
"OoOOOOOOOOOOOOOOOOOOOOOOOooOOOOO",
"OOOOOOOOOOOOOOOOOOOOOOOOOOOOOOOO",
"OOOOOoOoOOOOOOOOOOOOOOOOOOOOOOOO",
"OOOOOooOOOOOooOOOOOoOOOOOOOooOOO",
"OOOOOOOOOOOOoOOOOOOO+ooOOOOOOOOO",
"OOOOOOOOOOOOOOOOOOOO+ooOOOOOOOOO",
"OOOOOOOOOOOOOOOOOOOOOO+OOOOOOOOO",
"OOOOOO+++OOOOOOOOOOOOOOOOOOOOOOO"
};
