/* XPM */
static char *result[] = {
/* columns rows colors chars-per-pixel */
"32 32 7 1 ",
"  c #9CDB43",
". c #D6F264",
"X c #5A4E44",
"o c #796755",
"O c #A08662",
"+ c #C7B08B",
"@ c white",
/* pixels */
"                                ",
"                                ",
"                        ...     ",
"                                ",
"                                ",
"                            .   ",
"                 .              ",
"     .    ..             ..     ",
"           .                    ",
"                                ",
"                                ",
"               .                ",
"                    .           ",
" .  .  .     .       ..  .      ",
"  ..    ..  . . .   ...  . .    ",
"  .      .  .         .  .  ..  ",
"XX   X   . XXX .                ",
"oX  XXoX  XXooXXX           .   ",
"ooX ooOoXooXOooX  .         ..  ",
"OoooOOOooOooooX     .           ",
"OOooOOOOOOOoooX                 ",
"OOOOOOOOOOOooX                  ",
"OOOOOOOOooooXXXX                ",
"OOOOOOOOOOooOoX           .     ",
"OoOOOOOOOOOOoo ..               ",
"OOOOOOOOOOOOoo.                 ",
"OOOOOoOoOOOOooXX                ",
"OOOOOooOOOOOOXX..           .   ",
"OOOOOOOOOOOOOoo.          . .   ",
"OOOOOOOOOOOOo     ..      ...   ",
"OOOOOOOOOOOOoo                  ",
"OOOOOO+++OOOOoXX                "
};
