/* XPM */
static char *result[] = {
/* columns rows colors chars-per-pixel */
"32 32 7 1 ",
"  c #A08662",
". c #5A4E44",
"X c #9CDB43",
"o c #796755",
"O c #D6F264",
"+ c #C7B08B",
"@ c white",
/* pixels */
"              ..XXXXXXXXXXXXXXXX",
"o             .XXXXXXXXXXXXXXXXX",
"ooo     oooo ooOOOXOXXXXXXXXXXXX",
"oooo    oooo oXXOXXXOOXXXXXXXXXX",
"         oooo.XOXXXXXXXXXXXXOXXX",
"            oo.XXXXXXXXXXXOOXXXX",
"             o...XXXXXXXXXXXXXXX",
"             oo.XXXXXXXXXXXXXXXX",
"   oooo       XOOOXXXXXXXXXXXXXX",
"   oooo      oXOOXXXXXOOXOXXXXXX",
"   +oo+     oo.XXXXXXOOXXXOXXXXX",
"            oo...XXXXXXXXOXXXXXX",
"        ooo  oo.XXXXXXXXXXXXXXXX",
" o.oo  oooOo  o.OXOOXXXXXXXXXXXX",
" O...OO...OX.oo..XXXXXXXXXXXXXXX",
"oOO.OOOX..OXOO..XXXXXXXXXXXXXXXX",
"oXXXOXOOXXXXOOX.XXXXXXXXXXXXXXXX",
"XXXXXXXXXXXXXXXXXXXXXXXXXXXXOXXX",
"XXXXXXXXXXXXXXXXXXOXXXXXXXXXOOXX",
"XXXXXXXXXXXXXXXXXXXXOXXXXXXXXXXX",
"XXXXXXXXXXXXXXXXXXXXXXXXXXXXXXXX",
"XXXXXXOXXXXXXXXXXXXXXXXXXXXXXXXX",
"XXXXXXXXXXXXXXXXXXXXXXXXXXXXXXXX",
"XXXXXXXOXXXXXXXXXXXXXXXXXXOXXXXX",
"XXXXXXXXXXXOOXXXOXXXXXXXXXXXXXXX",
"XXXXXXXXXXXOXXXXXXXXXXXXXXXXXXXX",
"XXXXXXXXXXXXXXXXXXXXXXXXXXXXXXXX",
"XXXXXXXXXXXXXXXXOXXXXXXXXXXXOXXX",
"XXXXXXXXXXXXXXXXXXXXXXXXXXOXOXXX",
"XXXXXXXXXXXXXXXXXXOOXXXXXXOOOXXX",
"XXXXXXXXXXXXXXXXXXXXXXXXXXXXXXXX",
"XXXXXXXXXXXXXXXXXXXXXXXXXXXXXXXX"
};
