/* XPM */
static char *result[] = {
/* columns rows colors chars-per-pixel */
"32 32 7 1 ",
"  c #A08662",
". c #C7B08B",
"X c #796755",
"o c #D6F264",
"O c #5A4E44",
"+ c #9CDB43",
"@ c white",
/* pixels */
"       ..                       ",
"                                ",
"  X                      XX     ",
"            X     X     XXX     ",
"   X       XX     X     XX      ",
"                                ",
"                                ",
"      XX        XX              ",
"                         X      ",
"                                ",
"        X X   X                 ",
"   X   XX XX XXX  XXX X  XX X X ",
"  X XXXX  XXX  XXX  XoXXX  XXOX ",
" XXXooOOXX+XOOoOOXXO+oOOOooOOOo ",
"XXoooo+OOO+oO+oOO+oo+oOO+oooOooX",
"X+oo+o+++++o++oo++oo++++oo+o+++X",
"++o++++++++o+++o++++++++++++++++",
"++++++++++++++++++++++++++++++++",
"++++++++++++++++++++++++++++++++",
"++++++++++++++++++++++++++++++++",
"+++++++++++++++++++++++++o++++++",
"+++++++o++++o++o++++++++++++++++",
"+++++++oo++++++o++++++++o+++++++",
"+++++++o+++++++++++oo+++++++++++",
"++++++++++++++++++++o+++++++++++",
"++o+++++++++++++++++++++++++++++",
"++++++++++++++++++++++++++++++++",
"++++++++++++++++++++++++++++++++",
"++++++++o+++++++++++++++++++++++",
"++++++++++++++++++++++++++++++++",
"++++++++++++++++++++++++++++++++",
"++++++++++++++++++++++++++++++++"
};
