/* XPM */
static char *result[] = {
/* columns rows colors chars-per-pixel */
"32 32 4 1 ",
"  c #FFA300",
". c #FFEC27",
"X c #444444",
"o c None",
/* pixels */
"oooooooooooooooooooooooooooooooo",
"oooooooooooooooooooooooooooooooo",
"oooooooooooooooooooooooooooooooo",
"oooooooooooooooooooooooooooooooo",
"oooooooooooooooooooooooooooooooo",
"oooooooooo            oooooooooo",
"ooooooooo              ooooooooo",
"oooooooo   ..........   oooooooo",
"ooooooo   ............   ooooooo",
"ooooooo  ...        ...  ooooooo",
"ooooooo  ..          ..  ooooooo",
"ooooooo  ..          ..  ooooooo",
"ooooooo  ...        ...  ooooooo",
"ooooooo   ............   ooooooo",
"oooooooo   ..........   oooooooo",
"ooooooooo     ....     ooooooooo",
"oooooooooo    ....    oooooooooo",
"oooooooooooo  ....  oooooooooooo",
"oooooooooooo  ....  oooooooooooo",
"oooooooooooo  ....     ooooooooo",
"oooooooooooo  ....      oooooooo",
"oooooooooooo  ........  oooooooo",
"oooooooooooo  ........  oooooooo",
"oooooooooXXX  .....     oooooooo",
"oooooooooXXX  .....     oooooooo",
"ooooooooXXXX  ........  oooooooo",
"ooooooooXXXX  ........  oooooooo",
"ooooooooXXXX  ....      oooooooo",
"ooooooooXXXX   ..      XXooooooo",
"oooooooooXXXX      XXXXXXXoooooo",
"ooooooooooXXXX    XXXXXooooooooo",
"oooooooooooXXXXXXXXXXooooooooooo"
};
