/* XPM */
static char *result[] = {
/* columns rows colors chars-per-pixel */
"32 32 170 2 ",
"   c #220E1F",
".  c #26111F",
"X  c #29141E",
"o  c #2C1B1F",
"O  c #391F19",
"+  c #321F1F",
"@  c #37281F",
"#  c #0C0222",
"$  c #140525",
"%  c #190C2C",
"&  c #180823",
"*  c #2C0624",
"=  c #2C0825",
"-  c #220B2A",
";  c #2E0D2B",
":  c #200927",
">  c #340623",
",  c #3B0722",
"<  c #320825",
"1  c #330D2A",
"2  c #34112F",
"3  c #391723",
"4  c #361230",
"5  c #381332",
"6  c #3C2E20",
"7  c #44121C",
"8  c #7B0A1E",
"9  c #7B071E",
"0  c #55350F",
"q  c #5A370E",
"w  c #5C390D",
"e  c #442614",
"r  c #4B2813",
"t  c #462813",
"y  c #42311A",
"u  c #4D3716",
"i  c #5C3E11",
"p  c #430622",
"a  c #440925",
"s  c #4B0922",
"d  c #4A0C2B",
"f  c #4A0A25",
"g  c #540B23",
"h  c #570720",
"j  c #401F20",
"k  c #541126",
"l  c #441C36",
"z  c #4C1D37",
"x  c #4F1835",
"c  c #5E1833",
"v  c #571935",
"b  c #6D0B21",
"n  c #750C21",
"m  c #7A0C21",
"M  c #6B1027",
"N  c #621C32",
"B  c #731A33",
"V  c #7D1930",
"C  c #422126",
"Z  c #77213C",
"A  c #53451A",
"S  c #6D490B",
"D  c #744E08",
"F  c #7F5E0A",
"G  c #674F11",
"H  c #6B5314",
"J  c #695119",
"K  c #786914",
"L  c #7B7216",
"P  c #6A2744",
"I  c #7C2B47",
"U  c #7C3049",
"Y  c #850C1E",
"T  c #8B0C1E",
"R  c #940C1D",
"E  c #9C0B1C",
"W  c #A40B1B",
"Q  c #AA0B1A",
"!  c #B40B1B",
"~  c #BA0B1B",
"^  c #820F24",
"/  c #940B21",
"(  c #841125",
")  c #8B1225",
"_  c #85152B",
"`  c #8E162A",
"'  c #8A192E",
"]  c #911123",
"[  c #901A2F",
"{  c #8C1D33",
"}  c #861B33",
"|  c #A30E20",
" . c #AE0920",
".. c #A61225",
"X. c #AB1122",
"o. c #A01A2E",
"O. c #87293A",
"+. c #93233B",
"@. c #A42434",
"#. c #B72436",
"$. c #B1313E",
"%. c #C30B1C",
"&. c #CA0B1E",
"*. c #D30B1E",
"=. c #DB0A1F",
"-. c #E10A1F",
";. c #C31424",
":. c #C51C2D",
">. c #C81424",
",. c #D51425",
"<. c #C71D31",
"1. c #E20B20",
"2. c #E90D23",
"3. c #E41126",
"4. c #EA1126",
"5. c #EC152A",
"6. c #CC2737",
"7. c #DD2736",
"8. c #EF2337",
"9. c #ED2638",
"0. c #EE2A3C",
"q. c #E12737",
"w. c #F12135",
"e. c #F52C3F",
"r. c #805E09",
"t. c #82640B",
"y. c #8B720C",
"u. c #92770A",
"i. c #816C10",
"p. c #887B12",
"a. c #822A45",
"s. c #962941",
"d. c #992B44",
"f. c #9C2F49",
"g. c #80304D",
"h. c #9E334C",
"j. c #C5394B",
"k. c #DB3B45",
"l. c #F12F41",
"z. c #EB3C4B",
"x. c #ED3748",
"c. c #9F4557",
"v. c #A04556",
"b. c #C84D5C",
"n. c #D94A56",
"m. c #E44451",
"M. c #F64553",
"N. c #F34D5A",
"B. c #F94957",
"V. c #EF555E",
"C. c #F3515C",
"Z. c #D75361",
"A. c #FE5A65",
"S. c #CE646B",
"D. c #FB626B",
"F. c #F0666D",
"G. c #FC6C73",
"H. c #E97C7F",
"J. c #F6767B",
"K. c #FD767D",
"L. c #F87479",
"P. c #928610",
"I. c #FF7E83",
"U. c #FE8589",
"Y. c #F2918F",
"T. c #F79A97",
"R. c #F5A29D",
"E. c #F2ADA5",
"W. c #F5B2AA",
"Q. c None",
/* pixels */
"Q.Q.Q.Q.Q.Q.Q.Q.Q.Q.Q.Q.Q.Q.Q.Q.Q.Q.$ $ Q.Q.Q.Q.Q.Q.Q.Q.Q.Q.Q.Q.",
"Q.Q.Q.Q.Q.Q.Q.Q.Q.Q.Q.Q.Q.Q.Q.Q.Q.Q.$ & Q.Q.Q.Q.Q.Q.Q.Q.Q.Q.Q.Q.",
"Q.Q.Q.Q.Q.Q.Q.Q.Q.Q.Q.Q.Q.Q.Q.Q.Q.Q.Q.Q.& % Q.Q.Q.Q.Q.Q.Q.Q.Q.Q.",
"Q.Q.Q.Q.Q.Q.Q.Q.Q.Q.Q.Q.Q.Q.Q.Q.Q.Q.Q.Q.& $ Q.Q.Q.Q.Q.Q.Q.Q.Q.Q.",
"Q.Q.Q.Q.Q.Q.Q.Q.Q.Q.$ $ $ $ $ $ Q.Q.Q.Q.$ $ Q.Q.Q.Q.Q.Q.Q.Q.Q.Q.",
"Q.Q.Q.Q.Q.Q.Q.Q.Q.Q.. X . o 6 6 Q.Q.Q.Q.& $ Q.Q.Q.Q.Q.Q.Q.Q.Q.Q.",
"Q.Q.Q.Q.Q.Q.Q.Q.$   t 0 i H p.L C $ $ & Q.Q.Q.Q.Q.Q.Q.Q.Q.Q.Q.Q.",
"Q.Q.Q.Q.Q.Q.Q.Q.= O q D r.y.P.L y X & $ Q.Q.Q.Q.Q.Q.Q.Q.Q.Q.Q.Q.",
"& $ Q.Q.Q.Q.$ = e i S F u.i.A y u e = $ $ # $ $ Q.Q.Q.Q.Q.Q.Q.Q.",
"& & Q.Q.Q.Q.. O w D F t.i.J C 3 t r 7 a d x z z Q.Q.Q.Q.Q.Q.Q.Q.",
"Q.Q.$ $ $ . t w S r.u.K u C N c 3 7 ^ ..#.j.b.h.z # Q.Q.Q.Q.Q.Q.",
"Q.Q.$ $ & . t q i G K H 3 d _ _ a p m ..6.z.A.Z.U l Q.Q.Q.Q.Q.Q.",
"Q.Q.Q.Q.Q.Q.. X o o 6 3 g m W ..8 h p g _ #.z.N.Z.c.l # Q.Q.Q.Q.",
"Q.Q.Q.Q.Q.Q.* < > > * p 8 ..:.6.$.O.k s m #.m.A.D.n.B p Q.Q.Q.Q.",
"Q.Q.Q.Q.$ < h b 9 8 b n E 6.m.F.H.S.@.| <.m.L.I.A.z.<./ a # Q.Q.",
"Q.Q.Q.Q.$ 1 M ] E E R | ~ 7.m.G.U.L.n.k.V.G.U.I.B.w.4.Q a $ Q.Q.",
"Q.Q.Q.Q.& 1 B ' ) R Q ;.q.0.9.e.M.A.J.Y.E.R.G.M.8.2.=.E p $ Q.Q.",
"Q.Q.Q.Q.$ 1 Z +._ T Q >.q.9.4.4.w.M.K.T.W.T.C.8.2.=.%.T , & Q.Q.",
"Q.Q.Q.Q.$ 4 I d._ T E ! >.,.-.-.4.8.M.A.D.C.8.2.2.=.~ Y , $ Q.Q.",
"Q.Q.Q.Q.$ 4 g.h.' T E W ! %.*.-.2.4.8.l.l.8.3.*.=.&.! m < $ Q.Q.",
"Q.Q.Q.Q.$ 4 g.h.' T E W W ! %.&.1.2.2.5.5.3.*.%.~ Q R b < $ Q.Q.",
"Q.Q.Q.Q.$ 4 P a.O.] R E W Q ! %.*.-.1.2.-.=.&.~ Q R n g = $ Q.Q.",
"Q.Q.Q.Q.Q.Q.4 z a.s.` R E W Q ! %.&.1.1.*.&.%.~ Q T s = Q.Q.Q.Q.",
"Q.Q.Q.Q.Q.Q.$ 5 U h.' Y R E W Q ! %.*.*.~ ~ ~ ! Q 8 < $ Q.Q.Q.Q.",
"Q.Q.Q.Q.Q.Q.$ 4 g.h.' ^ ^ R E W W ! %.%.! Q Q W R b = $ Q.Q.Q.Q.",
"Q.Q.Q.Q.Q.Q.$ 2 P a.{ _ ^ Y R E E W ! ~ Q Q W E m g = & Q.Q.Q.Q.",
"Q.Q.Q.Q.Q.Q.Q.Q.4 z a.s._ Y Y T Y R W Q ~ ! Q Y s = Q.Q.Q.Q.Q.Q.",
"Q.Q.Q.Q.Q.Q.Q.Q.# 4 I f.{ ) ^ m b n ] X.~ ! Q 8 < $ Q.Q.Q.Q.Q.Q.",
"Q.Q.Q.Q.Q.Q.Q.Q.$ 1 Z d.+.{ ( b a a V o.X.Q E M = $ Q.Q.Q.Q.Q.Q.",
"Q.Q.Q.Q.Q.Q.Q.Q.$ 1 c B B B M g   ; c V m 8 b g = & Q.Q.Q.Q.Q.Q.",
"Q.Q.Q.Q.Q.Q.Q.Q.Q.- < 1 1 1 < = % - ; 1 > > < ; - Q.Q.Q.Q.Q.Q.Q.",
"Q.Q.Q.Q.Q.Q.Q.Q.Q.% $ $ $ $ & & Q.Q.& $ $ $ $ $ % Q.Q.Q.Q.Q.Q.Q."
};
