/* XPM */
static char *result[] = {
/* columns rows colors chars-per-pixel */
"32 32 144 2 ",
"   c #0E0122",
".  c #120425",
"X  c #1F0B27",
"o  c #120528",
"O  c #13082A",
"+  c #230D27",
"@  c #2B0D23",
"#  c #200E2B",
"$  c #300F23",
"%  c #29142D",
"&  c #341224",
"*  c #3B1625",
"=  c #361B2F",
"-  c #391C2E",
";  c #3D1B26",
":  c #2F1C31",
">  c #3A1E30",
",  c #3F2232",
"<  c #4E181F",
"1  c #5E1E1D",
"2  c #611E1C",
"3  c #65221D",
"4  c #6B241E",
"5  c #772A15",
"6  c #782B15",
"7  c #72291F",
"8  c #421521",
"9  c #491922",
"0  c #501D23",
"q  c #5A2826",
"w  c #562224",
"e  c #432734",
"r  c #482D37",
"t  c #472F38",
"y  c #492F38",
"u  c #552C32",
"i  c #4B333A",
"p  c #4C383D",
"a  c #642522",
"s  c #742B20",
"d  c #792E21",
"f  c #7F3222",
"g  c #633D3E",
"h  c #6E4F48",
"j  c #704D46",
"k  c #7B4B45",
"l  c #6F5048",
"z  c #852F1E",
"x  c #86301D",
"c  c #8D361E",
"v  c #92371E",
"b  c #953A1D",
"n  c #9D3D1F",
"m  c #A03F1F",
"M  c #853522",
"N  c #893622",
"B  c #833823",
"V  c #8C3A24",
"C  c #80392C",
"Z  c #973F20",
"A  c #9C3E21",
"S  c #9A411D",
"D  c #AF4C17",
"F  c #A1411F",
"G  c #B04E18",
"H  c #9E4223",
"J  c #974D29",
"K  c #9E4F2F",
"L  c #804233",
"P  c #9A4C32",
"I  c #A54422",
"U  c #A84622",
"Y  c #AF4B23",
"T  c #B24D24",
"R  c #A65529",
"E  c #AD5329",
"W  c #B45225",
"Q  c #BB5525",
"!  c #BC5A27",
"~  c #A24C30",
"^  c #BF6028",
"/  c #C15C27",
"(  c #C35E28",
")  c #C56329",
"_  c #C96629",
"`  c #C66A2A",
"'  c #CC6A2B",
"]  c #D06E2B",
"[  c #CE702C",
"{  c #D17027",
"}  c #D2732D",
"|  c #D5792D",
" . c #DB7C2D",
".. c #D67D30",
"X. c #D97D30",
"o. c #8F5243",
"O. c #9E7759",
"+. c #A46C54",
"@. c #AD7256",
"#. c #A57359",
"$. c #AF7559",
"%. c #A2795A",
"&. c #B07658",
"*. c #B47C5C",
"=. c #C67C55",
"-. c #DC812F",
";. c #DB8434",
":. c #DF8935",
">. c #E18530",
",. c #E58C32",
"<. c #E89537",
"1. c #E69339",
"2. c #E89538",
"3. c #ED9C3A",
"4. c #EFA23D",
"5. c #F0A13F",
"6. c #BB8962",
"7. c #BC9B6D",
"8. c #C78554",
"9. c #EDA543",
"0. c #EDAD49",
"q. c #F4A941",
"w. c #F3B44C",
"e. c #F4BB51",
"r. c #CE9261",
"t. c #C89E6C",
"y. c #D69561",
"u. c #E09E6C",
"i. c #DDA16D",
"p. c #C7A873",
"a. c #D3AB73",
"s. c #D2B177",
"d. c #E3A26E",
"f. c #E5A670",
"g. c #E5AE75",
"h. c #EDAE72",
"j. c #E6B375",
"k. c #EDB074",
"l. c #F2B476",
"z. c #ECC27F",
"x. c #F4C480",
"c. c #FECF84",
"v. c #FBD186",
"b. c None",
/* pixels */
"b.b.b.b.b.b.b.b.b.b.b.b.b.b.b.b.b.b.b.b.b.b.b.b.b.b.b.b.b.b.b.b.",
"b.b.b.b.b.b.b.b.b.b.b.b.b.b.b.b.b.b.b.b.b.b.b.b.b.b.b.b.b.b.b.b.",
"b.b.b.b.b.b.b.b.. . . . . . . . b.b.b.b.b.b.b.b.b.b.b.b.b.b.b.b.",
"b.b.b.b.b.b.b.b.@ $ & & $ @ $ @ b.b.b.b.b.b.b.b.b.b.b.b.b.b.b.b.",
"b.b.b.b.b.b.. @ < 3 6 6 3 1 2 9 @ . b.b.b.b.b.b.b.b.b.b.b.b.b.b.",
"b.b.b.b.b.b.@ 9 7 b D G S c x 4 8 @ b.b.b.b.b.b.b.b.b.b.b.b.b.b.",
"b.b.b.b.. @ a M A Q { | ` W H x 4 0 @ . b.b.b.b.b.b.b.b.b.b.b.b.",
"b.b.b.b.@ 9 M Y Q _ |  .[ ` E I v 4 $ . b.b.b.b.b.b.b.b.b.b.b.b.",
"b.b.. @ 9 7 I Q ) ' ) ( / / ) ^ W B & . b.b.b.b.b.b.b.b.b.b.b.b.",
"b.b.. @ 3 v T ( } [ ( Q ( _ ' ' ( H w @ b.b.b.b.b.b.b.b.b.b.b.b.",
"b.b.. & s H Q '  . ._ ' :.:.} _ ) W V a & . b.b.b.b.b.b.b.b.b.b.",
"b.b.. * f Y ( | ,.,.| X.9.9.;.} } _ Q B & . b.b.b.b.b.b.b.b.b.b.",
"b.b.. * V Q _ ..3.3.,.1.w.e.9.2.,. .] J ; . b.b.b.b.b.b.b.b.b.b.",
"b.b.. * V Q ` | 1.<.>.,.0.e.w.5.,. .} R q $ b.b.b.b.b.b.b.b.b.b.",
"b.b.. * f Y ) [ | | _ ' ,.5.4.3.X.' ) T V a & . b.b.b.b.b.b.b.b.",
"b.b.. & 7 F Q ) ' ) / ( | 1.5.<.} ) / T m 7 $ . b.b.b.b.b.b.b.b.",
"b.b.. $ 2 v Y / / / ( ) }  .<.,.X.' _ W v 2 @ . b.b.b.b.b.b.b.b.",
"b.b.. @ 9 7 A Y Y W ! ( _ }  . .} _ ! E K L u > b.b.b.b.b.b.b.b.",
"b.b.b.# @ 8 7 v m I I Y Q ( ' ] ' ! H P 8.r.@.k -   b.b.b.b.b.b.",
"b.b.b.b.. @ 0 3 s d d N I W ! ! ) W c P y.l.d.&.g = b.b.b.b.b.b.",
"b.b.b.b.b.# @ $ $ & $ 0 N I I Y Q T n ~ =.y.k.i.@.k =     . b.b.",
"b.b.b.b.b.b.o . . . . & a f f f V V B C o.*.i.h.u.*.h p i i b.b.",
"b.b.b.b.b.b.b.b.b.b.b.+ & & & * * * * & > g &.u.h.j.a.p.t.%.y . ",
"b.b.b.b.b.b.b.b.b.b.b.b.. . . o . . . . . = k *.j.c.c.z.a.%.r   ",
"b.b.b.b.b.b.b.b.b.b.b.b.b.b.b.b.b.b.b.b.O X = l s.v.g.*.h r b.b.",
"b.b.b.b.b.b.b.b.b.b.b.b.b.b.b.b.b.b.b.b.b.o   t t.z.d.+.,   b.b.",
"b.b.b.b.b.b.b.b.b.b.b.b.b.b.b.b.b.b.b.b.b.b.. e #.f.l.6.r   b.b.",
"b.b.b.b.b.b.b.b.b.b.b.b.b.b.b.b.b.b.b.b.b.b.. > k +.6.O.t . b.b.",
"b.b.b.b.b.b.b.b.b.b.b.b.b.b.b.b.b.b.b.b.b.b.b.% - e r t : b.b.b.",
"b.b.b.b.b.b.b.b.b.b.b.b.b.b.b.b.b.b.b.b.b.b.b.b.. . . . b.b.b.b.",
"b.b.b.b.b.b.b.b.b.b.b.b.b.b.b.b.b.b.b.b.b.b.b.b.b.b.b.b.b.b.b.b.",
"b.b.b.b.b.b.b.b.b.b.b.b.b.b.b.b.b.b.b.b.b.b.b.b.b.b.b.b.b.b.b.b."
};
