/* XPM */
static char *result[] = {
/* columns rows colors chars-per-pixel */
"32 32 181 2 ",
"   c #0A001F",
".  c #210F1E",
"X  c #24141E",
"o  c #2B1A1F",
"O  c #3B2913",
"+  c #33231F",
"@  c #3E361B",
"#  c #0B0120",
"$  c #130324",
"%  c #1C0C26",
"&  c #160628",
"*  c #17092C",
"=  c #180A2C",
"-  c #241421",
";  c #2A1B24",
":  c #201128",
">  c #332421",
",  c #3B2C22",
"<  c #3B2D2A",
"1  c #3E3026",
"2  c #3A2C3B",
"3  c #3D303D",
"4  c #483714",
"5  c #4D3C13",
"6  c #473A1A",
"7  c #4A1233",
"8  c #461D3B",
"9  c #4A1E3C",
"0  c #471032",
"q  c #4B0A2D",
"w  c #4B3E21",
"e  c #4B203E",
"r  c #442A3D",
"t  c #41353C",
"y  c #584A18",
"u  c #564B12",
"i  c #67570B",
"p  c #685B19",
"a  c #7D700D",
"s  c #716316",
"d  c #766A1C",
"f  c #786E10",
"g  c #4F4225",
"h  c #554B21",
"j  c #594E21",
"k  c #514426",
"l  c #5E5324",
"z  c #5C502C",
"x  c #63592C",
"c  c #645828",
"v  c #6D6323",
"b  c #6C682A",
"n  c #6C6C3C",
"m  c #726D3A",
"M  c #6F703F",
"N  c #7C7636",
"B  c #756928",
"V  c #413843",
"C  c #793351",
"Z  c #7A2447",
"A  c #787A49",
"S  c #776C61",
"D  c #8E1535",
"F  c #9A1F3E",
"G  c #9A203F",
"H  c #FE0C3F",
"J  c #857B19",
"K  c #877B0E",
"L  c #817931",
"P  c #837D28",
"I  c #8E2642",
"U  c #992F4A",
"Y  c #99304B",
"T  c #A92A49",
"R  c #A32950",
"E  c #A93753",
"W  c #BC2B48",
"Q  c #C31843",
"!  c #FF0E40",
"~  c #FE1445",
"^  c #FF1A49",
"/  c #F51B49",
"(  c #FF1F50",
")  c #DA244E",
"_  c #DC2B55",
"`  c #DD345B",
"'  c #DB3A5F",
"]  c #DA3157",
"[  c #E3244E",
"{  c #FF204D",
"}  c #EE354F",
"|  c #E22D56",
" . c #FF2453",
".. c #FE2854",
"X. c #F32E59",
"o. c #FF2C5A",
"O. c #F32753",
"+. c #F73555",
"@. c #F33C55",
"#. c #FF325F",
"$. c #FE3D5E",
"%. c #F63F58",
"&. c #E3335A",
"*. c #DE3C62",
"=. c #E33C63",
"-. c #FF3763",
";. c #FD3A65",
":. c #FF3E6A",
">. c #F63F69",
",. c #907C47",
"<. c #917D48",
"1. c #A24967",
"2. c #BC4A62",
"3. c #A1736D",
"4. c #AB7B73",
"5. c #F9425D",
"6. c #C65C79",
"7. c #D35877",
"8. c #DE5876",
"9. c #D85979",
"0. c #D75776",
"q. c #CC4769",
"w. c #FF426C",
"e. c #F4496F",
"r. c #F84768",
"t. c #E45C61",
"y. c #FA586F",
"u. c #F54970",
"i. c #FF4C74",
"p. c #FF4670",
"a. c #E35A79",
"s. c #F35277",
"d. c #FF5177",
"f. c #FF537A",
"g. c #F9577A",
"h. c #E96268",
"j. c #F36E77",
"k. c #F47076",
"l. c #9C9713",
"z. c #A7AB1B",
"x. c #B1B617",
"c. c #89863F",
"v. c #888134",
"b. c #9D9731",
"n. c #ABAA2F",
"m. c #898643",
"M. c #998859",
"N. c #A29557",
"B. c #9D9C69",
"V. c #989663",
"C. c #8F8771",
"Z. c #928A73",
"A. c #9B9B7F",
"S. c #8E8866",
"D. c #9DA069",
"F. c #AEAE65",
"G. c #CD8A78",
"H. c #C49976",
"J. c #C49878",
"K. c #D2917D",
"L. c #E5817B",
"P. c #C9A37C",
"I. c #FF6285",
"U. c #FF6E8E",
"Y. c #A1A486",
"T. c #AFB786",
"R. c #B5BC82",
"E. c #B9BD84",
"W. c #D89C85",
"Q. c #FF9E9A",
"!. c #DDA68D",
"~. c #DCA88E",
"^. c #DEB99A",
"/. c #DAB59A",
"(. c #E0A78D",
"). c #E5AD96",
"_. c #BBC386",
"`. c #C0C690",
"'. c #CAD4A4",
"]. c #F7C1AB",
"[. c None",
/* pixels */
"[.[.[.[.[.[.[.[.[.[.[.[.[.[.[.[.[.[.[.[.[.[.[.[.[.[.[.[.[.[.[.[.",
"[.[.[.[.[.[.[.[.[.[.[.[.[.[.[.[.[.[.[.[.[.[.[.[.[.[.[.[.[.[.[.[.",
"[.[.[.[.[.[.[.[.[.[.[.[.[.[.[.[.[.[.[.[.[.[.[.[.[.[.$ $ $ $ [.[.",
"[.[.[.[.[.[.[.[.[.[.[.[.[.[.[.[.[.[.[.[.[.[.[.[.[.[.7 9 r 2 [.[.",
"[.[.[.[.[.[.[.[.[.[.[.[.[.[.[.[.[.[.[.[.[.[.# #   0 R 2.3.S 2   ",
"[.[.[.[.[.[.[.[.[.[.[.[.[.[.[.[.[.[.[.[.[.[.e e e Z ] y.W.C.3 $ ",
"[.[.[.[.[.[.[.[.[.[.[.[.[.[.[.[.[.[.$     8 1.6.6.q.O.5.K.C.3 $ ",
"[.[.[.[.[.[.[.[.[.[.[.[.[.[.[.[.[.[.e e e C 9.U.U.d.^ } G.C.3 $ ",
"[.[.[.[.[.[.[.[.[.[.[.[.[.[.$   # 8 1.6.6.7.s.d.d.w.^ } G.Z.3 $ ",
"[.[.[.[.[.[.[.[.[.[.[.[.[.[.e e e C 9.U.U.I.f.p.w.#.^ } K.Z.3 $ ",
"[.[.[.[.[.[.[.[.[.[.$     8 1.6.6.7.s.i.i.I.I.I.i.#.^ @.!.A.3 $ ",
"[.[.[.[.[.[.[.[.[.[.e e e C 9.U.U.I.p.:.;.e.a.a.e.o.~ @.!.Y.t $ ",
"[.[.$ $ $ $ $   # 8 1.6.6.7.s.d.i.d.w.:.w.=.E E &...! %.!.Y.t $ ",
"[.[.+ < t r 7 q 8 C 9.U.U.I.p.:.:.w.i.d.w.=.E T [ ..+.t.H.S.2 $ ",
"$ > p v.B.4.W Q q.7.s.d.d.i.w.w.:.i.I.I.d.>.=.| / +.L.J.,.z ; $ ",
"$ > s b.F.J.t.$.d.g.i.w.:.w.i.i.p.u.8.8.u.w.:.o.~ @./.F.N 5 o $ ",
"$ o y s B <.H.L.r.o.;.:.:.p.I.I.i.*.U U *.w.-...! @.~._.m.y ; $ ",
"$ X 4 u i v.F.!.@.! o.:.w.e.0.8.u.*.F F ` -.....+.t.H.B.m g ; $ ",
"& o 4 i a b._.!.@.H  .-.:.*.I I *.;._ ) X...~ +.L.H.<.x 1 ; [.[.",
"$ o y f l.n.F.H.h.$.....-.] D D ] ;.o.( {  .+.h.P.B.x O . $ [.[.",
"$ > s l.x.z.P M./.Q.;.^ ..X.) ) X.o./ H H @.L.P.N.m 1 . % [.[.[.",
"$ > d l.z.l.f N R.^.k.$...( (  .(  .&.5.@.t.H.D.m w ; & [.[.[.[.",
"& > c J d a K J L M.^.Q.$.H ! ! ! +.k.~.!.H.,.x < - % [.[.[.[.[.",
"$ ; k j 4 u J l.i N T./.j.r.%.%.@.t.H._._.B.x O X $ [.[.[.[.[.[.",
"[.[.; ; - 6 c J d b n S./.].).!.!.J.<.N m.m 1 X % [.[.[.[.[.[.[.",
"[.[.$ $ & ; k z l j h n T.'._.R.R.V.c 5 y w ; $ [.[.[.[.[.[.[.[.",
"[.[.[.[.[.: ; ; ; 1 l b n A m.m.L x > - ; ; : [.[.[.[.[.[.[.[.[.",
"[.[.[.[.[.[.& & $ ; k j 6 @ h y 5 O - & $ & [.[.[.[.[.[.[.[.[.[.",
"[.[.[.[.[.[.[.= * : ; ; - - ; ; - - % = [.[.[.[.[.[.[.[.[.[.[.[.",
"[.[.[.[.[.[.[.[.[.[.& $ & & $ & & & [.[.[.[.[.[.[.[.[.[.[.[.[.[.",
"[.[.[.[.[.[.[.[.[.[.= = * = = = [.[.[.[.[.[.[.[.[.[.[.[.[.[.[.[.",
"[.[.[.[.[.[.[.[.[.[.[.[.[.[.[.[.[.[.[.[.[.[.[.[.[.[.[.[.[.[.[.[."
};
