/* XPM */
static char *result[] = {
/* columns rows colors chars-per-pixel */
"32 32 156 2 ",
"   c #3A111F",
".  c #0D0326",
"X  c #120426",
"o  c #250D26",
"O  c #220A28",
"+  c #340C25",
"@  c #3B0E24",
"#  c #371121",
"$  c #3C1422",
"%  c #40131F",
"&  c #5B161E",
"*  c #5E1B1F",
"=  c #61201C",
"-  c #7D2617",
";  c #7C2817",
":  c #401723",
">  c #441B25",
",  c #441E29",
"<  c #5A1623",
"1  c #5F1E22",
"2  c #711A23",
"3  c #692A23",
"4  c #6D332B",
"5  c #962B16",
"6  c #992F13",
"7  c #91241F",
"8  c #9A251E",
"9  c #88331E",
"0  c #9B3113",
"q  c #A12B15",
"w  c #AE271B",
"e  c #A02C1F",
"r  c #A93715",
"t  c #AA3B15",
"y  c #B63416",
"u  c #9F2B21",
"i  c #893620",
"p  c #A53A29",
"a  c #BB3320",
"s  c #BF3A26",
"d  c #C63E13",
"f  c #C83C11",
"g  c #C2361A",
"h  c #C33B1E",
"j  c #C83D1E",
"k  c #C23D23",
"l  c #AB421F",
"z  c #AD4A25",
"x  c #BA4F23",
"c  c #AF542F",
"v  c #BA5124",
"b  c #B1562F",
"n  c #BD5B2E",
"m  c #A85231",
"M  c #B25730",
"N  c #BF6432",
"B  c #B66339",
"V  c #C74013",
"C  c #CB4213",
"Z  c #CA4A16",
"A  c #C3431E",
"S  c #CA4419",
"D  c #CC4A1B",
"F  c #D14711",
"G  c #D14D16",
"H  c #D14C1B",
"J  c #D3541C",
"K  c #D9551B",
"L  c #C54024",
"P  c #CA4323",
"I  c #CC4A21",
"U  c #C3452C",
"Y  c #C84729",
"T  c #CC4E2C",
"R  c #D45521",
"E  c #D95723",
"W  c #D65E23",
"Q  c #DA5C22",
"!  c #D4592F",
"~  c #D95F2C",
"^  c #CA4C31",
"/  c #C85336",
"(  c #CD5C37",
")  c #D05933",
"_  c #D5642B",
"`  c #DC642A",
"'  c #D96C2C",
"]  c #C16234",
"[  c #C96435",
"{  c #DD6532",
"}  c #DE6B33",
"|  c #D46F3A",
" . c #C4723F",
".. c #DF763A",
"X. c #DE7A3D",
"o. c #E46627",
"O. c #E86827",
"+. c #E36628",
"@. c #E36B2C",
"#. c #E96F2D",
"$. c #E5702D",
"%. c #EC752D",
"&. c #E46E32",
"*. c #E57433",
"=. c #EA7532",
"-. c #E47A35",
";. c #EB7A35",
":. c #E77E38",
">. c #EA7E3A",
",. c #EA8037",
"<. c #EB833C",
"1. c #F2873C",
"2. c #F28B3D",
"3. c #E28241",
"4. c #EA8542",
"5. c #EB8B42",
"6. c #E6864A",
"7. c #E48F4C",
"8. c #EB8D4B",
"9. c #F28E45",
"0. c #EE9344",
"q. c #E5904D",
"w. c #EF954B",
"e. c #EF9D4E",
"r. c #F69344",
"t. c #F99645",
"y. c #F09947",
"u. c #F2954A",
"i. c #F49A4D",
"p. c #FB9D4A",
"a. c #EC9553",
"s. c #E89F59",
"d. c #F69F51",
"f. c #E8A65B",
"g. c #F4A556",
"h. c #F8A354",
"j. c #F9AB56",
"k. c #F7AB59",
"l. c #F9AD5B",
"z. c #FEB057",
"x. c #FBB25C",
"c. c #EEAC64",
"v. c #F6B662",
"b. c #FAB561",
"n. c #F7BB65",
"m. c #FCBB63",
"M. c #FBBF69",
"N. c #FEC065",
"B. c #FDC66C",
"V. c #FDCA6E",
"C. c #FCCC73",
"Z. c #FFD275",
"A. c #FED77A",
"S. c #FFDA7C",
"D. c #FFE181",
"F. c None",
/* pixels */
"F.F.F.F.F.F.F.F.F.F.F.F.F.F.F.F.F.F.F.F.F.F.F.F.F.F.F.F.F.F.F.F.",
"F.F.F.F.F.F.F.F.F.F.F.F.F.F.F.F.F.F.F.F.F.F.F.F.F.F.F.F.F.F.F.F.",
"F.F.F.F.X X X X X X F.F.F.F.F.F.F.F.F.F.F.F.F.F.F.F.F.F.F.F.F.F.",
"F.F.F.F.@ @ $ % % $ F.F.F.F.F.F.F.F.F.F.F.F.F.F.F.F.F.F.F.F.F.F.",
"F.F.. + 2 7 5 0 6 9   . . X F.F.F.F.F.F.F.F.F.F.F.F.F.F.F.F.F.F.",
"F.F.+ < 8 g C F F t 3 > > : F.F.F.F.F.F.F.F.F.F.F.F.F.F.F.F.F.F.",
"X @ 2 8 y C G K K R n M z 9 $ . . X F.F.F.F.F.F.F.F.F.F.F.F.F.F.",
"X @ u g C Z H H I R +.@.O.v 4 , > : F.F.F.F.F.F.F.F.F.F.F.F.F.F.",
"X   5 f K H k a a k S R @.} ] b z i $ . F.F.F.F.F.F.F.F.F.F.F.F.",
"X : 0 C H I k k k k S J ` @.*.%.O.v 3 $ F.F.F.F.F.F.F.F.F.F.F.F.",
"X % 6 f g L ~ { { @.=.@.J D E +.$.` v 9 $ . F.F.F.F.F.F.F.F.F.F.",
"X : 0 f y Y &.1.5.9.p.2.` J E ` *.;.@.v 3 $ F.F.F.F.F.F.F.F.F.F.",
"X % 0 F H E ,.t.k.b.m.z.w.4.*.*.:.<.=._ v 9 $ . F.F.F.F.F.F.F.F.",
"X @ ; r Z Q %.2.j.m.m.m.l.d.9.4.5.5.4.;.$.v 3 $ F.F.F.F.F.F.F.F.",
"F.o # = r G ` $.<.u.j.l.k.h.d.d.d.p.r.1.,.' v i $ . F.F.F.F.F.F.",
"F.F.X $ 5 C G K &.<.u.d.h.i.8.6.6.4.;.;.<.,.@.x 3 $ F.F.F.F.F.F.",
"F.F.. @ 7 g d J @.<.5.5.r.>.( U U Y D W ..<.-.` v 9 $ . F.F.F.F.",
"F.F.X @ 2 8 y D ` *.:.<.=.{ Y s k k D J ` -.<.,.$.v 3 $ F.F.F.F.",
"F.F.F.o + < u h R @.=.} T Y ! { *.=.=.@.J W 4.u.<.' v 9 $ . F.F.",
"F.F.F.F.. + 2 u k E @.~ k k &.1.t.p.p.1.Q W 4.d.e.0.<.N 4 , F.F.",
"F.F.F.F.F.O + < u P E J V D *.t.j.N.N.j.1.%.;.u.v.C.B.f. .m F.F.",
"F.F.F.F.F.F.. + 2 u A H C J %.r.z.x.N.z.p.2.9.f.C.D.S.M.i.X.F.F.",
"F.F.F.F.F.F.F.O + < u j H Q *.<.0.y.p.p.p.k.n.C.S.A.M.l.h.q.F.F.",
"F.F.F.F.F.F.F.F.. + 2 u A E @.*.,.,.;.1.j.N.Z.S.A.V.b.j.d.q.F.F.",
"F.F.F.F.F.F.F.F.F.O + < u P E @.-.*.+.:.v.Z.Z.B.v.b.m.x.u.X.F.F.",
"F.F.F.F.F.F.F.F.F.F.. + 2 e A K ` } } 5.n.Z.V.B.b.l.x.g.3.[ F.F.",
"F.F.F.F.F.F.F.F.F.F.F.O + 1 r C h ( s.n.m.n.C.A.B.x.i.3.B F.F.F.",
"F.F.F.F.F.F.F.F.F.F.F.F.. # - q w / c.C.m.b.C.C.m.g.3.[ F.F.F.F.",
"F.F.F.F.F.F.F.F.F.F.F.F.F.o # & 8 ^ a.m.N.m.m.k.u.3.B F.F.F.F.F.",
"F.F.F.F.F.F.F.F.F.F.F.F.F.F.. + 2 p | u.k.l.i.4...[ F.F.F.F.F.F.",
"F.F.F.F.F.F.F.F.F.F.F.F.F.F.F.O + = p ` <.<.*.' m F.F.F.F.F.F.F.",
"F.F.F.F.F.F.F.F.F.F.F.F.F.F.F.F..   6 F ` #.Q I F.F.F.F.F.F.F.F."
};
