/* XPM */
static char *result[] = {
/* columns rows colors chars-per-pixel */
"32 32 221 2 ",
"   c #23131B",
".  c #27131A",
"X  c #27141C",
"o  c #2F131C",
"O  c #2A141E",
"+  c #37131F",
"@  c #35171D",
"#  c #3A151F",
"$  c #3A181E",
"%  c #311621",
"&  c #321622",
"*  c #321623",
"=  c #3B1220",
"-  c #3D1320",
";  c #3C1420",
":  c #3D1420",
">  c #3E1420",
",  c #3F1421",
"<  c #361826",
"1  c #3F1820",
"2  c #391827",
"3  c #3D1929",
"4  c #3E192A",
"5  c #3E192C",
"6  c #3F192D",
"7  c #401320",
"8  c #421421",
"9  c #461422",
"0  c #461423",
"q  c #471423",
"w  c #491423",
"e  c #4A1424",
"r  c #4B1424",
"t  c #4C1424",
"y  c #4D1424",
"u  c #401A2B",
"i  c #431A2D",
"p  c #461B2F",
"a  c #471B2F",
"s  c #55172A",
"d  c #5C1528",
"f  c #511E2E",
"g  c #471B30",
"h  c #481B30",
"j  c #481C30",
"k  c #481C31",
"l  c #4C1C34",
"z  c #541E38",
"x  c #601529",
"c  c #64152A",
"v  c #66152B",
"b  c #67152B",
"n  c #67162D",
"m  c #6F162D",
"M  c #6F1E2B",
"N  c #78162F",
"B  c #751831",
"V  c #781E3D",
"C  c #572028",
"Z  c #59203B",
"A  c #622227",
"S  c #6D222A",
"D  c #692528",
"F  c #6D2529",
"G  c #6F252A",
"H  c #6F262A",
"J  c #70262A",
"K  c #71262A",
"L  c #75272B",
"P  c #74232C",
"I  c #60213F",
"U  c #5F2140",
"Y  c #602140",
"T  c #612140",
"R  c #632241",
"E  c #632343",
"W  c #672344",
"Q  c #692340",
"!  c #6C2540",
"~  c #682345",
"^  c #6C2447",
"/  c #6C2448",
"(  c #6C2548",
")  c #70254B",
"_  c #72264B",
"`  c #74254C",
"'  c #75264D",
"]  c #76264D",
"[  c #76274E",
"{  c #77274E",
"}  c #7B2851",
"|  c #7D2852",
" . c #7C2953",
".. c #7E2853",
"X. c #7E2953",
"o. c #801631",
"O. c #841633",
"+. c #861633",
"@. c #881634",
"#. c #8D1735",
"$. c #911736",
"%. c #921736",
"&. c #941737",
"*. c #981738",
"=. c #991738",
"-. c #9A1738",
";. c #9D1739",
":. c #9E1739",
">. c #A0173A",
",. c #A3173A",
"<. c #A4173B",
"1. c #A7183C",
"2. c #A8183C",
"3. c #A9183C",
"4. c #AC183D",
"5. c #B5183F",
"6. c #B6183F",
"7. c #8E2236",
"8. c #8D2D30",
"9. c #9F2138",
"0. c #9B3133",
"q. c #9D3134",
"w. c #9E3134",
"e. c #BD273E",
"r. c #A23234",
"t. c #A23335",
"y. c #A43335",
"u. c #AF363C",
"i. c #B23239",
"p. c #CA3D3E",
"a. c #D03E3F",
"s. c #D13E3F",
"d. c #A61E46",
"f. c #BC1841",
"g. c #BD1841",
"h. c #BF1842",
"j. c #B71F4A",
"k. c #B81E4B",
"l. c #952448",
"z. c #862B50",
"x. c #872B51",
"c. c #802954",
"v. c #812954",
"b. c #802955",
"n. c #812955",
"m. c #812956",
"M. c #822A56",
"N. c #832A56",
"B. c #8D2C54",
"V. c #962550",
"C. c #B02349",
"Z. c #C01842",
"A. c #C01D41",
"S. c #CB1945",
"D. c #C81A44",
"F. c #CB1947",
"G. c #CD1945",
"H. c #CE1947",
"J. c #CA1B49",
"K. c #D01846",
"L. c #D01946",
"P. c #D11946",
"I. c #D21946",
"U. c #D21947",
"Y. c #D31947",
"T. c #D01A46",
"R. c #D11B46",
"E. c #D21B46",
"W. c #D41947",
"Q. c #D51947",
"!. c #D51B47",
"~. c #D21D46",
"^. c #D31D46",
"/. c #D01E47",
"(. c #D31E46",
"). c #CE2743",
"_. c #CF2144",
"`. c #D72545",
"'. c #D52F45",
"]. c #D92845",
"[. c #DA2B45",
"{. c #DB2C45",
"}. c #C33A4A",
"|. c #CC3D4A",
" X c #D73046",
".X c #DF3345",
"XX c #D53F40",
"oX c #D63F40",
"OX c #D13E48",
"+X c #E03245",
"@X c #E03545",
"#X c #E03645",
"$X c #E13745",
"%X c #E23845",
"&X c #E33A44",
"*X c #E63F44",
"=X c #D64040",
"-X c #DD4145",
";X c #DF4246",
":X c #E24245",
">X c #E04247",
",X c #E54044",
"<X c #E64044",
"1X c #E64144",
"2X c #E74244",
"3X c #E94245",
"4X c #E84444",
"5X c #E94444",
"6X c #E84544",
"7X c #E94544",
"8X c #EA4444",
"9X c #EA4544",
"0X c #EB4544",
"qX c #EA4545",
"wX c #EB4545",
"eX c #EC4544",
"rX c #EC4545",
"tX c #ED4545",
"yX c #EE4545",
"uX c #EF4646",
"iX c None",
/* pixels */
"iXiXiXiXiXiXiXiXiXiXiXiXiXiXiXiXiXiXiXiXiXiXiXiXiXiXiXiXiXiXiXiX",
"iXiXiXiXiXiXiXiXiXiXiXiXiXiXiXiXiXiXiXiXiXiXiXiXiXiXiXiXiXiXiXiX",
"iXiXiXiXiXiXiXiXiXiXiXiXiXiXiXiXiXiXiXiXiXiXiXiXiXiXiXiXiXiXiXiX",
"iXiXiXiXiXiXiXiXiXiXiXiXiXiXiXiXiXiXiXiXiXiXiXiXiXiXiXiXiXiXiXiX",
"iXiXiXiXiXiXiXiXiXiXiXiXiXiXiXiXiXiXiXiXiXiXiXiXiXiXiXiXiXiXiXiX",
"iXiXiXiXiXiXiXiXiXiXiXiXiXiXiXiXiXiXiXiXiXiXiXiXiXiXiXiXiXiXiXiX",
"iXiXiXiXiXiXiXA J J A iXiXiXiXiXiXiXiXiXiXiXiXiXiXiXiXiXiXiXiXiX",
"iXiXiXiXiXiXS s.qXqXs.0.iXiXiXiXiXiXiXiXiXiXiXiXiXiXiXiXiXiXiXiX",
"iXiXiXiXiX= e.wX4X4X8XrXi.e iXiXiXiXiXiXiXiXiXiXiXiXiXiXiXiXiXiX",
"iXiXiXiXiX- A.%X2X7X6X4X+X>.iXiXiXiXiX& & & iXiXiXiXiXiXiXiXiXiX",
"iXiXiXiXiX> g.E.`.@X&X2X].D.P iXiXu Z [ ] { W 2 iXiXiXiXiXiXiXiX",
"iXiXiXiXiX1 e.!.K.R.$X7X#X~.3XD 5 ' n.v.M.M.n.W iXiXiXiXiXiXiXiX",
"iXiXiXiXiXiXG 9._.^.1X4X{.R..X7.` b.c.| R R ..} p iXiXiXiXiXiXiX",
"iXiXiXiXiXiX+ # M B ).[.(.j.F.H.k.V. .Z iXiXZ N.Y iXiXiXiXiXiXiX",
"iXiXiXiXr m 6.Z.f.d.'.*X<X XT.L.I.J.V iXiXiXa M.Y iXiXiXiXiXiXiX",
"iXiXiXiX,.P.P.Y.Q./.,X4X4X:XC.G.P.I.f.v iXiXh N.T iXiXiXiXiXiXiX",
"iXiXiX#.Y.L.P.3.%.l.;X4X5X|.Q N G.P.U.5.; iXh X.z iXiXiXiXiXiXiX",
"iXiXiX&.W.L.<.q   ! >X9XOXB.U . @.S.P.g.: iX~ _ % iXiXiXiXiXiXiX",
"iXiXiX&.Q.h.9 iXg x.;X0X}.m.I iXiX=.W.f.: * ^ j iXiXiXiXiXiXiXiX",
"iXiXiX#.W.S.O.iXk z.-XeXu./ { i iX%.Q.f.> O 3 iXiXiXiXiXiXiXiXiX",
"iXiXiXiX,.U.G.d < f oXyXr.l c.p 7 3.W.g.> iXiXiXiXiXiXiXiXiXiXiX",
"iXiXiXiX0 1.W.c iX$ p.rXs.C ) E n W.S.+.iXiXiXiXiXiXiXiXiXiXiXiX",
"iXiX, w 8 2.W.b iXiXH a.tXF 6 ( s Z.-.iXiXiXiXiXiXiXiXiXiXiXiXiX",
"iXiXc <.4.Q.,.t iXiXiXt.uXK iX4 X $.;.iXiXiXiXiXiXiXiXiXiXiXiXiX",
"iXiXiXo.*.#.iXiXiXiXiXy.XXA iXiXiXiX:.@.iXiXiXiXiXiXiXiXiXiXiXiX",
"iXiXiXiXiXiXiXiXiXiXL =Xq.iXiXiXiXiXy x o iXiXiXiXiXiXiXiXiXiXiX",
"iXiXiXiXiXiXiXiXiX@ 8.w.iXiXiXiXiXiXiXiXiXiXiXiXiXiXiXiXiXiXiXiX",
"iXiXiXiXiXiXiXiXiXiXiXiXiXiXiXiXiXiXiXiXiXiXiXiXiXiXiXiXiXiXiXiX",
"iXiXiXiXiXiXiXiXiXiXiXiXiXiXiXiXiXiXiXiXiXiXiXiXiXiXiXiXiXiXiXiX",
"iXiXiXiXiXiXiXiXiXiXiXiXiXiXiXiXiXiXiXiXiXiXiXiXiXiXiXiXiXiXiXiX",
"iXiXiXiXiXiXiXiXiXiXiXiXiXiXiXiXiXiXiXiXiXiXiXiXiXiXiXiXiXiXiXiX",
"iXiXiXiXiXiXiXiXiXiXiXiXiXiXiXiXiXiXiXiXiXiXiXiXiXiXiXiXiXiXiXiX"
};
