/* XPM */
static char *result[] = {
/* columns rows colors chars-per-pixel */
"32 32 149 2 ",
"   c #050302",
".  c #0A0402",
"X  c #0B0A02",
"o  c #0B0B0B",
"O  c #120602",
"+  c #150A05",
"@  c #1C0C04",
"#  c #130D0C",
"$  c #1A1400",
"%  c #1D110D",
"&  c #0F1112",
"*  c #131313",
"=  c #191615",
"-  c #1F1816",
";  c #141719",
":  c #161A1C",
">  c #1D1D1D",
",  c #220C06",
"<  c #230F09",
"1  c #241303",
"2  c #2F1006",
"3  c #211D06",
"4  c #331207",
"5  c #331308",
"6  c #3E1608",
"7  c #3A1407",
"8  c #221611",
"9  c #231B19",
"0  c #321F19",
"q  c #331A12",
"w  c #2D2500",
"e  c #2F2800",
"r  c #352C00",
"t  c #3D3401",
"y  c #28261F",
"u  c #1A1F22",
"i  c #1D2224",
"p  c #1D2529",
"a  c #222424",
"s  c #282720",
"d  c #212629",
"f  c #22292C",
"g  c #2A2A2B",
"h  c #232D32",
"j  c #263136",
"k  c #29353B",
"l  c #2C393F",
"z  c #393838",
"x  c #333535",
"c  c #441709",
"v  c #43190B",
"b  c #4A1B0B",
"n  c #531D0C",
"m  c #5C1F0C",
"M  c #5F210D",
"N  c #4B2013",
"B  c #4D271A",
"V  c #63220D",
"C  c #6C250E",
"Z  c #72270F",
"A  c #682A17",
"S  c #682B18",
"D  c #662C1B",
"F  c #7A2910",
"G  c #413733",
"H  c #413835",
"J  c #665800",
"K  c #6C5D00",
"L  c #726200",
"P  c #2E3B42",
"I  c #303E45",
"U  c #3E4041",
"Y  c #37474F",
"T  c #424242",
"R  c #4A4645",
"E  c #444748",
"W  c #4E4B4A",
"Q  c #544E4D",
"!  c #4F4F50",
"~  c #4E5051",
"^  c #555555",
"/  c #555758",
"(  c #545859",
")  c #5A5D5E",
"_  c #5E6061",
"`  c #626465",
"'  c #6A6C6D",
"]  c #6A6E70",
"[  c #6F7273",
"{  c #747677",
"}  c #777C7E",
"|  c #7D7F7F",
" . c #832D11",
".. c #8A2F12",
"X. c #8C3114",
"o. c #933214",
"O. c #9C3615",
"+. c #A13715",
"@. c #A53816",
"#. c #AC3B17",
"$. c #B03C17",
"%. c #B33D18",
"&. c #B83F19",
"*. c #BD4019",
"=. c #C5441B",
"-. c #CC461B",
";. c #D0471C",
":. c #D5491C",
">. c #DB4B1D",
",. c #E14C1E",
"<. c #EE5120",
"1. c #F45321",
"2. c #FF5722",
"3. c #958100",
"4. c #AF9700",
"5. c #BAA000",
"6. c #C0A600",
"7. c #E4C500",
"8. c #7E8285",
"9. c #838485",
"0. c #8D8D8D",
"q. c #8B9092",
"w. c #959595",
"e. c #9CA3A6",
"r. c #9EA5A8",
"t. c #A1A7A9",
"y. c #A2A2A2",
"u. c #A6ADB0",
"i. c #ACB3B6",
"p. c #B7B7B7",
"a. c #BABABA",
"s. c #B7BDC0",
"d. c #BAC2C6",
"f. c #CBCBCB",
"g. c #C3C7C9",
"h. c #CCD0D2",
"j. c #CDD5D9",
"k. c #D4D4D4",
"l. c #DCDDDD",
"z. c #D5DDE0",
"x. c #DEE3E6",
"c. c #E3E3E4",
"v. c #E3E7E9",
"b. c #E6EAEB",
"n. c #EBEDEE",
"m. c #EEEFF0",
"M. c #EFF0F1",
"N. c #F4F4F4",
"B. c None",
/* pixels */
"B.B.B.B.B.B.B.B.B.B.B.B.  O .     . O   B.B.B.B.B.B.B.B.B.B.B.B.",
"B.B.B.B.B.B.B.B.B.. . 4  .&.>.<.,.>.&. .2   . B.B.B.B.B.B.B.B.B.",
"B.B.B.B.B.B.X X   . O.2.2.2.2.2.2.2.2.2.2.O..   X X B.B.B.B.B.B.",
"B.B.B.B.B.B.. L 4.K $ $ o.1.2.2.2.2.1.o.+ $ J 4.L   B.B.B.B.B.B.",
"B.B.B.B.B.. n $ w 3.7.5.r 1 ,.2.2.,.1 e 5.7.3.w @ b . B.B.B.B.B.",
"B.B.B.B.X F %.< # y X 3 t . ..2.2. .. t $ X y # 8 %.Z . B.B.B.B.",
"B.B.B.O M &.o y.N.N.N.i.x v 1.2.2.1.v z g.N.N.M.q.o =.n . B.B.B.",
"B.B.B., 1.q w.N.N.0._ h.r.9 2.2.2.2.8 a.l.) 0.N.b.8.0 1.@ B.B.B.",
"B.B.. =.2.  l.N.a.o u T u.9 2.2.2.2.% f.T : o a.N.d.  2.*.  B.B.",
"B.B.7 2.2.= p.N.f.o ; ! ] B 2.2.2.2.N 9.^ : o f.n.e.= 2.2.4 B.B.",
"B.O #.2.2.X.g c.N.p.0.t.o =.2.2.2.2.=.o a.0.a.N.h.g X.2.2.#.. B.",
"B.. 1.2.2.2.A # ` | / o O.2.2.2.2.2.2.o.o / | ) & D 2.2.2.1.  B.",
"B.6 2.2.2.2.2.:.X.S ..>.2.2.2.2.2.2.2.2.,...A X.:.2.2.2.2.2.7 B.",
". F 2.2.2.2.2.2.2.2.2.1.>.&.%.#.#.$.&.:.1.2.2.2.2.2.2.2.2.2.Z   ",
"O O.2.2.2.2.2.;.X.b +   X . - G H 9 . .   O b ..:.2.2.2.2.2.o.O ",
"O @.2.2.<.o., X R ] o Y Y p ] N.x._ p Y Y X | T o , o.<.2.2.O.O ",
"O @.2.%.. = X h.N.j.  Y Y k > N.z.u k Y Y   N.M.r.o = . $.2.O.O ",
". ..2.F u Y d a c.d.  Y Y Y & { ] ; Y Y Y   l.s.; h Y u F 2. .. ",
"B.V 2.o.; Y Y p & g a Y Y Y Y : > I Y Y Y d ;   f Y Y ; o.2.m B.",
"B.@ 2.-.# Y Y Y l j Y Y Y Y Y Y Y Y Y Y Y Y l Y Y Y Y # -.2.@ B.",
"B.  >.2.X P Y Y Y Y Y Y Y Y Y Y Y Y Y Y Y Y Y Y Y Y I . 2.:.  B.",
"B.. Z 2.C i I h l Y Y Y Y Y Y Y Y Y Y Y Y Y Y k h I i C 2.C . B.",
"B.B.. 1.>.. X U * k Y Y Y Y Y Y Y Y Y Y Y Y k * I +   >.<.. B.B.",
"B.B.. V 2.M ! v.} f Y Y Y Y Y Y Y Y Y Y Y Y i w.x.W V 2.V . B.B.",
"B.B.B.  =.<.@ 9./ p Y k i d Y Y Y Y f a k Y p ` | < 1.%.. B.B.B.",
"B.B.B.B.. :.>.+ o I P o 9.E p Y Y u ! } o P I   + >.;.. B.B.B.B.",
"B.B.B.B.B.O :.,.4 # * 9.m.i.* Y Y o f.v.{ : # 4 ,.;.O B.B.B.B.B.",
"B.B.B.B.B.B.. #.2.O., # W ` & P k o { R # % +.2.#.. B.B.B.B.B.B.",
"B.B.B.B.B.B.B.. b >.2.-.X.n 4 , , 4 n ..-.2.>.c   B.B.B.B.B.B.B.",
"B.B.B.B.B.B.B.B..   c $.<.2.2.2.2.2.2.<.$.c   . B.B.B.B.B.B.B.B.",
"B.B.B.B.B.B.B.B.B.B.B..   , c m m c ,   . B.B.B.B.B.B.B.B.B.B.B.",
"B.B.B.B.B.B.B.B.B.B.B.B.B.B.B.B.B.B.B.B.B.B.B.B.B.B.B.B.B.B.B.B."
};
