/* XPM */
static char *result[] = {
/* columns rows colors chars-per-pixel */
"32 32 168 2 ",
"   c #3D3D79",
".  c #3E3E79",
"X  c #3D3D7A",
"o  c #3D3D7B",
"O  c #3E3E7A",
"+  c #3F3F7A",
"@  c #3E3E7B",
"#  c #3F3F7B",
"$  c #3F3F7C",
"%  c #40407B",
"&  c #40407C",
"*  c #40407D",
"=  c #41417D",
"-  c #42427E",
";  c #42427F",
":  c #43437F",
">  c #494778",
",  c #625C76",
"<  c #797073",
"1  c #B7A670",
"2  c #C2AF6D",
"3  c #C6B269",
"4  c #FADE64",
"5  c #FFE262",
"6  c #FFE362",
"7  c #FFE263",
"8  c #FCE374",
"9  c #424280",
"0  c #454581",
"q  c #454582",
"w  c #464682",
"e  c #464683",
"r  c #474783",
"t  c #484884",
"y  c #484885",
"u  c #4A4A85",
"i  c #494986",
"p  c #494987",
"a  c #4A4A86",
"s  c #4B4B86",
"d  c #4A4A87",
"f  c #4A4A88",
"g  c #4B4B88",
"h  c #4C4C88",
"j  c #4D4D89",
"k  c #4C4C8A",
"l  c #4D4D8A",
"z  c #4E4E8A",
"x  c #4E4E8B",
"c  c #4F4F8B",
"v  c #4F4F8C",
"b  c #4F4F8D",
"n  c #50508A",
"m  c #50508D",
"M  c #51518D",
"N  c #50508E",
"B  c #51518E",
"V  c #52528E",
"C  c #53538E",
"Z  c #52528F",
"A  c #53538F",
"S  c #54538E",
"D  c #555590",
"F  c #565591",
"G  c #565690",
"H  c #565692",
"J  c #5F5E93",
"K  c #595995",
"L  c #5F5E94",
"P  c #5C5C96",
"I  c #5D5D96",
"U  c #5E5E98",
"Y  c #5F5F99",
"T  c #606099",
"R  c #61619A",
"E  c #65659C",
"W  c #68689F",
"Q  c #69699F",
"!  c #6B6BA1",
"~  c #7373A6",
"^  c #7373A7",
"/  c #7474A6",
"(  c #7575A7",
")  c #7978AB",
"_  c #7E7DAB",
"`  c #7D7CAC",
"'  c #7C7CAD",
"]  c #8382B1",
"[  c #8382B2",
"{  c #8585B4",
"}  c #8584B7",
"|  c #8988B3",
" . c #8A89B3",
".. c #8D8CB6",
"X. c #8C8BB8",
"o. c #8D8CB9",
"O. c #9696C0",
"+. c #9B9AC0",
"@. c #9C9BC1",
"#. c #9C9BC9",
"$. c #A2A1C8",
"%. c #A3A2C9",
"&. c #A3A3C9",
"*. c #A5A4C9",
"=. c #A5A4CA",
"-. c #A6A5CB",
";. c #A9A8CD",
":. c #AAA9CD",
">. c #ABAACF",
",. c #ADABCF",
"<. c #ACABD0",
"1. c #ADACD0",
"2. c #AFAED0",
"3. c #AFAED1",
"4. c #AFAED2",
"5. c #B0AFD2",
"6. c #B2B1D4",
"7. c #B6B5D4",
"8. c #B5B4D6",
"9. c #B7B6D8",
"0. c #B1B1DC",
"q. c #B4B4DF",
"w. c #BDBDE7",
"e. c #F3E9D5",
"r. c #F2EADC",
"t. c #C4C2E0",
"y. c #C4C3E1",
"u. c #C5C3E1",
"i. c #C7C6E2",
"p. c #C7C6E3",
"a. c #C8C7E3",
"s. c #CAC8E5",
"d. c #CECCE8",
"f. c #D1CFEA",
"g. c #D5D3ED",
"h. c #D7D6EF",
"j. c #C8C8F0",
"k. c #CAC9F1",
"l. c #CBCBF3",
"z. c #D0CFF7",
"x. c #D9D7F0",
"c. c #DAD8F0",
"v. c #DBD9F0",
"b. c #DEDCF3",
"n. c #D3D3FF",
"m. c #D4D4FE",
"M. c #D4D4FF",
"N. c #D6D6FE",
"B. c #D7D7FF",
"V. c #D9D9FF",
"C. c #DCDBFF",
"Z. c #DDDCFF",
"A. c #F0EBE9",
"S. c #E1E0F6",
"D. c #E4E2F8",
"F. c #E5E3F8",
"G. c #E6E5FF",
"H. c #E9E7FB",
"J. c #EAE8FB",
"K. c #E9E8FC",
"L. c #EBE9FD",
"P. c #EAE8FF",
"I. c #ECEAFD",
"U. c #ECEAFF",
"Y. c #EDEBFF",
"T. c #EEECFF",
"R. c #EFECFF",
"E. c None",
/* pixels */
"E.E.E.E.E.E.E.E.E.E.E.E.E.E.E.E.E.E.E.E.E.E.6 E.E.E.E.E.E.E.E.E.",
"E.E.E.E.E.E.E.E.E.E.E.E.E.E.E.E.T.R.T.E.E.E.5 5 E.E.E.E.E.E.E.E.",
"E.E.E.E.E.E.E.E.E.E.E.E.E.U i.T.T.T.T.T.T.E.5 5 E.E.E.E.E.E.E.E.",
"E.E.E.E.E.E.E.E.E.E.B B I f.T.T.T.T.T.T.T.r.5 5 5 E.E.E.E.E.E.E.",
"E.E.E.E.E.E.E.E.E.k B B ] <.4.;.5.t.H.T.T.A.5 5 5 5 5 5 5 5 E.E.",
"E.E.E.E.E.E.E.E.E.# y x B B B B M l n 7.T.e.5 5 5 5 5 5 5 E.E.E.",
"E.E.E.E.E.E.E.E.E.O O O & - : = % O O , 8 7 5 5 5 5 5 6 E.E.E.E.",
"E.E.E.E.E.E.E.E.E.  O O O O O O O O < 4 5 5 5 5 5 5 E.E.E.E.E.E.",
"E.E.E.E.E.E.E.E.O o O O O O O O O > 3 2 1 E.E.5 5 5 E.E.E.E.E.E.",
"E.E.E.E.E.E.E.O O O O O O O O O O O ; c B c E.E.5 5 E.E.E.E.E.E.",
"E.E.E.E.E.O O O O O * f y e q r y l B B B B B p E.5 E.E.E.E.E.E.",
"E.E.E.E.o O O O O = v B B B B B B B B B B B B M p E.E.E.E.E.E.E.",
"E.E.E.E.O O O O @ l B B B B Z Y ! T B B B B B B m E.E.E.E.E.E.E.",
"E.E.E.. O O O O t B B B E 3.S.T.T.T.b.;.R B B B B l E.E.E.E.E.E.",
"E.E.@ O O O O # m B B o.J.T.T.T.T.T.T.T.F.[ B B B B E.E.E.E.E.E.",
"E.E.O O O O O w B B #.Y.T.T.x.p.L.T.T.T.T.L.' B B B j E.E.E.E.E.",
"E.E.O O O O O g B W N.T.T.:.B c L D.T./ C | c.H B B N E.E.E.E.E.",
"E.E.O O O O O m B 0.n.P.T.D B B i +.&.B B r 2.{ B B B E.E.E.E.E.",
"E.+ O O O O # B B k.n.V.T.M B B j _ ` B B d ..-.B B B E.E.E.E.E.",
"E.O O O O O & B B l.n.Z.T.G B B i @.*.B B w 2.6.B B B a E.E.E.E.",
"E.o O O O O + B B w.n.C.T.,.M v J D.T.( S  .I.8.B B B E.E.E.E.E.",
"E.E.O O O O O m B } n.M.G.T.v.a.L.K.X.y.T.T.T.1.B B B E.E.E.E.E.",
"E.E.O O O O O g B B j.n.n.B.T.T.T.9.B ~ T.T.T.$.B B N E.E.E.E.E.",
"E.E.O O O O O w B B P z.n.M.T.T.T.g.y.u.T.T.T.O.B B j E.E.E.E.E.",
"E.E.@ O O O O # m B B H q.m.U.T.T.T.T.T.T.T.T.) B B E.E.E.E.E.E.",
"E.E.E.O O O O O t B B B B K u.T.T.d.T.T.s.T.x.F B l E.E.E.E.E.E.",
"E.E.E.E.O O O O @ z B B B B ^ h.%.A =.>.V ) Q B B E.E.E.E.E.E.E.",
"E.E.E.E.+ O O O O = v B B B B B B B B B B B B M u E.E.E.E.E.E.E.",
"E.E.E.E.E.X O O O O = b B B B B B B B B B B B a E.E.E.E.E.E.E.E.",
"E.E.E.E.E.E.E.O O O O $ h B B B B B B B B v E.E.E.E.E.E.E.E.E.E.",
"E.E.E.E.E.E.E.E.O O O O + 0 x B B B B m s E.E.E.E.E.E.E.E.E.E.E.",
"E.E.E.E.E.E.E.E.E.E.E.+ O O + 9 i h y E.E.E.E.E.E.E.E.E.E.E.E.E."
};
