/* XPM */
static char *result[] = {
/* columns rows colors chars-per-pixel */
"32 32 203 2 ",
"   c None",
".  c #63361F",
"X  c #69371E",
"o  c #4C3D22",
"O  c #5A3820",
"+  c #633524",
"@  c #663B22",
"#  c #6B3C2A",
"$  c #6B3725",
"%  c #733B27",
"&  c #793C23",
"*  c #743C29",
"=  c #783D28",
"-  c #4C4234",
";  c #5C4E3B",
":  c #584A38",
">  c #5D513E",
",  c #6F4126",
"<  c #694328",
"1  c #7F4025",
"2  c #7B432B",
"3  c #754629",
"4  c #6D4731",
"5  c #674836",
"6  c #744F34",
"7  c #714F3C",
"8  c #7E5531",
"9  c #78543C",
"0  c #3F4549",
"q  c #474744",
"w  c #4E4F4E",
"e  c #554F40",
"r  c #595548",
"t  c #495054",
"y  c #515A55",
"u  c #595B54",
"i  c #5A5D58",
"p  c #535355",
"a  c #4A544B",
"s  c #635543",
"d  c #645845",
"f  c #675A48",
"g  c #725543",
"h  c #7B5B43",
"j  c #6D5C52",
"k  c #5D625A",
"l  c #656350",
"z  c #61625C",
"x  c #656A5E",
"c  c #6A6856",
"v  c #756255",
"b  c #5F5F60",
"n  c #5C6663",
"m  c #5D6A63",
"M  c #646562",
"N  c #636B64",
"B  c #6A6D65",
"V  c #666D6B",
"C  c #6D6E6A",
"Z  c #646568",
"A  c #756E63",
"S  c #7A6D62",
"D  c #6D7265",
"F  c #6B726C",
"G  c #6B786E",
"H  c #677069",
"J  c #73746C",
"K  c #75796E",
"L  c #79746A",
"P  c #696970",
"I  c #6F7A74",
"U  c #6A7573",
"Y  c #747572",
"T  c #747A73",
"R  c #7A7C74",
"E  c #777D7B",
"W  c #7B7D7A",
"Q  c #787671",
"!  c #8B462C",
"~  c #85492D",
"^  c #8A4B2C",
"/  c #82442B",
"(  c #924F2F",
")  c #80512C",
"_  c #94532C",
"`  c #9E552F",
"'  c #90582E",
"]  c #8A4931",
"[  c #914F32",
"{  c #9C4E34",
"}  c #8D5C37",
"|  c #835736",
" . c #955434",
".. c #9C5434",
"X. c #9E5B34",
"o. c #9D593E",
"O. c #A75A2F",
"+. c #A35C35",
"@. c #A15B3A",
"#. c #AC5B3B",
"$. c #9B623D",
"%. c #9B6337",
"&. c #A96336",
"*. c #A4603B",
"=. c #AC653D",
"-. c #A36A3B",
";. c #AD6B37",
":. c #B46C3D",
">. c #BB6E3E",
",. c #B6653D",
"<. c #BC733E",
"1. c #B4703C",
"2. c #C0723F",
"3. c #805948",
"4. c #925741",
"5. c #896849",
"6. c #846B54",
"7. c #917359",
"8. c #A86942",
"9. c #B46D42",
"0. c #BB6C41",
"q. c #B46846",
"w. c #A97142",
"e. c #B57343",
"r. c #BC7343",
"t. c #BC7B43",
"y. c #B87648",
"u. c #827F7A",
"i. c #C37543",
"p. c #CB7744",
"a. c #C47C43",
"s. c #CB7D45",
"d. c #C1754A",
"f. c #C47B49",
"g. c #C97E4C",
"h. c #D27D46",
"j. c #D47E48",
"k. c #748173",
"l. c #7D8075",
"z. c #7D827B",
"x. c #778379",
"c. c #CE823E",
"v. c #90836F",
"b. c #82847D",
"n. c #86897E",
"m. c #858873",
"M. c #9A867B",
"N. c #BD846C",
"B. c #C78146",
"V. c #CC8346",
"C. c #CD824C",
"Z. c #CF884C",
"A. c #C6834A",
"S. c #D38346",
"D. c #D88341",
"F. c #D2854C",
"G. c #DA874E",
"H. c #D5894C",
"J. c #D98C4D",
"K. c #DC904D",
"L. c #CD8751",
"P. c #D28551",
"I. c #D58B51",
"U. c #DA8B52",
"Y. c #DE9051",
"T. c #E29357",
"R. c #C98D65",
"E. c #7F8883",
"W. c #828981",
"Q. c #8C8D89",
"!. c #878883",
"~. c #8D928B",
"^. c #92938D",
"/. c #8D9790",
"(. c #9A9A95",
"). c #9B9D9B",
"_. c #979995",
"`. c #A1A39B",
"'. c #A4A4A3",
"]. c #AFB0AA",
"[. c #BBB8AE",
"{. c #B2B2AC",
"}. c #AFB3B3",
"|. c #B4B4B3",
" X c #BEBFBB",
".X c #C3C4BF",
"XX c #C9C9C7",
"oX c #CDCECB",
"OX c #C5C4C4",
"+X c #D3CFCA",
"@X c #CFD0CF",
"#X c #CFD2D0",
"$X c #D4D5D4",
"%X c #DBDCDA",
"&X c #D8D8D3",
"*X c #DFE1DF",
"=X c #EBEBEA",
"-X c #E6E6E3",
";X c #F2F1EE",
":X c #F3F4F3",
">X c #F7F9F6",
",X c None",
"<X c #F7F9F9",
/* pixels */
",X,X,X,X,X,X,X,X,X,X,X,X:XQ.R b.R R Q.;X,X,X,X,X,X,X,X,X,X,X,X,X",
",X,X,X,X,X,X,X,X,X,X,X,XoXB b.m.l.D z $X,X<X,X,X,X,X,X,X,X,X,X,X",
",X,X,X,X,X,X,X,X,X<X<X,X>XR Q l.R M Y ,X,X,X<X,X,X,X,X,X,X,X,X,X",
",X,X,X,X,X,X,X-X=X,X,X&X`.N Q Q R Q i (.+X;X,X*X>X,X,X,X,X,X,X,X",
",X,X,X,X,X,X=XE z.@XQ.K N a Y Y T T N I H n. XW `.,X,X,X,X,X,X,X",
",X,X,X,X,X%Xz.Y K k I x.k.u Y u.l.D H k.k.k D ~.Y _.<X,X,X,X,X,X",
",X,X,X,X,X}.C E R T N S g 4 h h 5.9 7 v V V n.b.b.W :X,X,X,X,X,X",
",X,X,X,X,X,XY B T l.> 4  .+.=.X.0.,.q.4.5 A n.b.k ].,X<X,X,X,X,X",
",X,X,X,X,X[.J m H 5 < 8.0.0.d.:.F.p.f.e.4.3 r N I J %X,X,X,X,X,X",
",X,X,X,X-XJ x.T - 6 $.9.g.V.C.t.T.H.H.a.r.y.< c ~.K ^.,X,X,X,X,X",
",X,X,X,X{.y z.c 3 e.1.t.J.H.H.B.T.J.J.s.g.F.9.7 Q U i -X,X,X,X,X",
",X,X,X,X^.U Y 7 X.p.r.s.J.J.I.a.Y.S.G.s.s.F.2.$.s Y m [.,X,X,X,X",
",X,X,X=XK Y S | r.C.t.V.K.K.F.f.K.S.F.B.B.Z.p.e.h R F (.,X,X,X,X",
",X,X<XoXx G s %.A.L.A.Z.I.H.C.f.K.S.H.Z.B.I.B.f.| z m R :X:X,X,X",
",X,X!.Y R z.d 1.P.U.V.H.J.F.F.B.Y.J.U.H.V.H.F.I. .N b.!.J b.,X,X",
",X,X~.J R Y d r.P.J.B.H.J.F.F.B.K.U.I.V.H.J.S.U.-.H l.b.C W ,X,X",
",X,XQ.T b.z.s <.C.H.a.H.J.S.F.a.K.J.U.a.Z.H.V.U.w.K l.u.J b.,X,X",
",X,XY w k M > <.C.H.B.F.F.g.C.t.J.J.G.s.F.F.s.U.w.k N Z q C ,X,X",
",X,X.XQ.z I ; <.H.H.a.C.S.g.C.<.J.F.I.i.B.F.g.I.-.r G i `. X,X,X",
",X>X,X&XJ /.f 2.F.F.i.s.F.s.C.<.S.s.P.i.s.s.i.F.-.K x.E ,X,X,X,X",
",X,X,XXXk W.f <.C.F.f.Z.S.S.C.a.D.g.C.f.c.t.N.R.w.A C Y >X<X,X,X",
",X>X,X&Xk T r r.C.F.a.f.C.h.C.<.S.g.V.f.Z.| E v.5.N l C ,X,X,X,X",
",X,XXX_.u y : i.P.S.i.A.F.h.F.t.U.C.D.p.t.7.Z M.h p b n {.XX,X,X",
",X,XR C W.E.d r.g.s.r.C.I.h.P.e.I.C.D.g.t.6.0 j g P R E M J ,X,X",
",X,XQ.Q R I s :.g.s.0.r.J.h.P.;.S.g.S.r.t.7 G l o U c m.R z.,X,X",
",X,X^.E n.Y s :.d.i.&.<.h.p.s.;.h.d.g.9.:. .2 } 8 T n.b.J b.,X,X",
",X,XR Z F x ; q.r.0.+.:.i.i.d.&.p.,.r.=.&.e.9.e.} u J Y w C ,X,X",
",X,XOX!.u D ; o.+.#. .8.,.,.q.+.>.+.=.X.X.` _ ' 8 y B M (.|.,X,X",
",X<X,X$XM W.d ~ ....~ @.#.X.#.X.,.O...(  .^ / ^ ) T R R ,X,X,X,X",
",X,X,XoXZ R d = ~ ! 1 [ { [ ..] ..! ] 1 / 1 & 1 4 H K Q <X,X,X,X",
",X,X,X$XM U e % = 2 + ] ! ~ ! / [ & 2 * % * % 3 @ V u.W ,X,X,X,X",
",X,X,X$Xq y - + $ $   # * # * # = $ # + + + . . O t u C ,X,X,X,X"
};
