/* XPM */
static char *result[] = {
/* columns rows colors chars-per-pixel */
"32 32 124 2 ",
"   c #050301",
".  c #090602",
"X  c #0D0A04",
"o  c #0E0E0A",
"O  c #120D05",
"+  c #190F07",
"@  c #141106",
"#  c #1A1307",
"$  c #141109",
"%  c #1B1409",
"&  c #1E1908",
"*  c #201706",
"=  c #221906",
"-  c #23150A",
";  c #251C0A",
":  c #2A190C",
">  c #27200F",
",  c #2B240A",
"<  c #3C2B0C",
"1  c #2F2612",
"2  c #342B15",
"3  c #172023",
"4  c #182124",
"5  c #1A2830",
"6  c #422F0D",
"7  c #45310D",
"8  c #4B2C16",
"9  c #512F17",
"0  c #4D3312",
"q  c #4F3810",
"w  c #423619",
"e  c #4A3C1D",
"r  c #533C11",
"t  c #4F401F",
"y  c #644714",
"u  c #664914",
"i  c #795718",
"p  c #725F18",
"a  c #7D5919",
"s  c #756017",
"d  c #746018",
"f  c #4E4223",
"g  c #524422",
"h  c #5C4B24",
"j  c #5F4F29",
"k  c #604E26",
"l  c #645229",
"z  c #715C2D",
"x  c #76612E",
"c  c #79632F",
"v  c #7C6531",
"b  c #1C3243",
"n  c #26455B",
"m  c #28475E",
"M  c #2A4C65",
"N  c #815C19",
"B  c #87601B",
"V  c #8C641C",
"C  c #976C1E",
"Z  c #996D1E",
"A  c #89711C",
"S  c #90771D",
"D  c #9E711F",
"F  c #997E1E",
"G  c #824828",
"H  c #8F522B",
"J  c #A45C33",
"K  c #937921",
"L  c #91763A",
"P  c #94793B",
"I  c #9A7D3D",
"U  c #A5662B",
"Y  c #AF7429",
"T  c #B1752A",
"R  c #BF6A3C",
"E  c #C46E3E",
"W  c #C27934",
"Q  c #9E813E",
"!  c #A48720",
"~  c #AA8D21",
"^  c #B78324",
"/  c #BA8526",
"(  c #BB9A24",
")  c #B7972E",
"_  c #CA9128",
"`  c #DB9D2C",
"'  c #DB8939",
"]  c #E28B3D",
"[  c #E59637",
"{  c #E59439",
"}  c #CFAB28",
"|  c #D5B12F",
" . c #E6A42E",
".. c #E2BB2C",
"X. c #E7A131",
"o. c #ECC32E",
"O. c #EEC433",
"+. c #F1C63F",
"@. c #A58741",
"#. c #A78841",
"$. c #AE8E43",
"%. c #B49345",
"&. c #B99749",
"*. c #BE9B4B",
"=. c #C19E4C",
"-. c #E38442",
";. c #C7A24E",
":. c #CAA54F",
">. c #CDA750",
",. c #D2AB53",
"<. c #DCB356",
"1. c #E0B74E",
"2. c #E0B758",
"3. c #E4BA5A",
"4. c #EABF5C",
"5. c #F6CA4B",
"6. c #ECC15D",
"7. c #F8CB51",
"8. c #F2C55F",
"9. c #FBCD5D",
"0. c #F5C860",
"q. c #FBCC62",
"w. c #FFD064",
"e. c None",
/* pixels */
"e.e.e.e.e.e.e.e.e.e.e.e.e.e.e.e.e.e.e.e.e.e.e.e.e.e.e.e.e.e.e.e.",
"e.e.e.e.e.e.e.e.e.e.e.e.e.e.e.e.X e.e.e.e.e.e.e.e.e.e.e.e.e.e.e.",
"e.e.e.e.e.e.e.e.e.e.e.e.e.e.e.e.  e.e.e.e.e.e.e.e.e.e.e.e.e.e.e.",
"e.e.e.e.X   e.e.e.e.e.e.e.e.e.e..   e.e.e.e.e.e.e.e.e.e..   e.e.",
"e.e.e.e.. O e.e.e.e.e.e.e.e.e.e.o t $ X e.e.e.e.e.e.e.. X e.e.e.",
"e.e.e.X y e.e.e.e.e.e.e.e.  e.e.e.@ 6.g O e.e.e.e.e.O y O e.e.e.",
"e.e.e.X D X e.e.e.e.e.e.e.  o e.e.+ <.w.l X e.e.e.e.O V O e.e.e.",
"e.e.e.. a q + e.e.e.e.e.X j X e.e.$ &.w.2.O e.e.e.e.. 7 C 0 e.e.",
"e.e.O N < ` + e.e.e.e.@ #.I o e.e.$ 0.w.0.X e.e.e.X V X  .' e.e.",
"e.. N N i [ 9 e.e.e.e.o 3.q.e X $ *.q.w.&.$ e.e.e.6 / 7  .H # e.",
"e.X V  . .] 8 e.e.e.e.% ,.w.w.6.q.w.w.6.; e.e.e.e.7  . .{ G + e.",
"e.e.# W -.J + e.e.e.e.e.e.,.w.w.w.w.>.% e.e.e.e.e.O U -.E # e.e.",
"e.e.e.+ . # e.e.e.. e.e.e.% w.w.w.q.$ e.e.e.. e.e.e.# X O e.e.e.",
"e.e.e.e.e.e.e.e.e.% X e.e.X w.w.w.6.. e.e.O % e.e.e.e.e.e.e.e.e.",
"e.e.e.e.e.e.e.e.$ &.2 $ $ x q.w.w.w.e $ $ w %.> e.e.e.e.e.e.e.e.",
"e.e.e.e.e.e.e.e.$ =.q.$.%.w.w.w.w.w.q.%.%.9.) ; e.e.e.e.e.e.e.e.",
"e.e.e.. . e.e.e.$ I w.w.w.w.w.w.w.w.w.w.w.9.S & e.e.e.e.e.  . e.",
"e.e.X . e.e.e.e.e.v w.w.w.w.w.w.w.w.w.w.w.5.p e.e.e.e.e.X X e.e.",
"e.e.< = e.e.e.e.e.v w.w.w.w.w.w.w.w.w.w.w.5.s e.e.e.e.e.< = e.e.",
"e.e.; a X e.e.e.O >.w.=.0.w.w.w.w.w.w.q.=.7.( & e.e.e.e.= a O e.",
"e.X   ^ - e.e.e.& w.$.o $ v 4.w.w.4.v $ o $.o., e.e.e.O   ^ ; e.",
"O a r Z Y & e.e.v q.j b n 5 o ;.;.o 5 n b j O.s e.e.O i r Z T # ",
".  .u ` -.X e.$ @.w.P 4 M M $ <.<.$ M M 3 P O.K = e..  .y ` ] O ",
"X _  .[ E + e.$ %.w.q.f o o P w.q.P o o f q.O.~ ; e.X _  .{ E + ",
"e.: J J : e.e.O Q w.w.w.0.q.w.w.w.w.q.0.w.w.O.} e.e.e.: J J : e.",
"e.e.- - e.e.e.e.h w.w.w.l q.P >.>.P q.l w.9.o.| e.e.e.e.- - e.e.",
"e.e.e.e.e.e.e.e.O 8.q.0.O z 1 e f 1 z X 8.5...@ e.e.e.e.e.e.e.e.",
"e.e.e.e.e.e.e.e.o x w.q.Q > v t g c ; Q 9.o.p % e.e.e.e.e.e.e.e.",
"e.e.e.e.e.e.e.e.e.O %.q.w.I 6.=.=.6.P w.+.! @ e.e.e.e.e.e.e.e.e.",
"e.e.e.e.e.e.e.e.e.e.X L q.w.w.w.w.w.w.+.A @ e.e.e.e.e.e.e.e.e.e.",
"e.e.e.e.e.e.e.e.e.e.e.o ; Q 3.w.w.1.S , & e.e.e.e.e.e.e.e.e.e.e.",
"e.e.e.e.e.e.e.e.e.e.e.e.e.O o . . @ & e.e.e.e.e.e.e.e.e.e.e.e.e."
};
