/* XPM */
static char *f3fb57268a28412ce4640078929aab0fbTik25po4SGBqtJ5[] = {
/* columns rows colors chars-per-pixel */
"32 32 229 2 ",
"   c None",
".  c #050405",
"X  c #040506",
"o  c #050506",
"O  c #070708",
"+  c #090909",
"@  c #0A0909",
"#  c #130602",
"$  c #130603",
"%  c #1A0E0B",
"&  c #1A1614",
"*  c #1E1916",
"=  c #1E1917",
"-  c #1F1A17",
";  c #260E07",
":  c #270F08",
">  c #24130E",
",  c #26130E",
"<  c #2D170D",
"1  c #261914",
"2  c #251C17",
"3  c #301C13",
"4  c #2F2019",
"5  c #38231D",
"6  c #242228",
"7  c #39353D",
"8  c #43281F",
"9  c #672718",
"0  c #7C301E",
"q  c #402C28",
"w  c #453229",
"e  c #45312F",
"r  c #55372F",
"t  c #56372F",
"y  c #4D3E37",
"u  c #533C38",
"i  c #693F2F",
"p  c #713620",
"a  c #70412F",
"s  c #70422F",
"d  c #71422F",
"f  c #7C432E",
"g  c #79472D",
"h  c #7D452E",
"j  c #6C473D",
"k  c #7A4B34",
"l  c #403E41",
"z  c #434041",
"x  c #574742",
"c  c #565352",
"v  c #70584F",
"b  c #6E5651",
"n  c #7B5E54",
"m  c #686563",
"M  c #6D6460",
"N  c #6E6664",
"B  c #76706B",
"V  c #882D17",
"C  c #85301B",
"Z  c #97371E",
"A  c #803523",
"S  c #853520",
"D  c #8D3924",
"F  c #844329",
"G  c #87472D",
"H  c #964425",
"J  c #9C4728",
"K  c #97482A",
"L  c #924A2D",
"P  c #9F4B2B",
"I  c #895135",
"U  c #895136",
"Y  c #895637",
"T  c #8B5637",
"R  c #8C5637",
"E  c #885238",
"W  c #995633",
"Q  c #995733",
"!  c #995637",
"~  c #945835",
"^  c #955835",
"/  c #965835",
"(  c #975835",
")  c #9C5933",
"_  c #9E5933",
"`  c #9F5933",
"'  c #A54B29",
"]  c #A54C29",
"[  c #A74F2B",
"{  c #A04C2C",
"}  c #AA4B28",
"|  c #AD4C2A",
" . c #AD5029",
".. c #B0522A",
"X. c #A74E38",
"o. c #AA5232",
"O. c #AE5531",
"+. c #A05A33",
"@. c #A65A31",
"#. c #A65B31",
"$. c #A85B31",
"%. c #A95B31",
"&. c #AF5C30",
"*. c #AE5D32",
"=. c #AB543D",
"-. c #B55634",
";. c #B05C30",
":. c #B15E31",
">. c #98603E",
",. c #A0613C",
"<. c #C94B27",
"1. c #CC5E27",
"2. c #CD5F28",
"3. c #CE5F28",
"4. c #D55F27",
"5. c #D75F26",
"6. c #CA5A3D",
"7. c #CF6129",
"8. c #CF612A",
"9. c #D86227",
"0. c #D96327",
"q. c #DA6327",
"w. c #DB6327",
"e. c #DF6426",
"r. c #D06129",
"t. c #D36229",
"y. c #D76328",
"u. c #D86328",
"i. c #D96328",
"p. c #CD6938",
"a. c #D86B35",
"s. c #E56324",
"d. c #E16426",
"f. c #E26426",
"g. c #E36426",
"h. c #E36526",
"j. c #E26527",
"k. c #E46525",
"l. c #E66424",
"z. c #E76424",
"x. c #E46526",
"c. c #E46527",
"v. c #EB6523",
"b. c #EC6523",
"n. c #E96524",
"m. c #E86525",
"M. c #E96525",
"N. c #EA6624",
"B. c #EB6624",
"V. c #EC6624",
"C. c #ED6624",
"Z. c #E36D32",
"A. c #936144",
"S. c #956346",
"D. c #94624A",
"F. c #9E6E58",
"G. c #A56541",
"H. c #A06E4D",
"J. c #A06E4E",
"K. c #A86E4D",
"L. c #B36347",
"P. c #BE6543",
"I. c #B76549",
"U. c #A6724B",
"Y. c #B1704C",
"T. c #B87A4E",
"R. c #A77350",
"E. c #CE6F5A",
"W. c #BF8D6C",
"Q. c #BF8D6D",
"!. c #C08766",
"~. c #CD9D6E",
"^. c #CF9E6F",
"/. c #D4936E",
"(. c #D19D7F",
"). c #D29D7F",
"_. c #D8A17E",
"`. c #9B9291",
"'. c #AF948E",
"]. c #BCA09A",
"[. c #BEA19A",
"{. c #85A7B3",
"}. c #BDA8A3",
"|. c #BBA8A5",
" X c #C1A18C",
".X c #C7A48E",
"XX c #D7AC82",
"oX c #C7A693",
"OX c #C7A793",
"+X c #CAA792",
"@X c #D3A890",
"#X c #CFB09C",
"$X c #DFB69F",
"%X c #E9AF8F",
"&X c #E6B196",
"*X c #D7B5A1",
"=X c #D5B6A2",
"-X c #DCB6A0",
";X c #E5BBA1",
":X c #E8BFA3",
">X c #E8BEA4",
",X c #E2BEA8",
"<X c #E9BFA9",
"1X c #EFC0A6",
"2X c #E5C0AA",
"3X c #E5C0AB",
"4X c #E5C1AB",
"5X c #E6C2AB",
"6X c #EAC1A9",
"7X c #EBC2A9",
"8X c #EAC2AA",
"9X c #EBC2AB",
"0X c #EDC4AC",
"qX c #EFC5AD",
"wX c #EDC6AE",
"eX c #F5CCB3",
"rX c #F5CEB6",
"tX c #F6CEB6",
"yX c #F6CEB7",
"uX c #F7CFB7",
"iX c #F8CFB7",
"pX c #F7D0B8",
"aX c #F8D0B8",
"sX c #F9D0B8",
"dX c #F9D1B9",
"fX c #C0BCD0",
"gX c #C0BDD1",
"hX c #D2C8CE",
"jX c #D2C8CF",
/* pixels */
"                                                                ",
"                                                                ",
"                              ~                                 ",
"                            ~ 8.~                               ",
"                            +.y.~                               ",
"                    T ~   ) t.e.~ ~ ~   T                       ",
"              T ~   +.t.$.t.$.y.) y.w.) ~   ~ T                 ",
"    R ~       ) t.B.x.B.x.d.$.y.+.d.V.d.d.B.t.)       ~ R       ",
"    ~ t.+.~   u.;.x.V.d.V.B.d.u.@.d.V.V.V.d.;.u.  ~ +.t.~       ",
"    ~ u.d.u.$.d.w.B.x.&.w.b.x.&.w.V.v.d.B.B.w.d.$.u.d.u.~       ",
"      ) d.V.x.d.&.w.B.3.&.Z.d.d.B.x.Z.;.d.w.&.d.x.V.d.)         ",
"      ~ u.V.V.B.w.&.8.! p.%XY.w.w.Y.%Xa.w.&.w.B.V.V.u.~         ",
"        +.w.B.V.s.1.G.@XF.8X;XK.K.;X8XD.W 3.s.V.B.w.+.          ",
"          $.x.x...I S.8XwXiXiXwXwXdXdX$XA.I ..x.x.$.            ",
"      T ) w.B.w.,.~.H.:X3X3XuXdXpX3X3X8XH.~.,.w.B.w.) T         ",
"      ~ 8.x.x.@.>.~.U.XXM m =XuX=Xm N -XR.~.>.@.x.x.8.~         ",
"        W  .5.5.] E T.>XfX{.B =XB {.fX<XT.E ] 5.5. .W           ",
"          s h ] } J k ).jXc #XuX#Xc jX).k J } ] h s             ",
"              f ' H 3 !.wX,XuXdXuX,XwX!.3 H ' f                 ",
"            s K P g < L /.1XuXeXuX1X/.L < g P K s               ",
"              s i w p 8 { P.&X_.&XP.{ 8 p w i s                 ",
"                    5 `.L.<.-.O.-.<.L.`.5                       ",
"                  : S b ].I.o.| o.I.].b S ;                     ",
"                y G r A =.}.'.6.'.}.=.A r F 4                   ",
"              * +XQ.2 q , v |.E.|.v , q 2 Q..X*                 ",
"              * oX X1 9 , x n ].n x , 9 1  XoX*                 ",
"                * & @ e 0 D j X.j D 0 e @ & *                   ",
"                    O 7 u Z C V C Z u 7 O                       ",
"                    @ l z % # # # % z l @                       ",
"                    . 6 6 .       . 6 6 .                       ",
"                      . .           . .                         ",
"                                                                "
};
