/* XPM */
static char *result[] = {
/* columns rows colors chars-per-pixel */
"32 32 234 2 ",
"   c black",
".  c #010101",
"X  c #020202",
"o  c gray1",
"O  c #040404",
"+  c #060606",
"@  c #070606",
"#  c #070707",
"$  c #090307",
"%  c #0B070A",
"&  c gray3",
"*  c #090909",
"=  c #0B090A",
"-  c gray4",
";  c #0B0B0B",
":  c #0D080C",
">  c #0E0A0D",
",  c #0C0C0C",
"<  c #0C0D0C",
"1  c gray5",
"2  c #0E0E0E",
"3  c gray6",
"4  c #0F100F",
"5  c #101010",
"6  c #111111",
"7  c #131012",
"8  c gray7",
"9  c #131313",
"0  c #131413",
"q  c gray8",
"w  c #151615",
"e  c #161616",
"r  c gray9",
"t  c #181818",
"y  c #191919",
"u  c gray10",
"i  c #1B1D1C",
"p  c gray11",
"a  c #1D1D1D",
"s  c #1E1E1E",
"d  c gray12",
"f  c #261A23",
"g  c #202020",
"h  c gray13",
"j  c #222222",
"k  c #232323",
"l  c #222523",
"z  c gray14",
"x  c #252525",
"c  c gray15",
"v  c #272727",
"b  c #272827",
"n  c #282828",
"m  c gray16",
"M  c #2A2A2A",
"N  c gray17",
"B  c #2C2C2C",
"V  c #2D2D2D",
"C  c gray18",
"Z  c #2F2F2F",
"A  c gray19",
"S  c #323232",
"D  c gray20",
"F  c #343434",
"G  c #353535",
"H  c gray21",
"J  c #373737",
"K  c #393939",
"L  c #393A39",
"P  c #3A3A3A",
"I  c #3A3B3A",
"U  c #3B3A3B",
"Y  c gray23",
"T  c #3C3C3C",
"R  c gray24",
"E  c #3E3E3E",
"W  c #3F3F3F",
"Q  c gray25",
"!  c #414141",
"~  c gray26",
"^  c #434343",
"/  c #474346",
"(  c #464646",
")  c gray28",
"_  c #4A4448",
"`  c #4C444A",
"'  c #484848",
"]  c #484949",
"[  c #494949",
"{  c gray29",
"}  c #4B4B4B",
"|  c #4C4C4C",
" . c gray30",
".. c #4E4E4E",
"X. c #4E4F4E",
"o. c gray31",
"O. c #524D50",
"+. c #515151",
"@. c #515251",
"#. c gray32",
"$. c #535252",
"%. c #535353",
"&. c gray33",
"*. c #565656",
"=. c gray34",
"-. c #585858",
";. c #5A5A5A",
":. c #5B5B5B",
">. c #5D5D5D",
",. c #5F5F5F",
"<. c #655661",
"1. c #7D5071",
"2. c #606060",
"3. c gray38",
"4. c #646464",
"5. c #656565",
"6. c #666766",
"7. c #686868",
"8. c DimGray",
"9. c #6A6A6A",
"0. c gray42",
"q. c #6C6C6C",
"w. c #6D6D6D",
"e. c gray43",
"r. c #747474",
"t. c #767676",
"y. c #777777",
"u. c gray47",
"i. c #797A79",
"p. c #7B7B7B",
"a. c #7C7C7C",
"s. c #7F807F",
"d. c #8A6480",
"f. c #936687",
"g. c #8B7A87",
"h. c #9B7B93",
"j. c #808080",
"k. c #818181",
"l. c gray51",
"z. c #838383",
"x. c gray52",
"c. c #868686",
"v. c gray53",
"b. c #888888",
"n. c #898989",
"m. c gray54",
"M. c #8B8B8B",
"N. c #8E8E8E",
"B. c #908C8F",
"V. c gray57",
"C. c #909291",
"Z. c #929292",
"A. c #939393",
"S. c gray58",
"D. c #989798",
"F. c #9A999A",
"G. c #9A9A9A",
"H. c #9B9B9B",
"J. c gray61",
"K. c #9D9D9D",
"L. c gray62",
"P. c #9F9F9F",
"I. c #AA87A1",
"U. c #BA97B1",
"Y. c #A0A0A0",
"T. c gray63",
"R. c #A2A2A2",
"E. c #A4A4A4",
"W. c gray65",
"Q. c #A7A7A7",
"!. c #AAAAAA",
"~. c #ACACAC",
"^. c gray68",
"/. c #AEAEAE",
"(. c #AFAFAF",
"). c gray69",
"_. c #B1B1B1",
"`. c #B2B2B2",
"'. c gray70",
"]. c #B4B4B4",
"[. c gray71",
"{. c #B6B6B6",
"}. c #B7B7B7",
"|. c #B7B8B7",
" X c gray72",
".X c #B9B9B9",
"XX c gray73",
"oX c #BBBBBB",
"OX c #BCBCBC",
"+X c gray74",
"@X c gray",
"#X c #C085B1",
"$X c #C3A6BC",
"%X c #C8A2BF",
"&X c #D0A6C5",
"*X c #C0C0C0",
"=X c #C1C1C1",
"-X c gray76",
";X c #C3C3C3",
":X c #C5C5C5",
">X c #C8C8C8",
",X c gray79",
"<X c #CBCBCB",
"1X c #CBCDCC",
"2X c #D0D0D0",
"3X c #D2D2D2",
"4X c LightGray",
"5X c gray83",
"6X c #D5D5D5",
"7X c gray84",
"8X c gray85",
"9X c #DADADA",
"0X c gray86",
"qX c gainsboro",
"wX c #DDDDDD",
"eX c #DFDFDF",
"rX c #E2DFE1",
"tX c gray88",
"yX c #E7E7E7",
"uX c #E9E9E9",
"iX c #EAEAEA",
"pX c gray93",
"aX c #EEECED",
"sX c #EEEEEE",
"dX c #EFEFEF",
"fX c #F3F3F3",
"gX c #F4F4F4",
"hX c gray96",
"jX c gray97",
"kX c #F8F7F7",
"lX c #FFF3FF",
"zX c gray98",
"xX c white",
"cX c None",
/* pixels */
"cXcXcXcXcXcXcXcXcXcXcXcXcXcXcXcX  cXcXcXcXcXcXcXcXcXcXcXcXcXcXcX",
"cXcXcXcXcXcXcXcXcXcXcXcXcXcXcX; l w cXcXcXcXcXcXcXcXcXcXcXcXcXcX",
"cXcXcXcXcXcXcXcXcXcXcXcXcXcX  7 <.` a cX< 4 cXcXcXcXcXcXcXcXcXcX",
"cXcXcXcXcXcXcXcXcXcXcXcXcXO   f #XU.6.0 A U @ cXcXcXcXcXcXcXcXcX",
"cXcXcXcXcXcXcXcXcXcXcXcX2 5.@._ $Xg.I $.h.d.> cXcXcXcXcXcXcXcXcX",
"cXcXcXcXcXcXcXcXcXcXcX3 R OXOXA.1Xs.] F.%Xf.: cXcXcXcXcXcXcXcXcX",
"cXcXcXcXcXcXcXcXcXcXO K V.qXhXgXzX9X*X:XB./ 1 cXcXcXcXcXcXcXcXcX",
"cXcXcXcXcXcXcXcXcX+ 0.z.w.-.!.xXxXuX6X4X|.C.8.n cXcXcXcXcXcXcXcX",
"cXcXcXcXcXcXcXcXi ) Z.k.N   ( .XfX5XJ.b.].[.7.c cXcXcXcXcXcXcXcX",
"cXcXcXcXcXcXcX$ O. Xy.J q O   D 8X^.! g n.K.j cXcXcXcXcXcXcXcXcX",
"cXcXcXcXcXcX% 1.&XrXX.*.Q.N   v 0Xc.n b.+X*XA.P cXcXcXcXcXcXcXcX",
"cXcXcXcXcXcX= I.lXaXL G M.j   d L.p.) t._.3XXXY   cXcXcXcXcXcXcX",
"cXcXcXcXcXcX; D.kXsX:.2 1 - X 1 [ r.9.m a.[.z.V   cXcXcXcXcXcXcX",
"cXcXcXcXcXcXcXb i.jXtXN.W Q d ; ( G K V.n.=.z cXcXcX      cXcXcX",
"cXcXcXcXcXcXcXcXS M.pXdXT.4.{ E M E 9.Z.-.p   cXcXcXu x z 2 cXcX",
"cXcXcXcXcXcXcXcXcX8 P.pXyXx.j.n.F a.}.2.p   cXcXcXc &.5.} 6   cX",
"cXcXcXcXcXcXcXcXcXcXs q.2X=X@X*X(.=X[.,.p   cX  E W.oXS.| 5   cX",
"cXcXcXcXcXcXcXcXcX8 8.V.^.<X'.H.>X4X-XY.w.Q -   C V.,XQ.o.5   cX",
"cXcXcXcXcXcXcXcXcX9 oXuX/.+Xk.*.[.3X;XQ.T.e.*   y &.K.m.R 3 cXcX",
"cXcXcXcXcXcXcXcXcX9 }.xXiX). .n ~.8XE.V 3.e.1   p %.3.R ; cXcXcX",
"cXcXcXcXcXcXcXcXcX9 {.xXzX`.^ p ^.eXR.9 r ~ +.t G N.^ 5 cXcXcXcX",
"cXcXcXcXcXcXcXcXcX9 XXxX7Xc.Y C A.}.v.q ; | G.G W ~.F   cXcXcXcX",
"cXcXcXcXcXcXcXcXcX9 ].wXm.v z +.:.2.) 1 o.T.].W A l.M   cXcXcXcX",
"cXcXcXcXcXcXcXcXcXcX} 3.>.8 z -.%.&.E , u.Q...T H C t cXcXcXcXcX",
"cXcXcXcXcXcXcXcXcXcX  6 C - e R #.;.~ , *.5.+ k B   cXcXcXcXcXcX",
"cXcXcXcXcXcXcXcXcX    . O + X 3 ~ %.R * o + . X O cXcXcXcXcXcXcX",
"cXcXcXcXcXcXcXcX        + D j   5 e 5             cXcXcXcXcXcXcX",
"cXcXcXcXcXcXcX          + M Z k h h j k 2         cXcXcXcXcXcXcX",
"cXcXcXcXcXcXcX              k { { [ { ' a         cXcXcXcXcXcXcX",
"cXcXcXcXcXcXcXcXcX          & 9 9 9 9 9 #     cXcXcXcXcXcXcXcXcX",
"cXcXcXcXcXcXcXcXcXcX                        cXcXcXcXcXcXcXcXcXcX",
"cXcXcXcXcXcXcXcXcXcXcXcX                cXcXcXcXcXcXcXcXcXcXcXcX"
};
