/* XPM */
static char *result[] = {
/* columns rows colors chars-per-pixel */
"32 32 97 2 ",
"   c #101015",
".  c #1D1218",
"X  c #201217",
"o  c #24131A",
"O  c #2C141D",
"+  c #33141D",
"@  c #39141F",
"#  c #39181F",
"$  c #2A1420",
"%  c #341724",
"&  c #3C1420",
"*  c #391827",
"=  c #3E192A",
"-  c #441523",
";  c #4C1424",
":  c #431A21",
">  c #4C1D23",
",  c #431A2D",
"<  c #531526",
"1  c #591527",
"2  c #531E24",
"3  c #5D1529",
"4  c #471B30",
"5  c #4D1D34",
"6  c #511D36",
"7  c #581C33",
"8  c #551E39",
"9  c #65152A",
"0  c #6A152C",
"q  c #73162E",
"w  c #711B3A",
"e  c #5E2126",
"r  c #5B213D",
"t  c #682427",
"y  c #692429",
"u  c #70222B",
"i  c #7C2A2D",
"p  c #642242",
"a  c #6C2345",
"s  c #6E2549",
"d  c #72264C",
"f  c #792750",
"g  c #772850",
"h  c #7D2853",
"j  c #831632",
"k  c #8B1734",
"l  c #941737",
"z  c #9D1739",
"x  c #A1173A",
"c  c #A7183B",
"v  c #AB193D",
"b  c #B4193E",
"n  c #842B2F",
"m  c #932E32",
"M  c #A52339",
"N  c #A53336",
"B  c #AB3536",
"V  c #B53739",
"C  c #C43B3C",
"Z  c #CC3D3E",
"A  c #BE1742",
"S  c #BB1941",
"D  c #B41E4B",
"F  c #BD1E4B",
"G  c #8D2652",
"H  c #822955",
"J  c #8A2A53",
"K  c #AB204B",
"L  c #B6234B",
"P  c #AD354E",
"I  c #CF1746",
"U  c #C41943",
"Y  c #CD1946",
"T  c #C71A49",
"R  c #D11946",
"E  c #D71948",
"W  c #D81948",
"Q  c #CA2C41",
"!  c #C62748",
"~  c #D62246",
"^  c #D82546",
"/  c #DB2D45",
"(  c #C33B43",
")  c #C63049",
"_  c #CD3D49",
"`  c #D33042",
"'  c #DD3345",
"]  c #D53E44",
"[  c #D03E4A",
"{  c #E03545",
"}  c #E33B44",
"|  c #D74040",
" . c #DC4141",
".. c #E64244",
"X. c #EA4544",
"o. c #F04646",
"O. c None",
/* pixels */
"O.O.O.O.O.O.O.O.O.O.O.O.O.O.O.O.O.O.O.O.O.O.O.O.O.O.O.O.O.O.O.O.",
"O.O.O.O.O.O.O.O.O.O.O.O.O.O.O.O.O.O.O.O.O.O.O.O.O.O.O.O.O.O.O.O.",
"O.O.O.O.O.O.O.O.O.O.O.O.O.O.O.O.O.O.O.O.O.O.O.O.O.O.O.O.O.O.O.O.",
"O.O.O.O.O.O.O.O.. . . . O.O.O.O.O.O.O.O.O.O.O.O.O.O.O.O.O.O.O.O.",
"O.O.O.O.O.O.O.> N N N N : o O.O.O.O.O.O.O.O.O.O.O.O.O.O.O.O.O.O.",
"O.O.O.O.O.O.: C X.X.o.X.C N + O.O.O.O.O.O.O.O.O.O.O.O.O.O.O.O.O.",
"O.O.O.O.O.+ b X.X...X.X.X.X.N % O.O.O.O.O.O.O.O.O.O.O.O.O.O.O.O.",
"O.O.O.O.O.O U } X...X.X.X.X.} l & O.O.O.O.O.O.O.O.O.O.O.O.O.O.O.",
"O.O.O.O.O.+ S R ' } X.X.X.../ R 0   O.O.O.O.= , , , , , O.O.O.O.",
"O.O.O.O.O.O S R R ^ ' ' ....^ I M i : O.% 5 a H H H H d , O.O.O.",
"O.O.O.O.O.+ Q R Y I I / X.X.} Y { X.> $ p H H h H H h H d = O.O.",
"O.O.O.O.O.O.y ` Y R Y } X.X.' Y ' X.2 p H H H H H h h H H 5 O.O.",
"O.O.O.O.O.O.O.# u Q A ' ..} R Y R R S J H h H h , % , f H f = O.",
"O.O.O.O.O.O.- - - < - v ~ ~ ^ L D R R I F J d 4 O.O.O., H H , O.",
"O.O.O.O.; 3 U Y R Y K ! } X.X.' R R R R R F 7 O.O.O.O., H H = O.",
"O.O.O.< b E R Y R R R } X.X.X.X.) T R R R E z - O.O.O., H H = O.",
"O.O.< v E R R R R E D [ X.X.X.X.P w U R R Y E z - O.O., H H , O.",
"O.O.0 E I R R b 1 3 a _ X.X.X._ J = < U I R Y E ; O.O., H r O.O.",
"O.O.0 E Y R b ; O.o r _ X.X._ J H , O.1 U R R Y ; O.* d H 4 O.O.",
"O.O.0 E R U - O.O.5 h _ X.X._ h H = O.O.1 R R R ; O.* h 8 O.O.O.",
"O.O.0 W R U 3 O.O.6 H [ X.X.( d H 6 O.O.< R R Y ; O.% 8 O.O.O.O.",
"O.O.1 b R R U 9 X 6 d ( X.o.B 5 H h % O.; R I R ; O.o O.O.O.O.O.",
"O.O.O.1 b E R v o = % V X.X.B % s h % % l R Y R < O.O.O.O.O.O.O.",
"O.O.O.O.1 b E c o O.X V X.X.| t r h p : Y R R k O.O.O.O.O.O.O.O.",
"O.O O.O.O v E x o O.O.e Z X.X.m $ a h - U E k O.O.O.O.O.O.O.O.O.",
"O.< k + l Y R z o O.O.O.>  .X.m O.% p $ 3 W q O.O.O.O.O.O.O.O.O.",
"O.< S Y R R x @ O.O.O.O.#  .o.m O.O.O o ; S k O.O.O.O.O.O.O.O.O.",
"O.O.3 l l l @ O.O.O.O.O.+  .| i O.O.O.O.O.1 S k O.O.O.O.O.O.O.O.",
"O.O.O.. . . O.O.O.O.O.O.i X.B . O.O.O.O.O.O.3 j & O.O.O.O.O.O.O.",
"O.O.O.O.O.O.O.O.O.O.O.n X.] y O.O.O.O.O.O.O.O.O.O.O.O.O.O.O.O.O.",
"O.O.O.O.O.O.O.O.O.O.o 2 e 2 O.O.O.O.O.O.O.O.O.O.O.O.O.O.O.O.O.O.",
"O.O.O.O.O.O.O.O.O.O.O.O.O.O.O.O.O.O.O.O.O.O.O.O.O.O.O.O.O.O.O.O."
};
