/* XPM */
static char *result[] = {
/* columns rows colors chars-per-pixel */
"32 32 188 2 ",
"   c black",
".  c #010101",
"X  c #020202",
"o  c gray1",
"O  c #040404",
"+  c #070707",
"@  c gray3",
"#  c #090909",
"$  c gray4",
"%  c #0B0B0B",
"&  c #0E0A0D",
"*  c #0C0C0C",
"=  c gray5",
"-  c gray6",
";  c #101010",
":  c #111211",
">  c gray8",
",  c #151515",
"<  c #161616",
"1  c gray9",
"2  c #181818",
"3  c #191919",
"4  c #1B1C1B",
"5  c gray11",
"6  c #1D1D1D",
"7  c #1F1D1E",
"8  c gray12",
"9  c #20171E",
"0  c #222222",
"q  c #232323",
"w  c gray14",
"e  c gray15",
"r  c #272727",
"t  c #282828",
"y  c gray16",
"u  c #2A2A2A",
"i  c gray17",
"p  c #2C2C2C",
"a  c #2D2D2D",
"s  c gray18",
"d  c #2F2F2F",
"f  c gray19",
"g  c #313131",
"h  c #323132",
"j  c #323232",
"k  c gray20",
"l  c #333433",
"z  c #343434",
"x  c #353736",
"c  c gray21",
"v  c #373737",
"b  c #393939",
"n  c #3A3A3A",
"m  c #422D3D",
"M  c #483643",
"N  c #54364C",
"B  c #414141",
"V  c #444444",
"C  c gray27",
"Z  c #484848",
"A  c gray29",
"S  c #4C4C4C",
"D  c gray30",
"F  c #505050",
"G  c #535353",
"H  c gray33",
"J  c #555555",
"K  c #585858",
"L  c gray36",
"P  c #5F5F5F",
"I  c #606160",
"U  c #666164",
"Y  c #656565",
"T  c gray40",
"R  c #676767",
"E  c #686868",
"W  c DimGray",
"Q  c #6A6A6A",
"!  c #6C6C6C",
"~  c #6D6D6D",
"^  c #717171",
"/  c #707271",
"(  c #727272",
")  c #747474",
"_  c gray46",
"`  c #767576",
"'  c #767676",
"]  c #777777",
"[  c gray47",
"{  c gray48",
"}  c #7B7B7B",
"|  c gray49",
" . c #7E7E7E",
".. c #80717C",
"X. c #C17FB0",
"o. c #808080",
"O. c #808180",
"+. c #818181",
"@. c gray51",
"#. c #838383",
"$. c #868686",
"%. c gray53",
"&. c #888888",
"*. c gray54",
"=. c #8B8B8B",
"-. c gray55",
";. c #8D8D8D",
":. c gray56",
">. c #909090",
",. c #929292",
"<. c #939393",
"1. c #929493",
"2. c gray58",
"3. c #959595",
"4. c gray59",
"5. c #979897",
"6. c #989898",
"7. c gray60",
"8. c #9A9A9A",
"9. c #9A9B9A",
"0. c #9B9A9B",
"q. c #9B9B9B",
"w. c gray61",
"e. c #9D9D9D",
"r. c gray62",
"t. c #9F9F9F",
"y. c gray63",
"u. c #A2A2A2",
"i. c #A4A4A4",
"p. c #A5A5A5",
"a. c #A7A7A7",
"s. c #A9A9A9",
"d. c #AAAAAA",
"f. c #ACACAC",
"g. c gray68",
"h. c #AEAEAE",
"j. c #AFAFAF",
"k. c #B4A3B0",
"l. c gray69",
"z. c #B1B1B1",
"x. c #B2B2B2",
"c. c gray70",
"v. c gray71",
"b. c gray72",
"n. c gray73",
"m. c #BCBCBC",
"M. c gray74",
"N. c gray",
"B. c #C08AB2",
"V. c #C799BB",
"C. c #C1ACBC",
"Z. c #C0C0C0",
"A. c #C1C1C1",
"S. c gray76",
"D. c gray77",
"F. c #C5C5C5",
"G. c #C6C6C6",
"H. c gray78",
"J. c #C8C8C8",
"K. c gray79",
"L. c #CACACA",
"P. c #CBCBCB",
"I. c gray80",
"U. c #CDCDCD",
"Y. c #CECECE",
"T. c gray81",
"R. c #D0D0D0",
"E. c gray82",
"W. c #D2D2D2",
"Q. c LightGray",
"!. c gray83",
"~. c #D5D5D5",
"^. c gray84",
"/. c #D7D7D7",
"(. c #DDDDDD",
"). c gray87",
"_. c #DFDFDF",
"`. c #FFD6F9",
"'. c gray88",
"]. c #E2E2E2",
"[. c gray90",
"{. c #E6E6E6",
"}. c gray91",
"|. c gray94",
" X c #F1F1F1",
".X c #F1F2F1",
"XX c white",
"oX c None",
/* pixels */
"oXoXoXoXoXoXoXoXoXoXoXoXoXoXoXoXoXoXoXoXoXoXoXoXoXoXoXoXoXoXoXoX",
"oXoXoXoXoXoXoXoXoXoX  oXoXoXoXoXoXoXoXoXoX  oXoXoXoXoXoXoXoXoXoX",
"oXoXoXoXoXoXoXoXoX4 +   oXoXoXoXoXoXoXoX  + 4 oXoXoXoXoXoXoXoXoX",
"oXoXoXoXoXoXoX  h ` r   oX. X O O X . oX  r ` h   oXoXoXoXoXoXoX",
"oXoXoXoXoXoXoX  M V...x . q F [ [ F q . x ..V.M   oXoXoXoXoXoXoX",
"oXoXoXoXoXoXoX  m B.k./ b Y i.Q.Q.i.Y b / k.B.m   oXoXoXoXoXoXoX",
"oXoXoXoXoXoXoX  7 U 0.f.s.m.J.I.I.J.m.s.f.0.U 7   oXoXoXoXoXoXoX",
"oXoXoXoXoXoX    l 9.O.*.v.N.G.U.U.G.N.v.*.O.9.l     oXoXoXoXoXoX",
"oXoXoXoXoXw C V E r.| 4.I.j.x.F.F.x.j.L.3.| r.E V C w oXoXoXoXoX",
"oXoXoXoX  z s.Z.q.Q q.T.'.h.i.x.x.i.j.[.W.8.Q q.Z.s.z   oXoXoXoX",
"oXoXoXoXoXoXv P o.q._.g.L F.K.6.6.H.!.<.J.(.q.o.P v oXoXoXoXoXoX",
"oXoXoXoXoXw D W w.U.x.G % ^ z.F.F.l.| n Q l.U.w.W D w oXoXoXoXoX",
"oXoXoXoX  c b.f.S.}.A   o 1 } ].].} 1 O   A }.S.f.b.c   oXoXoXoX",
"oXoXoXoXoXoXoXf ) }.Z   1 u.=.g g =.u.<   Z }.) f oXoXoXoXoXoXoX",
"oXoXoXoXoXoXoX  r ( e   - ! +.~ ~ +.! -   e ( r   oXoXoXoXoXoXoX",
"oXoXoXoXoXoXoX$ > 5 @   O 6 :.XXXX:.6 O   @ 5 > $ oXoXoXoXoXoXoX",
"oXoXoXoXoXoXo a ~ 7.d   2 a..XXXXX.Xa.2   d 7.~ a o oXoXoXoXoXoX",
"oXoXoXoXoXu R $.z.R.>.n = I C.`.`.C.I = n >.R.z.$.R u oXoXoXoXoX",
"oXoXoXoX  c Z./.Z.p.N. .;   N X.X.N   ;  .N.p.Z./.Z.c   oXoXoXoX",
"oXoXoXoX  c N.~.*.t ] #.C : & 9 9 & : C @.' t *.~.N.c   oXoXoXoX",
"oXoXoXoX  b m.+.y % +.x.t.w.5.1.1.5.w.r.w.T @ u +.m.b   oXoXoXoX",
"oXoXoXoX  f 7.A . * 3.^.~.|.XXXXXXXX|.!.n._ # X A 7.f   oXoXoXoX",
"oXoXoXoX  3 J J d 3 2.E.L.Y.{.XXXX{.Y.P.T.,.3 d J J 3   oXoXoXoX",
"oXoXoXoX  1 S s B -.y.i.s.S.[.XXXX[.G.m.m.x.;.B s S 1   oXoXoXoX",
"oXoXoXoXoX, j = y %.i.d.g.D.). X X).K.A.A.c.&.y = j , oXoXoXoXoX",
"oXoXoXoXoXoXO   O 0 :.Z.M.K.L.F.F.L.K.N.S.>.0 O   O oXoXoXoXoXoX",
"oXoXoXoXoXoXoX  k *.G a C z.g._ _ g.z.V p G *.k   oXoXoXoXoXoXoX",
"oXoXoXoXoXoXoX  i _ b p H ) K a a K ) H p b _ i   oXoXoXoXoXoXoX",
"oXoXoXoXoXoXoX    @ k { e.u   . .   u e.{ k @     oXoXoXoXoXoXoX",
"oXoXoXoXoXoXoXoXoX  * 8 t @         @ t 8 *   oXoXoXoXoXoXoXoXoX",
"oXoXoXoXoXoXoXoXoXoX                        oXoXoXoXoXoXoXoXoXoX",
"oXoXoXoXoXoXoXoXoXoXoXoX                oXoXoXoXoXoXoXoXoXoXoXoX"
};
