/* XPM */
static char *result[] = {
/* columns rows colors chars-per-pixel */
"32 32 160 2 ",
"   c black",
".  c #010101",
"X  c #020202",
"o  c gray1",
"O  c #040404",
"+  c #060606",
"@  c #070707",
"#  c #0B0B0B",
"$  c gray5",
"%  c #0E0E0E",
"&  c #101010",
"*  c gray7",
"=  c #131313",
"-  c gray8",
";  c #151515",
":  c #161616",
">  c gray9",
",  c #181818",
"<  c #191919",
"1  c #1B1B1B",
"2  c gray11",
"3  c #1E1E1E",
"4  c #202020",
"5  c gray13",
"6  c #222222",
"7  c #232323",
"8  c gray14",
"9  c #252525",
"0  c gray15",
"q  c #272727",
"w  c #282828",
"e  c gray16",
"r  c #2A2A2A",
"t  c gray17",
"y  c #2D2D2D",
"u  c gray18",
"i  c #2F2F2F",
"p  c gray19",
"a  c #313131",
"s  c #323232",
"d  c gray20",
"f  c #343434",
"g  c #353535",
"h  c gray21",
"j  c #373737",
"k  c gray22",
"l  c #393939",
"z  c gray23",
"x  c #3F3F3F",
"c  c #414141",
"v  c gray26",
"b  c #444444",
"n  c gray27",
"m  c #464646",
"M  c #494949",
"N  c gray29",
"B  c #4E4E4E",
"V  c gray31",
"C  c #505050",
"Z  c #515151",
"A  c gray33",
"S  c #555555",
"D  c #565656",
"F  c gray34",
"G  c gray35",
"H  c gray36",
"J  c #5D5D5D",
"K  c gray37",
"L  c #5F5F5F",
"P  c #626262",
"I  c gray39",
"U  c #646464",
"Y  c #656565",
"T  c gray40",
"R  c #676767",
"E  c #686868",
"W  c DimGray",
"Q  c gray42",
"!  c #6F6F6F",
"~  c gray44",
"^  c #717171",
"/  c #727272",
"(  c gray45",
")  c #747474",
"_  c #767676",
"`  c #777777",
"'  c gray47",
"]  c gray49",
"[  c #7E7E7E",
"{  c gray50",
"}  c #808080",
"|  c #818181",
" . c gray51",
".. c #838383",
"X. c #848484",
"o. c #868686",
"O. c #8B8B8B",
"+. c gray56",
"@. c #909090",
"#. c #939393",
"$. c gray58",
"%. c #959595",
"&. c #979797",
"*. c #989898",
"=. c gray60",
"-. c #9A9A9A",
";. c #9B9B9B",
":. c gray61",
">. c #9D9D9D",
",. c gray62",
"<. c #9F9F9F",
"1. c #A0A0A0",
"2. c gray63",
"3. c #A2A2A2",
"4. c gray64",
"5. c #A4A4A4",
"6. c #A5A5A5",
"7. c gray65",
"8. c #A7A7A7",
"9. c gray66",
"0. c #A9A9A9",
"q. c gray67",
"w. c #ACACAC",
"e. c gray68",
"r. c #AFAFAF",
"t. c gray69",
"y. c #B1B1B1",
"u. c #B2B2B2",
"i. c gray70",
"p. c gray71",
"a. c #B6B6B6",
"s. c #B7B7B7",
"d. c gray72",
"f. c #B9B9B9",
"g. c gray73",
"h. c #BBBBBB",
"j. c #BCBCBC",
"k. c gray74",
"l. c gray",
"z. c gray75",
"x. c #C0C0C0",
"c. c #C1C1C1",
"v. c gray76",
"b. c #C3C3C3",
"n. c gray77",
"m. c #C5C5C5",
"M. c #C6C6C6",
"N. c gray78",
"B. c #C8C8C8",
"V. c gray79",
"C. c #CACACA",
"Z. c #CBCBCB",
"A. c gray80",
"S. c #CDCDCD",
"D. c #CECECE",
"F. c gray81",
"G. c #D2D2D2",
"H. c LightGray",
"J. c #D8D8D8",
"K. c None",
/* pixels */
"K.K.K.K.K.K.K.K.K.K.K.K.K.K.K.K.K.K.K.K.K.K.K.K.K.K.K.K.K.K.K.K.",
"K.K.K.K.K.K.K.K.K.K.  K.K.K.K.K.K.K.K.K.K.  K.K.K.K.K.K.K.K.K.K.",
"K.K.K.K.K.K.K.K.K.2 @   K.K.K.K.K.K.K.K.  @ 2 K.K.K.K.K.K.K.K.K.",
"K.K.K.K.K.K.K.  a _ q   K.. X o o X . K.  q _ a   K.K.K.K.K.K.K.",
"K.K.K.K.K.K.K.  x r.' h . 7 M E E M 7 . h ' r.x   K.K.K.K.K.K.K.",
"K.K.K.K.K.K.K.  j 4.q.^ l Y ;.x.x.;.Y l ^ q.4.j   K.K.K.K.K.K.K.",
"K.K.K.K.K.K.K.  3 I -.w.0.k.B.C.C.B.k.0.w.-.I 3   K.K.K.K.K.K.K.",
"K.K.K.K.K.K.    d -.} O.g.Z.F.S.S.F.Z.g.O.} -.d     K.K.K.K.K.K.",
"K.K.K.K.K.8 n b E ,.{ ..q.m.S.A.A.S.m.q...{ ,.E b n 8 K.K.K.K.K.",
"K.K.K.K.  f 0.x.;.W -.0.<.c.D.A.A.D.c.<.0.-.W ;.x.0.f   K.K.K.K.",
"K.K.K.K.K.K.j L  .=.h.n.l.V.S.A.A.S.V.l.n.h.=. .L j K.K.K.K.K.K.",
"K.K.K.K.K.9 V Q +.p.B.F.D.A.A.A.A.A.A.D.F.B.p.+.Q V 9 K.K.K.K.K.",
"K.K.K.K.  f 7.8.6.s.m.Z.A.A.A.A.A.A.A.A.Z.m.s.6.8.7.f   K.K.K.K.",
"K.K.K.K.K.K.y 8 K b.c.c.A.S.A.A.A.A.S.A.c.c.b.K 8 y K.K.K.K.K.K.",
"K.K.K.K.K.K.    3 Q  .3.m.b.N.S.S.N.c.z.<. .Q 1     K.K.K.K.K.K.",
"K.K.K.K.K.K.$ % + O p E &.0.h.B.B.g.y.p._ u + - 6 4 K.K.K.K.K.K.",
"K.K.K.K.K.; v N u X @ & e [ q.s.s.6.6.x.G   @ / p.2.d K.K.K.K.K.",
"K.K.K.K.  : C S K I = 5 ~ O.=.2.2.o.E H R N & } J.B.j   K.K.K.K.",
"K.K.K.K.  ; B I #.x.F D 2.5.,.-.-.| S y @.*.- ( a.&.s K.K.K.K.K.",
"K.K.K.K.  ; A >.N.C.z.~ u >.x.r.t.w.6.1.c.$.< ` | 3 K.K.K.K.K.K.",
"K.K.K.K.  r =.m.H.Z.1.L y c } j.v.j.a.d.N.s.[ F h K.K.K.K.K.K.K.",
"K.K.K.K.  q +.v.B.9.T J ! c A +.c.c.u.i.v.G.V.c   K.K.K.K.K.K.K.",
"K.K.K.K.  . ; O.7.K A X.c.z.P t e.m.u.i.c.F.b.v   K.K.K.K.K.K.K.",
"K.K.K.K.K.    t f 9  .v.V.%.h > 0.M.u.i.d.c.f.x   K.K.K.K.K.K.K.",
"K.K.K.K.K.K.      @ U ,.:.U m L h.B.s.s.f.8.) 8   K.K.K.K.K.K.K.",
"K.K.K.K.K.K.K.K.K.. O 0 Z B ] s.k.y.7.7.w.] , .   K.K.K.K.K.K.K.",
"K.K.K.K.K.K.K.K.      + - : w z k f p a p g l -   K.K.K.K.K.K.K.",
"K.K.K.K.K.K.K.                            # i *   K.K.K.K.K.K.K.",
"K.K.K.K.K.K.K.                              .     K.K.K.K.K.K.K.",
"K.K.K.K.K.K.K.K.K.                            K.K.K.K.K.K.K.K.K.",
"K.K.K.K.K.K.K.K.K.K.                        K.K.K.K.K.K.K.K.K.K.",
"K.K.K.K.K.K.K.K.K.K.K.K.                K.K.K.K.K.K.K.K.K.K.K.K."
};
