/* XPM */
static char *result[] = {
/* columns rows colors chars-per-pixel */
"32 32 232 2 ",
"   c black",
".  c #010101",
"X  c #020202",
"o  c gray1",
"O  c #040404",
"+  c #060606",
"@  c #070606",
"#  c #070707",
"$  c #090307",
"%  c #0B070A",
"&  c gray3",
"*  c #090909",
"=  c #0B090A",
"-  c gray4",
";  c #0B0B0B",
":  c #0D080C",
">  c #0E0A0D",
",  c #0C0C0C",
"<  c #0C0D0C",
"1  c gray5",
"2  c #0E0E0E",
"3  c gray6",
"4  c #0F100F",
"5  c #101010",
"6  c #111111",
"7  c #131012",
"8  c gray7",
"9  c #131313",
"0  c #131413",
"q  c gray8",
"w  c #151615",
"e  c #161616",
"r  c gray9",
"t  c #181818",
"y  c #191919",
"u  c gray10",
"i  c #1B1D1C",
"p  c gray11",
"a  c #1D1D1D",
"s  c gray12",
"d  c #261A23",
"f  c #202020",
"g  c gray13",
"h  c #222222",
"j  c #232323",
"k  c #222523",
"l  c gray14",
"z  c #252525",
"x  c gray15",
"c  c #272727",
"v  c #272827",
"b  c #282828",
"n  c gray16",
"m  c #2A2A2A",
"M  c gray17",
"N  c #2C2C2C",
"B  c #2D2D2D",
"V  c gray18",
"C  c #2F2F2F",
"Z  c gray19",
"A  c #313131",
"S  c gray20",
"D  c #343434",
"F  c #353535",
"G  c gray21",
"H  c #373737",
"J  c #393939",
"K  c #393A39",
"L  c #3A3A3A",
"P  c #3A3B3A",
"I  c #3B3A3B",
"U  c gray23",
"Y  c #3C3C3C",
"T  c gray24",
"R  c #3E3E3E",
"E  c #3F3F3F",
"W  c gray25",
"Q  c #414141",
"!  c gray26",
"~  c #434343",
"^  c #474346",
"/  c #464646",
"(  c gray28",
")  c #4A4448",
"_  c #4C444A",
"`  c #484848",
"'  c #484949",
"]  c #494949",
"[  c gray29",
"{  c #4B4B4B",
"}  c #4C4C4C",
"|  c gray30",
" . c #4E4E4E",
".. c #4E4F4E",
"X. c gray31",
"o. c #524D50",
"O. c #515151",
"+. c #515251",
"@. c gray32",
"#. c #535252",
"$. c #535353",
"%. c gray33",
"&. c #565656",
"*. c gray34",
"=. c #585858",
"-. c #5A5A5A",
";. c #5B5B5B",
":. c #5D5D5D",
">. c #5F5F5F",
",. c #655661",
"<. c #7D5071",
"1. c #606060",
"2. c gray38",
"3. c #646464",
"4. c #656565",
"5. c gray40",
"6. c #666766",
"7. c #686868",
"8. c DimGray",
"9. c #6A6A6A",
"0. c gray42",
"q. c #6D6D6D",
"w. c gray43",
"e. c #747474",
"r. c #767676",
"t. c #777777",
"y. c gray47",
"u. c #797A79",
"i. c #7B7B7B",
"p. c #7C7C7C",
"a. c #7F807F",
"s. c #8A6480",
"d. c #936687",
"f. c #8B7A87",
"g. c #9B7B93",
"h. c #808080",
"j. c #818181",
"k. c gray51",
"l. c #838383",
"z. c gray52",
"x. c #868686",
"c. c gray53",
"v. c #888888",
"b. c #898989",
"n. c gray54",
"m. c #8B8B8B",
"M. c gray55",
"N. c #8E8E8E",
"B. c #908C8F",
"V. c gray57",
"C. c #909291",
"Z. c #929292",
"A. c #939393",
"S. c gray58",
"D. c #989798",
"F. c #9A999A",
"G. c #9A9A9A",
"H. c #9B9B9B",
"J. c gray61",
"K. c #9D9D9D",
"L. c gray62",
"P. c #AA87A1",
"I. c #BA97B1",
"U. c #A0A0A0",
"Y. c gray63",
"T. c #A2A2A2",
"R. c #A4A4A4",
"E. c gray65",
"W. c #A7A7A7",
"Q. c #AAAAAA",
"!. c #ACACAC",
"~. c gray68",
"^. c #AEAEAE",
"/. c #AFAFAF",
"(. c gray69",
"). c #B1B1B1",
"_. c #B2B2B2",
"`. c gray70",
"'. c #B4B4B4",
"]. c gray71",
"[. c #B6B6B6",
"{. c #B7B7B7",
"}. c #B7B8B7",
"|. c gray72",
" X c #B9B9B9",
".X c gray73",
"XX c #BBBBBB",
"oX c #BCBCBC",
"OX c gray74",
"+X c gray",
"@X c #C085B1",
"#X c #C3A6BC",
"$X c #C8A2BF",
"%X c #D0A6C5",
"&X c #C0C0C0",
"*X c #C1C1C1",
"=X c gray76",
"-X c #C3C3C3",
";X c #C5C5C5",
":X c #C8C8C8",
">X c gray79",
",X c #CBCBCB",
"<X c #CBCDCC",
"1X c #D0D0D0",
"2X c #D2D2D2",
"3X c LightGray",
"4X c gray83",
"5X c #D5D5D5",
"6X c gray84",
"7X c gray85",
"8X c #DADADA",
"9X c gray86",
"0X c gainsboro",
"qX c #DDDDDD",
"wX c #DFDFDF",
"eX c #E2DFE1",
"rX c gray88",
"tX c #E7E7E7",
"yX c #E9E9E9",
"uX c #EAEAEA",
"iX c #EEECED",
"pX c #EEEEEE",
"aX c #EFEFEF",
"sX c #F3F3F3",
"dX c #F4F4F4",
"fX c gray96",
"gX c gray97",
"hX c #F8F7F7",
"jX c #FFF3FF",
"kX c gray98",
"lX c white",
"zX c None",
/* pixels */
"zXzXzXzXzXzXzXzXzXzXzXzXzXzXzX  zXzXzXzXzXzXzXzXzXzXzXzXzXzXzXzX",
"zXzXzXzXzXzXzXzXzXzXzXzXzXzXw k ; zXzXzXzXzXzXzXzXzXzXzXzXzXzXzX",
"zXzXzXzXzXzXzXzXzXzX4 < zXa _ ,.7   zXzXzXzXzXzXzXzXzXzXzXzXzXzX",
"zXzXzXzXzXzXzXzXzX@ I Z 0 6.I.@Xd   O zXzXzXzXzXzXzXzXzXzXzXzXzX",
"zXzXzXzXzXzXzXzXzX> s.g.#.P f.#X) +.4.2 zXzXzXzXzXzXzXzXzXzXzXzX",
"zXzXzXzXzXzXzXzXzX: d.$XF.' a.<XA.oXoXT 3 zXzXzXzXzXzXzXzXzXzXzX",
"zXzXzXzXzXzXzXzXzX1 ^ B.;X&X8XkXdXfX0XV.J O zXzXzXzXzXzXzXzXzXzX",
"zXzXzXzXzXzXzXzXb 8.C.}.3X5XyXlXlXQ.=.q.l.0.+ zXzXzXzXzXzXzXzXzX",
"zXzXzXzXzXzXzXzXx 7.].'.v.J.4XsX X/   M j.Z.( i zXzXzXzXzXzXzXzX",
"zXzXzXzXzXzXzXzXzXh K.b.f Q ~.7XS   O q H t.|.o.$ zXzXzXzXzXzXzX",
"zXzXzXzXzXzXzXzXL A.&XOXv.b x.9Xc   M W.&...eX%X<.% zXzXzXzXzXzX",
"zXzXzXzXzXzXzX  U .X2X).r.( i.L.s   h m.F K iXjXP.= zXzXzXzXzXzX",
"zXzXzXzXzXzXzX  B l.].p.n 9.e.] 1 X - 1 2 ;.pXhXD.; zXzXzXzXzXzX",
"zXzXzX      zXzXzXl *.b.V.J F / ; s W E N.rXgXu.v zXzXzXzXzXzXzX",
"zXzX2 l z u zXzXzX  p =.Z.9.R m R [ 3.Y.aXpXM.A zXzXzXzXzXzXzXzX",
"zX  6 { 4.%.x zXzXzX  p 1.{.p.D b.h.z.tXpXH.p zXzXzXzXzXzXzXzXzX",
"zX  5 } S.XXE.R   zX  p >.].*X/.&X+X*X1Xq.M ~ zXzXzXzXzXzXzXzXzX",
"zX  5 X.W.>XV.V   - W q.U.=X3X:XH.`.,X~.Z.5.Z zXzXzXzXzXzXzXzXzX",
"zXzX3 T n.K.%.y   * w.Y.W.-X2X].&.j.OX^.yXoX8 zXzXzXzXzXzXzXzXzX",
"zXzXzX; T 2.$.p   1 w.2.B R.7X!.b | (.uXlX{.9 zXzXzXzXzXzXzXzXzX",
"zXzXzXzX5 ~ N.F t O.! r 9 T.wX~.p ~ _.kXlX[.9 zXzXzXzXzXzXzXzXzX",
"zXzXzXzX  D !.E F G.} ; q c.{.A.V U x.6XlX.X9 zXzXzXzXzXzXzXzXzX",
"zXzXzXzX  m k.Z E '.Y.X.1 ( 1.;.O.l c n.qX'.9 zXzXzXzXzXzXzXzXzX",
"zXzXzXzXzXt V G Y  .W.y., R %.$.=.l 8 :.2.{ zXzXzXzXzXzXzXzXzXzX",
"zXzXzXzXzXzX  N j + 4.&., ! -.@.T e - V 6   zXzXzXzXzXzXzXzXzXzX",
"zXzXzXzXzXzXzXO X . + o * T $.! 3 X + O .     zXzXzXzXzXzXzXzXzX",
"zXzXzXzXzXzXzX            5 e 5   h S +         zXzXzXzXzXzXzXzX",
"zXzXzXzXzXzXzX        2 j h g g j C m +           zXzXzXzXzXzXzX",
"zXzXzXzXzXzXzX        a ` [ ] [ [ j               zXzXzXzXzXzXzX",
"zXzXzXzXzXzXzXzXzX    # 9 9 9 9 9 &           zXzXzXzXzXzXzXzXzX",
"zXzXzXzXzXzXzXzXzXzX                        zXzXzXzXzXzXzXzXzXzX",
"zXzXzXzXzXzXzXzXzXzXzXzX                zXzXzXzXzXzXzXzXzXzXzXzX"
};
