/* XPM */
static char *s1oard[] = {
/* columns rows colors chars-per-pixel */
"104 22 4 1 ",
"  c None",
"1 c black",
"g c green",
"b c #323232",
/* pixels */
"111111111111111111111111111111111111111111111111111111111111111111111111111111111111111111111111111111bb",
"111111111111111111111111111111111111111111111111111111111111111111111111111111111111111111111111111111bb",
"111111111111111111111111111111ggg1gggg111g1111gggg1gg1111g1gggggg1111111111111111111111111111111111111bb",
"111111111111111111111111111111g111g11g111g1111g11g1g1g111g1g111111111111111111111111111111111111111111bb",
"111111111111111111111111111111ggg1g11g111g1111g11g1g11g11g1g11gg11111111111111111111111111111111111111bb",
"11111111111111111111111111111111g1g11g111g1111g11g1g111g1g1g111g11111111111111111111111111111111111111bb",
"111111111111111111111111111111ggg1gggg111gggg1gggg1g1111gg1ggggg11111111111111111111111111111111111111bb",
"111111111111111111111111111111111111111111111111111111111111111111111111111111111111111111111111111111bb",
"111111111111111111111111111111111111111111111111111111111111111111111111111111111111111111111111111111bb",
"111111111111111111111111111111111111111111111111111111111111111111111111111111111111111111111111111111bb",
"111111111111111111111111111111111111111111111111111111111111111111111111111111111111111111111111111111bb",
"111111111111111111111111111111111111111111111111111111111111111111111111111111111111111111111111111111bb",
"111111111111111111111111111111111111111111111111111111111111111111111111111111111111111111111111111111bb",
"111111111111111111111111111111111111111111111111111111111111111111111111111111111111111111111111111111bb",
"111111111111111111111111111111111111111111111111111111111111111111111111111111111111111111111111111111bb",
"111111111111111111111111111111111111111111111111111111111111111111111111111111111111111111111111111111bb",
"111111111111111111111111111111111111111111111111111111111111111111111111111111111111111111111111111111bb",
"111111111111111111111111111111111111111111111111111111111111111111111111111111111111111111111111111111bb",
"111111111111111111111111111111111111111111111111111111111111111111111111111111111111111111111111111111bb",
"111111111111111111111111111111111111111111111111111111111111111111111111111111111111111111111111111111bb",
"bbbbbbbbbbbbbbbbbbbbbbbbbbbbbbbbbbbbbbbbbbbbbbbbbbbbbbbbbbbbbbbbbbbbbbbbbbbbbbbbbbbbbbbbbbbbbbbbbbbbbbb ",
"bbbbbbbbbbbbbbbbbbbbbbbbbbbbbbbbbbbbbbbbbbbbbbbbbbbbbbbbbbbbbbbbbbbbbbbbbbbbbbbbbbbbbbbbbbbbbbbbbbbbb   "
};
