/* XPM */
static char *s1oard[] = {
/* columns rows colors chars-per-pixel */
"104 22 3 1 ",
"  c None",
"1 c black",
"b c #323232",
/* pixels */
"111111111111111111111111111111111111111111111111111111111111111111111111111111111111111111111111111111bb",
"111111111111111111111111111111111111111111111111111111111111111111111111111111111111111111111111111111bb",
"111111111111111111111111111111111111111111111111111111111111111111111111111111111111111111111111111111bb",
"111111111111111111111111111111111111111111111111111111111111111111111111111111111111111111111111111111bb",
"111111111111111111111111111111111111111111111111111111111111111111111111111111111111111111111111111111bb",
"111111111111111111111111111111111111111111111111111111111111111111111111111111111111111111111111111111bb",
"111111111111111111111111111111111111111111111111111111111111111111111111111111111111111111111111111111bb",
"111111111111111111111111111111111111111111111111111111111111111111111111111111111111111111111111111111bb",
"111111111111111111111111111111111111111111111111111111111111111111111111111111111111111111111111111111bb",
"111111111111111111111111111111111111111111111111111111111111111111111111111111111111111111111111111111bb",
"111111111111111111111111111111111111111111111111111111111111111111111111111111111111111111111111111111bb",
"111111111111111111111111111111111111111111111111111111111111111111111111111111111111111111111111111111bb",
"111111111111111111111111111111111111111111111111111111111111111111111111111111111111111111111111111111bb",
"111111111111111111111111111111111111111111111111111111111111111111111111111111111111111111111111111111bb",
"111111111111111111111111111111111111111111111111111111111111111111111111111111111111111111111111111111bb",
"111111111111111111111111111111111111111111111111111111111111111111111111111111111111111111111111111111bb",
"111111111111111111111111111111111111111111111111111111111111111111111111111111111111111111111111111111bb",
"111111111111111111111111111111111111111111111111111111111111111111111111111111111111111111111111111111bb",
"111111111111111111111111111111111111111111111111111111111111111111111111111111111111111111111111111111bb",
"111111111111111111111111111111111111111111111111111111111111111111111111111111111111111111111111111111bb",
"bbbbbbbbbbbbbbbbbbbbbbbbbbbbbbbbbbbbbbbbbbbbbbbbbbbbbbbbbbbbbbbbbbbbbbbbbbbbbbbbbbbbbbbbbbbbbbbbbbbbbbb ",
"bbbbbbbbbbbbbbbbbbbbbbbbbbbbbbbbbbbbbbbbbbbbbbbbbbbbbbbbbbbbbbbbbbbbbbbbbbbbbbbbbbbbbbbbbbbbbbbbbbbbb   "
};
