/* XPM */
static char *result[] = {
/* columns rows colors chars-per-pixel */
"32 32 5 1 ",
"  c #F4E0A0",
". c #F4E3B2",
"X c #d29700",
"o c #d29700",
"O c white",
/* pixels */
"                                ",
"            ...                 ",
".          ....                 ",
".           ..                  ",
"                      ..        ",
"                    .           ",
"       ...         ..XXX.       ",
"      ..XX..       .X.X..       ",
"      o....                     ",
"                             .. ",
" ..                          .. ",
" ..                             ",
"                 ...            ",
"                ....            ",
"                ...o            ",
".                              .",
".       ...                    .",
"        ... .             ...   ",
"            .            .XXX   ",
"                      ..  XX.   ",
"                      ...       ",
"                      .....     ",
"                       ....     ",
"                                ",
"    .XX  ..                     ",
"    .XX..X.                     ",
"    ..o.       ...              ",
"               ..  .            ",
"               .  ...      ..   ",
"                  ...      ..   ",
"                                ",
"                                "
};
