/* XPM */
static char *result[] = {
/* columns rows colors chars-per-pixel */
"32 32 7 1 ",
"  c #9CDB43",
". c #5A4E44",
"X c #6495ED",
"o c #796755",
"O c #D6F264",
"+ c #C7B08B",
"@ c white",
/* pixels */
"                ..XXXXXXXXXXXXXX",
"                 .XXXXXXXXXXXXXo",
"            O OOOooXooooXXXXXooo",
"          OO   O  oXooooXXXXoooo",
"   O            O .ooooXXXXXXXXX",
"    OO           .ooXXXXXXXXXXXX",
"               ...oXXXXXXXXXXXXX",
"                .ooXXXXXXXXXXXXX",
"              OOO XXXXXXXooooXXX",
"      O OO     OO oXXXXXXooooXXX",
"     O   OO      .ooXXXXX+oo+XXX",
"      O        ...ooXXXXXXXXXXXX",
"                .ooXXoooXXXXXXXX",
"            OO O.oXXoOoooXXoo.oX",
"               ..oo. O...OO...OX",
"                ..OO O.. OOO.OOo",
"                . OO    OO O   o",
"   O                            ",
"  OO         O                  ",
"           O                    ",
"                                ",
"                         O      ",
"                                ",
"     O                  O       ",
"               O   OO           ",
"                    O           ",
"                                ",
"   O           O                ",
"   O O                          ",
"   OOO      OO                  ",
"                                ",
"                                "
};
