/* XPM */
static char *result[] = {
/* columns rows colors chars-per-pixel */
"32 32 7 1 ",
"  c #6495ED",
". c #5A4E44",
"X c #9CDB43",
"o c #796755",
"O c #D6F264",
"+ c #C7B08B",
"@ c white",
/* pixels */
"              ..XXXXXXXXXXXXXXXX",
"o             .XXXXXXXXXXXXXXXXX",
"ooo     oooo ooOOOXOXXXXXXXXXXXX",
"oooo    oooo oXXOXXXOOXXXXXXXXXX",
"         oooo.XOXXXXXXXXXXXXOXXX",
"            oo.XXXXXXXXXXXOOXXXX",
"             o...XXXXXXXXXXXXXXX",
"             oo.XXXXXXXXXXXXXXXX",
"   oooo       XOOOXXXXXXXXXXXXXX",
"   oooo      oXOOXXXXXOOXOXXXXXX",
"   +oo+     oo.XXXXXXOOXXXOXXXXX",
"            oo...XXXXXXXXOXXXXXX",
"        ooo  oo.XXXXXXXXXXXXXXXX",
"        oooooooOOXOOXXXXXXXXXXXX",
"    o      o oXOXXXXXXXXXXXXXXXX",
"oo          ooOXXXXXXXXXXXXXXXXX",
"oo          o..XXXXXXXXXXXXXXXXX",
"oo     ooo  oo..XXXXXXXXXXXXOXXX",
"       ooo   oXOXXOXXXXXXXXXOOXX",
"   o   o    oOOXXXXXOXXXXXXXXXXX",
"           oXXXXXXXXXXXXXXXXXXXX",
"          o...XXXXXXXXXXXXXXXXXX",
"          o.....XXXXXXXXXXXXXXXX",
" ooo         o.XXXXXXXXXXXOXXXXX",
"  oo        ooXOOXXXXXXXXXXXXXXX",
"      ooo   ooOXXXXXXXXXXXXXXXXX",
"       oo oooo..XXXXXXXXXXXXXXXX",
"             ..OOXXXXXXXXXXXOXXX",
"             ooOXXXXXXXXXXOXOXXX",
"            oXXXXXOOXXXXXXOOOXXX",
"oooooo      ooXXXXXXXXXXXXXXXXXX",
" oooo        o..XXXXXXXXXXXXXXXX"
};
