/* XPM */
static char *fbca6261bf654864c10e2e30bab9cbc51E5zCMbe6GuZN1KQ[] = {
/* columns rows colors chars-per-pixel */
"32 32 79 1 ",
"  c None",
". c #3B666C",
"X c #416C6E",
"o c #467271",
"O c #3D686D",
"+ c #6C9F87",
"@ c #6DA088",
"# c #3B666C",
"$ c #497674",
"% c #6EA189",
"& c #3E686D",
"* c #6FA289",
"= c #3C676C",
"- c #598278",
"; c #4E7C74",
": c #497673",
"> c #85AC8A",
", c #497472",
"< c #3D686D",
"1 c #588278",
"2 c #6FA289",
"3 c #6EA189",
"4 c #3D686D",
"5 c #699D80",
"6 c #6DA088",
"7 c #3F6A6E",
"8 c #6DA088",
"9 c #6EA188",
"0 c #6FA289",
"q c #598A7D",
"w c #6FA289",
"e c None",
"r c #6EA189",
"t c #4A7774",
"y c #639582",
"u c #719676",
"i c #6EA188",
"p c #71A588",
"a c #649683",
"s c #4F7D76",
"d c #679884",
"f c #7DAD8C",
"g c #74A988",
"h c #6B9F87",
"j c #B3D89D",
"k c #629382",
"l c #497673",
"z c #ACD49A",
"x c #7DB18B",
"c c #78A98B",
"v c #A8D199",
"b c #8CC18F",
"n c #6B9D86",
"m c #538279",
"M c #90C590",
"N c #94BE92",
"B c #9BC894",
"V c #A2CA98",
"C c #81B98C",
"Z c #8DB890",
"A c #538078",
"S c #5C8C7E",
"D c #79AE8A",
"F c #88BD8E",
"G c #7EB68B",
"H c #A6CE99",
"J c #85B38E",
"K c #9ECC95",
"L c #5B8B7D",
"P c #97C394",
"I c #59877B",
"U c #467372",
"Y c #85BD8D",
"T c #467170",
"R c #406B6E",
"E c #65927D",
"W c #4D7A74",
"Q c #001F21",
"! c #47704C",
/* pixels */
"                                ",
"           $#..#$$#..#$         ",
"           #7OO<&&<OO7&         ",
"       $#.Xo:Ws;,,-AT4o#$       ",
"       #=OO:qdp5:->fAe4=#       ",
"     $#o1AWAagCxEdNZEss;o#$     ",
"     #=1>JnkngCbNZJDggg5;=#     ",
"   $#o1nBHJgcfxFKKJxbMYgL;o#$   ",
"   #=1>BzvbFPNfDFPBVvBxgg5;=#   ",
" $&o4mZzzKbMvHZxCMvjjHZxCpWO.   ",
" #74esxMMbYMvzHBbMvjjzHPxalOX   ",
" .OTAEgGGCbBzzHPYFBvzjjVfdL-o#$ ",
" .OAfNfppxBzjHZcgDFBvjjVfcZ>1=# ",
" #<->ZcnncNVVPJcipGbKzjVJJvNIO. ",
" $&,-SdhhicffJPNcpGFbBzHFbzNIO. ",
" $&,:AdggpihiJVHZfGGGFKKMFN>-<# ",
" #<:qdDCCxppDbHjHPfppDFMbDE-,&$ ",
" .OlkcCYCxppGMvjjVficJFbYgL;,&$ ",
" .OlkcCCDpipGMvjjVfcNHvBxpg5;<# ",
" XOUInDxphhpxFKzjVfcNvjVfpGpsO. ",
" XORUmnpihiipDFBzVficZvVfigdWO. ",
" XtURlkiiiiiipDFBNfhhcPNikkLstX ",
" +yIUlkiiiiiiipgfcpihpfpIllsSy+ ",
" *%dmsLkkahnaaniinaanhaIURTmd%* ",
" *%hdSsllmddAAaiiaAmddmTRUIah%* ",
" @632amllsSSssLkkLssSSsllmd236@ ",
" $@93nakkLssSSsllsSSssLkkah39@$ ",
"   @8%%02aAmddmllmddmAa20%%8@   ",
"   $@*+wrnaahhakkahhaanrw+*@$   ",
"       @6%%%%%%%%%%%%%%6@       ",
"       $@**************@$       ",
"                                "
};
