/* XPM */
static char *result[] = {
/* columns rows colors chars-per-pixel */
"32 32 7 1 ",
"  c #9CDB43",
". c #D6F264",
"X c #5A4E44",
"o c #796755",
"O c #6495ED",
"+ c #C7B08B",
"@ c white",
/* pixels */
"                                ",
"                                ",
"     ...                        ",
"                                ",
"                                ",
"   .                            ",
"              .                 ",
"     ..             ..    .     ",
"                    .           ",
"                                ",
"                                ",
"                .               ",
"           .                    ",
"      .  ..             .  .  . ",
"    . .  ...   . ..   ..    ..  ",
"  ..  .  .        ..  .      .  ",
"               X.XXXX .   X   XX",
"   .           XXXooXX  XoXX  Xo",
"  ..         .  XXoOXooXoOoo Xoo",
"           .     XooooOooOOOoooO",
"                 XXooOOOOOOOooOO",
"                  XooOOOOOOOOOOO",
"                XXXXooooOOOOOOOO",
"     .           XoOooOOOOOOOOOO",
"               .. ooOOOOOOOOOOoO",
"                 .ooOOOOOOOOOOOO",
"                XXooOOOOoOoOOOOO",
"   .           ..XXOOOOOOooOOOOO",
"   . .          .ooOOOOOOOOOOOOO",
"   ...      ..     oOOOOOOOOOOOO",
"                  ooOOOOOOOOOOOO",
"                XXoOOOO+++OOOOOO"
};
