/* XPM */
static char *result[] = {
/* columns rows colors chars-per-pixel */
"32 32 7 1 ",
"  c #9CDB43",
". c #5A4E44",
"X c #F4E0A0",
"o c #796755",
"O c #F4E0A0",
"+ c #C7B08B",
"@ c white",
/* pixels */
"                ..XXXXXXXXXXXXXX",
"                 .XXXXXXXXXXXXXo",
"            O OOOooXooooXXXXXooo",
"          OO   O  oXooooXXXXoooo",
"   O            O .ooooXXXXXXXXX",
"    OO           .ooXXXXXXXXXXXX",
"               ...oXXXXXXXXXXXXX",
"                .ooXXXXXXXXXXXXX",
"              OOO XXXXXXXooooXXX",
"      O OO     OO oXXXXXXooooXXX",
"     O   OO      .ooXXXXX+oo+XXX",
"      O        ...ooXXXXXXXXXXXX",
"                .ooXXoooXXXXXXXX",
"            OO OOoooooooXXXXXXXX",
"                O oXoXXXXXXoXXXX",
"                 OooXXXXXXXXXXoo",
"                 ..oXXXXXXXXXXoo",
"   O            ..ooXXoooXXXXXoo",
"  OO         O  O oXXXoooXXXXXXX",
"           O     OOoXXXXoXXXoXXX",
"                    oXXXXXXXXXXX",
"                  ...oXXXXXXXXXX",
"                .....oXXXXXXXXXX",
"     O           .oXXXXXXXXXoooX",
"               OO ooXXXXXXXXooXX",
"                 OooXXXoooXXXXXX",
"                ..ooooXooXXXXXXX",
"   O           OO..XXXXXXXXXXXXX",
"   O O          OooXXXXXXXXXXXXX",
"   OOO      OO     oXXXXXXXXXXXX",
"                  ooXXXXXXoooooo",
"                ..oXXXXXXXXooooX"
};
