/* XPM */
static char *result[] = {
/* columns rows colors chars-per-pixel */
"32 32 7 1 ",
"  c #FFFFFFFF",
". c #5E5232",
"X c #C2B861",
"o c #AB9F4F",
"O c #94863E",
"+ c #D9D177",
"@ c white",
/* pixels */
"                        .XooooO.",
"                        .XooooOO",
"                        .Xoooooo",
"                        .Xoooooo",
"                        .Xoooooo",
"                        .+oooooo",
"                        .++XXXXX",
"                        ........",
"                                ",
"                                ",
"                                ",
"                                ",
"                                ",
"                                ",
"                                ",
"                                ",
"                                ",
"                                ",
"                                ",
"                                ",
"                                ",
"                                ",
"                                ",
"                                ",
"                                ",
"                                ",
"                                ",
"                                ",
"                                ",
"                                ",
"                                ",
"                                "
};
