/* XPM */
static char *result[] = {
/* columns rows colors chars-per-pixel */
"32 32 7 1 ",
"  c #5E5232",
". c #C2B861",
"X c #AB9F4F",
"o c #94863E",
"O c black",
"+ c #D9D177",
"@ c white",
/* pixels */
" .XXXXo OOOOOOOOOOOOOOOOOOOOOOOO",
" .XXXXo OOOOOOOOOOOOOOOOOOOOOOOO",
" .XXXXo OOOOOOOOOOOOOOOOOOOOOOOO",
" .XXXXo OOOOOOOOOOOOOOOOOOOOOOOO",
" .XXXXo OOOOOOOOOOOOOOOOOOOOOOOO",
" .XXXXo OOOOOOOOOOOOOOOOOOOOOOOO",
" .XXXXo OOOOOOOOOOOOOOOOOOOOOOOO",
" .XXXXo OOOOOOOOOOOOOOOOOOOOOOOO",
" .XXXXo OOOOOOOOOOOOOOOOOOOOOOOO",
" .XXXXo OOOOOOOOOOOOOOOOOOOOOOOO",
" .XXXXo OOOOOOOOOOOOOOOOOOOOOOOO",
" +XXXXo OOOOOOOOOOOOOOOOOOOOOOOO",
" ++.... OOOOOOOOOOOOOOOOOOOOOOOO",
"        OOOOOOOOOOOOOOOOOOOOOOOO",
" ooooo OOOOOOOOOOOOOOOOOOOOOOOOO",
" .XXXo OOOOOOOOOOOOOOOOOOOOOOOOO",
" .XXXo OOOOOOOOOOOOOOOOOOOOOOOOO",
" .XXXo OOOOOOOOOOOOOOOOOOOOOOOOO",
" .XXXo OOOOOOOOOOOOOOOOOOOOOOOOO",
" .XXXo OOOOOOOOOOOOOOOOOOOOOOOOO",
" .XXXo OOOOOOOOOOOOOOOOOOOOOOOOO",
" .XXXo OOOOOOOOOOOOOOOOOOOOOOOOO",
" +XXXo OOOOOOOOOOOOOOOOOOOOOOOOO",
" ++... OOOOOOOOOOOOOOOOOOOOOOOOO",
"        OOOOOOOOOOOOOOOOOOOOOOOO",
" oooooo OOOOOOOOOOOOOOOOOOOOOOOO",
" .XXXXo OOOOOOOOOOOOOOOOOOOOOOOO",
" .XXXXo OOOOOOOOOOOOOOOOOOOOOOOO",
" .XXXXo OOOOOOOOOOOOOOOOOOOOOOOO",
" .XXXXo OOOOOOOOOOOOOOOOOOOOOOOO",
" .XXXXo OOOOOOOOOOOOOOOOOOOOOOOO",
" .XXXXo OOOOOOOOOOOOOOOOOOOOOOOO"
};
