/* XPM */
static char *result[] = {
/* columns rows colors chars-per-pixel */
"32 32 7 1 ",
"  c #FFFFFFFF",
". c #5E5232",
"X c #94863E",
"o c #C2B861",
"O c #AB9F4F",
"+ c #D9D177",
"@ c white",
/* pixels */
"                                ",
"                       .........",
"                       .XXXXXXXX",
"                       .oOOOOOOO",
"                       .oOOOOOOO",
"                       .oOOOOOOO",
"                       .+OOOOOOO",
"                       .++oooooo",
"                       .........",
"                        .XXXXXX.",
"                        .oOOOOX.",
"                        .oOOOOX.",
"                        .oOOOOX.",
"                        .oOOOOX.",
"                        .+OOOOX.",
"                        .++oooo.",
"                        ........",
"                         .XXXXX.",
"                         .oOOOX.",
"                         .oOOOX.",
"                         .oOOOX.",
"                         .oOOOX.",
"                         .oOOOX.",
"                         .+OOOX.",
"                         .++ooo.",
"                        ........",
"                        .XXXXXX.",
"                        .oOOOOX.",
"                        .oOOOOX.",
"                        .oOOOOX.",
"                        .oOOOOX.",
"                        .oOOOOX."
};
