/* XPM */
static char *result[] = {
/* columns rows colors chars-per-pixel */
"32 32 7 1 ",
"  c #5E5232",
". c #94863E",
"X c #AB9F4F",
"o c #C2B861",
"O c #D9D177",
"+ c black",
"@ c white",
/* pixels */
"                                ",
"...... .................. ......",
"XXXXX. oXXXXXXXXXXXXXXXX. oXXXXX",
"XXXXX. oXXXXXXXXXXXXXXXX. oXXXXX",
"XXXXX. OXXXXXXXXXXXXXXXX. oXXXXX",
"XXXXX. OOoooooooooooooooo OXXXXX",
"oooooo                    OOoooo",
"       ++++++++++++++++++       ",
"++++++++++++++++++++++++++++++++",
"++++++++++++++++++++++++++++++++",
"++++++++++++++++++++++++++++++++",
"++++++++++++++++++++++++++++++++",
"++++++++++++++++++++++++++++++++",
"++++++++++++++++++++++++++++++++",
"++++++++++++++++++++++++++++++++",
"++++++++++++++++++++++++++++++++",
"++++++++++++++++++++++++++++++++",
"++++++++++++++++++++++++++++++++",
"++++++++++++++++++++++++++++++++",
"++++++++++++++++++++++++++++++++",
"++++++++++++++++++++++++++++++++",
"++++++++++++++++++++++++++++++++",
"++++++++++++++++++++++++++++++++",
"++++++++++++++++++++++++++++++++",
"++++++++++++++++++++++++++++++++",
"++++++++++++++++++++++++++++++++",
"++++++++++++++++++++++++++++++++",
"++++++++++++++++++++++++++++++++",
"++++++++++++++++++++++++++++++++",
"++++++++++++++++++++++++++++++++",
"++++++++++++++++++++++++++++++++",
"++++++++++++++++++++++++++++++++"
};
