/* XPM */
static char *result[] = {
/* columns rows colors chars-per-pixel */
"32 32 7 1 ",
"  c #FFFFFFFF",
". c #5E5232",
"X c #94863E",
"o c #AB9F4F",
"O c #C2B861",
"+ c #D9D177",
"@ c white",
/* pixels */
"                                ",
".........                       ",
"XXXXXXXX.                       ",
"oooooooX.                       ",
"oooooooX.                       ",
"oooooooX.                       ",
"oooooooX.                       ",
"OOOOOOOO.                       ",
".........                       ",
".XXXXX.                         ",
".OoooX.                         ",
".OoooX.                         ",
".OoooX.                         ",
".OoooX.                         ",
".OoooX.                         ",
".OoooX.                         ",
".OoooX.                         ",
".OoooX.                         ",
".OoooX.                         ",
".OoooX.                         ",
".OoooX.                         ",
".OoooX.                         ",
".OoooX.                         ",
".+oooX.                         ",
".++OOO.                         ",
"........                        ",
".XXXXXX.                        ",
".OooooX.                        ",
".OooooX.                        ",
".OooooX.                        ",
".OooooX.                        ",
".OooooX.                        "
};
