/* XPM */
static char *result[] = {
/* columns rows colors chars-per-pixel */
"32 32 6 1 ",
"  c #AB9F4F",
". c #94863E",
"X c #4A412B",
"o c #83753C",
"O c #706338",
"+ c white",
/* pixels */
"   ............X   ............X",
" oooooooooooooOX oooooooooooooOX",
" oooooooooooooOX oooooooooooooOX",
".oooooooooooooOX.oooooooooooooOX",
".oooooooooooooOX.oooooooooooooOX",
".oooooooooooooOX.oooooooooooooOX",
".oooooooooooooOX.oooooooooooooOX",
".oooooooooooooOX.oooooooooooooOX",
".oooooooooooooOX.oooooooooooooOX",
".oooooooooooooOX.oooooooooooooOX",
".oooooooooooooOX.oooooooooooooOX",
".oooooooooooooOX.oooooooooooooOX",
".oooooooooooooOX.oooooooooooooOX",
".oooooooooooooOX.oooooooooooooOX",
"OOOOOOOOOOOOOOOXOOOOOOOOOOOOOOOX",
"XXXXXXXXXXXXXXXXXXXXXXXXXXXXXXXX",
"   ............X   ............X",
" oooooooooooooOX oooooooooooooOX",
" oooooooooooooOX oooooooooooooOX",
".oooooooooooooOX.oooooooooooooOX",
".oooooooooooooOX.oooooooooooooOX",
".oooooooooooooOX.oooooooooooooOX",
".oooooooooooooOX.oooooooooooooOX",
".oooooooooooooOX.oooooooooooooOX",
".oooooooooooooOX.oooooooooooooOX",
".oooooooooooooOX.oooooooooooooOX",
".oooooooooooooOX.oooooooooooooOX",
".oooooooooooooOX.oooooooooooooOX",
".oooooooooooooOX.oooooooooooooOX",
".oooooooooooooOX.oooooooooooooOX",
"OOOOOOOOOOOOOOOXOOOOOOOOOOOOOOOX",
"XXXXXXXXXXXXXXXXXXXXXXXXXXXXXXXX"
};
