/* XPM */
static char *result[] = {
/* columns rows colors chars-per-pixel */
"32 32 11 1 ",
"  c #FFFFFFFF",
". c #5E5232",
"X c #94863E",
"o c #AB9F4F",
"O c #C2B861",
"+ c #D9D177",
"@ c #362F21",
"# c #83753C",
"$ c #706338",
"% c #4A412B",
"& c white",
/* pixels */
"                                ",
"........               .........",
"XXXXXXX.................XXXXXXXX",
"ooooooX.XXXXXXXXXXXXXXX.Oooooooo",
"ooooooX.OoooooooooooooX.Oooooooo",
"ooooooX.OoooooooooooooX.Oooooooo",
"ooooooX.+oooooooooooooX.+ooooooo",
"OOOOOOO.++OOOOOOOOOOOOO.++OOOOOO",
"................................",
"ooooooo@OOooooooooooooo@OOoooooo",
"XXXXXX#@OXXXXXXXXXXXXX#@OXXXXXXX",
"XXXXXX#@oXXXXXXXXXXXXX#@oXXXXXXX",
"XXXXXX#@oXXXXXXXXXXXXX#@oXXXXXXX",
"#######@###############@########",
"@@@@@@@@@@@@@@@@@@@@@@@@@@@@@@@@",
"ooXXXXXXXXXXXXX@ooXXXXXXXXXXXXX@",
"o#############$@o#############$@",
"X#############$@X#############$@",
"X#############$@X#############$@",
"$$$$$$$$$$$$$$$@$$$$$$$$$$$$$$$@",
"@@@@@@@@@@@@@@@@@@@@@@@@@@@@@@@@",
"#######@XX#############@XX######",
"$$$$$$.@X$$$$$$$$$$$$$.@X$$$$$$$",
"$$$$$$.@#$$$$$$$$$$$$$.@#$$$$$$$",
"$$$$$$.@#$$$$$$$$$$$$$.@#$$$$$$$",
".......@...............@........",
"@@@@@@@@@@@@@@@@@@@@@@@@@@@@@@@@",
"##$$$$$$$$$$$$$@##$$$$$$$$$$$$$@",
"#.............%@#.............%@",
"$.............%@$.............%@",
"%%%%%%%%%%%%%%%@%%%%%%%%%%%%%%%@",
"@@@@@@@@@@@@@@@@@@@@@@@@@@@@@@@@"
};
