/* XPM */
static char *result[] = {
/* columns rows colors chars-per-pixel */
"32 32 89 1 ",
"  c #000D17",
". c #000D18",
"X c #001322",
"o c #011B30",
"O c #003560",
"+ c #003762",
"@ c #003863",
"# c #003864",
"$ c #004071",
"% c #004274",
"& c #00467D",
"* c #00579E",
"= c #0C4FAE",
"- c #0B50AE",
"; c #1756A9",
": c #164BBC",
"> c #0B55B4",
", c #155EB6",
"< c #214FB7",
"1 c #2052BE",
"2 c #2B58BA",
"3 c #0267B5",
"4 c #0067B6",
"5 c #0167B6",
"6 c #0167B7",
"7 c #0267B7",
"8 c #0466B6",
"9 c #0267B8",
"0 c #056BBC",
"q c #5F1DEE",
"w c #531BF1",
"e c #501FF5",
"r c #521CF6",
"t c #531CF6",
"y c #531CF7",
"u c #511FF6",
"i c #5E1EF3",
"p c #5F1EF3",
"a c #691CE6",
"s c #7213ED",
"d c #6711F0",
"f c #6615F4",
"g c #6910F0",
"h c #6811F0",
"j c #6914F5",
"k c #6815F5",
"l c #7115F3",
"z c #6920EF",
"x c #1C5BDD",
"c c #0470C5",
"v c #0573CE",
"b c #0375CD",
"n c #0475CD",
"m c #0575CE",
"M c #1169D8",
"N c #1268D8",
"B c #126BDE",
"V c #136BDF",
"C c #146ADF",
"Z c #126CDE",
"A c #126DDE",
"S c #087ADA",
"D c #2364D5",
"F c #2C68D1",
"G c #1F5EE2",
"H c #1E5FE2",
"J c #9E37D0",
"K c #9831D5",
"L c #B62FCF",
"P c #B231CF",
"I c #B32FD0",
"U c #B522DD",
"Y c #B623DC",
"T c #BF24D9",
"R c #BF26D8",
"E c #BF24DA",
"W c #BF25DA",
"Q c #BF26DA",
"! c #B820DD",
"~ c #A438D1",
"^ c #C92BD3",
"/ c #C929D5",
"( c #C92AD4",
") c #CA2AD4",
"_ c #CB2AD4",
"` c #CC2AD4",
"' c #C024D9",
"] c #C125D9",
"[ c None",
/* pixels */
"[[[[[[[[[[[[[[[[[[[[[[[[[[[[[[[[",
"[[[[[[[[[[[[[[[[[[[[[[[[[[[[[[[[",
"[[[[[[[[[[[[[[[[[[[[[[[[[[[[[[[[",
"[[[[[[[[[[[[[[[[[[[[[[[[[[[[[[[[",
"[[[[[[[[[[[[[[[[[[[[[[[[[[[[[[[[",
"[[[[[[[[[[[[[[BVVVVVVVB[[[[[[[[[",
"[[[[[[[[[[[[ZHpjkkkkkjpHZ[[[[[[[",
"[[[[[[[[[[[ZtlU'TTTTT'UltZ[[[[[[",
"[[[[[[[[[[[Hl!)_______)!lH[[[[[[",
"[[[[[[[[[[GzY)))))))))))YzG[[[[[",
"[[[[[[[[[BiU)))))))))))))UiB[[[[",
"[[[[[[[[[Vj'_)))))))))))_'jV[[[[",
"[[[[[[[[[VkT_)))))))))))_TkV[[[[",
"[[[[[[[[[VkT_)))))))))))_TkV[[[[",
"[[[[[[[[[VkT_)))))))))))_TkV[[[[",
"[[[[[[[[[VkT_)))))))))))_TkV[[[[",
"[[[[[[[[[VkT_)))__`__)))_TkV[[[[",
"[[[[[[[[[VkT_))/RIPIR/))_TkV[[[[",
"[[[[[[[[[VkT_)(Ya<;<aY()_TkV[[[[",
"[[[[[[[[[VkT__]s:*&*:s]__TkV[[[[",
"[[[[[[[[[VkT__Ed-%O%-dE__TkV[[[[",
"[[[[[[[[[VkT__Eh=#X#=hE__TkV[[[[",
"[[[[[[[[[VkT__Eh=@.@=hE__TkV[[[[",
"[[[[[[[[[VkT__Eg=+ +=gE__TkV[[[[",
"[[[[[[[[[VkT_`Qq>$o$>qQ`_TkV[[[[",
"[[[[[[[[[VkE^LJDvc0cvDJL^EkV[[[[",
"[[[[[[[[[VkW~2,8679768,2~WkV[[[[",
"[[[[[[[[[VfKFmbnnnnnnnbmFKfV[[[[",
"[[[[[[[[[Cw134555555555431wC[[[[",
"[[[[[[[[[CrxMNNNNNNNNNNNMxrC[[[[",
"[[[[[[[[[AeyuuuuuuuuuuuuuyeA[[[[",
"[[[[[[[[[SACCCCCCCCCCCCCCCAS[[[["
};
