/* XPM */
static char *result[] = {
/* columns rows colors chars-per-pixel */
"32 32 77 1 ",
"  c #191019",
". c #001B30",
"X c #19365B",
"o c #004072",
"O c #BB2728",
"+ c #BA2C31",
"@ c #BF2F36",
"# c #BC2E3A",
"$ c #D62A27",
"% c #D32B29",
"& c #D52A28",
"* c #D52A29",
"= c #D62A29",
"- c #D42A2A",
"; c #D42A2B",
": c #D62A2A",
"> c #D3292D",
", c #C7273F",
"< c #AC3847",
"1 c #A6374C",
"2 c #BE2353",
"3 c #BD2257",
"4 c #9F3161",
"5 c #C72545",
"6 c #CA2541",
"7 c #C92443",
"8 c #C82643",
"9 c #C82444",
"0 c #C02054",
"q c #244A9F",
"w c #2E5896",
"e c #165EA5",
"r c #0955B6",
"t c #2152AF",
"y c #0267B4",
"u c #0067B6",
"i c #0167B6",
"p c #0167B7",
"a c #0267B7",
"s c #0466B4",
"d c #0267B8",
"f c #056BBC",
"g c #2E68AF",
"h c #7713C7",
"j c #601CDB",
"k c #7315D2",
"l c #6B20CE",
"z c #531BEF",
"x c #501FF5",
"c c #521CF6",
"v c #531CF6",
"b c #531CF7",
"n c #511FF6",
"m c #6715E2",
"M c #6915E1",
"N c #6A15E0",
"B c #6A14E1",
"V c #601EE1",
"C c #1C5BDE",
"Z c #0470C5",
"A c #0573CF",
"S c #0375CF",
"D c #0475CD",
"F c #0575CE",
"G c #1169D8",
"H c #1268D8",
"J c #146ADF",
"K c #126CDE",
"L c #126DDE",
"P c #087ADA",
"I c #2464C3",
"U c #1F5EE0",
"Y c #1E5FE0",
"T c #1E5FE1",
"R c #126BE0",
"E c #136BE0",
"W c None",
/* pixels */
"WWWWWWWWWWWWWWWWWWWWWWWWWWWWWWWW",
"WWWWWWWWWWWWWWWWWWWWWWWWWWWWWWWW",
"WWWWWWWWWWWWWWWWWWWWWWWWWWWWWWWW",
"WWWWWWWWWWWWWWWWWWWWWWWWWWWWWWWW",
"WWWWWWWWWWWWWWWWWWWWWWWWWWWWWWWW",
"WWWWWWWWWWWWWWREEEEEEERWWWWWWWWW",
"WWWWWWWWWWWWKYVBMMMMMBVYKWWWWWWW",
"WWWWWWWWWWWKvk379999973kvKWWWWWW",
"WWWWWWWWWWWTk0-&&&&&&&-0kTWWWWWW",
"WWWWWWWWWWUl2;---------;2lUWWWWW",
"WWWWWWWWWRV3-------------3VRWWWW",
"WWWWWWWWWEB7&-----------&7BEWWWW",
"WWWWWWWWWEM9&-----------&9MEWWWW",
"WWWWWWWWWEM9&-----------&9MEWWWW",
"WWWWWWWWWEM9&-----------&9MEWWWW",
"WWWWWWWWWEM9&-----------&9MEWWWW",
"WWWWWWWWWEM9&-----------&9MEWWWW",
"WWWWWWWWWEM9&-----------&9MEWWWW",
"WWWWWWWWWEM9&-----------&9MEWWWW",
"WWWWWWWWWEM9&-----------&9MEWWWW",
"WWWWWWWWWEM9&-----------&9MEWWWW",
"WWWWWWWWWEM9&--*=:::=*--&9MEWWWW",
"WWWWWWWWWEM9&->,#+O+#,>-&9MEWWWW",
"WWWWWWWWWEM9&*6hqX Xqh6*&9MEWWWW",
"WWWWWWWWWEM9&$8jro.orj8$&9MEWWWW",
"WWWWWWWWWEM9%@1IAZfZAI1@%9MEWWWW",
"WWWWWWWWWEN5<wespadapsew<5NEWWWW",
"WWWWWWWWWEm4gFSDDDDDDDSFg4mEWWWW",
"WWWWWWWWWJztyuiiiiiiiiiuytzJWWWW",
"WWWWWWWWWJcCGHHHHHHHHHHHGCcJWWWW",
"WWWWWWWWWLxbnnnnnnnnnnnnnbxLWWWW",
"WWWWWWWWWPLJJJJJJJJJJJJJJJLPWWWW"
};
