/* XPM */
static char *result[] = {
/* columns rows colors chars-per-pixel */
"32 32 70 1 ",
"  c #531EF6",
". c #551CF7",
"X c #5717F8",
"o c #5C14FA",
"O c #4033EF",
"+ c #4B25F4",
"@ c #5320F6",
"# c #572FF7",
"$ c #5F26FA",
"% c #5E29FA",
"& c #5E2AFA",
"* c #5F2BFA",
"= c #5D2EF9",
"- c #5D2FF9",
"; c #5E2EFA",
": c #4230F0",
"> c #5532F7",
", c #5533F7",
"< c #5534F6",
"1 c #5535F6",
"2 c #5534F7",
"3 c #5535F7",
"4 c #6937FD",
"5 c #603FFA",
"6 c #1369DE",
"7 c #126ADE",
"8 c #136ADE",
"9 c #136BDE",
"0 c #1469DE",
"q c #116FDD",
"w c #126CDE",
"e c #136CDE",
"r c #126DDE",
"t c #077BD9",
"y c #077ADA",
"u c #067CD9",
"i c #087ADA",
"p c #1F5BE3",
"a c #1D5CE2",
"s c #1D5DE2",
"d c #1D5FE2",
"f c #1E5EE2",
"g c #1A62E1",
"h c #1D61E2",
"j c #1E61E2",
"k c #1E62E2",
"l c #1964E0",
"z c #5748F7",
"x c #5F43FA",
"c c #6043FA",
"v c #6045FA",
"b c #6B98FB",
"n c #6DAEFB",
"m c #6DC5FA",
"M c #6FC5FB",
"N c #6FC7FB",
"B c #6FC8FB",
"V c #6DCAFA",
"C c #6DCCFA",
"Z c #6ECDFA",
"A c #6FDDFA",
"S c #6FDFFA",
"D c #6FE1FA",
"F c #6EE4FA",
"G c #6FE5FA",
"H c #6EE6FA",
"J c #6FE7FA",
"K c #6FFDF9",
"L c #6FFFF9",
"P c None",
/* pixels */
"PPPPPPPPPPPPPPPPPPPPPPPPPPPPPPPP",
"PPPPPPPPPPPPPPPPPPPPPPPPPPPPPPPP",
"PPPPPPPPPPPPPPPPPPPPPPPPPPPPPPPP",
"PPPPPPPPPPPPPPPPPPPPPPPPPPPPPPPP",
"PPPPPPPPPPPPPPPPPPPPPPPPPPPPPPPP",
"PPPPPPPPPPPPPPPP9666666PPPPPPPPP",
"PPPPPPPPPPPPPPPe %===;1kPPPPPPPP",
"PPPPPPPPPPPPPPPh5NDSSDm<7PPPPPPP",
"PPPPPPPPPPPPPP63CLLLLLGchPPPPPPP",
"PPPPPPPPPPPPPP0%MDFKLLKV26PPPPPP",
"PPPPPPPPPPPPPP9@&*4ZKLLD;6PPPPPP",
"PPPPPPPPPPPPPPP98aX4HLLS=6PPPPPP",
"PPPPPPPPPPPPPPPPPPs$BKLD;6PPPPPP",
"PPPPPPPPPPPPPPPPPPw.4FLV26PPPPPP",
"PPPPPPPPPPPPPPPPPPPa*DJchPPPPPPP",
"PPPPPPPPPPPPPPPPPPP8-AC,7PPPPPPP",
"PPPPPPPPPPPPPPPPPPP6-MvhPPPPPPPP",
"PPPPPPPPPPPPPPPPPPPhxn17PPPPPPPP",
"PPPPPPPPPPPPPPPPPP8>bzjPPPPPPPPP",
"PPPPPPPPPPPPPPPPPP9o#jPPPPPPPPPP",
"PPPPPPPPPPPPPPPPPPd+pPPPPPPPPPPP",
"PPPPPPPPPPPPPPPPPf:gPPPPPPPPPPPP",
"PPPPPPPPPPPPPPPPf:ltPPPPPPPPPPPP",
"PPPPPPPPPPPPPPPrOltPPPPPPPPPPPPP",
"PPPPPPPPPPPPPPuiqyPPPPPPPPPPPPPP",
"PPPPPPPPPPPPPuuuPPPPPPPPPPPPPPPP",
"PPPPPPPPPPPPPPPPPPPPPPPPPPPPPPPP",
"PPPPPPPPPPPPPPPPPPPPPPPPPPPPPPPP",
"PPPPPPPPPPPPPPPPPPPPPPPPPPPPPPPP",
"PPPPPPPPPPPPPPPPPPPPPPPPPPPPPPPP",
"PPPPPPPPPPPPPPPPPPPPPPPPPPPPPPPP",
"PPPPPPPPPPPPPPPPPPPPPPPPPPPPPPPP"
};
