/* XPM */
static char *result[] = {
/* columns rows colors chars-per-pixel */
"32 32 32 1 ",
"  c #5D0DFA",
". c #5D0CFB",
"X c #5C0EFA",
"o c #4F1CF5",
"O c #5318F7",
"+ c #501BF6",
"@ c #541BF7",
"# c #501CF5",
"$ c #5619F8",
"% c #571AF8",
"& c #6702FE",
"* c #6900FF",
"= c #6A00FF",
"- c #4626F2",
"; c #1E7CE1",
": c #1F7DE1",
"> c #1E7EE1",
", c #1F7EE2",
"< c #2770E5",
"1 c #207DE2",
"2 c #2D7CE7",
"3 c #2E7DE7",
"4 c #1B80E0",
"5 c #1F98E1",
"6 c #268AE4",
"7 c #56DFF1",
"8 c #56DEF2",
"9 c #56E0F2",
"0 c #60EEF4",
"q c #60EFF4",
"w c #61EEF5",
"e c None",
/* pixels */
"eeeeeeeeeeeeeeeeeeeeeeeeeeeeeeee",
"eeeeeeeeeeeeeeeeeeeeeeeeeeeeeeee",
"eeeeeeeeeeeeeeeeeeeeeeeeeeeeeeee",
"eeeeeeeeeeeeeeeeeeeeeeeeeeeeeeee",
"eeeeeeeeeeeeeeeeeeeeeeeeeeeeeeee",
"eeeeeeeeeeeeeeeeeeeeeeeeeeeeeeee",
"eeeeeeeeeeeeeeeeeeeeeeeeeeeeeeee",
"eeeeeeeeeeeeeeeeeeeeeeeeeeeeeeee",
"eeeeeeeeeeeeeeeeeeeeeeeeeeeeeeee",
"eeeeeeeeeeeeeeeeeeeeeeeeeeeeeeee",
"eeeeeeeeeeeeeeeeeeeeeeeeeeeeeeee",
"eeeeeeeeeeeeeq000qeeeeeeeeeeeeee",
"eeeeeeeeeeee86:,:68eeeeeeeeeeeee",
"eeeeeeeeeee83@ X @38eeeeeeeeeeee",
"eeeeeeeeeeq6@*===*@6qeeeeeeeeeee",
"eeeeeeeeee0;.=***=.;0eeeeeeeeeee",
"eeeeeeeeeeq6@*****@6qeeeeeeeeeee",
"eeeeeeeeeee83$***$38eeeeeeeeeeee",
"eeeeeeeeeeee72%&%27eeeeeeeeeeeee",
"eeeeeeeeeeeee9<O<9eeeeeeeeeeeeee",
"eeeeeeeeeeeeeq,o,qeeeeeeeeeeeeee",
"eeeeeeeeeeeee01#10eeeeeeeeeeeeee",
"eeeeeeeeeeeee01#10eeeeeeeeeeeeee",
"eeeeeeeeeeeee01+10eeeeeeeeeeeeee",
"eeeeeeeeeeeee0>->0eeeeeeeeeeeeee",
"eeeeeeeeeeeeew545weeeeeeeeeeeeee",
"eeeeeeeeeeeeeew0weeeeeeeeeeeeeee",
"eeeeeeeeeeeeeeeeeeeeeeeeeeeeeeee",
"eeeeeeeeeeeeeeeeeeeeeeeeeeeeeeee",
"eeeeeeeeeeeeeeeeeeeeeeeeeeeeeeee",
"eeeeeeeeeeeeeeeeeeeeeeeeeeeeeeee",
"eeeeeeeeeeeeeeeeeeeeeeeeeeeeeeee"
};
