/* XPM */
static char *result[] = {
/* columns rows colors chars-per-pixel */
"32 32 50 1 ",
"  c #635C39",
". c #5A5747",
"X c #5D5A47",
"o c #5C5948",
"O c #5D5948",
"+ c #5E5B48",
"@ c #5F5B49",
"# c #696241",
"$ c #6D6848",
"% c #6E6848",
"& c #646050",
"* c #76777B",
"= c #B89D0B",
"- c #B99D0B",
"; c #BA9E0B",
": c #BC9F0A",
"> c #AE9512",
", c #B69B10",
"< c #B69C11",
"1 c #CEAE04",
"2 c #C1A40A",
"3 c #F2CB01",
"4 c #F2CC01",
"5 c #F7D000",
"6 c #F8D000",
"7 c #F8D100",
"8 c #F9D100",
"9 c #FED500",
"0 c #FFD600",
"q c gold",
"w c #7E7E81",
"e c #7E7F81",
"r c #7F7F81",
"t c #808083",
"y c #838383",
"u c #848483",
"i c #858584",
"p c #929394",
"a c #949495",
"s c #959697",
"d c #9A9A9B",
"f c gray66",
"g c #DFDFDE",
"h c #DFDFDF",
"j c #E9E9E9",
"k c #EAEAEA",
"l c #F4F4F4",
"z c #FEFEFE",
"x c white",
"c c None",
/* pixels */
"cccccccccccccccccccccccccccccccc",
"cccccccccccccccccccccccccccccccc",
"cccccccccccccccccccccccccccccccc",
"cccccccccccccccccccccccccccccccc",
"cccccccccccccccccccccccccccccccc",
"cccccccccccccccccccccccccccccccc",
"cccccccccccccccccccccccccccccccc",
"cccccccccccccccccccccccccccccccc",
"cccccccccccccccccccccccccccccccc",
"ccccccccccccc00000cccccccccccccc",
"ccccccccccc008888800cccccccccccc",
"cccccccccc0032---2300ccccccccccc",
"ccccccccc004<#OXO#<400cccccccccc",
"ccccccccc03<%yasay%<30cccccccccc",
"cccccccc082#yfjljfy#280ccccccccc",
"cccccccc07=ophzxzhpo=70ccccccccc",
"cccccccc082#yfkzkfy#280ccccccccc",
"ccccccccc03<$ufgfu$<30cccccccccc",
"ccccccccc004,%idi%,400cccccccccc",
"cccccccccc003>&t&>300ccccccccccc",
"cccccccccccq8;+w+;8qcccccccccccc",
"cccccccccccc6;@e@;6ccccccccccccc",
"cccccccccccc6;@e@;6ccccccccccccc",
"cccccccccccc6;@r@;6ccccccccccccc",
"cccccccccccc6;O*O;6ccccccccccccc",
"cccccccccccc5: . :5ccccccccccccc",
"cccccccccccc61:;:16ccccccccccccc",
"cccccccccccc9656569ccccccccccccc",
"cccccccccccccccccccccccccccccccc",
"cccccccccccccccccccccccccccccccc",
"cccccccccccccccccccccccccccccccc",
"cccccccccccccccccccccccccccccccc"
};
