/* XPM */
static char *result[] = {
/* columns rows colors chars-per-pixel */
"32 32 42 1 ",
"  c #531BF7",
". c #531EF6",
"X c #531FF7",
"o c #5E12FB",
"O c #4A27F3",
"+ c #5E2BFA",
"@ c #582FF8",
"# c #5F2CFA",
"$ c #5530F7",
"% c #5532F7",
"& c #5733F7",
"* c #5536F7",
"= c #5E30FA",
"- c #603BFA",
"; c #6A3BFD",
": c #1369DE",
"> c #136ADE",
", c #126BDE",
"< c #136BDE",
"1 c #1469DE",
"2 c #116EDD",
"3 c #126CDE",
"4 c #136CDE",
"5 c #067BD9",
"6 c #067CD9",
"7 c #087ADA",
"8 c #1D5BE2",
"9 c #1E5CE2",
"0 c #1E5DE2",
"q c #1D61E2",
"w c #1D62E2",
"e c #1E63E2",
"r c #1C64E1",
"t c #5649F6",
"y c #5F43FA",
"u c #6B98FB",
"i c #6EABFB",
"p c #6FACFB",
"a c #6EAEFB",
"s c #6CB1FB",
"d c #6FC2FB",
"f c None",
/* pixels */
"ffffffffffffffffffffffffffffffff",
"ffffffffffffffffffffffffffffffff",
"ffffffffffffffffffffffffffffffff",
"ffffffffffffffffffffffffffffffff",
"ffffffffffffffffffffffffffffffff",
"ffffffffffffffffffffffffffffffff",
"ffffffffffffffffffffffffffffffff",
"ffffffffffffffffffffffffffffffff",
"ffffffffffffffffffffffffffffffff",
"ffffffffffffffffffffffffffffffff",
"ffffffffffffffffffffffffffffffff",
"ffffffffffffffffffffffffffffffff",
"ffffffffffffffffffffffffffffffff",
"ffffffffffffffffffffffffffffffff",
"ffffffffffffff6fffffffffffffffff",
"ffffffffffff27ffffffffffffffffff",
"ffffffffff,0O3ffffffffffffffffff",
"ffffffff5r%o <ffffffffffffffffff",
"ffffffffrtu@9fffffffffffffffffff",
"fffffff:*aywffffffffffffffffffff",
"fffffff:=d#8ffffffffffffffffffff",
"fffffff:+p;&efffffffffffffffffff",
"fffffff<.-si$>ffffffffffffffffff",
"ffffffff4q*+X<ffffffffffffffffff",
"ffffffffff:1<fffffffffffffffffff",
"ffffffffffffffffffffffffffffffff",
"ffffffffffffffffffffffffffffffff",
"ffffffffffffffffffffffffffffffff",
"ffffffffffffffffffffffffffffffff",
"ffffffffffffffffffffffffffffffff",
"ffffffffffffffffffffffffffffffff",
"ffffffffffffffffffffffffffffffff"
};
