/* XPM */
static char *result[] = {
/* columns rows colors chars-per-pixel */
"32 32 44 1 ",
"  c #070706",
". c #0A0900",
"X c #0B0900",
"o c #0C0A00",
"O c #0C0A01",
"+ c #0C0B06",
"@ c #0D0C07",
"# c #0F0E09",
"$ c #0E0E0E",
"% c #100E00",
"& c #302900",
"* c #352D00",
"= c #362E00",
"- c #372F00",
"; c #382F00",
": c #383000",
"> c #3D3400",
", c #313132",
"< c gray22",
"1 c #393939",
"2 c #3F3F3F",
"3 c #423800",
"4 c #6F5E00",
"5 c #756300",
"6 c #766300",
"7 c #766400",
"8 c #776400",
"9 c #766401",
"0 c #776401",
"q c #7E6B01",
"w c #464646",
"e c #484848",
"r c #857101",
"t c #B19503",
"y c #B29603",
"u c #B79A03",
"i c #B79B03",
"p c #B89B04",
"a c #B89C04",
"s c #B99C04",
"d c #C0A204",
"f c #C1A304",
"g c #C2A404",
"h c None",
/* pixels */
"hhhhhhhhhhhhhhhhhhhhhhhhhhhhhhhh",
"hhhhhhhhhhhhhhhhhhhhhhhhhhhhhhhh",
"hhhhhhhhhhhhhhhhhhhhhhhhhhhhhhhh",
"hhhhhhhhhhhhhhhhhhhhhhhhhhhhhhhh",
"hhhhhhhhhhhhhhhhhhhhhhhhhhhhhhhh",
"hhhhhhhhhhhhhhhhhhhhhhhhhhhhhhhh",
"hhhhhhhhhhhhhhhhhhhhhhhhhhhhhhhh",
"hhhhhhhhhhhhhhhhhhhhhhhhhhhhhhhh",
"hhhhhhhhhhhhhhhhhhhhhhhhhhhhhhhh",
"hhhhhhhhhhhhhggggghhhhhhhhhhhhhh",
"hhhhhhhhhhhfdsaaasdfhhhhhhhhhhhh",
"hhhhhhhhhhffyq676qyffhhhhhhhhhhh",
"hhhhhhhhhffy9>*=*>9yffhhhhhhhhhh",
"hhhhhhhhhdy9;O@#@O;9ydhhhhhhhhhh",
"hhhhhhhhgsq>O$<2<$O>qsghhhhhhhhh",
"hhhhhhhhga5*+,wew,+*5aghhhhhhhhh",
"hhhhhhhhgsq>O$1w1$O>qsghhhhhhhhh",
"hhhhhhhhhdy9;X$,$X;9ydhhhhhhhhhh",
"hhhhhhhhhffy0:O O:0yffhhhhhhhhhh",
"hhhhhhhhhhfft4&.&4tffhhhhhhhhhhh",
"hhhhhhhhhhhgs8=o=8sghhhhhhhhhhhh",
"hhhhhhhhhhhhi0=o=0ihhhhhhhhhhhhh",
"hhhhhhhhhhhhi0=o=0ihhhhhhhhhhhhh",
"hhhhhhhhhhhhi0=o=0ihhhhhhhhhhhhh",
"hhhhhhhhhhhhi0=%=0ihhhhhhhhhhhhh",
"hhhhhhhhhhhhu83-38uhhhhhhhhhhhhh",
"hhhhhhhhhhhhpr808rphhhhhhhhhhhhh",
"hhhhhhhhhhhhdpuiupdhhhhhhhhhhhhh",
"hhhhhhhhhhhhhhhhhhhhhhhhhhhhhhhh",
"hhhhhhhhhhhhhhhhhhhhhhhhhhhhhhhh",
"hhhhhhhhhhhhhhhhhhhhhhhhhhhhhhhh",
"hhhhhhhhhhhhhhhhhhhhhhhhhhhhhhhh"
};
