/* XPM */
static char *result[] = {
/* columns rows colors chars-per-pixel */
"32 32 53 1 ",
"  c #5D0CFB",
". c #5319F7",
"X c #5618F8",
"o c #6801FF",
"O c #6A00FF",
"+ c #4A24F3",
"@ c #4B25F3",
"# c #1073DD",
"$ c #1A63E1",
"% c #197FE1",
"& c #1B7EE2",
"* c #1E7DE2",
"= c #1B95DF",
"- c #1D94DF",
"; c #1D96E0",
": c #1998E1",
"> c #1C9BE2",
", c #1D9CE2",
"< c #25A8E6",
"1 c #76E2DE",
"2 c #77E2DE",
"3 c #67E1E6",
"4 c #73ECE7",
"5 c #73EEE7",
"6 c #74EDE7",
"7 c #71EEE8",
"8 c #72EEE8",
"9 c #73EEE8",
"0 c #75F1EA",
"q c #EEF2A7",
"w c #EFF2A8",
"e c #EEF2A9",
"r c #EFF2A9",
"t c #F0F1A6",
"y c #FDF2AA",
"u c #E1F2B0",
"i c #E2F3B8",
"p c #E3F4B8",
"a c #F1F4B1",
"s c #82EEDF",
"d c #8EF9DE",
"f c #FFFCE7",
"g c #FFFCE9",
"h c #FEFCEA",
"j c #FFFCEE",
"k c #FFFCEF",
"l c #FFFDF0",
"z c #FFFDF1",
"x c #FFFDF2",
"c c #FFFFFD",
"v c #FFFFFE",
"b c white",
"n c None",
/* pixels */
"nnnnnnnnnnnnnnnnnnnnnnnnnnnnnnnn",
"nnnnnnnnnnnnnnnnnnnnnnnnnnnnnnnn",
"nnnnnnnnnnnnnnnnnnnnnnnnnnnnnnnn",
"nnnnnnnnnnnnnnnnnnnnnnnnnnnnnnnn",
"nnnnnnnnnnnnnnnnnnnnnnnnnnnnnnnn",
"nnnnnnnnnnnnnnnnnnnnnnnnnnnnnnnn",
"nnnnnnnnnnnnnnnnnnnnnnnnnnnnnnnn",
"nnnnnnnnnnnnnnnnnnnnnnnnnnnnnnnn",
"nnnnnnnnnnnnnnnnnnnnnnnnnnnnnnnn",
"nnnnnnnnnnnnnbbbbbnnnnnnnnnnnnnn",
"nnnnnnnnnnnbvxlzlxvbnnnnnnnnnnnn",
"nnnnnnnnnnbvhaqwqahvbnnnnnnnnnnn",
"nnnnnnnnnbvgis858sigvbnnnnnnnnnn",
"nnnnnnnnnvhi1;&*&;1ihvnnnnnnnnnn",
"nnnnnnnnbxas;$. .$;saxbnnnnnnnnn",
"nnnnnnnnblq7%+oOo+%7qlbnnnnnnnnn",
"nnnnnnnnbxas;$XoX$;saxbnnnnnnnnn",
"nnnnnnnnnvhi1=$@$=1ihvnnnnnnnnnn",
"nnnnnnnnnbvgp2-#-2pgvbnnnnnnnnnn",
"nnnnnnnnnnbbfu3:3ufbbnnnnnnnnnnn",
"nnnnnnnnnnnbzw6,6wzbnnnnnnnnnnnn",
"nnnnnnnnnnnnkr4,4rknnnnnnnnnnnnn",
"nnnnnnnnnnnnjr4,4rjnnnnnnnnnnnnn",
"nnnnnnnnnnnnjr4>4rjnnnnnnnnnnnnn",
"nnnnnnnnnnnnje9<9ejnnnnnnnnnnnnn",
"nnnnnnnnnnnnjtd0dtjnnnnnnnnnnnnn",
"nnnnnnnnnnnnzytetyznnnnnnnnnnnnn",
"nnnnnnnnnnnnczjjjzcnnnnnnnnnnnnn",
"nnnnnnnnnnnnnnnnnnnnnnnnnnnnnnnn",
"nnnnnnnnnnnnnnnnnnnnnnnnnnnnnnnn",
"nnnnnnnnnnnnnnnnnnnnnnnnnnnnnnnn",
"nnnnnnnnnnnnnnnnnnnnnnnnnnnnnnnn"
};
