/* XPM */
static char *result[] = {
/* columns rows colors chars-per-pixel */
"32 32 46 1 ",
"  c #15BE09",
". c #15BF09",
"X c #16BF08",
"o c #16BC0B",
"O c #16BD0B",
"+ c #16BE0A",
"@ c #16BC0C",
"# c #13B31C",
"$ c #13B11E",
"% c #1E9B39",
"& c #27953F",
"* c #27963E",
"= c #28963B",
"- c #25993A",
"; c #20A627",
": c #21A529",
"> c #21A628",
", c #036F9D",
"< c #02709C",
"1 c #1060A9",
"2 c #4E32CC",
"3 c #4F32CC",
"4 c #463DC8",
"5 c #4C2DDD",
"6 c #4C2EDD",
"7 c #5326DD",
"8 c #5225DF",
"9 c #501DEE",
"0 c #531BF6",
"q c #501FF5",
"w c #521DF6",
"e c #531CF7",
"r c #511FF6",
"t c #1D5ADE",
"y c #1169D9",
"u c #1268DA",
"i c #146ADF",
"p c #136CDE",
"a c #126DDE",
"s c #087ADA",
"d c #1D5FE1",
"f c #1D60E0",
"g c #1D61E0",
"h c #1469E0",
"j c #146AE0",
"k c None",
/* pixels */
"kkkkkkkkkkkkkkkkkkkkkkkkkkkkkkkk",
"kkkkkkkkkkkkkkkkkkkkkkkkkkkkkkkk",
"kkkkkkkkkkkkkkkkkkkkkkkkkkkkkkkk",
"kkkkkkkkkkkkkkkkkkkkkkkkkkkkkkkk",
"kkkkkkkkkkkkkkkkkkkkkkkkkkkkkkkk",
"kkkkkkkkkkkkkkjhhhhhhhjkkkkkkkkk",
"kkkkkkkkkkkkpg577777775gpkkkkkkk",
"kkkkkkkkkkkpw2*;:::::;*2wpkkkkkk",
"kkkkkkkkkkkd3=O.     .O=3dkkkkkk",
"kkkkkkkkkkf4-@OOOOOOOOO@-4fkkkkk",
"kkkkkkkkkj6&oOOOOOOOOOOOo&6jkkkk",
"kkkkkkkkkh7;.OOOOOOOOOOO.;7hkkkk",
"kkkkkkkkkh7: OOOOOOOOOOO :7hkkkk",
"kkkkkkkkkh7: OOOOOOOOOOO :7hkkkk",
"kkkkkkkkkh7: OOOOOOOOOOO :7hkkkk",
"kkkkkkkkkh7: OOOOOOOOOOO :7hkkkk",
"kkkkkkkkkh7: OOOOOOOOOOO :7hkkkk",
"kkkkkkkkkh7: OOOOOOOOOOO :7hkkkk",
"kkkkkkkkkh7: OOOOOOOOOOO :7hkkkk",
"kkkkkkkkkh7: OOOOOOOOOOO :7hkkkk",
"kkkkkkkkkh7: OOOOOOOOOOO :7hkkkk",
"kkkkkkkkkh7: OOOOOOOOOOO :7hkkkk",
"kkkkkkkkkh7: OOOOOOOOOOO :7hkkkk",
"kkkkkkkkkh7: OOOOOOOOOOO :7hkkkk",
"kkkkkkkkkh7: OOOOOOOOOOO :7hkkkk",
"kkkkkkkkkh7: OOOOOOOOOOO :7hkkkk",
"kkkkkkkkkh7>X+++++++++++X>7hkkkk",
"kkkkkkkkkh8%#$$$$$$$$$$$#%8hkkkk",
"kkkkkkkkki91<,,,,,,,,,,,<19ikkkk",
"kkkkkkkkki0tyuuuuuuuuuuuyt0ikkkk",
"kkkkkkkkkaqerrrrrrrrrrrrreqakkkk",
"kkkkkkkkksaiiiiiiiiiiiiiiiaskkkk"
};
