/* XPM */
static char *result[] = {
/* columns rows colors chars-per-pixel */
"32 32 95 2 ",
"   c #000D17",
".  c #000D18",
"X  c #0D062B",
"o  c #0D062C",
"O  c #0E062C",
"+  c #0C082A",
"@  c #001322",
"#  c #0E0A37",
"$  c #011B30",
"%  c #021D37",
"&  c #00315C",
"*  c #00305F",
"=  c #003560",
"-  c #003762",
";  c #003565",
":  c #003863",
">  c #003864",
",  c #002A74",
"<  c #002977",
"1  c #002A77",
"2  c #002C76",
"3  c #0C217C",
"4  c #002978",
"5  c #002979",
"6  c #012979",
"7  c #01297A",
"8  c #004071",
"9  c #004274",
"0  c #00467D",
"q  c #161F93",
"w  c #0C2487",
"e  c #0D2388",
"r  c #0D2389",
"t  c #0E2389",
"y  c #0D2489",
"u  c #003786",
"i  c #142292",
"p  c #152194",
"a  c #162194",
"s  c #0E3096",
"d  c #00579E",
"f  c #015AA1",
"g  c #0158A3",
"h  c #0D4FB0",
"j  c #164BBC",
"k  c #0D50B0",
"l  c #0C51B0",
"z  c #0D52B6",
"x  c #0D55B5",
"c  c #0E5FBE",
"v  c #0165B3",
"b  c #0067B4",
"n  c #0167B6",
"m  c #0167B7",
"M  c #0267B7",
"N  c #0267B8",
"B  c #0368BE",
"V  c #056BBC",
"C  c #500AD6",
"Z  c #500BD6",
"A  c #500CD8",
"S  c #4717D3",
"D  c #401BD4",
"F  c #4812D8",
"G  c #4813DA",
"H  c #4220DD",
"J  c #4A15E1",
"K  c #491EE9",
"L  c #4A1EE9",
"P  c #5110E7",
"I  c #5014EA",
"U  c #5015EA",
"Y  c #501BF0",
"T  c #501FF5",
"R  c #521CF6",
"E  c #531CF6",
"W  c #531CF7",
"Q  c #511FF6",
"!  c #1D5BDE",
"~  c #0470C5",
"^  c #0475CD",
"/  c #0575CE",
"(  c #0575CF",
")  c #0674CF",
"_  c #1169D8",
"`  c #1268D8",
"'  c #146ADF",
"]  c #146BDF",
"[  c #136CDE",
"{  c #126DDE",
"}  c #087ADA",
"|  c #1D5EE1",
" . c #1C5FE1",
".. c #1D5FE2",
"X. c None",
/* pixels */
"X.X.X.X.X.X.X.X.X.X.X.X.X.X.X.X.X.X.X.X.X.X.X.X.X.X.X.X.X.X.X.X.",
"X.X.X.X.X.X.X.X.X.X.X.X.X.X.X.X.X.X.X.X.X.X.X.X.X.X.X.X.X.X.X.X.",
"X.X.X.X.X.X.X.X.X.X.X.X.X.X.X.X.X.X.X.X.X.X.X.X.X.X.X.X.X.X.X.X.",
"X.X.X.X.X.X.X.X.X.X.X.X.X.X.X.X.X.X.X.X.X.X.X.X.X.X.X.X.X.X.X.X.",
"X.X.X.X.X.X.X.X.X.X.X.X.X.X.X.X.X.X.X.X.X.X.X.X.X.X.X.X.X.X.X.X.",
"X.X.X.X.X.X.X.X.X.X.X.X.X.X.] ] ] ] ] ] ] ] ] X.X.X.X.X.X.X.X.X.",
"X.X.X.X.X.X.X.X.X.X.X.X.[  .L I U U U U U I L  .[ X.X.X.X.X.X.X.",
"X.X.X.X.X.X.X.X.X.X.X.[ R J p e r r r r r e p J R [ X.X.X.X.X.X.",
"X.X.X.X.X.X.X.X.X.X.X...J q 4 < < < < < < < 4 q J ..X.X.X.X.X.X.",
"X.X.X.X.X.X.X.X.X.X.| H i 4 4 4 4 4 4 4 4 4 4 4 i H | X.X.X.X.X.",
"X.X.X.X.X.X.X.X.X.] K a 4 4 4 4 4 4 4 4 4 4 4 4 4 a K ] X.X.X.X.",
"X.X.X.X.X.X.X.X.X.] I e < 4 4 4 4 4 4 4 4 4 4 4 < e I ] X.X.X.X.",
"X.X.X.X.X.X.X.X.X.] U r < 4 4 4 4 4 4 4 4 4 4 4 < r U ] X.X.X.X.",
"X.X.X.X.X.X.X.X.X.] U r < 4 4 4 4 4 4 4 4 4 4 4 < r U ] X.X.X.X.",
"X.X.X.X.X.X.X.X.X.] U r < 4 4 4 4 4 4 4 4 4 4 4 < r U ] X.X.X.X.",
"X.X.X.X.X.X.X.X.X.] U r < 4 4 4 4 < < < 4 4 4 4 < r U ] X.X.X.X.",
"X.X.X.X.X.X.X.X.X.] U r < 4 4 4 6 w t w 6 4 4 4 < r U ] X.X.X.X.",
"X.X.X.X.X.X.X.X.X.] U r < 4 4 5 i G P G i 5 4 4 < r U ] X.X.X.X.",
"X.X.X.X.X.X.X.X.X.] U r < 4 7 i D j l j D i 7 4 < r U ] X.X.X.X.",
"X.X.X.X.X.X.X.X.X.] U r 1 , 3 F j d 0 d j F 3 , 1 r U ] X.X.X.X.",
"X.X.X.X.X.X.X.X.X.] U r 2 * # A k 9 = 9 k A # * 2 r U ] X.X.X.X.",
"X.X.X.X.X.X.X.X.X.] U r 2 & X Z h > @ > h Z X & 2 r U ] X.X.X.X.",
"X.X.X.X.X.X.X.X.X.] U r 2 & o Z k : . : k Z o & 2 r U ] X.X.X.X.",
"X.X.X.X.X.X.X.X.X.] U r 2 & O C h -   - h C O & 2 r U ] X.X.X.X.",
"X.X.X.X.X.X.X.X.X.] U r 2 & + S x 8 $ 8 x S + & 2 r U ] X.X.X.X.",
"X.X.X.X.X.X.X.X.X.] U e 2 ; % c ) ~ V ~ ) c % ; 2 e U ] X.X.X.X.",
"X.X.X.X.X.X.X.X.X.] U y u g f v m M N M m v f g u y U ] X.X.X.X.",
"X.X.X.X.X.X.X.X.X.] U s B / ( ^ ^ ^ ^ ^ ^ ^ ( / B s U ] X.X.X.X.",
"X.X.X.X.X.X.X.X.X.' Y z b n n n n n n n n n n n b z Y ' X.X.X.X.",
"X.X.X.X.X.X.X.X.X.' E ! _ ` ` ` ` ` ` ` ` ` ` ` _ ! E ' X.X.X.X.",
"X.X.X.X.X.X.X.X.X.{ T W Q Q Q Q Q Q Q Q Q Q Q Q Q W T { X.X.X.X.",
"X.X.X.X.X.X.X.X.X.} { ' ' ' ' ' ' ' ' ' ' ' ' ' ' ' { } X.X.X.X."
};
