/* XPM */
static char *result[] = {
/* columns rows colors chars-per-pixel */
"32 32 84 1 ",
"  c #000D17",
". c #000D18",
"X c #191123",
"o c #011B30",
"O c #003762",
"+ c #003863",
"@ c #193664",
"# c #004071",
"$ c #BB2764",
"% c #BA2C6D",
"& c #BF2F73",
"* c #BC2E76",
"= c #AC387E",
"- c #D32B6D",
"; c #D52A6D",
": c #D62A6C",
"> c #D62A6D",
", c #D42A6E",
"< c #D62A6E",
"1 c #D62A6F",
"2 c #C7277C",
"3 c #C9257E",
"4 c #C9247F",
"5 c #C8267F",
"6 c #D32970",
"7 c #0C4FAF",
"8 c #165EAB",
"9 c #0A50B0",
"0 c #0B55B5",
"q c #244BA7",
"w c #2E58A4",
"e c #2152B5",
"r c #0267B4",
"t c #0067B6",
"y c #0167B6",
"u c #0167B7",
"i c #0267B7",
"p c #0466B5",
"a c #0267B8",
"s c #056BBC",
"d c #2E68BC",
"f c #7614D6",
"g c #7315DF",
"h c #6B20DB",
"j c #531BF0",
"k c #501FF5",
"l c #521CF6",
"z c #531CF6",
"x c #531CF7",
"c c #511FF6",
"v c #6811E5",
"b c #6A10E4",
"n c #611DE1",
"m c #6715E9",
"M c #6915E9",
"N c #6A14E9",
"B c #6A15E9",
"V c #601EE8",
"C c #1C5BDE",
"Z c #0470C5",
"A c #0573CF",
"S c #0375CE",
"D c #0475CD",
"F c #0575CE",
"G c #1169D8",
"H c #1268D8",
"J c #126BDF",
"K c #136BDF",
"L c #146ADF",
"P c #126CDE",
"I c #126DDE",
"U c #087ADA",
"Y c #2464CB",
"T c #1F5EE1",
"R c #1E5FE1",
"E c #9F3190",
"W c #BE238A",
"Q c #BD228C",
"! c #BD228D",
"~ c #A63781",
"^ c #C72581",
"/ c #C82480",
"( c #C0208B",
") c None",
/* pixels */
"))))))))))))))))))))))))))))))))",
"))))))))))))))))))))))))))))))))",
"))))))))))))))))))))))))))))))))",
"))))))))))))))))))))))))))))))))",
"))))))))))))))))))))))))))))))))",
"))))))))))))))JKKKKKKKJ)))))))))",
"))))))))))))PRVNMMMMMNVRP)))))))",
")))))))))))PzgQ4/////4QgzP))))))",
")))))))))))Rg(,;;;;;;;,(gR))))))",
"))))))))))ThW,,,,,,,,,,,WhT)))))",
")))))))))JV!,,,,,,,,,,,,,!VJ))))",
")))))))))KN4;,,,,,,,,,,,;4NK))))",
")))))))))KM/;,,,,,,,,,,,;/MK))))",
")))))))))KM/;,,,,,,,,,,,;/MK))))",
")))))))))KM/;,,,,,,,,,,,;/MK))))",
")))))))))KM/;,,,,,,,,,,,;/MK))))",
")))))))))KM/;,,,,,,,,,,,;/MK))))",
")))))))))KM/;,,,,,,,,,,,;/MK))))",
")))))))))KM/;,,,,,,,,,,,;/MK))))",
")))))))))KM/;,,;><1<>;,,;/MK))))",
")))))))))KM/;,62*%$%*26,;/MK))))",
")))))))))KM/;;3fq@X@qf3;;/MK))))",
")))))))))KM/;;/v9+.+9v/;;/MK))))",
")))))))))KM/;;/b7O O7b/;;/MK))))",
")))))))))KM/;:5n0#o#0n5:;/MK))))",
")))))))))KM/-&~YAZsZAY~&-/MK))))",
")))))))))KB^=w8puiaiup8w=^BK))))",
")))))))))KmEdFSDDDDDDDSFdEmK))))",
")))))))))LjertyyyyyyyyytrejL))))",
")))))))))LlCGHHHHHHHHHHHGClL))))",
")))))))))IkxcccccccccccccxkI))))",
")))))))))UILLLLLLLLLLLLLLLIU))))"
};
