/* XPM */
static char *result[] = {
/* columns rows colors chars-per-pixel */
"32 32 78 1 ",
"  c #531BF7",
". c #5419F7",
"X c #541AF7",
"o c #541BF7",
"O c #551BF7",
"+ c #521DF6",
"@ c #541CF7",
"# c #5D11FA",
"$ c #5D12FA",
"% c #5D15FA",
"& c #5618F8",
"* c #5619F8",
"= c #6901FF",
"- c #4C25F4",
"; c #5221F6",
": c #5D26FA",
"> c #5F26FA",
", c #5F27FA",
"< c #5E2AFA",
"1 c #5C2DF9",
"2 c #4132F0",
"3 c #5534F7",
"4 c #5535F7",
"5 c #5D30F9",
"6 c #6B31FE",
"7 c #6A32FE",
"8 c #6B32FE",
"9 c #6937FD",
"0 c #6A34FE",
"q c #603FFA",
"w c #6938FD",
"e c #1369DE",
"r c #136BDE",
"t c #1469DE",
"y c #146ADE",
"u c #146BDE",
"i c #126CDE",
"p c #136CDE",
"a c #126DDE",
"s c #136EDE",
"d c #0879DA",
"f c #1D5DE2",
"g c #1E5DE2",
"h c #1F5DE3",
"j c #1D5FE2",
"k c #1E5EE2",
"l c #1D61E2",
"z c #1E79E1",
"x c #1E7DE1",
"c c #5E41F9",
"v c #5850F6",
"b c #6C4CFE",
"n c #1F80E1",
"m c #6EB1FB",
"M c #5BC2F4",
"N c #6FC6FB",
"B c #6EC7FB",
"V c #6EC8FA",
"C c #6FC8FB",
"Z c #6FC9FB",
"A c #6DCAFA",
"S c #6FCAFB",
"D c #6DCCFA",
"F c #6FCCFA",
"G c #6ECDFA",
"H c #6FCCFB",
"J c #6FCEFA",
"K c #63D7F6",
"L c #6FE5FA",
"P c #6FE8FA",
"I c #6EE9FA",
"U c #6FFBF9",
"Y c #6FFCF9",
"T c #6FFDF9",
"R c #6FFEF9",
"E c #6FFFF9",
"W c #70FEF9",
"Q c None",
/* pixels */
"QQQQQQQQQQQQQQQQQQQQQQQQQQQQQQQQ",
"QQQQQQQQQQQQQQQQQQQQQQQQQQQQQQQQ",
"QQQQQQQQQQQQQQQQQQQQQQQQQQQQQQQQ",
"QQQQQQQQQQQQQQQQQQQQQQQQQQQQQQQQ",
"QQQQQQQQQQQQQQQQQQQQQQQQQQQQQQQQ",
"QQQQQQQQQQQQQQQQQQQQQQQQQQQQQQQQ",
"QQQQQQQQQQQQQQQQQQQQQQQQQQQQQQQQ",
"QQQQQQQQQQQQQQQQQQQQQQQQQQQQQQQQ",
"QQQQQQQQQQQQQQQQQQQQQQQQQQQQQQQQ",
"QQQQQQQQQQQQQQQQQQQQQQQQQQQQQQQQ",
"QQQQQQQQQQQQQQQQQQQQQQQQQQQQQQQQ",
"QQQQQQQQQQQQQQQQQQQQQQQQQQQQQQQQ",
"QQQQQQQQQQQQQQQQQQQrtupQQQQQQQQQ",
"QQQQQQQQQQQQQQQQQQg@:$.kQQQQQQQQ",
"QQQQQQQQQQQQQQQQQro0m8=.pQQQQQQQ",
"QQQQQQQQQQQQQQQQQscHYG6#uQQQQQQQ",
"QQQQQQQQQQQQQQQQQxKWEES<eQQQQQQQ",
"QQQQQQQQQQQQQQQQe3ATEED4eQQQQQQQ",
"QQQQQQQQQQQQQQQQr%bIEFqlQQQQQQQQ",
"QQQQQQQQQQQQQQQQf,BUG7oiQQQQQQQQ",
"QQQQQQQQQQQQQQQg&9PP9&gQQQQQQQQQ",
"QQQQQQQQQQQQQQio7GYC>fQQQQQQQQQQ",
"QQQQQQQdaQQQQQjqJRG7@iQQQQQQQQQQ",
"QQQQQQQa2jpQQnvDLZ7*gQQQQQQQQQQQ",
"QQQQQQQQj-XgzMVNw>@gQQQQQQQQQQQQ",
"QQQQQQQQQh +;15<OfiQQQQQQQQQQQQQ",
"QQQQQQQQQQryyteerQQQQQQQQQQQQQQQ",
"QQQQQQQQQQQQQQQQQQQQQQQQQQQQQQQQ",
"QQQQQQQQQQQQQQQQQQQQQQQQQQQQQQQQ",
"QQQQQQQQQQQQQQQQQQQQQQQQQQQQQQQQ",
"QQQQQQQQQQQQQQQQQQQQQQQQQQQQQQQQ",
"QQQQQQQQQQQQQQQQQQQQQQQQQQQQQQQQ"
};
