/* XPM */
static char *result[] = {
/* columns rows colors chars-per-pixel */
"32 32 45 1 ",
"  c #3E3506",
". c #3E3608",
"X c #3F3709",
"o c #433901",
"O c #453C07",
"+ c #40380F",
"@ c #453D0E",
"# c #463D0E",
"$ c #403D2F",
"% c #6F5E01",
"& c #756200",
"* c #756300",
"= c #766300",
"- c #766400",
"; c #776400",
": c #776501",
"> c #7E6A00",
", c #424036",
"< c #424138",
"1 c #444239",
"2 c #45433A",
"3 c #4B4A46",
"4 c #4C4C47",
"5 c #4E4D48",
"6 c #4D4D4C",
"7 c #565656",
"8 c #7C7C7C",
"9 c #857101",
"0 c #B19503",
"q c #B19603",
"w c #B29603",
"e c #B79A03",
"r c #B79B03",
"t c #B89B04",
"y c #B89C04",
"u c #B99C04",
"i c #C0A204",
"p c #C1A304",
"a c #C2A404",
"s c #828383",
"d c #848484",
"f c gray54",
"g c gray57",
"h c #939393",
"j c None",
/* pixels */
"jjjjjjjjjjjjjjjjjjjjjjjjjjjjjjjj",
"jjjjjjjjjjjjjjjjjjjjjjjjjjjjjjjj",
"jjjjjjjjjjjjjjjjjjjjjjjjjjjjjjjj",
"jjjjjjjjjjjjjjjjjjjjjjjjjjjjjjjj",
"jjjjjjjjjjjjjjjjjjjjjjjjjjjjjjjj",
"jjjjjjjjjjjjjjjjjjjjjjjjjjjjjjjj",
"jjjjjjjjjjjjjjjjjjjjjjjjjjjjjjjj",
"jjjjjjjjjjjjjjjjjjjjjjjjjjjjjjjj",
"jjjjjjjjjjjjjjjjjjjjjjjjjjjjjjjj",
"jjjjjjjjjjjjjaaaaajjjjjjjjjjjjjj",
"jjjjjjjjjjjpiuyyyuipjjjjjjjjjjjj",
"jjjjjjjjjjppq>*=*>qppjjjjjjjjjjj",
"jjjjjjjjjppw:O...O:wppjjjjjjjjjj",
"jjjjjjjjjiq:#14541#:qijjjjjjjjjj",
"jjjjjjjjau>O17sfs71O>uajjjjjjjjj",
"jjjjjjjjay&.38ghg83.&yajjjjjjjjj",
"jjjjjjjjau>O17dgd71O>uajjjjjjjjj",
"jjjjjjjjjiq:@17871@:qijjjjjjjjjj",
"jjjjjjjjjppw:#262#:wppjjjjjjjjjj",
"jjjjjjjjjjpp0%+<+%0ppjjjjjjjjjjj",
"jjjjjjjjjjjau-X,X-uajjjjjjjjjjjj",
"jjjjjjjjjjjjr-X,X-rjjjjjjjjjjjjj",
"jjjjjjjjjjjjr-X,X-rjjjjjjjjjjjjj",
"jjjjjjjjjjjjr-X,X-rjjjjjjjjjjjjj",
"jjjjjjjjjjjjr-.$.-rjjjjjjjjjjjjj",
"jjjjjjjjjjjje;o o;ejjjjjjjjjjjjj",
"jjjjjjjjjjjjt9;-;9tjjjjjjjjjjjjj",
"jjjjjjjjjjjjiteretijjjjjjjjjjjjj",
"jjjjjjjjjjjjjjjjjjjjjjjjjjjjjjjj",
"jjjjjjjjjjjjjjjjjjjjjjjjjjjjjjjj",
"jjjjjjjjjjjjjjjjjjjjjjjjjjjjjjjj",
"jjjjjjjjjjjjjjjjjjjjjjjjjjjjjjjj"
};
