/* XPM */
static char *result[] = {
/* columns rows colors chars-per-pixel */
"32 32 64 1 ",
"  c #D77D32",
". c #D37D36",
"X c #D37E36",
"o c #BE9328",
"O c #D89710",
"+ c #D89B17",
"@ c #D49A1A",
"# c #D49A1B",
"$ c #EF9E00",
"% c #EE9E02",
"& c #F09D00",
"* c #F09D01",
"= c #F09E00",
"- c #F19F00",
"; c #F29E00",
": c #E18B1D",
"> c #E18A1F",
", c #C39625",
"< c #D58032",
"1 c #E08A20",
"2 c #B28044",
"3 c #34708D",
"4 c #235DAB",
"5 c #1969A1",
"6 c #0366B5",
"7 c #0067B6",
"8 c #0167B6",
"9 c #0268B3",
"0 c #0066B8",
"q c #377FA5",
"w c #217CB9",
"e c #207CBA",
"r c #792CC9",
"t c #792CCA",
"y c #7137C5",
"u c #6D23DB",
"i c #6A22DD",
"p c #6D22DC",
"a c #6D23DC",
"s c #632ADC",
"d c #622BDC",
"f c #541DEE",
"g c #521BF6",
"h c #501FF5",
"j c #531DF6",
"k c #531CF7",
"l c #511FF6",
"z c #1C5BDE",
"x c #0374CF",
"c c #0475CD",
"v c #0575CE",
"b c #1169D8",
"n c #1268D8",
"m c #146ADF",
"M c #126CDE",
"N c #126DDE",
"B c #087ADA",
"V c #1E5FE1",
"C c #205FE0",
"Z c #1F60E0",
"A c #126AE0",
"S c #136AE0",
"D c #3480A6",
"F c None",
/* pixels */
"FFFFFFFFFFFFFFFFFFFFFFFFFFFFFFFF",
"FFFFFFFFFFFFFFFFFFFFFFFFFFFFFFFF",
"FFFFFFFFFFFFFFFFFFFFFFFFFFFFFFFF",
"FFFFFFFFFFFFFFFFFFFFFFFFFFFFFFFF",
"FFFFFFFFFFFFFFFFFFFFFFFFFFFFFFFF",
"FFFFFFFFFFFFFFAAAAAAAAAFFFFFFFFF",
"FFFFFFFFFFFFMZspaaaaapsZMFFFFFFF",
"FFFFFFFFFFFMjrX:>>>>>:XrjMFFFFFF",
"FFFFFFFFFFFVt =-------= tVFFFFFF",
"FFFFFFFFFFCy<*=========*<yCFFFFF",
"FFFFFFFFFAd.&===========&.dAFFFF",
"FFFFFFFFFAp:-===========-:pAFFFF",
"FFFFFFFFFAa>-===========->aAFFFF",
"FFFFFFFFFAa>-===========->aAFFFF",
"FFFFFFFFFAa>-===========->aAFFFF",
"FFFFFFFFFAa>-===========->aAFFFF",
"FFFFFFFFFAa>-===========->aAFFFF",
"FFFFFFFFFAa>-===========->aAFFFF",
"FFFFFFFFFAa>-===========->aAFFFF",
"FFFFFFFFFAa>-===========->aAFFFF",
"FFFFFFFFFAa>-===========->aAFFFF",
"FFFFFFFFFAa>-===========->aAFFFF",
"FFFFFFFFFAa>-===========->aAFFFF",
"FFFFFFFFFAa>-==;;;;;;;==->aAFFFF",
"FFFFFFFFFAa>-;%+#@@@#+%;->aAFFFF",
"FFFFFFFFFAa>$OoqewwweqoO$>aAFFFF",
"FFFFFFFFFAu1,35600000653,1uAFFFF",
"FFFFFFFFFSi2DvxcccccccxvD2iSFFFF",
"FFFFFFFFFmf497888888888794fmFFFF",
"FFFFFFFFFmgzbnnnnnnnnnnnbzgmFFFF",
"FFFFFFFFFNhklllllllllllllkhNFFFF",
"FFFFFFFFFBNmmmmmmmmmmmmmmmNBFFFF"
};
