/* XPM */
static char *result[] = {
/* columns rows colors chars-per-pixel */
"32 32 50 1 ",
"  c #FDE45E",
". c #FEE667",
"X c #FFE668",
"o c #FFE669",
"O c #FEE66A",
"+ c #FFE66A",
"@ c #FFE76D",
"# c #FDE978",
"$ c #FDE97C",
"% c #057AD9",
"& c #077DD9",
"* c #108ADC",
"= c #1A95DF",
"- c #1B97E0",
"; c #24A3E3",
": c #25A3E3",
"> c #5AE4F3",
", c #5AE5F3",
"< c #73EFF7",
"1 c #68F3F7",
"2 c #74F2F8",
"3 c #75F4F9",
"4 c #FFEB80",
"5 c #FFEB81",
"6 c #FFEB82",
"7 c #FFEB83",
"8 c #FFEB84",
"9 c #FFEC85",
"0 c #FFED8C",
"q c #FFED8D",
"w c #FFED8E",
"e c #8AFDF8",
"r c #8BFFF9",
"t c #8CFEFA",
"y c #8EFFFD",
"u c #91FFFD",
"i c #92FFFD",
"p c #9FFFFF",
"a c #E2F9DB",
"s c #E3F9DB",
"d c #FCF8D5",
"f c #F0F9D9",
"g c #E0FCEB",
"h c #ECFBE8",
"j c #EDFBE8",
"k c #EEFCE9",
"l c #EEFCEA",
"z c #EFFCEA",
"x c #F2FCEB",
"c c None",
/* pixels */
"cccccccccccccccccccccccccccccccc",
"cccccccccccccccccccccccccccccccc",
"cccccccccccccccccccccccccccccccc",
"cccccccccccccccccccccccccccccccc",
"cccccccccccccccccccccccccccccccc",
"cccccccccccccccccccccccccccccccc",
"cccccccccccccccccccccccccccccccc",
"cccccccccccccccccccccccccccccccc",
"cccccccccccccccccccccccccccccccc",
"cccccccccccccwwwwwcccccccccccccc",
"cccccccccccq0988890qcccccccccccc",
"ccccccccccq06@ooo@60qccccccccccc",
"cccccccccq05$fkkkf$50qcccccccccc",
"ccccccccc06$at2<2ta$60cccccccccc",
"ccccccccw9@ft>-*->tf@9wccccccccc",
"ccccccccw8ol3;&%&;3lo8wccccccccc",
"ccccccccw9@ft,=&=,tf@9wccccccccc",
"ccccccccc06$sr,:,rs$60cccccccccc",
"cccccccccq05$se1es$50qcccccccccc",
"ccccccccccqq4#gyg#4qqccccccccccc",
"cccccccccccw8XjijX8wcccccccccccc",
"cccccccccccc7+hih+7ccccccccccccc",
"cccccccccccc7+hih+7ccccccccccccc",
"cccccccccccc7+huh+7ccccccccccccc",
"cccccccccccc7OzpzO7ccccccccccccc",
"cccccccccccc7.dxd.7ccccccccccccc",
"cccccccccccc9 .O. 9ccccccccccccc",
"cccccccccccc0977790ccccccccccccc",
"cccccccccccccccccccccccccccccccc",
"cccccccccccccccccccccccccccccccc",
"cccccccccccccccccccccccccccccccc",
"cccccccccccccccccccccccccccccccc"
};
