/* XPM */
static char *result[] = {
/* columns rows colors chars-per-pixel */
"32 32 92 1 ",
"  c #000D17",
". c #000D18",
"X c #0C0727",
"o c #001322",
"O c #011B30",
"+ c #021D36",
"@ c #0E0A44",
"# c #003560",
"$ c #003762",
"% c #003863",
"& c #003864",
"* c #00316B",
"= c #003575",
"- c #00307E",
"; c #004071",
": c #004274",
"> c #00467D",
", c #00579E",
"< c #0D4FAE",
"1 c #0D4FAF",
"2 c #015AA0",
"3 c #0D50AE",
"4 c #0C51AE",
"5 c #164BBC",
"6 c #0D55B5",
"7 c #0158B1",
"8 c #0E5FBE",
"9 c #0165B3",
"0 c #0067B6",
"q c #0167B6",
"w c #0167B7",
"e c #0267B7",
"r c #0267B8",
"t c #056BBC",
"y c #0D21E6",
"u c #002BED",
"i c #002DEE",
"p c #002DEF",
"a c #002CF0",
"s c #0D24FF",
"d c #0C25FF",
"f c #0D25FF",
"g c #0E24FF",
"h c #002BFD",
"j c #002AFF",
"k c #012AFF",
"l c #1620FF",
"z c #1423FE",
"x c #1522FF",
"c c #1423FF",
"v c #1622FF",
"b c #0E31F3",
"n c #0038F2",
"m c #500BDA",
"M c #4717D3",
"N c #401BEF",
"B c #4813F6",
"V c #491EF7",
"C c #4A1EF7",
"Z c #4A15FB",
"A c #5010F2",
"S c #5110F5",
"D c #5011F5",
"F c #5011F6",
"G c #501BF2",
"H c #501FF5",
"J c #521CF6",
"K c #531CF6",
"L c #531CF7",
"P c #511FF6",
"I c #5015F9",
"U c #5014FA",
"Y c #5015FA",
"T c #4220F8",
"R c #0D52C2",
"E c #1D5BDD",
"W c #0470C5",
"Q c #0475CD",
"! c #0575CF",
"~ c #0674CF",
"^ c #0368DA",
"/ c #1169D8",
"( c #1268D8",
") c #146BDE",
"_ c #146ADF",
"` c #136CDE",
"' c #126DDE",
"] c #087ADA",
"[ c #1D5EE2",
"{ c #1C5FE2",
"} c #1D5FE2",
"| c None",
/* pixels */
"||||||||||||||||||||||||||||||||",
"||||||||||||||||||||||||||||||||",
"||||||||||||||||||||||||||||||||",
"||||||||||||||||||||||||||||||||",
"||||||||||||||||||||||||||||||||",
"||||||||||||||)))))))))|||||||||",
"||||||||||||`{CUYYYYYUC{`|||||||",
"|||||||||||`JZxsssssssxZJ`||||||",
"|||||||||||}ZljjjjjjjjjlZ}||||||",
"||||||||||[TcjjjjjjjjjjjcT[|||||",
"|||||||||)VvjjjjjjjjjjjjjvV)||||",
"|||||||||)UsjjjjjjjjjjjjjsU)||||",
"|||||||||)YsjjjjjjjjjjjjjsY)||||",
"|||||||||)YsjjjjjjjjjjjjjsY)||||",
"|||||||||)YsjjjjjjjjjjjjjsY)||||",
"|||||||||)YsjjjjjjjjjjjjjsY)||||",
"|||||||||)YsjjjjkdgdkjjjjsY)||||",
"|||||||||)YsjjjjzBSBzjjjjsY)||||",
"|||||||||)YsjjkzN545NzkjjsY)||||",
"|||||||||)YsjjdB5,>,5BdjjsY)||||",
"|||||||||)YsjjgD3:#:3DgjjsY)||||",
"|||||||||)YsjjsF<&o&<FsjjsY)||||",
"|||||||||)YshuyA<%.%<AyuhsY)||||",
"|||||||||)Ysa-@m1$ $1m@-asY)||||",
"|||||||||)Ysi*XM6;O;6MX*isY)||||",
"|||||||||)Ysp=+8~WtW~8+=psY)||||",
"|||||||||)Yfn729werew927nfY)||||",
"|||||||||)Ib^!!QQQQQQQ!!^bI)||||",
"|||||||||_GR0qqqqqqqqqqq0RG_||||",
"|||||||||_KE/(((((((((((/EK_||||",
"|||||||||'HLPPPPPPPPPPPPPLH'||||",
"|||||||||]'_______________']||||"
};
