/* XPM */
static char *result[] = {
/* columns rows colors chars-per-pixel */
"32 32 27 1 ",
"  c #5E0DFB",
". c #5F0FFB",
"X c #5519F7",
"o c #531EF6",
"O c #561AF8",
"+ c #6917FE",
"@ c #4A26F3",
"# c #4C26F4",
"$ c #4D26F4",
"% c #5E25FA",
"& c #6838FD",
"* c #136BDE",
"= c #1469DE",
"- c #126CDE",
"; c #136CDE",
": c #136FDE",
"> c #1E5DE2",
", c #1F5CE3",
"< c #1F5DE3",
"1 c #1D5EE2",
"2 c #1F77E2",
"3 c #5E44F9",
"4 c #62BFF7",
"5 c #6EB2FB",
"6 c #70B0FC",
"7 c #70F5FA",
"8 c None",
/* pixels */
"88888888888888888888888888888888",
"88888888888888888888888888888888",
"88888888888888888888888888888888",
"88888888888888888888888888888888",
"88888888888888888888888888888888",
"88888888888888888888888888888888",
"88888888888888888888888888888888",
"88888888888888888888888888888888",
"88888888888888888888888888888888",
"88888888888888888888888888888888",
"88888888888888888888888888888888",
"88888888888888888888888888888888",
"88888888888888*=*888888888888888",
"8888888888888*o%o*88888888888888",
"8888888888888:363:88888888888888",
"88888888888882474288888888888888",
"888888888888;$&5&#;8888888888888",
"8888888888888>.+O,88888888888888",
"8888888888888-X 1888888888888888",
"88888888888888<@*888888888888888",
"888888888888888;8888888888888888",
"88888888888888888888888888888888",
"88888888888888888888888888888888",
"88888888888888888888888888888888",
"88888888888888888888888888888888",
"88888888888888888888888888888888",
"88888888888888888888888888888888",
"88888888888888888888888888888888",
"88888888888888888888888888888888",
"88888888888888888888888888888888",
"88888888888888888888888888888888",
"88888888888888888888888888888888"
};
