/* XPM */
static char *result[] = {
/* columns rows colors chars-per-pixel */
"32 32 51 1 ",
"  c #FDDB2B",
". c #E8CC3B",
"X c #EACE3E",
"o c #EACF3F",
"O c #F1D230",
"+ c #F1D231",
"@ c #F3D430",
"# c #F2D433",
"$ c #ACA479",
"% c #FDDF42",
"& c #FDDF43",
"* c #FCDF44",
"= c #FEE145",
"- c #FDE046",
"; c #FEE146",
": c #FDE14B",
"> c #FDE14C",
", c #FDE14D",
"< c #6DFFF9",
"1 c #70FFF9",
"2 c #71FFF9",
"3 c #7FFFFB",
"4 c #A8A48F",
"5 c #B4AD85",
"6 c #B5AD85",
"7 c #ABA791",
"8 c #ACA792",
"9 c #ADA792",
"0 c #ADA891",
"q c #ADA992",
"w c #BDB691",
"e c #B5B19D",
"r c #8BFFFA",
"t c #8EFFFB",
"y c #9BFFFB",
"u c #9BFFFC",
"i c #D8D9DE",
"p c #DFF1F2",
"a c #E3E3E6",
"s c #E3E4E7",
"d c #E4E4E7",
"f c #E8E7EA",
"g c #E7E8E8",
"h c #E9EAE9",
"j c #EAEAE9",
"k c #E3F2F3",
"l c #E5F2F4",
"z c #E1FFFE",
"x c #E2FFFE",
"c c #F0FDFD",
"v c None",
/* pixels */
"vvvvvvvvvvvvvvvvvvvvvvvvvvvvvvvv",
"vvvvvvvvvvvvvvvvvvvvvvvvvvvvvvvv",
"vvvvvvvvvvvvvvvvvvvvvvvvvvvvvvvv",
"vvvvvvvvvvvvvvvvvvvvvvvvvvvvvvvv",
"vvvvvvvvvvvvvvvvvvvvvvvvvvvvvvvv",
"vvvvvvvvvvvvvvvvvvvvvvvvvvvvvvvv",
"vvvvvvvvvvvvvvvvvvvvvvvvvvvvvvvv",
"vvvvvvvvvvvvvvvvvvvvvvvvvvvvvvvv",
"vvvvvvvvvvvvvvvvvvvvvvvvvvvvvvvv",
"vvvvvvvvvvvvv>>>>>vvvvvvvvvvvvvv",
"vvvvvvvvvvv>:;;;;;:>vvvvvvvvvvvv",
"vvvvvvvvvv>>*#O+O#*>>vvvvvvvvvvv",
"vvvvvvvvv>>&o59095o&>>vvvvvvvvvv",
"vvvvvvvvv:*owgkpkgwo*:vvvvvvvvvv",
"vvvvvvvv>;#6gzt3tzg6#;>vvvvvvvvv",
"vvvvvvvv>;O8lu1<1ul8O;>vvvvvvvvv",
"vvvvvvvv>;#6gxr2rxg6#;>vvvvvvvvv",
"vvvvvvvvv:*owjzyzjwo*:vvvvvvvvvv",
"vvvvvvvvv>>&XwhchwX&>>vvvvvvvvvv",
"vvvvvvvvvv>>%.efe.%>>vvvvvvvvvvv",
"vvvvvvvvvvv,;O0a0O;,vvvvvvvvvvvv",
"vvvvvvvvvvvv=+qsq+=vvvvvvvvvvvvv",
"vvvvvvvvvvvv=+qsq+=vvvvvvvvvvvvv",
"vvvvvvvvvvvv=+qdq+=vvvvvvvvvvvvv",
"vvvvvvvvvvvv=+7i7+=vvvvvvvvvvvvv",
"vvvvvvvvvvvv=@$4$@=vvvvvvvvvvvvv",
"vvvvvvvvvvvv- @+@ -vvvvvvvvvvvvv",
"vvvvvvvvvvvv:-===-:vvvvvvvvvvvvv",
"vvvvvvvvvvvvvvvvvvvvvvvvvvvvvvvv",
"vvvvvvvvvvvvvvvvvvvvvvvvvvvvvvvv",
"vvvvvvvvvvvvvvvvvvvvvvvvvvvvvvvv",
"vvvvvvvvvvvvvvvvvvvvvvvvvvvvvvvv"
};
