/* XPM */
static char *result[] = {
/* columns rows colors chars-per-pixel */
"32 32 37 1 ",
"  c black",
". c #010100",
"X c #050400",
"o c #060500",
"O c #0A0900",
"+ c #0B0900",
"@ c #0B0A00",
"# c #0C0A00",
"$ c #100E00",
"% c #302900",
"& c #352D00",
"* c #362E00",
"= c #372F00",
"- c #382F00",
"; c #383000",
": c #3E3400",
"> c #423800",
", c #6F5E00",
"< c #756300",
"1 c #766300",
"2 c #766400",
"3 c #776400",
"4 c #766401",
"5 c #776401",
"6 c #7E6B01",
"7 c #857101",
"8 c #B19503",
"9 c #B29603",
"0 c #B79A03",
"q c #B79B03",
"w c #B89B04",
"e c #B89C04",
"r c #B99C04",
"t c #C0A204",
"y c #C1A304",
"u c #C2A404",
"i c None",
/* pixels */
"iiiiiiiiiiiiiiiiiiiiiiiiiiiiiiii",
"iiiiiiiiiiiiiiiiiiiiiiiiiiiiiiii",
"iiiiiiiiiiiiiiiiiiiiiiiiiiiiiiii",
"iiiiiiiiiiiiiiiiiiiiiiiiiiiiiiii",
"iiiiiiiiiiiiiiiiiiiiiiiiiiiiiiii",
"iiiiiiiiiiiiiiiiiiiiiiiiiiiiiiii",
"iiiiiiiiiiiiiiiiiiiiiiiiiiiiiiii",
"iiiiiiiiiiiiiiiiiiiiiiiiiiiiiiii",
"iiiiiiiiiiiiiiiiiiiiiiiiiiiiiiii",
"iiiiiiiiiiiiiuuuuuiiiiiiiiiiiiii",
"iiiiiiiiiiiytreeertyiiiiiiiiiiii",
"iiiiiiiiiiyy9612169yyiiiiiiiiiii",
"iiiiiiiiiyy94:***:49yyiiiiiiiiii",
"iiiiiiiiit94-@ooo@-49tiiiiiiiiii",
"iiiiiiiiur6:@     @:6ruiiiiiiiii",
"iiiiiiiiue<&X     X&<euiiiiiiiii",
"iiiiiiiiur6:@     @:6ruiiiiiiiii",
"iiiiiiiiit94-+   +-49tiiiiiiiiii",
"iiiiiiiiiyy95;+.+;59yyiiiiiiiiii",
"iiiiiiiiiiyy8,%O%,8yyiiiiiiiiiii",
"iiiiiiiiiiiur3*#*3ruiiiiiiiiiiii",
"iiiiiiiiiiiiq5*#*5qiiiiiiiiiiiii",
"iiiiiiiiiiiiq5*#*5qiiiiiiiiiiiii",
"iiiiiiiiiiiiq5*#*5qiiiiiiiiiiiii",
"iiiiiiiiiiiiq5*$*5qiiiiiiiiiiiii",
"iiiiiiiiiiii03>=>30iiiiiiiiiiiii",
"iiiiiiiiiiiiw73537wiiiiiiiiiiiii",
"iiiiiiiiiiiitw0q0wtiiiiiiiiiiiii",
"iiiiiiiiiiiiiiiiiiiiiiiiiiiiiiii",
"iiiiiiiiiiiiiiiiiiiiiiiiiiiiiiii",
"iiiiiiiiiiiiiiiiiiiiiiiiiiiiiiii",
"iiiiiiiiiiiiiiiiiiiiiiiiiiiiiiii"
};
