/* XPM */
static char *result[] = {
/* columns rows colors chars-per-pixel */
"32 32 88 1 ",
"  c #5E0BFB",
". c #5F0CFB",
"X c #5D0FFA",
"o c #551BF7",
"O c #521CF6",
"+ c #531EF6",
"@ c #5C10FA",
"# c #6900FF",
"$ c #6A00FF",
"% c #6804FE",
"& c #6A1DFE",
"* c #5320F6",
"= c #5F26FA",
"- c #5F28FA",
"; c #5E29FA",
": c #5E2AFA",
"> c #5D2EF9",
", c #5E2DFA",
"< c #5E2EFA",
"1 c #5534F6",
"2 c #5535F6",
"3 c #5534F7",
"4 c #5536F6",
"5 c #5538F6",
"6 c #6920FE",
"7 c #6937FD",
"8 c #6A36FE",
"9 c #603FFA",
"0 c #1369DE",
"q c #126ADE",
"w c #126BDE",
"e c #136BDE",
"r c #1469DE",
"t c #116CDD",
"y c #116FDD",
"u c #136CDE",
"i c #057BD9",
"p c #077BD9",
"a c #077ADA",
"s c #057DD9",
"d c #067CD9",
"f c #057ED8",
"g c #067ED9",
"h c #077ED9",
"j c #1070DD",
"k c #1073DD",
"l c #1D5DE2",
"z c #1C5EE2",
"x c #1B60E1",
"c c #1D60E2",
"v c #1D61E2",
"b c #1E60E2",
"n c #1E62E2",
"m c #1C7FE1",
"M c #574AF7",
"N c #6043FA",
"B c #1186DC",
"V c #138CDD",
"C c #1B96DF",
"Z c #1C98E0",
"A c #1D9BE0",
"S c #58C7F3",
"D c #6FC3FB",
"F c #6DC5FA",
"G c #6FC7FB",
"H c #6DC9FA",
"J c #6EC8FB",
"K c #6FC8FB",
"L c #6DCAFA",
"P c #6ECDFA",
"I c #6DCEFA",
"U c #6FDFFA",
"Y c #5AE1F3",
"T c #5AE5F3",
"R c #5AE6F2",
"E c #6EE0FA",
"W c #6FE1FA",
"Q c #6EE2FA",
"! c #6FE3FA",
"~ c #6EE4FA",
"^ c #6FE5FA",
"/ c #6EE6FA",
"( c #64F4F6",
") c #6FFDF9",
"_ c #6FFEF9",
"` c #6EFFF9",
"' c #6FFFF9",
"] c None",
/* pixels */
"]]]]]]]]]]]]]]]]]]]]]]]]]]]]]]]]",
"]]]]]]]]]]]]]]]]]]]]]]]]]]]]]]]]",
"]]]]]]]]]]]]]]]]]]]]]]]]]]]]]]]]",
"]]]]]]]]]]]]]]]]]]]]]]]]]]]]]]]]",
"]]]]]]]]]]]]]]]]]]]]]]]]]]]]]]]]",
"]]]]]]]]]]]]]]e00000000]]]]]]]]]",
"]]]]]]]]]]]]ulo:>>>>><2n]]]]]]]]",
"]]]]]]]]]]]u+=7KWUUUUWF1q]]]]]]]",
"]]]]]]]]]]]c9G/)''''''^Nv]]]]]]]",
"]]]]]]]]]]bMI_'''''''')L30]]]]]]",
"]]]]]]]]]02H_''''''''''W,r]]]]]]",
"]]]]]]]]]0<!'')~EE~)'''Q50]]]]]]",
"]]]]]]]]]0:DWWJ8&&8P)''Ym]]]]]]]",
"]]]]]]]]]e*;<<-%###8~`TCg]]]]]]]",
"]]]]]]]]]]ewwtz.$$$&W(Zd]]]]]]]]",
"]]]]]]]]]]]ssfjOX@ 6ERV]]]]]]]]]",
"]]]]]]]]]]]]]dayeux4SA]]]]]]]]]]",
"]]]]]]]]]]]]]]ds]]pkBh]]]]]]]]]]",
"]]]]]]]]]]]]]]]]]]dsi]]]]]]]]]]]",
"]]]]]]]]]]]]]]]]]]d]]]]]]]]]]]]]",
"]]]]]]]]]]]]]]]]]]]]]]]]]]]]]]]]",
"]]]]]]]]]]]]]]]]]]]]]]]]]]]]]]]]",
"]]]]]]]]]]]]]]]]]]]]]]]]]]]]]]]]",
"]]]]]]]]]]]]]]]]]]]]]]]]]]]]]]]]",
"]]]]]]]]]]]]]]]]]]]]]]]]]]]]]]]]",
"]]]]]]]]]]]]]]]]]]]]]]]]]]]]]]]]",
"]]]]]]]]]]]]]]]]]]]]]]]]]]]]]]]]",
"]]]]]]]]]]]]]]]]]]]]]]]]]]]]]]]]",
"]]]]]]]]]]]]]]]]]]]]]]]]]]]]]]]]",
"]]]]]]]]]]]]]]]]]]]]]]]]]]]]]]]]",
"]]]]]]]]]]]]]]]]]]]]]]]]]]]]]]]]",
"]]]]]]]]]]]]]]]]]]]]]]]]]]]]]]]]"
};
