/* XPM */
static char *result[] = {
/* columns rows colors chars-per-pixel */
"32 32 49 1 ",
"  c #74A561",
". c #96D627",
"X c #95D32A",
"o c #95D32B",
"O c #96D529",
"+ c #95D628",
"@ c #95D42A",
"# c #86CD3B",
"$ c #84CA3F",
"% c #8FB946",
"& c #91BB43",
"* c #90BA44",
"= c #91BA44",
"- c #8BA757",
"; c #8BAC53",
": c #8BA857",
"> c #8EA954",
", c #84CA40",
"< c #1B62AF",
"1 c #0066B7",
"2 c #0168B4",
"3 c #6736D2",
"4 c #521DEF",
"5 c #521BF6",
"6 c #501FF5",
"7 c #531DF6",
"8 c #531CF7",
"9 c #511FF6",
"0 c #5930E1",
"q c #6229E0",
"w c #6229E1",
"e c #6028E2",
"r c #1C5ADE",
"t c #1169D8",
"y c #1268D8",
"u c #146ADF",
"i c #126CDE",
"p c #126DDE",
"a c #087ADA",
"s c #1D60E1",
"d c #1F60E0",
"f c #1E61E0",
"g c #1369E0",
"h c #136AE0",
"j c #5F41CE",
"k c #1683BE",
"l c #1682BF",
"z c #248CAD",
"x c None",
/* pixels */
"xxxxxxxxxxxxxxxxxxxxxxxxxxxxxxxx",
"xxxxxxxxxxxxxxxxxxxxxxxxxxxxxxxx",
"xxxxxxxxxxxxxxxxxxxxxxxxxxxxxxxx",
"xxxxxxxxxxxxxxxxxxxxxxxxxxxxxxxx",
"xxxxxxxxxxxxxxxxxxxxxxxxxxxxxxxx",
"xxxxxxxxxxxxxxhggggggghxxxxxxxxx",
"xxxxxxxxxxxxif0wwwwwww0fixxxxxxx",
"xxxxxxxxxxxi73:&*****&:37ixxxxxx",
"xxxxxxxxxxxs3>@+++++++@>3sxxxxxx",
"xxxxxxxxxxdj;o@@@@@@@@@o;jdxxxxx",
"xxxxxxxxxh0-X@@@@@@@@@@@X-0hxxxx",
"xxxxxxxxxgw&+@@@@@@@@@@@+&wgxxxx",
"xxxxxxxxxgw*+@@@@@@@@@@@+*wgxxxx",
"xxxxxxxxxgw*+@@@@@@@@@@@+*wgxxxx",
"xxxxxxxxxgw*+@@@@@@@@@@@+*wgxxxx",
"xxxxxxxxxgw*+@@@@@@@@@@@+*wgxxxx",
"xxxxxxxxxgw*+@@@@@@@@@@@+*wgxxxx",
"xxxxxxxxxgw*+@@@@@@@@@@@+*wgxxxx",
"xxxxxxxxxgw*+@@@@@@@@@@@+*wgxxxx",
"xxxxxxxxxgw*+@@@@@@@@@@@+*wgxxxx",
"xxxxxxxxxgw*+@@@@@@@@@@@+*wgxxxx",
"xxxxxxxxxgw*+@@@@@@@@@@@+*wgxxxx",
"xxxxxxxxxgw*+@@@@@@@@@@@+*wgxxxx",
"xxxxxxxxxgw*+@@@@@@@@@@@+*wgxxxx",
"xxxxxxxxxgw*+@@@@@@@@@@@+*wgxxxx",
"xxxxxxxxxgw=.OOOOOOOOOOO.=wgxxxx",
"xxxxxxxxxgq%#,$$$$$$$$$,#%qgxxxx",
"xxxxxxxxxge zlkkkkkkkkklz egxxxx",
"xxxxxxxxxu4<2111111111112<4uxxxx",
"xxxxxxxxxu5rtyyyyyyyyyyytr5uxxxx",
"xxxxxxxxxp68999999999999986pxxxx",
"xxxxxxxxxapuuuuuuuuuuuuuuupaxxxx"
};
