/* XPM */
static char *result[] = {
/* columns rows colors chars-per-pixel */
"32 32 30 1 ",
"  c #207F72",
". c #237B75",
"X c #0CA24A",
"o c #0CA24B",
"O c #0CA449",
"+ c #0DA04C",
"@ c #0DA14C",
"# c #0DA04D",
"$ c #188E61",
"% c #198D62",
"& c #1E836F",
"* c #20806F",
"= c #208071",
"- c #4D2CD8",
"; c #4437D4",
": c #521DF6",
"> c #4B2AE4",
", c #4B2BE4",
"< c #5123E5",
"1 c #5222E5",
"2 c #5320E8",
"3 c #5020F3",
"4 c #136CDE",
"5 c #126DDE",
"6 c #087ADA",
"7 c #1D5FE0",
"8 c #1D5FE1",
"9 c #1C60E0",
"0 c #146AE0",
"q c None",
/* pixels */
"qqqqqqqqqqqqqqqqqqqqqqqqqqqqqqqq",
"qqqqqqqqqqqqqqqqqqqqqqqqqqqqqqqq",
"qqqqqqqqqqqqqqqqqqqqqqqqqqqqqqqq",
"qqqqqqqqqqqqqqqqqqqqqqqqqqqqqqqq",
"qqqqqqqqqqqqqqqqqqqqqqqqqqqqqqqq",
"qqqqqqqqqqqqqq000000000qqqqqqqqq",
"qqqqqqqqqqqq49>1<<<<<1>94qqqqqqq",
"qqqqqqqqqqq4:-=$%%%%%$=-:4qqqqqq",
"qqqqqqqqqqq8-*@XoooooX@*-8qqqqqq",
"qqqqqqqqqq7;&#@@@@@@@@@#&;7qqqqq",
"qqqqqqqqq0, +@@@@@@@@@@@+ ,0qqqq",
"qqqqqqqqq01$X@@@@@@@@@@@X$10qqqq",
"qqqqqqqqq0<%o@@@@@@@@@@@o%<0qqqq",
"qqqqqqqqq0<%o@@@@@@@@@@@o%<0qqqq",
"qqqqqqqqq0<%o@@@@@@@@@@@o%<0qqqq",
"qqqqqqqqq0<%o@@@@@@@@@@@o%<0qqqq",
"qqqqqqqqq0<%o@@@@@@@@@@@o%<0qqqq",
"qqqqqqqqq0<%o@@@@@@@@@@@o%<0qqqq",
"qqqqqqqqq0<%o@@@@@@@@@@@o%<0qqqq",
"qqqqqqqqq0<%o@@@@@@@@@@@o%<0qqqq",
"qqqqqqqqq0<%o@@@@@@@@@@@o%<0qqqq",
"qqqqqqqqq0<%o@@@@@@@@@@@o%<0qqqq",
"qqqqqqqqq0<%o@@@@@@@@@@@o%<0qqqq",
"qqqqqqqqq0<%o@@@@@@@@@@@o%<0qqqq",
"qqqqqqqqq0<%o@@@@@@@@@@@o%<0qqqq",
"qqqqqqqqq0<%o@@@@@@@@@@@o%<0qqqq",
"qqqqqqqqq0<%o@@@@@@@@@@@o%<0qqqq",
"qqqqqqqqq0<%o@@@@@@@@@@@o%<0qqqq",
"qqqqqqqqq0<$OoooooooooooO$<0qqqq",
"qqqqqqqqq02.$%%%%%%%%%%%$.20qqqq",
"qqqqqqqqq532<<<<<<<<<<<<<235qqqq",
"qqqqqqqqq6500000000000000056qqqq"
};
