/* XPM */
static char *result[] = {
/* columns rows colors chars-per-pixel */
"32 32 55 1 ",
"  c #AEC837",
". c #AAC639",
"X c #ABC639",
"o c #C2D32A",
"O c #C2D32B",
"+ c #C1D429",
"@ c #C3D529",
"# c #C3D628",
"$ c #C2D42A",
"% c #C4D529",
"& c #B9BB43",
"* c #B8BA44",
"= c #B8BA45",
"- c #AFA757",
"; c #AEA857",
": c #B0AC53",
"> c #B2A954",
", c #93A561",
"< c #9DC247",
"1 c #2A7B96",
"2 c #1F62AF",
"3 c #1770A2",
"4 c #1871A1",
"5 c #0067B6",
"6 c #0167B6",
"7 c #0269B4",
"8 c #7036D2",
"9 c #531DEF",
"0 c #521BF6",
"q c #501FF5",
"w c #531DF6",
"e c #531CF7",
"r c #511FF6",
"t c #5E30E1",
"y c #6729E0",
"u c #6729E1",
"i c #6528E2",
"p c #6829E1",
"a c #1C5ADE",
"s c #0374CF",
"d c #0575CE",
"f c #1169D8",
"g c #1268D8",
"h c #146ADF",
"j c #126CDE",
"k c #126DDE",
"l c #087ADA",
"z c #1D60E1",
"x c #1F60E0",
"c c #1E61E0",
"v c #1369E0",
"b c #126AE0",
"n c #6841CE",
"m c #2B8BAF",
"M c None",
/* pixels */
"MMMMMMMMMMMMMMMMMMMMMMMMMMMMMMMM",
"MMMMMMMMMMMMMMMMMMMMMMMMMMMMMMMM",
"MMMMMMMMMMMMMMMMMMMMMMMMMMMMMMMM",
"MMMMMMMMMMMMMMMMMMMMMMMMMMMMMMMM",
"MMMMMMMMMMMMMMMMMMMMMMMMMMMMMMMM",
"MMMMMMMMMMMMMMbvvvvvvvbMMMMMMMMM",
"MMMMMMMMMMMMjctpuuuuuptcjMMMMMMM",
"MMMMMMMMMMMjw8;&*****&;8wjMMMMMM",
"MMMMMMMMMMMz8>$#######$>8zMMMMMM",
"MMMMMMMMMMxn:O$$$$$$$$$O:nxMMMMM",
"MMMMMMMMMbt-o$$$$$$$$$$$o-tbMMMM",
"MMMMMMMMMvp&#$$$$$$$$$$$#&pvMMMM",
"MMMMMMMMMvu*#$$$$$$$$$$$#*uvMMMM",
"MMMMMMMMMvu*#$$$$$$$$$$$#*uvMMMM",
"MMMMMMMMMvu*#$$$$$$$$$$$#*uvMMMM",
"MMMMMMMMMvu*#$$$$$$$$$$$#*uvMMMM",
"MMMMMMMMMvu*#$$$$$$$$$$$#*uvMMMM",
"MMMMMMMMMvu*#$$$$$$$$$$$#*uvMMMM",
"MMMMMMMMMvu*#$$$$$$$$$$$#*uvMMMM",
"MMMMMMMMMvu*#$$$$$$$$$$$#*uvMMMM",
"MMMMMMMMMvu*#$$$$$$$$$$$#*uvMMMM",
"MMMMMMMMMvu*#$$$$$$$$$$$#*uvMMMM",
"MMMMMMMMMvu*#$$$$$$$$$$$#*uvMMMM",
"MMMMMMMMMvu*#$$$$$$$$$$$#*uvMMMM",
"MMMMMMMMMvu*#@%%%%%%%%%@#*uvMMMM",
"MMMMMMMMMvu*+ .XXXXXXX. +*uvMMMM",
"MMMMMMMMMvy=<13444444431<=yvMMMM",
"MMMMMMMMMvi,mdsssssssssdm,ivMMMM",
"MMMMMMMMMh92756666666665729hMMMM",
"MMMMMMMMMh0afgggggggggggfa0hMMMM",
"MMMMMMMMMkqerrrrrrrrrrrrreqkMMMM",
"MMMMMMMMMlkhhhhhhhhhhhhhhhklMMMM"
};
