/* XPM */
static char *result[] = {
/* columns rows colors chars-per-pixel */
"32 32 38 1 ",
"  c #25CA7E",
". c #24CC7D",
"X c #2AD372",
"o c #2AD571",
"O c #29D671",
"+ c #2AD670",
"@ c #2AD671",
"# c #2AD472",
"$ c #521BF7",
"% c #531DF5",
"& c #521DF6",
"* c #501EF6",
"= c #501FF6",
"- c #5529E9",
"; c #5428EB",
": c #4E30E8",
"> c #5236E0",
", c #1469DF",
"< c #146ADF",
"1 c #136CDE",
"2 c #126DDE",
"3 c #087ADA",
"4 c #1777D1",
"5 c #1678D1",
"6 c #2267D7",
"7 c #1D60E1",
"8 c #1D61E1",
"9 c #1D60E2",
"0 c #4A41DC",
"q c #36A88F",
"w c #35AC8D",
"e c #38A98E",
"r c #2EB18E",
"t c #32BB82",
"y c #32BA83",
"u c #33BA83",
"i c #37A790",
"p c None",
/* pixels */
"pppppppppppppppppppppppppppppppp",
"pppppppppppppppppppppppppppppppp",
"pppppppppppppppppppppppppppppppp",
"pppppppppppppppppppppppppppppppp",
"pppppppppppppppppppppppppppppppp",
"pppppppppppppp<,,,,,,,<ppppppppp",
"pppppppppppp18:-------:81ppppppp",
"ppppppppppp1&>qtyyyyytq>&1pppppp",
"ppppppppppp9>e#O@@@@@O#e>9pppppp",
"pppppppppp70wX#########Xw07ppppp",
"ppppppppp<:iX###########Xi:<pppp",
"ppppppppp,-tO###########Ot-,pppp",
"ppppppppp,-y@###########@y-,pppp",
"ppppppppp,-y@###########@y-,pppp",
"ppppppppp,-y@###########@y-,pppp",
"ppppppppp,-y@###########@y-,pppp",
"ppppppppp,-y@###########@y-,pppp",
"ppppppppp,-y@###########@y-,pppp",
"ppppppppp,-y@###########@y-,pppp",
"ppppppppp,-y@###########@y-,pppp",
"ppppppppp,-y@###########@y-,pppp",
"ppppppppp,-y@###########@y-,pppp",
"ppppppppp,-y@###########@y-,pppp",
"ppppppppp,-y@###########@y-,pppp",
"ppppppppp,-y@###########@y-,pppp",
"ppppppppp,-y@###########@y-,pppp",
"ppppppppp,-y@###########@y-,pppp",
"ppppppppp,-u+ooooooooooo+u-,pppp",
"ppppppppp,;r.           .r;,pppp",
"ppppppppp<%654444444444456%<pppp",
"ppppppppp2=$*************$=2pppp",
"ppppppppp32<<<<<<<<<<<<<<<23pppp"
};
