/* XPM */
static char *result[] = {
/* columns rows colors chars-per-pixel */
"32 32 74 1 ",
"  c #531BF7",
". c #541CF7",
"X c #5614F8",
"o c #5E12FB",
"O c #5619F8",
"+ c #561AF8",
"@ c #691AFE",
"# c #4A27F3",
"$ c #5320F6",
"% c #5E29FA",
"& c #5E2AFA",
"* c #5E2BFA",
"= c #582FF8",
"- c #5D2EF9",
"; c #5F2DFA",
": c #5E2EFA",
"> c #5533F6",
", c #5532F7",
"< c #5535F6",
"1 c #5534F7",
"2 c #5536F7",
"3 c #5D30F9",
"4 c #5E30FA",
"5 c #6920FE",
"6 c #6A2FFE",
"7 c #6A34FE",
"8 c #6938FD",
"9 c #6B39FE",
"0 c #1369DE",
"q c #126ADE",
"w c #126BDE",
"e c #136BDE",
"r c #1469DE",
"t c #116EDD",
"y c #126CDE",
"u c #067BD9",
"i c #067CD9",
"p c #087ADA",
"a c #1D5DE2",
"s c #1E5CE2",
"d c #1E5DE2",
"f c #1E5EE2",
"g c #1E5FE2",
"h c #2753E6",
"j c #1D61E2",
"k c #1E60E2",
"l c #1D62E2",
"z c #1C64E1",
"x c #5649F6",
"c c #574AF6",
"v c #5F43FA",
"b c #6142FA",
"n c #6043FA",
"m c #6B98FB",
"M c #6EADFB",
"N c #6EAEFB",
"B c #6DB4FB",
"V c #6FC1FB",
"C c #6EC2FB",
"Z c #6FC4FB",
"A c #6FC5FB",
"S c #6FC6FB",
"D c #6DC9FA",
"F c #6EC8FA",
"G c #6DCAFA",
"H c #6DCBFA",
"J c #6DCDFA",
"K c #6DD0FA",
"L c #6FDDFA",
"P c #6FE1FA",
"I c #6FE5FA",
"U c #6FFDF9",
"Y c #6FFFF9",
"T c None",
/* pixels */
"TTTTTTTTTTTTTTTTTTTTTTTTTTTTTTTT",
"TTTTTTTTTTTTTTTTTTTTTTTTTTTTTTTT",
"TTTTTTTTTTTTTTTTTTTTTTTTTTTTTTTT",
"TTTTTTTTTTTTTTTTTTTTTTTTTTTTTTTT",
"TTTTTTTTTTTTTTTTTTTTTTTTTTTTTTTT",
"TTTTTTTTTTTTTTTTTTTTTTTTTTTTTTTT",
"TTTTTTTTTTTTTTTTTTTTTTTTTTTTTTTT",
"TTTTTTTTTTTTTTTTTTTTTTTTTTTTTTTT",
"TTTTTTTTTTTTTTTTTTTTTTTTTTTTTTTT",
"TTTTTTTTTTTTTTTTTTTTTTTTTTTTTTTT",
"TTTTTTTTTTTTTTTTTTTTTTTTTTTTTTTT",
"TTTTTTTTTTTTTTTTTTTTTTTTTTTTTTTT",
"TTTTTTTTTTTTTTTTTTTTTTTTTTTTTTTT",
"TTTTTTTTTTTTTTTTTTTTTTTTTTTTTTTT",
"TTTTTTTTTTTTTTiTTTTTTTTTTTTTTTTT",
"TTTTTTTTTTTTtpTTTTTTTTTTTTTTTTTT",
"TTTTTTTTTTwd#yTTTTTTTTTTTTTTTTTT",
"TTTTTTTTuz,o eTTTTTTTTTTTTTTTTTT",
"TTTTTTTTzxm=sTTTTTTTTTTTTTTTTTTT",
"TTTTTTT02NvlTTTT0000eTTTTTTTTTTT",
"TTTTTTT04V;aTTTk<:-&$eTTTTTTTTTT",
"TTTTTTT03C5XfTgcDPPA%rTTTTTTTTTT",
"TTTTTTT0*M9@+hcJYYYH<0TTTTTTTTTT",
"TTTTTTTe.6BF8bKYUIDckTTTTTTTTTTT",
"TTTTTTTTdO7SSZLPGn>kTTTTTTTTTTTT",
"TTTTTTTTTd.&33-:1jqTTTTTTTTTTTTT",
"TTTTTTTTTTe000000TTTTTTTTTTTTTTT",
"TTTTTTTTTTTTTTTTTTTTTTTTTTTTTTTT",
"TTTTTTTTTTTTTTTTTTTTTTTTTTTTTTTT",
"TTTTTTTTTTTTTTTTTTTTTTTTTTTTTTTT",
"TTTTTTTTTTTTTTTTTTTTTTTTTTTTTTTT",
"TTTTTTTTTTTTTTTTTTTTTTTTTTTTTTTT"
};
