/* XPM */
static char *result[] = {
/* columns rows colors chars-per-pixel */
"32 32 27 1 ",
"  c #531BF6",
". c #531BF7",
"X c #5419F7",
"o c #501FF5",
"O c #501FF6",
"+ c #5617F8",
"@ c #5D11FA",
"# c #5D12FA",
"$ c #6701FE",
"% c #6903FF",
"& c #6A16FF",
"* c #4928F3",
"= c #5020F5",
"- c #5D26FA",
"; c #6C33FE",
": c #6B34FE",
"> c #1369DE",
", c #136BDE",
"< c #146ADE",
"1 c #146BDE",
"2 c #146ADF",
"3 c #136CDE",
"4 c #1E5EE2",
"5 c #6DB3FB",
"6 c #6EB2FB",
"7 c #6FF6F9",
"8 c None",
/* pixels */
"88888888888888888888888888888888",
"88888888888888888888888888888888",
"88888888888888888888888888888888",
"88888888888888888888888888888888",
"88888888888888888888888888888888",
"88888888888888888888888888888888",
"88888888888888888888888888888888",
"88888888888888888888888888888888",
"88888888888888888888888888888888",
"88888888888888888888888888888888",
"88888888888888888888888888888888",
"88888888888888888888888888888888",
"8888888888888,1>1,88888888888888",
"888888888888, @-@ ,8888888888888",
"8888888888881@;6;@18888888888888",
"888888888888>-676->8888888888888",
"8888888888881#:5:#18888888888888",
"8888888888883X%&%X38888888888888",
"88888888888884+$+488888888888888",
"888888888888884.4888888888888888",
"888888888888881=1888888888888888",
"888888888888882o2888888888888888",
"888888888888882o2888888888888888",
"888888888888882O2888888888888888",
"88888888888888<*<888888888888888",
"88888888888888838888888888888888",
"88888888888888888888888888888888",
"88888888888888888888888888888888",
"88888888888888888888888888888888",
"88888888888888888888888888888888",
"88888888888888888888888888888888",
"88888888888888888888888888888888"
};
