/* XPM */
static char *result[] = {
/* columns rows colors chars-per-pixel */
"32 32 87 1 ",
"  c #000D17",
". c #000D18",
"X c #001322",
"o c #011B30",
"O c #003560",
"+ c #003762",
"@ c #003863",
"# c #003864",
"$ c #004071",
"% c #004274",
"& c #00467D",
"* c #00579E",
"= c #0C4FAE",
"- c #0B51AF",
"; c #0C50AE",
": c #164BBC",
"> c #0B55B4",
", c #1A54BE",
"< c #1F5CB8",
"1 c #0167B5",
"2 c #0067B6",
"3 c #0167B6",
"4 c #0167B7",
"5 c #0366B6",
"6 c #0267B7",
"7 c #0F60B5",
"8 c #0267B8",
"9 c #056BBC",
"0 c #5C1FE5",
"q c #581FED",
"w c #521BF1",
"e c #501FF5",
"r c #521CF6",
"t c #531CF6",
"y c #531CF7",
"u c #511FF6",
"i c #6618EC",
"p c #6013F0",
"a c #6113F0",
"s c #6114F0",
"d c #6117F4",
"f c #661AF1",
"g c #661AF2",
"h c #6018F4",
"j c #6118F4",
"k c #5E24EE",
"l c #5920F2",
"z c #5821F2",
"x c #1C5BDD",
"c c #0470C5",
"v c #0573CE",
"b c #0375CD",
"n c #0475CD",
"m c #0575CE",
"M c #1D66D5",
"N c #1169D8",
"B c #1268D8",
"V c #136BDE",
"C c #136ADF",
"Z c #146ADF",
"A c #126CDE",
"S c #126DDE",
"D c #087ADA",
"F c #206DD0",
"G c #1E5FE1",
"H c #1D5FE2",
"J c #1F5EE2",
"K c #7049CB",
"L c #734BCC",
"P c #6F41D1",
"I c #8635D7",
"U c #8A38D4",
"Y c #8B38D4",
"T c #8A38D5",
"R c #8A39D5",
"E c #8A3AD4",
"W c #8B3AD4",
"Q c #8534D8",
"! c #8634D8",
"~ c #8833D8",
"^ c #8044CA",
"/ c #8D42CD",
"( c #8E40CE",
") c #8E41CE",
"_ c #8F41CE",
"` c #8E42CE",
"' c None",
/* pixels */
"''''''''''''''''''''''''''''''''",
"''''''''''''''''''''''''''''''''",
"''''''''''''''''''''''''''''''''",
"''''''''''''''''''''''''''''''''",
"''''''''''''''''''''''''''''''''",
"''''''''''''''VCCCCCCCV'''''''''",
"''''''''''''AGldddddddlGA'''''''",
"'''''''''''AtfQYUUUUUYQftA''''''",
"'''''''''''Hg~)```````)~gH''''''",
"''''''''''JkI)))))))))))IkJ'''''",
"'''''''''Vz!)))))))))))))!zV''''",
"'''''''''CdY`)))))))))))`YdC''''",
"'''''''''CdU`)))))))))))`UdC''''",
"'''''''''CdU`)))))))))))`UdC''''",
"'''''''''CdU`)))))))))))`UdC''''",
"'''''''''CdU`)))))`)))))`UdC''''",
"'''''''''CdU`)))(WTW()))`UdC''''",
"'''''''''CdU`)))IipiI)))`UdC''''",
"'''''''''CdU`)(I0:-:0I()`UdC''''",
"'''''''''CdU`)Wi:*&*:iW)`UdC''''",
"'''''''''CdU``Ta;%O%;aT``UdC''''",
"'''''''''CdU``Ts=#X#=sT``UdC''''",
"'''''''''CdU``Ts=@.@=sT``UdC''''",
"'''''''''CdU``Ta=+ +=aT``UdC''''",
"'''''''''CdU)_Eq>$o$>qE_)UdC''''",
"'''''''''CjY/^KMvc9cvMK^/YjC''''",
"'''''''''CdRL<754686457<LRdC''''",
"'''''''''ChPFmbnnnnnnnbmFPhC''''",
"'''''''''Zw,1233333333321,wZ''''",
"'''''''''ZrxNBBBBBBBBBBBNxrZ''''",
"'''''''''SeyuuuuuuuuuuuuuyeS''''",
"'''''''''DSZZZZZZZZZZZZZZZSD''''"
};
