/* XPM */
static char *result[] = {
/* columns rows colors chars-per-pixel */
"32 32 4 1 ",
"  c #FFA300",
". c #FFEC27",
"X c white",
"o c None",
/* pixels */
"oooooooooooooooooooooooooooooooo",
"oooooooooooooooooooooooooooooooo",
"oooooooooooooooooooooooooooooooo",
"oooooooooooooooooooooooooooooooo",
"oooooooooooooooooooooooooooooooo",
"oooooooooo            oooooooooo",
"ooooooooo              ooooooooo",
"oooooooo   ..........   oooooooo",
"ooooooo   ............   ooooooo",
"ooooooo  ...        ..X  ooooooo",
"ooooooo  ..          XX  ooooooo",
"ooooooo  ..         .XX  ooooooo",
"ooooooo  ...       .XXX  ooooooo",
"ooooooo   ........XXXX   ooooooo",
"oooooooo   ......XXXX   oooooooo",
"ooooooooo     ..XX     ooooooooo",
"oooooooooo    .XXX    oooooooooo",
"oooooooooooo  XXXX  oooooooooooo",
"oooooooooooo  XXXX  oooooooooooo",
"oooooooooooo  XXXX     ooooooooo",
"oooooooooooo  XXXX      oooooooo",
"oooooooooooo  XXXXXXX.  oooooooo",
"oooooooooooo  XXXXXX..  oooooooo",
"oooooooooooo  XXXXX     oooooooo",
"oooooooooooo  XXXX.     oooooooo",
"oooooooooooo  XXX.....  oooooooo",
"oooooooooooo  XX......  oooooooo",
"oooooooooooo  X...      oooooooo",
"oooooooooooo   ..      ooooooooo",
"ooooooooooooo      ooooooooooooo",
"oooooooooooooo    oooooooooooooo",
"oooooooooooooooooooooooooooooooo"
};
