/* XPM */
static char *result[] = {
/* columns rows colors chars-per-pixel */
"32 32 3 1 ",
"  c #FFA300",
". c #FFEC27",
"X c None",
/* pixels */
"XXXXXXXXXXXXXXXXXXXXXXXXXXXXXXXX",
"XXXXXXXXXXXXXXXXXXXXXXXXXXXXXXXX",
"XXXXXXXXXXXXXXXXXXXXXXXXXXXXXXXX",
"XXXXXXXXXXXXXXXXXXXXXXXXXXXXXXXX",
"XXXXXXXXXXXXXXXXXXXXXXXXXXXXXXXX",
"XXXXXXXXXXX         XXXXXXXXXXXX",
"XXXXXXXXXX           XXXXXXXXXXX",
"XXXXXXXXX   .......   XXXXXXXXXX",
"XXXXXXXX   .........   XXXXXXXXX",
"XXXXXXXX  ....     ..  XXXXXXXXX",
"XXXXXXXX  ...       .  XXXXXXXXX",
"XXXXXXXX  ...       .  XXXXXXXXX",
"XXXXXXXX  ....     ..  XXXXXXXXX",
"XXXXXXXX   .........   XXXXXXXXX",
"XXXXXXXXX   .......   XXXXXXXXXX",
"XXXXXXXXXX     ...   XXXXXXXXXXX",
"XXXXXXXXXXX    ...  XXXXXXXXXXXX",
"XXXXXXXXXXXX  ....  XXXXXXXXXXXX",
"XXXXXXXXXXXX  ....  XXXXXXXXXXXX",
"XXXXXXXXXX     ...  XXXXXXXXXXXX",
"XXXXXXXXX      ...  XXXXXXXXXXXX",
"XXXXXXXXX  .......  XXXXXXXXXXXX",
"XXXXXXXXX  .......  XXXXXXXXXXXX",
"XXXXXXXXX     ....  XXXXXXXXXXXX",
"XXXXXXXXX     ....  XXXXXXXXXXXX",
"XXXXXXXXX  .......  XXXXXXXXXXXX",
"XXXXXXXXX  .......  XXXXXXXXXXXX",
"XXXXXXXXX      ...  XXXXXXXXXXXX",
"XXXXXXXXXX      .   XXXXXXXXXXXX",
"XXXXXXXXXXXXX      XXXXXXXXXXXXX",
"XXXXXXXXXXXXXX    XXXXXXXXXXXXXX",
"XXXXXXXXXXXXXXXXXXXXXXXXXXXXXXXX"
};
