/* XPM */
static char *result[] = {
/* columns rows colors chars-per-pixel */
"32 32 4 1 ",
"  c #FFA300",
". c #FFEC27",
"X c white",
"o c None",
/* pixels */
"oooooooooooooooooooooooooooooooo",
"oooooooooooooooooooooooooooooooo",
"oooooooooooooooooooooooooooooooo",
"oooooooooooooooooooooooooooooooo",
"oooooooooooooooooooooooooooooooo",
"ooooooooooooo      ooooooooooooo",
"oooooooooooo        oooooooooooo",
"oooooooooooo   XX   oooooooooooo",
"oooooooooooo  XXXX  oooooooooooo",
"oooooooooooo  XXX.  oooooooooooo",
"oooooooooooo  XX..  oooooooooooo",
"oooooooooooo  X...  oooooooooooo",
"oooooooooooo  ....  oooooooooooo",
"oooooooooooo  ....  oooooooooooo",
"oooooooooooo  ....  oooooooooooo",
"oooooooooooo   ..   oooooooooooo",
"oooooooooooo        oooooooooooo",
"oooooooooooo        oooooooooooo",
"oooooooooooo  ....  oooooooooooo",
"oooooooooooo  ....  oooooooooooo",
"oooooooooooo  ....  oooooooooooo",
"oooooooooooo  ....  oooooooooooo",
"oooooooooooo  ....  oooooooooooo",
"oooooooooooo  ....  oooooooooooo",
"oooooooooooo  ....  oooooooooooo",
"oooooooooooo  ....  oooooooooooo",
"oooooooooooo  ....  oooooooooooo",
"oooooooooooo  ....  oooooooooooo",
"oooooooooooo   ..   oooooooooooo",
"ooooooooooooo      ooooooooooooo",
"oooooooooooooo    oooooooooooooo",
"oooooooooooooooooooooooooooooooo"
};
