/* XPM */
static char *result[] = {
/* columns rows colors chars-per-pixel */
"32 32 4 1 ",
"  c #FFA300",
". c #FFEC27",
"X c white",
"o c None",
/* pixels */
"oooooooooooooooooooooooooooooooo",
"oooooooooooooooooooooooooooooooo",
"oooooooooooooooooooooooooooooooo",
"oooooooooooooooooooooooooooooooo",
"oooooooooooooooooooooooooooooooo",
"ooooooooooo         oooooooooooo",
"oooooooooo           ooooooooooo",
"ooooooooo   ..XXXXX   oooooooooo",
"oooooooo   ..XXXXXXX   ooooooooo",
"oooooooo  ..XX.....XX  ooooooooo",
"oooooooo  .XX.......X  ooooooooo",
"oooooooo  XXX.......X  ooooooooo",
"oooooooo  XXXX.....X.  ooooooooo",
"oooooooo   XXXXXXXX.   ooooooooo",
"ooooooooo   XXXXXX.   oooooooooo",
"oooooooooo     XX.   ooooooooooo",
"ooooooooooo    X..  oooooooooooo",
"oooooooooooo  X...  oooooooooooo",
"oooooooooooo  ....  oooooooooooo",
"oooooooooooo  ....    oooooooooo",
"oooooooooooo  ....     ooooooooo",
"oooooooooooo  .......  ooooooooo",
"oooooooooooo  .......  ooooooooo",
"oooooooooooo  .....    ooooooooo",
"oooooooooooo  .....    ooooooooo",
"oooooooooooo  .......  ooooooooo",
"oooooooooooo  .......  ooooooooo",
"oooooooooooo  ....     ooooooooo",
"oooooooooooo   ..     oooooooooo",
"ooooooooooooo      ooooooooooooo",
"oooooooooooooo    oooooooooooooo",
"oooooooooooooooooooooooooooooooo"
};
