/* XPM */
static char *result[] = {
/* columns rows colors chars-per-pixel */
"32 32 4 1 ",
"  c #FFA300",
". c #FFEC27",
"X c white",
"o c None",
/* pixels */
"oooooooooooooooooooooooooooooooo",
"oooooooooooooooooooooooooooooooo",
"oooooooooooooooooooooooooooooooo",
"oooooooooooooooooooooooooooooooo",
"oooooooooooooooooooooooooooooooo",
"oooooooooooo         ooooooooooo",
"ooooooooooo           oooooooooo",
"oooooooooo   .......   ooooooooo",
"ooooooooo   .........   oooooooo",
"ooooooooo  ..     ....  oooooooo",
"ooooooooo  .       ...  oooooooo",
"ooooooooo  .       ...  oooooooo",
"ooooooooo  ..     ....  oooooooo",
"ooooooooo   .........   oooooooo",
"oooooooooo   .......   ooooooooo",
"ooooooooooo   ...     oooooooooo",
"oooooooooooo  ...    ooooooooooo",
"oooooooooooo  ....  oooooooooooo",
"oooooooooooo  ....  oooooooooooo",
"oooooooooooo  ...     oooooooooo",
"oooooooooooo  ...      ooooooooo",
"oooooooooooo  ....XXX  ooooooooo",
"oooooooooooo  ...XXXX  ooooooooo",
"oooooooooooo  ..XX...  ooooooooo",
"oooooooooooo  .XXX...  ooooooooo",
"oooooooooooo  XXXXXXX  ooooooooo",
"oooooooooooo  XXXXXXX  ooooooooo",
"oooooooooooo  XXX      ooooooooo",
"oooooooooooo   X      oooooooooo",
"ooooooooooooo      ooooooooooooo",
"oooooooooooooo    oooooooooooooo",
"oooooooooooooooooooooooooooooooo"
};
